<?xml version="1.0" encoding="utf-8"?>
<!-- Generator: Adobe Illustrator 16.0.0, SVG Export Plug-In . SVG Version: 6.00 Build 0)  -->
<!DOCTYPE svg PUBLIC "-//W3C//DTD SVG 1.1//EN" "http://www.w3.org/Graphics/SVG/1.1/DTD/svg11.dtd">
<svg version="1.1" id="Layer_1" xmlns="http://www.w3.org/2000/svg" xmlns:xlink="http://www.w3.org/1999/xlink" x="0px" y="0px"
	 width="64px" height="64px" viewBox="0 0 64 64" enable-background="new 0 0 64 64" xml:space="preserve">
<rect fill-rule="evenodd" clip-rule="evenodd" fill="#BDE9CD" width="64" height="64"/>
<polygon fill-rule="evenodd" clip-rule="evenodd" fill="#6D9573" points="47.456,9.952 48.544,9.952 48.544,12.896 51.467,12.896 
	51.467,13.984 48.544,13.984 48.544,22.047 47.456,22.047 47.456,13.984 44.532,13.984 44.532,12.896 47.456,12.896 "/>
<path fill-rule="evenodd" clip-rule="evenodd" fill="#6D9573" d="M13.601,21.02h4.798v-7.64c0-1.318-1.081-2.399-2.398-2.399
	c-1.318,0-2.399,1.082-2.399,2.399V21.02z M12.512,22.108h6.975V13.38c0-1.918-1.569-3.488-3.487-3.488
	c-1.918,0-3.488,1.569-3.488,3.488V22.108z"/>
<polygon fill-rule="evenodd" clip-rule="evenodd" fill="#6D9573" points="16.544,41.952 15.456,41.952 15.456,44.896 12.532,44.896 
	12.532,45.984 15.456,45.984 15.456,54.048 16.544,54.048 16.544,45.984 19.467,45.984 19.467,44.896 16.544,44.896 "/>
<path fill-rule="evenodd" clip-rule="evenodd" fill="#6D9573" d="M50.398,53.021h-4.798v-7.642c0-1.316,1.081-2.398,2.399-2.398
	c1.317,0,2.398,1.082,2.398,2.398V53.021z M51.487,54.108h-6.975v-8.729c0-1.918,1.569-3.486,3.487-3.486s3.487,1.568,3.487,3.486
	V54.108z"/>
</svg>
