<?xml version="1.0" encoding="utf-8"?>
<!-- Generator: Adobe Illustrator 16.0.0, SVG Export Plug-In . SVG Version: 6.00 Build 0)  -->
<!DOCTYPE svg PUBLIC "-//W3C//DTD SVG 1.1//EN" "http://www.w3.org/Graphics/SVG/1.1/DTD/svg11.dtd">
<svg version="1.1" id="Layer_1" xmlns="http://www.w3.org/2000/svg" xmlns:xlink="http://www.w3.org/1999/xlink" x="0px" y="0px"
	 width="64px" height="64px" viewBox="0 0 64 64" enable-background="new 0 0 64 64" xml:space="preserve">
<rect fill-rule="evenodd" clip-rule="evenodd" fill="#DBF9B7" width="64" height="64"/>
<path fill-rule="evenodd" clip-rule="evenodd" fill="#A1CC82" d="M20,22.162c1.016,0,1.838,0.823,1.838,1.838
	c0,1.015-0.823,1.838-1.838,1.838S18.162,25.015,18.162,24C18.162,22.984,18.984,22.162,20,22.162"/>
<path fill-rule="evenodd" clip-rule="evenodd" fill="#A1CC82" d="M44,22.162c1.016,0,1.839,0.823,1.839,1.838
	c0,1.015-0.823,1.838-1.839,1.838S42.162,25.015,42.162,24C42.162,22.984,42.984,22.162,44,22.162"/>
<path fill-rule="evenodd" clip-rule="evenodd" fill="#A1CC82" d="M32,6.162c1.015,0,1.837,0.823,1.837,1.838S33.016,9.838,32,9.838
	c-1.016,0-1.838-0.823-1.838-1.838S30.985,6.162,32,6.162"/>
<path fill-rule="evenodd" clip-rule="evenodd" fill="#A1CC82" d="M56,6.162c1.016,0,1.838,0.823,1.838,1.838S57.016,9.838,56,9.838
	S54.162,9.016,54.162,8S54.984,6.162,56,6.162"/>
<path fill-rule="evenodd" clip-rule="evenodd" fill="#A1CC82" d="M8,6.162c1.016,0,1.838,0.823,1.838,1.838S9.016,9.838,8,9.838
	S6.162,9.016,6.162,8S6.984,6.162,8,6.162"/>
<path fill-rule="evenodd" clip-rule="evenodd" fill="#A1CC82" d="M20,54.138c1.016,0,1.838,0.823,1.838,1.839
	c0,1.015-0.823,1.838-1.838,1.838s-1.838-0.823-1.838-1.838C18.162,54.961,18.984,54.138,20,54.138"/>
<path fill-rule="evenodd" clip-rule="evenodd" fill="#A1CC82" d="M44,54.138c1.016,0,1.839,0.823,1.839,1.839
	c0,1.015-0.823,1.838-1.839,1.838s-1.838-0.823-1.838-1.838C42.162,54.961,42.984,54.138,44,54.138"/>
<path fill-rule="evenodd" clip-rule="evenodd" fill="#A1CC82" d="M32,38.138c1.015,0,1.837,0.822,1.837,1.838
	S33.016,41.813,32,41.813c-1.016,0-1.838-0.822-1.838-1.838S30.985,38.138,32,38.138"/>
<path fill-rule="evenodd" clip-rule="evenodd" fill="#A1CC82" d="M56,38.138c1.016,0,1.838,0.822,1.838,1.838
	S57.016,41.813,56,41.813s-1.838-0.822-1.838-1.838S54.984,38.138,56,38.138"/>
<path fill-rule="evenodd" clip-rule="evenodd" fill="#A1CC82" d="M8,38.138c1.016,0,1.838,0.822,1.838,1.838S9.016,41.813,8,41.813
	s-1.838-0.822-1.838-1.838S6.984,38.138,8,38.138"/>
</svg>
