<?xml version="1.0" encoding="utf-8"?>
<!-- Generator: Adobe Illustrator 16.0.0, SVG Export Plug-In . SVG Version: 6.00 Build 0)  -->
<!DOCTYPE svg PUBLIC "-//W3C//DTD SVG 1.1//EN" "http://www.w3.org/Graphics/SVG/1.1/DTD/svg11.dtd">
<svg version="1.1" id="Layer_1" xmlns="http://www.w3.org/2000/svg" xmlns:xlink="http://www.w3.org/1999/xlink" x="0px" y="0px"
	 width="64px" height="64px" viewBox="0 0 64 64" enable-background="new 0 0 64 64" xml:space="preserve">
<polygon fill-rule="evenodd" clip-rule="evenodd" fill="#5FA7FF" points="19.905,27.795 25.234,27.795 21.826,21.891 22.873,21.286 
	25.339,25.558 25.339,18.331 26.548,18.331 26.548,25.588 29.032,21.286 30.079,21.891 26.67,27.795 32,27.795 32,29.67 
	19.905,29.67 "/>
<rect x="35.904" y="27.795" fill-rule="evenodd" clip-rule="evenodd" fill="#5FA7FF" width="12.096" height="1.875"/>
<rect x="3.905" y="27.795" fill-rule="evenodd" clip-rule="evenodd" fill="#5FA7FF" width="12.095" height="1.875"/>
<polygon fill-rule="evenodd" clip-rule="evenodd" fill="#5FA7FF" points="51.905,27.795 57.234,27.795 53.825,21.891 54.872,21.286 
	57.339,25.558 57.339,18.331 58.548,18.331 58.548,25.588 61.031,21.286 62.079,21.891 58.671,27.795 64,27.795 64,29.67 
	51.905,29.67 "/>
<polygon fill-rule="evenodd" clip-rule="evenodd" fill="#5FA7FF" points="0,11.795 5.33,11.795 1.921,5.891 2.968,5.286 
	5.434,9.557 5.434,2.33 6.644,2.33 6.644,9.588 9.127,5.286 10.174,5.891 6.766,11.795 12.095,11.795 12.095,13.669 0,13.669 "/>
<rect x="16" y="11.795" fill-rule="evenodd" clip-rule="evenodd" fill="#5FA7FF" width="12.095" height="1.874"/>
<polygon fill-rule="evenodd" clip-rule="evenodd" fill="#5FA7FF" points="32,11.795 37.33,11.795 33.921,5.891 34.968,5.286 
	37.434,9.557 37.434,2.33 38.644,2.33 38.644,9.588 41.127,5.286 42.174,5.891 38.766,11.795 44.095,11.795 44.095,13.669 
	32,13.669 "/>
<rect x="48" y="11.795" fill-rule="evenodd" clip-rule="evenodd" fill="#5FA7FF" width="12.095" height="1.874"/>
<polygon fill-rule="evenodd" clip-rule="evenodd" fill="#5FA7FF" points="0,43.795 5.33,43.795 1.921,37.891 2.968,37.286 
	5.434,41.557 5.434,34.33 6.644,34.33 6.644,41.588 9.127,37.286 10.174,37.891 6.766,43.795 12.095,43.795 12.095,45.67 0,45.67 
	"/>
<rect x="16" y="43.795" fill-rule="evenodd" clip-rule="evenodd" fill="#5FA7FF" width="12.095" height="1.875"/>
<polygon fill-rule="evenodd" clip-rule="evenodd" fill="#5FA7FF" points="32,43.795 37.33,43.795 33.921,37.891 34.968,37.286 
	37.434,41.557 37.434,34.33 38.644,34.33 38.644,41.588 41.127,37.286 42.174,37.891 38.766,43.795 44.095,43.795 44.095,45.67 
	32,45.67 "/>
<rect x="48" y="43.795" fill-rule="evenodd" clip-rule="evenodd" fill="#5FA7FF" width="12.095" height="1.875"/>
<polygon fill-rule="evenodd" clip-rule="evenodd" fill="#5FA7FF" points="19.905,59.795 25.234,59.795 21.826,53.891 22.873,53.286 
	25.339,57.558 25.339,50.33 26.548,50.33 26.548,57.588 29.032,53.286 30.079,53.891 26.67,59.795 32,59.795 32,61.67 19.905,61.67 
	"/>
<rect x="35.904" y="59.795" fill-rule="evenodd" clip-rule="evenodd" fill="#5FA7FF" width="12.096" height="1.875"/>
<rect x="3.905" y="59.795" fill-rule="evenodd" clip-rule="evenodd" fill="#5FA7FF" width="12.095" height="1.875"/>
<polygon fill-rule="evenodd" clip-rule="evenodd" fill="#5FA7FF" points="51.905,59.795 57.234,59.795 53.825,53.891 54.872,53.286 
	57.339,57.558 57.339,50.33 58.548,50.33 58.548,57.588 61.031,53.286 62.079,53.891 58.671,59.795 64,59.795 64,61.67 
	51.905,61.67 "/>
<rect x="6.505" y="50.33" fill-rule="evenodd" clip-rule="evenodd" fill="#5FA7FF" width="6.894" height="0.968"/>
<rect x="38.505" y="50.33" fill-rule="evenodd" clip-rule="evenodd" fill="#5FA7FF" width="6.895" height="0.968"/>
<rect x="50.601" y="34.33" fill-rule="evenodd" clip-rule="evenodd" fill="#5FA7FF" width="6.894" height="0.968"/>
<rect x="18.601" y="34.33" fill-rule="evenodd" clip-rule="evenodd" fill="#5FA7FF" width="6.895" height="0.968"/>
<rect x="6.505" y="18.331" fill-rule="evenodd" clip-rule="evenodd" fill="#5FA7FF" width="6.894" height="0.968"/>
<rect x="38.505" y="18.331" fill-rule="evenodd" clip-rule="evenodd" fill="#5FA7FF" width="6.895" height="0.968"/>
<rect x="50.601" y="2.33" fill-rule="evenodd" clip-rule="evenodd" fill="#5FA7FF" width="6.894" height="0.968"/>
<rect x="18.601" y="2.33" fill-rule="evenodd" clip-rule="evenodd" fill="#5FA7FF" width="6.895" height="0.968"/>
</svg>
