<svg enable-background="new 0 0 64 64" version="1.1" viewBox="0 0 64 64" xml:space="preserve" xmlns="http://www.w3.org/2000/svg"><g clip-rule="evenodd" fill-rule="evenodd">
<rect width="64" height="64" fill="#c3c346" opacity=".5"/><g fill="#8F8F17">
<path d="m20.936 12.866c-0.015-0.115-0.012-0.032 0.028-0.063h0.128l-0.184-0.025c-2e-3 0.095-0.019 0.027 0.028 0.088m-1.435 0.663c0.129 0.779 1.346 0.629 1.238-0.203-0.041-0.308-0.358-0.582-0.73-0.525-0.303 0.047-0.57 0.356-0.508 0.728zm-12.682 0.058c0.227-0.815-1.006-1.123-1.208-0.332-0.097 0.38 0.169 0.697 0.444 0.768 0.371 0.096 0.686-0.155 0.764-0.436zm10.212 0.551c0.088 0.523 0.621 0.98 1.269 0.875 0.54-0.087 1.009-0.621 0.896-1.279-0.091-0.533-0.634-1.006-1.292-0.882-0.541 0.102-0.985 0.626-0.873 1.286zm-2.808-0.116c0.087-0.644-0.378-1.157-0.922-1.235-0.663-0.096-1.178 0.374-1.255 0.923-0.094 0.663 0.375 1.173 0.938 1.251 0.644 0.09 1.163-0.382 1.239-0.939zm0.309-0.116c0.019 0.591 0.515 1.079 1.123 1.065 0.603-0.015 1.092-0.503 1.077-1.124-0.033-1.459-2.247-1.389-2.2 0.059zm-7.413 0.116c0.167 1.39 2.354 1.178 2.18-0.288-0.167-1.408-2.36-1.198-2.18 0.288zm4.662 0c0.179-1.47-1.99-1.701-2.177-0.315-0.202 1.5 2.007 1.706 2.177 0.315zm-7.608-6.069v0.719l7.175 0.246-3e-3 -0.984-7.172 0.019zm3.703 7.78h10.625c0.127-0.064 0.41-0.149 0.564-0.217 0.621-0.276 0.908-0.457 1.483-0.779 0.604-0.338 1.251-0.935 0.875-1.928l-0.332-7e-3h-0.128c-0.04 0.032-0.043-0.052-0.028 0.063 0.128 0.86 0.176 1.075-0.838 1.565-0.294 0.142-0.588 0.283-0.881 0.426-0.288 0.142-0.553 0.351-0.919 0.35-1.721-8e-3 -3.443-1e-3 -5.164-2e-3 -1.708 0-3.461 0.039-5.163 1e-3 -0.234-6e-3 -1.479-0.658-1.772-0.803-1.288-0.632-0.77-1.06-0.783-1.617l-0.496 0.021c-0.367 1.045 0.271 1.576 0.902 1.943 0.496 0.288 0.979 0.545 1.509 0.783 0.154 0.072 0.425 0.142 0.546 0.201zm11.2-8.816h-0.215c-0.206 0.093-3.136 0.308-3.638 0.355-1.205 0.112-2.421 0.211-3.625 0.334l3e-3 1.771c0.307 0.148 0.608 0.331 0.909 0.482 0.284 0.145 0.187 0.141 0.566 0.141h3.49l5e-3 -0.29 2.505-0.487v-2.306zm-14.903 5.118v0.217c0.179 0.258 0.183 0.185 0.87 0.186l16.53 0.029v-3.176l-4.147 0.903c-0.405 0.09-0.662 0.169-1.102 0.169h-6.264c-0.545 0-0.642 0.021-1.128 0.152l-2.977 0.794c-0.335 0.09-0.649 0.174-0.983 0.265-0.641 0.173-0.544 0.071-0.799 0.461z" opacity=".75"/>
<path d="m56.875 22.251c-0.021-0.172-0.018-0.047 0.043-0.095l0.189 1e-3 -0.272-0.039c-4e-3 0.144-0.03 0.042 0.04 0.133m-2.135 0.988c0.191 1.158 2.004 0.936 1.842-0.303-0.061-0.458-0.532-0.866-1.086-0.781-0.451 0.069-0.849 0.53-0.756 1.084zm-18.876 0.086c0.337-1.214-1.498-1.671-1.798-0.494-0.144 0.565 0.251 1.037 0.662 1.143 0.551 0.141 1.021-0.231 1.136-0.649zm15.199 0.82c0.132 0.777 0.925 1.458 1.888 1.302 0.804-0.13 1.502-0.924 1.335-1.905-0.135-0.792-0.943-1.497-1.923-1.312-0.804 0.152-1.466 0.932-1.3 1.915zm-4.179-0.172c0.129-0.959-0.563-1.722-1.372-1.839-0.987-0.143-1.754 0.557-1.868 1.373-0.139 0.987 0.559 1.747 1.395 1.863 0.959 0.133 1.733-0.57 1.845-1.397zm0.46-0.173c0.028 0.879 0.767 1.606 1.672 1.585 0.897-0.021 1.626-0.75 1.604-1.672-0.05-2.174-3.346-2.07-3.276 0.087zm-11.033 0.173c0.248 2.068 3.503 1.753 3.244-0.429-0.248-2.096-3.511-1.785-3.244 0.429zm6.938 0c0.268-2.188-2.962-2.533-3.239-0.47-0.301 2.233 2.987 2.538 3.239 0.47zm-11.324-9.034v1.069l10.68 0.367-4e-3 -1.465-10.676 0.029zm5.513 11.58h15.814c0.188-0.096 0.609-0.222 0.839-0.324 0.924-0.411 1.352-0.678 2.208-1.158 0.9-0.504 1.863-1.392 1.304-2.87l-0.495-0.01-0.189-1e-3c-0.061 0.048-0.064-0.078-0.043 0.095 0.19 1.279 0.261 1.6-1.247 2.33-0.438 0.211-0.876 0.421-1.311 0.635-0.43 0.211-0.824 0.522-1.369 0.52-2.561-0.012-5.124-1e-3 -7.685-2e-3 -2.544-1e-3 -5.151 0.058-7.687 1e-3 -0.348-8e-3 -2.2-0.979-2.639-1.194-1.916-0.941-1.144-1.578-1.164-2.407l-0.738 0.032c-0.547 1.556 0.403 2.345 1.343 2.892 0.738 0.429 1.456 0.811 2.245 1.166 0.231 0.102 0.633 0.207 0.814 0.295zm16.668-13.123h-0.319c-0.308 0.139-4.667 0.459-5.415 0.529-1.793 0.167-3.602 0.315-5.394 0.498l4e-3 2.637c0.456 0.22 0.905 0.492 1.353 0.717 0.422 0.213 0.279 0.209 0.842 0.206h5.195l7e-3 -0.43 3.729-0.725-2e-3 -3.432zm-22.181 7.618v0.322c0.266 0.384 0.272 0.275 1.295 0.277l24.604 0.044v-4.727l-6.173 1.343c-0.604 0.135-0.986 0.252-1.64 0.251h-9.324c-0.812 0-0.956 0.031-1.68 0.226l-4.43 1.182c-0.499 0.135-0.966 0.26-1.465 0.395-0.951 0.258-0.807 0.106-1.187 0.687z" opacity=".75"/>
<path d="m31.115 45.758c-0.021-0.172-0.018-0.046 0.042-0.094l0.189 1e-3 -0.272-0.038c-4e-3 0.143-0.03 0.041 0.041 0.131m-2.136 0.988c0.191 1.158 2.004 0.937 1.842-0.303-0.06-0.458-0.531-0.866-1.086-0.781-0.451 0.069-0.847 0.529-0.756 1.084zm-18.875 0.086c0.337-1.214-1.498-1.671-1.798-0.493-0.144 0.564 0.251 1.036 0.661 1.143 0.552 0.141 1.021-0.232 1.137-0.65zm15.199 0.82c0.132 0.777 0.926 1.459 1.889 1.303 0.804-0.131 1.502-0.924 1.334-1.905-0.134-0.792-0.942-1.497-1.922-1.313-0.806 0.153-1.467 0.932-1.301 1.915zm-4.18-0.173c0.13-0.958-0.563-1.722-1.372-1.838-0.986-0.144-1.753 0.556-1.868 1.373-0.139 0.987 0.559 1.746 1.396 1.862 0.959 0.135 1.733-0.568 1.844-1.397zm0.461-0.171c0.027 0.879 0.766 1.606 1.672 1.585 0.896-0.021 1.625-0.75 1.604-1.673-0.05-2.173-3.345-2.07-3.276 0.088zm-11.034 0.171c0.249 2.069 3.504 1.754 3.244-0.429-0.248-2.095-3.51-1.783-3.244 0.429zm6.939 0c0.267-2.188-2.963-2.532-3.239-0.469-0.301 2.234 2.987 2.539 3.239 0.469zm-11.324-9.033v1.069l10.68 0.367-5e-3 -1.466-10.675 0.03zm5.513 11.58h15.813c0.189-0.096 0.61-0.223 0.839-0.324 0.925-0.41 1.353-0.678 2.209-1.157 0.899-0.505 1.862-1.394 1.303-2.87l-0.495-0.01-0.189-1e-3c-0.06 0.048-0.063-0.078-0.042 0.094 0.189 1.279 0.261 1.601-1.248 2.33-0.437 0.211-0.875 0.422-1.31 0.635-0.43 0.211-0.825 0.522-1.369 0.52-2.562-0.012-5.124-1e-3 -7.686-2e-3 -2.543-1e-3 -5.151 0.058-7.686 0-0.348-7e-3 -2.2-0.979-2.639-1.193-1.917-0.941-1.144-1.577-1.164-2.407l-0.738 0.032c-0.547 1.556 0.403 2.346 1.344 2.893 0.737 0.429 1.454 0.811 2.244 1.165 0.231 0.102 0.633 0.207 0.814 0.295zm16.668-13.122h-0.319c-0.307 0.139-4.667 0.459-5.414 0.528-1.794 0.166-3.603 0.315-5.395 0.498l4e-3 2.637c0.457 0.221 0.906 0.493 1.354 0.718 0.422 0.213 0.278 0.209 0.842 0.206h5.194l7e-3 -0.43 3.729-0.725-2e-3 -3.432zm-22.181 7.617v0.322c0.266 0.384 0.272 0.275 1.295 0.276l24.604 0.045v-4.727l-6.173 1.343c-0.604 0.135-0.986 0.252-1.641 0.252h-9.323c-0.812 0-0.956 0.031-1.68 0.226l-4.43 1.182c-0.499 0.135-0.967 0.261-1.465 0.396-0.951 0.257-0.808 0.104-1.187 0.685z" opacity=".75"/>
</g><path d="m55.008 55.136c-0.014-0.116-0.011-0.031 0.03-0.063l0.127 1e-3 -0.184-0.026c-2e-3 0.096-0.019 0.027 0.027 0.088m-1.434 0.663c0.129 0.779 1.347 0.63 1.237-0.202-0.04-0.309-0.357-0.582-0.729-0.525-0.304 0.046-0.569 0.355-0.508 0.727zm-12.682 0.058c0.227-0.815-1.005-1.123-1.207-0.332-0.097 0.38 0.168 0.697 0.443 0.768 0.371 0.096 0.686-0.155 0.764-0.436zm10.212 0.551c0.088 0.523 0.621 0.98 1.268 0.875 0.541-0.087 1.01-0.62 0.897-1.28-0.091-0.531-0.634-1.006-1.291-0.882-0.541 0.103-0.985 0.626-0.874 1.287zm-2.809-0.116c0.087-0.644-0.378-1.156-0.921-1.235-0.664-0.096-1.178 0.375-1.255 0.924-0.093 0.663 0.374 1.173 0.938 1.251 0.643 0.089 1.164-0.383 1.238-0.94zm0.31-0.115c0.019 0.59 0.514 1.079 1.123 1.064 0.603-0.014 1.092-0.503 1.078-1.123-0.034-1.461-2.247-1.39-2.201 0.059zm-7.414 0.115c0.168 1.391 2.354 1.179 2.18-0.287-0.166-1.409-2.358-1.199-2.18 0.287zm4.663 0c0.179-1.469-1.99-1.701-2.177-0.314-0.201 1.5 2.008 1.705 2.177 0.314zm-7.609-6.068v0.719l7.177 0.245-4e-3 -0.983zm3.704 7.78h10.625c0.127-0.064 0.41-0.149 0.564-0.219 0.621-0.275 0.908-0.455 1.483-0.777 0.604-0.339 1.251-0.936 0.875-1.928l-0.332-7e-3 -0.127-1e-3c-0.041 0.032-0.044-0.053-0.03 0.063 0.129 0.859 0.177 1.075-0.838 1.564-0.293 0.143-0.587 0.284-0.879 0.428-0.289 0.142-0.555 0.351-0.92 0.349-1.721-8e-3 -3.443 0-5.164-2e-3 -1.709 0-3.461 0.039-5.164 1e-3 -0.233-5e-3 -1.478-0.658-1.772-0.802-1.287-0.633-0.769-1.061-0.782-1.617l-0.496 0.021c-0.367 1.045 0.271 1.576 0.902 1.942 0.496 0.289 0.978 0.546 1.509 0.784 0.155 0.071 0.425 0.141 0.546 0.201zm11.199-8.816h-0.214c-0.207 0.093-3.136 0.308-3.639 0.354-1.205 0.112-2.421 0.212-3.624 0.335l3e-3 1.771c0.307 0.148 0.608 0.331 0.909 0.482 0.282 0.144 0.187 0.14 0.564 0.139h3.491l4e-3 -0.289 2.506-0.487zm-14.903 5.117v0.217c0.179 0.257 0.184 0.185 0.87 0.186l16.531 0.03v-3.176l-4.147 0.902c-0.405 0.091-0.662 0.17-1.102 0.169h-6.265c-0.545 0-0.643 0.021-1.128 0.152l-2.977 0.793c-0.335 0.091-0.649 0.176-0.984 0.266-0.639 0.173-0.543 0.071-0.798 0.461z" fill="#8f8f17" opacity=".75"/>
</g></svg>
