<?xml version="1.0" encoding="utf-8"?>
<!-- Generator: Adobe Illustrator 16.0.0, SVG Export Plug-In . SVG Version: 6.00 Build 0)  -->
<!DOCTYPE svg PUBLIC "-//W3C//DTD SVG 1.1//EN" "http://www.w3.org/Graphics/SVG/1.1/DTD/svg11.dtd">
<svg version="1.1" id="Layer_1" xmlns="http://www.w3.org/2000/svg" xmlns:xlink="http://www.w3.org/1999/xlink" x="0px" y="0px"
	 width="64px" height="64px" viewBox="0 0 64 64" enable-background="new 0 0 64 64" xml:space="preserve">
<rect fill-rule="evenodd" clip-rule="evenodd" fill="#C3C346" width="64" height="64"/>
<path fill-rule="evenodd" clip-rule="evenodd" fill="#8F8F17" d="M20.936,12.866c-0.015-0.115-0.012-0.032,0.028-0.063l0.128,0
	l-0.184-0.025C20.906,12.873,20.889,12.805,20.936,12.866 M19.501,13.529c0.129,0.779,1.346,0.629,1.238-0.203
	c-0.041-0.308-0.358-0.582-0.73-0.525C19.706,12.848,19.439,13.157,19.501,13.529z M6.819,13.587
	c0.227-0.815-1.006-1.123-1.208-0.332c-0.097,0.38,0.169,0.697,0.444,0.768C6.426,14.119,6.741,13.868,6.819,13.587z M17.031,14.138
	c0.088,0.523,0.621,0.98,1.269,0.875c0.54-0.087,1.009-0.621,0.896-1.279c-0.091-0.533-0.634-1.006-1.292-0.882
	C17.363,12.954,16.919,13.478,17.031,14.138z M14.223,14.022c0.087-0.644-0.378-1.157-0.922-1.235
	c-0.663-0.096-1.178,0.374-1.255,0.923c-0.094,0.663,0.375,1.173,0.938,1.251C13.628,15.051,14.147,14.579,14.223,14.022z
	 M14.532,13.906c0.019,0.591,0.515,1.079,1.123,1.065c0.603-0.015,1.092-0.503,1.077-1.124
	C16.699,12.388,14.485,12.458,14.532,13.906z M7.119,14.022c0.167,1.39,2.354,1.178,2.18-0.288
	C9.132,12.326,6.939,12.536,7.119,14.022z M11.781,14.022c0.179-1.47-1.99-1.701-2.177-0.315
	C9.402,15.207,11.611,15.413,11.781,14.022z M4.173,7.953v0.719l7.175,0.246l-0.003-0.984L4.173,7.953z M7.876,15.733h10.625
	c0.127-0.064,0.41-0.149,0.564-0.217c0.621-0.276,0.908-0.457,1.483-0.779c0.604-0.338,1.251-0.935,0.875-1.928l-0.332-0.007
	l-0.128,0c-0.04,0.032-0.043-0.052-0.028,0.063c0.128,0.86,0.176,1.075-0.838,1.565c-0.294,0.142-0.588,0.283-0.881,0.426
	c-0.288,0.142-0.553,0.351-0.919,0.35c-1.721-0.008-3.443-0.001-5.164-0.002c-1.708,0-3.461,0.039-5.163,0.001
	c-0.234-0.006-1.479-0.658-1.772-0.803c-1.288-0.632-0.77-1.06-0.783-1.617l-0.496,0.021c-0.367,1.045,0.271,1.576,0.902,1.943
	c0.496,0.288,0.979,0.545,1.509,0.783C7.484,15.604,7.755,15.674,7.876,15.733z M19.076,6.917h-0.215
	c-0.206,0.093-3.136,0.308-3.638,0.355c-1.205,0.112-2.421,0.211-3.625,0.334l0.003,1.771c0.307,0.148,0.608,0.331,0.909,0.482
	C12.794,10.004,12.697,10,13.076,10h3.49l0.005-0.29l2.505-0.487V6.917z M4.173,12.035v0.217c0.179,0.258,0.183,0.185,0.87,0.186
	l16.53,0.029V9.291l-4.147,0.903c-0.405,0.09-0.662,0.169-1.102,0.169H10.06c-0.545,0-0.642,0.021-1.128,0.152l-2.977,0.794
	c-0.335,0.09-0.649,0.174-0.983,0.265C4.331,11.747,4.428,11.645,4.173,12.035z"/>
<path fill-rule="evenodd" clip-rule="evenodd" fill="#8F8F17" d="M56.875,22.251c-0.021-0.172-0.018-0.047,0.043-0.095l0.189,0.001
	l-0.272-0.039C56.831,22.262,56.805,22.16,56.875,22.251 M54.74,23.239c0.191,1.158,2.004,0.936,1.842-0.303
	c-0.061-0.458-0.532-0.866-1.086-0.781C55.045,22.224,54.647,22.685,54.74,23.239z M35.864,23.325
	c0.337-1.214-1.498-1.671-1.798-0.494c-0.144,0.565,0.251,1.037,0.662,1.143C35.279,24.115,35.749,23.743,35.864,23.325z
	 M51.063,24.145c0.132,0.777,0.925,1.458,1.888,1.302c0.804-0.13,1.502-0.924,1.335-1.905c-0.135-0.792-0.943-1.497-1.923-1.312
	C51.559,22.382,50.897,23.162,51.063,24.145z M46.884,23.973c0.129-0.959-0.563-1.722-1.372-1.839
	c-0.987-0.143-1.754,0.557-1.868,1.373c-0.139,0.987,0.559,1.747,1.395,1.863C45.998,25.503,46.772,24.8,46.884,23.973z
	 M47.344,23.8c0.028,0.879,0.767,1.606,1.672,1.585c0.897-0.021,1.626-0.75,1.604-1.672C50.57,21.539,47.274,21.643,47.344,23.8z
	 M36.311,23.973c0.248,2.068,3.503,1.753,3.244-0.429C39.307,21.448,36.044,21.759,36.311,23.973z M43.249,23.973
	c0.268-2.188-2.962-2.533-3.239-0.47C39.709,25.736,42.997,26.041,43.249,23.973z M31.925,14.939v1.069l10.68,0.367l-0.004-1.465
	L31.925,14.939z M37.438,26.519h15.814c0.188-0.096,0.609-0.222,0.839-0.324c0.924-0.411,1.352-0.678,2.208-1.158
	c0.9-0.504,1.863-1.392,1.304-2.87l-0.495-0.01l-0.189-0.001c-0.061,0.048-0.064-0.078-0.043,0.095c0.19,1.279,0.261,1.6-1.247,2.33
	c-0.438,0.211-0.876,0.421-1.311,0.635c-0.43,0.211-0.824,0.522-1.369,0.52c-2.561-0.012-5.124-0.001-7.685-0.002
	c-2.544-0.001-5.151,0.058-7.687,0.001c-0.348-0.008-2.2-0.979-2.639-1.194c-1.916-0.941-1.144-1.578-1.164-2.407l-0.738,0.032
	c-0.547,1.556,0.403,2.345,1.343,2.892c0.738,0.429,1.456,0.811,2.245,1.166C36.855,26.326,37.257,26.431,37.438,26.519z
	 M54.106,13.396h-0.319c-0.308,0.139-4.667,0.459-5.415,0.529c-1.793,0.167-3.602,0.315-5.394,0.498l0.004,2.637
	c0.456,0.22,0.905,0.492,1.353,0.717c0.422,0.213,0.279,0.209,0.842,0.206h5.195l0.007-0.43l3.729-0.725L54.106,13.396z
	 M31.925,21.014v0.322c0.266,0.384,0.272,0.275,1.295,0.277l24.604,0.044v-4.727l-6.173,1.343c-0.604,0.135-0.986,0.252-1.64,0.251
	h-9.324c-0.812,0-0.956,0.031-1.68,0.226l-4.43,1.182c-0.499,0.135-0.966,0.26-1.465,0.395
	C32.161,20.585,32.305,20.433,31.925,21.014z"/>
<path fill-rule="evenodd" clip-rule="evenodd" fill="#8F8F17" d="M31.115,45.758c-0.021-0.172-0.018-0.046,0.042-0.094l0.189,0.001
	l-0.272-0.038C31.07,45.77,31.044,45.668,31.115,45.758 M28.979,46.746c0.191,1.158,2.004,0.937,1.842-0.303
	c-0.06-0.458-0.531-0.866-1.086-0.781C29.284,45.731,28.888,46.191,28.979,46.746z M10.104,46.832
	c0.337-1.214-1.498-1.671-1.798-0.493c-0.144,0.564,0.251,1.036,0.661,1.143C9.519,47.623,9.988,47.25,10.104,46.832z
	 M25.303,47.652c0.132,0.777,0.926,1.459,1.889,1.303c0.804-0.131,1.502-0.924,1.334-1.905c-0.134-0.792-0.942-1.497-1.922-1.313
	C25.798,45.89,25.137,46.669,25.303,47.652z M21.123,47.479c0.13-0.958-0.563-1.722-1.372-1.838
	c-0.986-0.144-1.753,0.556-1.868,1.373c-0.139,0.987,0.559,1.746,1.396,1.862C20.238,49.011,21.012,48.308,21.123,47.479z
	 M21.584,47.308c0.027,0.879,0.766,1.606,1.672,1.585c0.896-0.021,1.625-0.75,1.604-1.673C24.81,45.047,21.515,45.15,21.584,47.308z
	 M10.55,47.479c0.249,2.069,3.504,1.754,3.244-0.429C13.546,44.955,10.284,45.267,10.55,47.479z M17.489,47.479
	c0.267-2.188-2.963-2.532-3.239-0.469C13.949,49.244,17.237,49.549,17.489,47.479z M6.165,38.446v1.069l10.68,0.367l-0.005-1.466
	L6.165,38.446z M11.678,50.026h15.813c0.189-0.096,0.61-0.223,0.839-0.324c0.925-0.41,1.353-0.678,2.209-1.157
	c0.899-0.505,1.862-1.394,1.303-2.87l-0.495-0.01l-0.189-0.001c-0.06,0.048-0.063-0.078-0.042,0.094
	c0.189,1.279,0.261,1.601-1.248,2.33c-0.437,0.211-0.875,0.422-1.31,0.635c-0.43,0.211-0.825,0.522-1.369,0.52
	c-2.562-0.012-5.124-0.001-7.686-0.002c-2.543-0.001-5.151,0.058-7.686,0c-0.348-0.007-2.2-0.979-2.639-1.193
	c-1.917-0.941-1.144-1.577-1.164-2.407l-0.738,0.032c-0.547,1.556,0.403,2.346,1.344,2.893c0.737,0.429,1.454,0.811,2.244,1.165
	C11.095,49.833,11.497,49.938,11.678,50.026z M28.346,36.904h-0.319c-0.307,0.139-4.667,0.459-5.414,0.528
	c-1.794,0.166-3.603,0.315-5.395,0.498l0.004,2.637c0.457,0.221,0.906,0.493,1.354,0.718c0.422,0.213,0.278,0.209,0.842,0.206h5.194
	l0.007-0.43l3.729-0.725L28.346,36.904z M6.165,44.521v0.322c0.266,0.384,0.272,0.275,1.295,0.276l24.604,0.045v-4.727l-6.173,1.343
	c-0.604,0.135-0.986,0.252-1.641,0.252h-9.323c-0.812,0-0.956,0.031-1.68,0.226l-4.43,1.182c-0.499,0.135-0.967,0.261-1.465,0.396
	C6.401,44.093,6.544,43.94,6.165,44.521z"/>
<path fill-rule="evenodd" clip-rule="evenodd" fill="#8F8F17" d="M55.008,55.136c-0.014-0.116-0.011-0.031,0.03-0.063l0.127,0.001
	l-0.184-0.026C54.979,55.144,54.962,55.075,55.008,55.136 M53.574,55.799c0.129,0.779,1.347,0.63,1.237-0.202
	c-0.04-0.309-0.357-0.582-0.729-0.525C53.778,55.118,53.513,55.427,53.574,55.799z M40.892,55.857
	c0.227-0.815-1.005-1.123-1.207-0.332c-0.097,0.38,0.168,0.697,0.443,0.768C40.499,56.389,40.814,56.138,40.892,55.857z
	 M51.104,56.408c0.088,0.523,0.621,0.98,1.268,0.875c0.541-0.087,1.01-0.62,0.897-1.28c-0.091-0.531-0.634-1.006-1.291-0.882
	C51.437,55.224,50.993,55.747,51.104,56.408z M48.295,56.292c0.087-0.644-0.378-1.156-0.921-1.235
	c-0.664-0.096-1.178,0.375-1.255,0.924c-0.093,0.663,0.374,1.173,0.938,1.251C47.7,57.321,48.221,56.849,48.295,56.292z
	 M48.605,56.177c0.019,0.59,0.514,1.079,1.123,1.064c0.603-0.014,1.092-0.503,1.078-1.123
	C50.772,54.657,48.559,54.728,48.605,56.177z M41.191,56.292c0.168,1.391,2.354,1.179,2.18-0.287
	C43.205,54.596,41.013,54.806,41.191,56.292z M45.854,56.292c0.179-1.469-1.99-1.701-2.177-0.314
	C43.476,57.478,45.685,57.683,45.854,56.292z M38.245,50.224v0.719l7.177,0.245l-0.004-0.983L38.245,50.224z M41.949,58.004h10.625
	c0.127-0.064,0.41-0.149,0.564-0.219c0.621-0.275,0.908-0.455,1.483-0.777c0.604-0.339,1.251-0.936,0.875-1.928l-0.332-0.007
	l-0.127-0.001c-0.041,0.032-0.044-0.053-0.03,0.063c0.129,0.859,0.177,1.075-0.838,1.564c-0.293,0.143-0.587,0.284-0.879,0.428
	c-0.289,0.142-0.555,0.351-0.92,0.349c-1.721-0.008-3.443,0-5.164-0.002c-1.709,0-3.461,0.039-5.164,0.001
	c-0.233-0.005-1.478-0.658-1.772-0.802c-1.287-0.633-0.769-1.061-0.782-1.617l-0.496,0.021c-0.367,1.045,0.271,1.576,0.902,1.942
	c0.496,0.289,0.978,0.546,1.509,0.784C41.558,57.874,41.828,57.944,41.949,58.004z M53.148,49.188h-0.214
	c-0.207,0.093-3.136,0.308-3.639,0.354c-1.205,0.112-2.421,0.212-3.624,0.335l0.003,1.771c0.307,0.148,0.608,0.331,0.909,0.482
	c0.282,0.144,0.187,0.14,0.564,0.139h3.491l0.004-0.289l2.506-0.487L53.148,49.188z M38.245,54.305v0.217
	c0.179,0.257,0.184,0.185,0.87,0.186l16.531,0.03v-3.176l-4.147,0.902c-0.405,0.091-0.662,0.17-1.102,0.169h-6.265
	c-0.545,0-0.643,0.021-1.128,0.152l-2.977,0.793c-0.335,0.091-0.649,0.176-0.984,0.266C38.404,54.017,38.5,53.915,38.245,54.305z"/>
</svg>
