<?xml version="1.0" encoding="UTF-8" standalone="no"?>
<!-- Generator: Adobe Illustrator 16.0.0, SVG Export Plug-In . SVG Version: 6.00 Build 0)  -->

<svg
   xmlns:dc="http://purl.org/dc/elements/1.1/"
   xmlns:cc="http://creativecommons.org/ns#"
   xmlns:rdf="http://www.w3.org/1999/02/22-rdf-syntax-ns#"
   xmlns:svg="http://www.w3.org/2000/svg"
   xmlns="http://www.w3.org/2000/svg"
   xmlns:sodipodi="http://sodipodi.sourceforge.net/DTD/sodipodi-0.dtd"
   xmlns:inkscape="http://www.inkscape.org/namespaces/inkscape"
   version="1.1"
   id="Layer_1"
   x="0px"
   y="0px"
   width="64px"
   height="64px"
   viewBox="0 0 64 64"
   enable-background="new 0 0 64 64"
   xml:space="preserve"
   inkscape:version="0.91 r13725"
   sodipodi:docname="orchard.svg"><metadata
     id="metadata3416"><rdf:RDF><cc:Work
         rdf:about=""><dc:format>image/svg+xml</dc:format><dc:type
           rdf:resource="http://purl.org/dc/dcmitype/StillImage" /></cc:Work></rdf:RDF></metadata><defs
     id="defs3414" /><sodipodi:namedview
     pagecolor="#ffffff"
     bordercolor="#666666"
     borderopacity="1"
     objecttolerance="10"
     gridtolerance="10"
     guidetolerance="10"
     inkscape:pageopacity="0"
     inkscape:pageshadow="2"
     inkscape:window-width="1154"
     inkscape:window-height="841"
     id="namedview3412"
     showgrid="false"
     inkscape:zoom="3.6875"
     inkscape:cx="32"
     inkscape:cy="32"
     inkscape:window-x="0"
     inkscape:window-y="0"
     inkscape:window-maximized="0"
     inkscape:current-layer="Layer_1" /><rect
     fill-rule="evenodd"
     clip-rule="evenodd"
     fill="#E0E56A"
     width="64"
     height="64"
     id="rect3378" /><path
     fill-rule="evenodd"
     clip-rule="evenodd"
     fill="#9BBB4A"
     d="M23.965,6.767c0.662,0,1.199,0.537,1.199,1.198  c0,0.662-0.537,1.198-1.199,1.198c-0.662,0-1.198-0.536-1.198-1.198C22.767,7.304,23.303,6.767,23.965,6.767 M23.965,5.788  c1.203,0,2.177,0.975,2.177,2.177s-0.975,2.177-2.177,2.177c-1.202,0-2.176-0.974-2.176-2.177S22.763,5.788,23.965,5.788z"
     id="path3382" /><path
     fill-rule="evenodd"
     clip-rule="evenodd"
     fill="#9BBB4A"
     d="M55.965,6.767c0.662,0,1.198,0.537,1.198,1.198  c0,0.662-0.536,1.198-1.198,1.198c-0.661,0-1.198-0.536-1.198-1.198C54.767,7.304,55.304,6.767,55.965,6.767 M55.965,5.788  c1.202,0,2.177,0.975,2.177,2.177s-0.975,2.177-2.177,2.177s-2.177-0.974-2.177-2.177S54.763,5.788,55.965,5.788z"
     id="path3386" /><path
     fill-rule="evenodd"
     clip-rule="evenodd"
     fill="#9BBB4A"
     d="M39.965,22.767c-0.662,0-1.197,0.537-1.197,1.199  c0,0.662,0.535,1.198,1.197,1.198s1.199-0.537,1.199-1.198C41.164,23.303,40.627,22.767,39.965,22.767 M39.965,21.789  c-1.202,0-2.177,0.974-2.177,2.177c0,1.202,0.975,2.177,2.177,2.177c1.203,0,2.178-0.975,2.178-2.177  C42.143,22.763,41.168,21.789,39.965,21.789z"
     id="path3390" /><path
     fill-rule="evenodd"
     clip-rule="evenodd"
     fill="#9BBB4A"
     d="M7.965,22.767c-0.662,0-1.198,0.537-1.198,1.199  c0,0.662,0.536,1.198,1.198,1.198c0.661,0,1.198-0.537,1.198-1.198C9.164,23.303,8.626,22.767,7.965,22.767 M7.965,21.789  c-1.203,0-2.177,0.974-2.177,2.177c0,1.202,0.975,2.177,2.177,2.177s2.177-0.975,2.177-2.177  C10.142,22.763,9.168,21.789,7.965,21.789z"
     id="path3394" /><path
     fill-rule="evenodd"
     clip-rule="evenodd"
     fill="#9BBB4A"
     d="M23.965,38.855c0.662,0,1.199,0.537,1.199,1.198  c0,0.662-0.537,1.198-1.199,1.198c-0.662,0-1.198-0.536-1.198-1.198C22.767,39.393,23.303,38.855,23.965,38.855 M23.965,37.877  c1.203,0,2.177,0.975,2.177,2.177c0,1.203-0.975,2.178-2.177,2.178c-1.202,0-2.176-0.975-2.176-2.178  C21.789,38.852,22.763,37.877,23.965,37.877z"
     id="path3398" /><path
     fill-rule="evenodd"
     clip-rule="evenodd"
     fill="#9BBB4A"
     d="M55.965,38.855c0.662,0,1.198,0.537,1.198,1.198  c0,0.662-0.536,1.198-1.198,1.198c-0.661,0-1.198-0.536-1.198-1.198C54.767,39.393,55.304,38.855,55.965,38.855 M55.965,37.877  c1.202,0,2.177,0.975,2.177,2.177c0,1.203-0.975,2.178-2.177,2.178s-2.177-0.975-2.177-2.178  C53.788,38.852,54.763,37.877,55.965,37.877z"
     id="path3402" /><path
     fill-rule="evenodd"
     clip-rule="evenodd"
     fill="#9BBB4A"
     d="M39.965,54.855c-0.662,0-1.197,0.537-1.197,1.198  c0,0.662,0.535,1.199,1.197,1.199s1.199-0.537,1.199-1.199C41.164,55.393,40.627,54.855,39.965,54.855 M39.965,53.877  c-1.202,0-2.177,0.975-2.177,2.177s0.975,2.177,2.177,2.177c1.203,0,2.178-0.975,2.178-2.177S41.168,53.877,39.965,53.877z"
     id="path3406" /><path
     fill-rule="evenodd"
     clip-rule="evenodd"
     fill="#9BBB4A"
     d="M7.965,54.855c-0.662,0-1.198,0.537-1.198,1.198  c0,0.662,0.536,1.199,1.198,1.199c0.661,0,1.198-0.537,1.198-1.199C9.164,55.393,8.626,54.855,7.965,54.855 M7.965,53.877  c-1.203,0-2.177,0.975-2.177,2.177s0.975,2.177,2.177,2.177s2.177-0.975,2.177-2.177S9.168,53.877,7.965,53.877z"
     id="path3410" /></svg>