<svg enable-background="new 0 0 80 80" viewBox="0 0 80 80" xmlns="http://www.w3.org/2000/svg"><g fill="#ff0f0f" fill-opacity=".1535"><g><path d="m56.4 47.9c0-.1.1-.1.2-.1 0 0 .1 0 .1.1l.3 1 .1.1h1.1c.1 0 .2.1.1.2l-.9.6s-.1.1 0 .1l.3 1c0 .1 0 .1-.1.2h-.1l-.9-.6h-.1l-.9.6h-.2v-.1l.3-1v-.1l-.9-.6c-.1 0-.1-.1 0-.2l.1-.1h1.1c.1 0 .1 0 .1-.1z"/><path clip-rule="evenodd" d="m51.2 54.8c-.4.1-.7.2-1.1.4-.3.1-.7-.1-.8-.4-.1-.2 0-.5.2-.7 0 0 .1-.1.1-.2.1-.1.2-.3.3-.5.3-.4.4-.8.4-1.2 0-3.5 2.8-6.4 6.2-6.4 3.5 0 6.2 2.9 6.2 6.4 0 .4.2.8.4 1.2.1.2.3.4.4.6.3.3.3.7 0 .9-.2.2-.4.2-.7.2-.4-.1-.8-.3-1.1-.4.2 2.9-2 5.5-4.9 5.7s-5.5-2-5.7-4.9c.1-.2.1-.5.1-.7zm.5-2.6c0-2.8 2.2-5 4.9-5s4.9 2.2 4.9 5c0 .4.1.8.2 1.1-1.6-.4-3-.7-4.5-.8h-1.5c-1.4.1-2.8.3-4.3.7.2-.2.3-.6.3-1zm.9 2.2c-.4 2.2 1 4.3 3.1 4.7s4.3-1 4.7-3.1c.1-.5.1-1 0-1.6-1.1-.3-2.1-.4-3.1-.5h-1.6c-.9 0-1.9.2-3.1.5zm11.3 3.4 3.3-1.9v-8.1h1.3v15.3l-4.7-2v-3.3zm3.3-.3-2 1.1v1.7l2 .9z" fill-rule="evenodd"/><path d="m48.7 61.4c.3-.2.5-.6.3-.9s-.6-.5-.9-.3l-2.5 1.2c-.3.2-.5.6-.3.9s.6.5.9.3zm-.1 4.1c.2-.3.6-.5.9-.3l1 .5 1-.5c.3-.2.7-.1.9.3.2.3.1.7-.3.9l-1.3.7c-.2.1-.4.1-.6 0l-1.3-.7c-.3-.1-.4-.5-.3-.9z"/><path clip-rule="evenodd" d="m68.6 66.2c0-2.7-7.3-4.4-12.4-4.3-4.8.1-11.6 1.6-11.6 4.3v3.7h24zm-12.4-3c2 0 4.4.2 6.5.7l-1.4 4.6h-15.4v-2.3c0-.1 0-.3.6-.7s1.4-.8 2.5-1.1c2.1-.8 4.9-1.2 7.2-1.2zm7.8 1-1.3 4.2h4.5v-2.3s0-.3-.7-.7c-.5-.4-1.4-.8-2.5-1.2z" fill-rule="evenodd"/></g><g><path d="m20.4 13.9c0-.1.1-.1.2-.1 0 0 .1 0 .1.1l.3 1 .1.1h1.1c.1 0 .2.2.1.2l-.9.6s-.1.1 0 .1l.3 1c0 .1 0 .1-.1.2h-.1l-.9-.6h-.1l-.9.6h-.2v-.1l.3-1v-.1l-.9-.6c-.1 0-.1-.1 0-.2l.1-.1h1.1c.1 0 .1 0 .1-.1z"/><path clip-rule="evenodd" d="m15.2 20.8c-.4.1-.7.2-1.1.4-.3.1-.7-.1-.8-.4-.1-.2 0-.5.2-.7 0 0 .1-.1.1-.2.1-.1.2-.3.3-.5.3-.4.4-.8.4-1.2 0-3.5 2.8-6.4 6.2-6.4s6.2 2.9 6.2 6.4c0 .4.2.8.4 1.2.1.2.3.4.4.6.3.3.3.7 0 .9-.2.2-.4.2-.7.2-.4-.1-.8-.3-1.1-.4.2 2.9-2 5.5-4.9 5.7s-5.5-2-5.7-4.9c.1-.2.1-.5.1-.7zm.5-2.6c0-2.8 2.2-5 4.9-5s4.9 2.2 4.9 5c0 .4.1.8.2 1.1-1.6-.4-3-.7-4.5-.8h-1.5c-1.4.1-2.8.3-4.3.7.2-.2.3-.6.3-1zm.9 2.2c-.4 2.2 1 4.3 3.1 4.7s4.3-1 4.7-3.1c.1-.5.1-1 0-1.6-1.1-.3-2.1-.4-3.1-.5h-1.6c-.9 0-1.9.2-3.1.5zm11.3 3.4 3.3-1.9v-8.1h1.3v15.3l-4.7-2v-3.3zm3.3-.3-2 1.1v1.7l2 .9z" fill-rule="evenodd"/><path d="m12.7 27.4c.3-.2.5-.6.3-.9s-.6-.5-.9-.3l-2.5 1.2c-.3.2-.5.6-.3.9s.6.5.9.3zm-.1 4.1c.2-.3.6-.5.9-.3l1 .5 1-.5c.3-.2.7-.1.9.3.2.3.1.7-.3.9l-1.3.7c-.2.1-.4.1-.6 0l-1.3-.7c-.3-.1-.4-.5-.3-.9z"/><path clip-rule="evenodd" d="m32.6 32.2c0-2.7-7.3-4.4-12.4-4.3-4.8.1-11.6 1.6-11.6 4.3v3.7h24zm-12.4-3c2 0 4.4.2 6.5.7l-1.4 4.6h-15.4v-2.3c0-.1 0-.3.6-.7s1.4-.8 2.5-1.1c2.1-.8 4.9-1.2 7.2-1.2zm7.8 1-1.3 4.2h4.5v-2.3s0-.3-.7-.7c-.5-.4-1.4-.8-2.5-1.2z" fill-rule="evenodd"/><path clip-rule="evenodd" d="m22.1 45.9c-3.5 0-6.4 3-6.4 6.7 0 .4-.4 1.2-.8 1.8-.2.3.1.6.4.5.5-.2 1-.3 1.5-.4-.4 2.9 1.6 5.6 4.5 6s5.6-1.6 6-4.5c.1-.5.1-1 0-1.5.5.1 1 .3 1.5.4.3.1.6-.2.4-.5-.4-.6-.8-1.5-.8-1.8.1-3.7-2.7-6.7-6.3-6.7zm-.1 2.1c0-.1.1-.1.2-.1 0 0 .1 0 .1.1l.3 1 .1.1h1.1c.1 0 .2.2.1.2l-.9.7s-.1.1 0 .1l.3 1c0 .1 0 .1-.1.2h-.1l-.9-.6h-.1l-.9.6h-.2v-.1l.3-1v-.1l-.9-.6c-.1 0-.1-.1 0-.2l.1-.1h1.1c.1 0 .1 0 .1-.1zm-3.8 6.5c-.4 2.2 1 4.3 3.1 4.7s4.3-1 4.7-3.1c.1-.5.1-1 0-1.6-2.7-.7-5-.7-7.8 0z" fill-rule="evenodd"/><path d="m29.5 57.9 3.3-1.9v-8.1h1.3v15.3l-4.7-2v-3.3zm.5 5.2-2.1 6.8h6.2v-3.7c0-1.3-1.7-2.4-4.1-3.1z"/><path clip-rule="evenodd" d="m28.7 62.7c-2.2-.5-4.7-.8-6.9-.8-4.8.1-11.7 1.7-11.7 4.4v3.7h16.4zm-14.5 2.9c.2-.3.6-.5.9-.3l1 .5 1-.5c.3-.2.7-.1.9.3s.1.7-.3.9l-1.3.7c-.2.1-.4.1-.6 0l-1.3-.7c-.3-.1-.5-.5-.3-.9z" fill-rule="evenodd"/><path d="m14.2 61.5c.3-.2.5-.6.3-.9s-.6-.5-.9-.3l-2.5 1.2c-.3.2-.5.6-.3.9s.6.5.9.3z"/><path clip-rule="evenodd" d="m57.1 11.9c-3.5 0-6.4 3-6.4 6.7 0 .4-.4 1.2-.8 1.8-.2.3.1.6.4.5.5-.2 1-.3 1.5-.4-.4 2.9 1.6 5.6 4.5 6s5.6-1.6 6-4.5c.1-.5.1-1 0-1.5.5.1 1 .3 1.5.4.3.1.6-.2.4-.5-.4-.6-.8-1.5-.8-1.8.1-3.7-2.7-6.7-6.3-6.7zm-.1 2.1c0-.1.1-.1.2-.1 0 0 .1 0 .1.1l.3 1 .1.1h1.1c.1 0 .2.2.1.2l-.9.7s-.1.1 0 .1l.3 1c0 .1 0 .1-.1.2h-.1l-.9-.6h-.1l-.9.6h-.2v-.1l.3-1v-.1l-.9-.6c-.1 0-.1-.1 0-.2l.1-.1h1.1c.1 0 .1 0 .1-.1zm-3.8 6.5c-.4 2.2 1 4.3 3.1 4.7s4.3-1 4.7-3.1c.1-.5.1-1 0-1.6-2.7-.7-5-.7-7.8 0z" fill-rule="evenodd"/><path d="m64.5 23.9 3.3-1.9v-8.1h1.3v15.3l-4.7-2v-3.3zm.5 5.2-2.1 6.8h6.2v-3.7c0-1.3-1.7-2.4-4.1-3.1z"/><path clip-rule="evenodd" d="m63.7 28.7c-2.2-.5-4.7-.8-6.9-.8-4.8.1-11.7 1.7-11.7 4.4v3.7h16.4zm-14.5 2.9c.2-.3.6-.5.9-.3l1 .5 1-.5c.3-.2.7-.1.9.3.2.3.1.7-.3.9l-1.3.7c-.2.1-.4.1-.6 0l-1.3-.7c-.3-.1-.5-.5-.3-.9z" fill-rule="evenodd"/><path d="m49.2 27.5c.3-.2.5-.6.3-.9s-.6-.5-.9-.3l-2.5 1.2c-.3.2-.5.6-.3.9s.6.5.9.3z"/></g><path d="m-3.4-3.4h86.8v86.8h-86.8z"/></g></svg>