<?xml version="1.0" encoding="utf-8"?>
<!-- Generator: Adobe Illustrator 16.0.0, SVG Export Plug-In . SVG Version: 6.00 Build 0)  -->
<!DOCTYPE svg PUBLIC "-//W3C//DTD SVG 1.1//EN" "http://www.w3.org/Graphics/SVG/1.1/DTD/svg11.dtd">
<svg version="1.1" id="Layer_1" xmlns="http://www.w3.org/2000/svg" xmlns:xlink="http://www.w3.org/1999/xlink" x="0px" y="0px"
	 width="64px" height="64px" viewBox="0 0 64 64" enable-background="new 0 0 64 64" xml:space="preserve">
<rect y="0" fill-rule="evenodd" clip-rule="evenodd" fill="#D4D4D4" width="64" height="64"/>
<path fill-rule="evenodd" clip-rule="evenodd" fill="#BDBDBD" d="M6.333,49.059H7.87c-0.265-0.51-1-1.031-1.592-1.271l0.332-2.135
	c-0.889-0.205-1.618-3.4-2.899-4.445c-0.109,0.441-0.345,0.617-0.495,1.072c0.592,0.744,0.523-0.039,0.679,1.014
	c-0.438-0.318-0.539,0.143-0.559,0.168l-1.459-1.564c-0.394,0.316-0.346,0.572-0.911,1.215l1.61-0.066
	c0.27,0.947,1.224,0.309,1.135,1.533c0.25-0.1,0.346-0.133,0.714-0.188C4.301,45.768,5.614,48.539,6.333,49.059"/>
<path fill-rule="evenodd" clip-rule="evenodd" fill="#BDBDBD" d="M4.936,11.956l-0.242,1.717c-0.36-0.165-0.334-0.038-0.594-0.349
	c-0.071,0.942,0.613-0.265,0.414,1.635c-0.554-0.167-1.003-0.584-1.553-0.5c-0.156,0.47-0.319,0.624,0.265,0.78l-0.615,0.223
	L3.18,15.67c-1.769,0.229-0.607,0.247-1.904-0.836c-0.018,0.185-0.228,0.211-0.44,0.574c1.741,0.622,2.609,2.031,4.498,1.875
	c0.249,0.486,0.064,0.402,0.412,0.777c0.025-0.018,0.057-0.088,0.068-0.065c0.895-0.551,2.355-0.542,2.586,0.727l-1.458-0.59
	L6.738,18.59c1.21,1.32,0.541,2.93,1.195,4.393c0.307-0.525,0.662-0.298,0.947-0.606c-0.363-0.434-0.468-2.102-0.479-2.666
	c2.628,1.382,2.169,1.725,5.042,1.485c0.025,0.107-0.193,0.035,0,0.471c0.896-0.2,0.47-0.073,1.169-0.05
	c0.65-0.706,0.851-0.86,1.088-1.742c-4.704,0.99-4.574-1.5-9-4.336c0.802-0.548,0.351,0.496,0.641-0.267
	c-1.845-0.129-0.812-2.834-1.466-3.876L4.936,11.956z"/>
<path fill-rule="evenodd" clip-rule="evenodd" fill="#BDBDBD" d="M45.096,49.27l-0.243,1.717c-0.359-0.164-0.333-0.037-0.593-0.35
	c-0.07,0.941,0.613-0.264,0.413,1.637c-0.554-0.168-1.003-0.586-1.552-0.5c-0.158,0.469-0.32,0.623,0.264,0.779l-0.615,0.223
	l0.57,0.209c-1.77,0.229-0.607,0.246-1.903-0.836c-0.018,0.184-0.228,0.211-0.44,0.574c1.74,0.621,2.609,2.029,4.497,1.875
	c0.249,0.486,0.064,0.402,0.413,0.777c0.025-0.018,0.058-0.088,0.067-0.064c0.896-0.553,2.355-0.543,2.586,0.725l-1.458-0.59
	l-0.204,0.459c1.212,1.318,0.541,2.93,1.196,4.393c0.307-0.525,0.661-0.299,0.946-0.605c-0.362-0.434-0.467-2.104-0.479-2.666
	c2.628,1.381,2.169,1.725,5.043,1.484c0.024,0.107-0.194,0.035,0,0.471c0.895-0.199,0.469-0.072,1.168-0.049
	c0.65-0.705,0.852-0.859,1.089-1.742c-4.704,0.988-4.574-1.502-9-4.336c0.802-0.549,0.352,0.496,0.641-0.268
	c-1.846-0.129-0.813-2.834-1.467-3.875L45.096,49.27z"/>
<path fill-rule="evenodd" clip-rule="evenodd" fill="#BDBDBD" d="M0.902,3.607c0.426,0.267,0.242,0.297,0.93,0.297
	C1.18,5.947,5.176,5.737,5.265,7.331l0.489-1.044c-0.686-0.332-0.305,0.002-0.7-0.65c0.406-0.233,0.628-0.06,1.348-0.068
	c0.083-0.419,0.387-0.684,0.556-0.993c-0.9-0.487-0.742,0.197-0.933-0.418C5.333,4.688,3.949,3.874,3.137,3.689
	c-0.08,1.008-0.161,0.913,0.457,1.34L2.409,4.754L2.145,4.086c0.63-1.087-0.553-0.542-1.094-1.299L0.902,3.607z"/>
<path fill-rule="evenodd" clip-rule="evenodd" fill="#BDBDBD" d="M50.244,5.492c0.523-0.165,1.268,0.313,2.097,0.336
	c-1.06-1.613-1.305-2.494-3.033-3.321C49.531,3.832,50.085,4.225,50.244,5.492"/>
<path fill-rule="evenodd" clip-rule="evenodd" fill="#BDBDBD" d="M19.655,7.578l0.874,0.217c-0.373,0.719,0.133,0.858-0.063,1.38
	c1.596,0.295,2.503,0.445,3.508-0.632c-0.487-0.218-0.414,0.059-0.956,0.151c-1.046-1.67-0.206,0.359-0.878-1.16
	c-0.728,0.23-1.303-0.568-2.147-0.708C19.92,7.349,20.069,7.372,19.655,7.578"/>
<path fill-rule="evenodd" clip-rule="evenodd" fill="#BDBDBD" d="M3.559,34.821c-0.583,0.143-1.301-0.089-1.99-0.101
	c0.839,1.375,1.72,0.768,2.566,1.416c-0.228,0.687-0.17,0.109-0.667,0.686c0,0,2.858-0.121,3.654-0.686L6.618,36.11
	c0.11-0.616,0.06-0.934-0.025-1.323c-1.632,0.758-2.118-0.057-3.681-0.895C3.183,34.688,3.317,33.957,3.559,34.821"/>
<path fill-rule="evenodd" clip-rule="evenodd" fill="#BDBDBD" d="M57.779,37.447c-0.293-0.188-0.218-0.131-0.374-0.123l-0.087,0.586
	c1.123,0.74,1.613,0.58,1.841,1.061l-1.063-0.016c0.871,0.854,1.731,1.02,2.4,1.979c1.063,0.143,1.403,0.277,2.421,0.318
	c-0.025-0.025-0.071-0.092-0.086-0.066l-1.414-0.756c-0.273-0.895,0.088-0.674-0.576-1.139l0.416-0.561
	c-0.65-0.158-0.574-0.088-0.848-0.631c-0.122,0.436-0.148,0.309-0.354,0.688c-0.226-0.34-0.38-0.455-0.528-0.699
	c-0.023,0.006-0.056,0.01-0.062,0.037c-0.861-0.066-1.078-0.629-1.5-1.346L57.779,37.447z"/>
<path fill-rule="evenodd" clip-rule="evenodd" fill="#BDBDBD" d="M2.543,53.047l2.872,2.074c-0.834,1.348-0.754,0.686-2.219,1.285
	c0.914,0.898,9.986,5.791,11.241,5.24c-0.721-2.734-8.608-7.018-12.026-10.289C2.504,52.328,2.834,52.352,2.543,53.047"/>
<path fill-rule="evenodd" clip-rule="evenodd" fill="#BDBDBD" d="M24.936,2.15c0.426,0.267,0.242,0.297,0.93,0.298
	c-0.652,2.042,3.344,1.833,3.433,3.425l0.489-1.044c-0.686-0.332-0.306,0.002-0.701-0.65c0.406-0.233,0.628-0.059,1.348-0.068
	c0.083-0.419,0.387-0.684,0.556-0.993c-0.9-0.487-0.742,0.197-0.933-0.418c-0.692,0.531-2.076-0.283-2.887-0.468
	c-0.08,1.009-0.161,0.913,0.458,1.341l-1.186-0.275l-0.265-0.668c0.63-1.088-0.553-0.543-1.094-1.3L24.936,2.15z"/>
<path fill-rule="evenodd" clip-rule="evenodd" fill="#BDBDBD" d="M14.557,8.563c-0.331,0.202-0.317,0.127-0.775,0.143
	c2.085,1.397,4.492,1.829,6.883,0.669c-1.828-0.031-0.925-0.413-0.646-0.813c-0.785,0.209-0.609-0.012-1.063-0.397
	c-1.116,0.262-3.786,0.181-5.176-0.744C14.1,8.251,14.243,7.95,14.557,8.563"/>
<path fill-rule="evenodd" clip-rule="evenodd" fill="#BDBDBD" d="M29.019,24.665c-0.006-0.492-0.038-0.146,0.149-0.293
	c0.419,0.132,0.243,0.156,0.703,0.269c-0.725-0.714-3.326-1.874-3.98-2.492c-0.126,0.212-0.123,0.197-0.307,0.301
	c0.007,0.991,0.925,1.025,1.132,1.86c-1.476,0.843-2.117-2.318-3.051-3.792l0.032,1.167c-0.474-0.281-0.516-0.905-2.227-1.319
	c0.425,0.578,1.099,1.547,2.256,1.477c0,3.546,3.261,2.144,3.715,4.127l0.749-1.726C28.658,24.38,28.743,24.358,29.019,24.665"/>
<path fill-rule="evenodd" clip-rule="evenodd" fill="#BDBDBD" d="M19.58,32.421c-0.592,0.333-0.293-0.157-0.67,0.447l-1.314-0.951
	l-0.294,0.91c2.259,1.185,3.745,1.344,5.192,2.128l0.785-0.809c-0.263-0.115,0.094,0.02-0.604,0.125
	c0.278-0.563-0.114-0.735-0.047-1.21c-1.867,0.349-1.913-1.202-3.606-1.327C19.266,32.328,19.248,31.745,19.58,32.421"/>
<path fill-rule="evenodd" clip-rule="evenodd" fill="#BDBDBD" d="M17.579,19.419c-0.002-0.488-0.136-0.492,0.044-0.748
	c0.38,0.252,0.548,0.644,0.856,0.852l-0.688,0.635c1.73,0.337,1.713,5.408,3.547,4.341c0.141-0.562-0.124-1.473-0.476-2.515
	l-0.358-1.205l-0.415,0.664c-0.498-0.423-0.18-0.137-0.466-0.625l1.593-0.704c-0.423-0.232-0.516-0.25-1.163-0.297
	c-0.057-0.283-0.789-1.814-1.104-1.01c-1.989-0.834-1.738-1.14-3.064-2.199C15.838,18.786,17.264,18.322,17.579,19.419"/>
<path fill-rule="evenodd" clip-rule="evenodd" fill="#BDBDBD" d="M22.793,12.832l0.144,1.374c1.314-0.257,1.512-0.485,2.521-1.241
	l1.483,0.109c-0.49-1.402-4.952-3.166-5.729-3.451l-0.125,0.35c-0.329-0.162-0.447-0.236-0.75-0.372
	C20.95,11.164,22.512,12.902,22.793,12.832"/>
<path fill-rule="evenodd" clip-rule="evenodd" fill="#BDBDBD" d="M19.707,44.041c2.255,0.311,3.369,2.828,3.638,5.07l0.387-0.49
	l-0.376-0.664c0.739-0.988-0.029-1.996-0.358-3.143c1.459-1.494-1.639-0.475-2.141-1.643c-0.075,0.635,0.125,0.256-0.258,0.508
	c-0.649-1.246-0.846-1.525,0.102-1.961l-1.858-1.924l-0.135,0.598c-0.301-0.16-0.443-0.404-0.501-0.918l0.731,0.203l-2.411-1.408
	C17.508,40.467,18.667,41.688,19.707,44.041"/>
<path fill-rule="evenodd" clip-rule="evenodd" fill="#BDBDBD" d="M39.757,14.231c-0.571,0.7,0.077,0.886-0.519,1.461
	c0.572,0.097,0.383-0.103,0.523,0.44l-1.42-0.361c-0.053,0.19-0.071,0.359-0.056,0.4l-0.651-2.58
	c-0.027,0.383-0.004,1.862-0.192,2.074l-0.75-0.606c2.044,2.855,6.414,1.819,9.03,5.806l0.367-0.191l-0.371-0.52
	c0.456,0.234,0.146,0.171,0.7,0.216c-0.688-0.496-1.301-2.185-1.641-3.715l1.073-1.197C43.079,15.862,40.393,16.668,39.757,14.231"
	/>
<path fill-rule="evenodd" clip-rule="evenodd" fill="#BDBDBD" d="M35.484,18.664l-0.438,0.523c1.805,0.276,4.279,2.683,5.872,0.952
	c-1.052,0.424-5.757-4.074-7.116-5.158C33.849,15.609,34.64,18.544,35.484,18.664"/>
<path fill-rule="evenodd" clip-rule="evenodd" fill="#BDBDBD" d="M2.011,28.214c-1.016-0.246-0.38,0.326-1.062,0.404
	c3.204,0.231,4.373,1.962,6.463,1.064c0.143,0.324,0.057,0.697-0.184,0.749c0.903,0.755,1.212-0.384,1.26,0.665l0.59-0.316
	c0.083,0.339,0.375,1.583,0.326,1.724l4.205,0.74c-1.187-0.763-1.171-0.666-2.712-0.528c-0.388-0.703-1.573-2.897-2.053-3.23
	c0.173,0.625,0.303,0.376,0.186,1.21l-1.002-0.889c-0.12,0.198,0.153,0.244-0.181,0.274c-0.382-0.861-0.332-1.249-0.299-2.019
	c-1.771-0.169-4.098-0.143-5.781-0.696L2.011,28.214z"/>
<path fill-rule="evenodd" clip-rule="evenodd" fill="#BDBDBD" d="M8.96,35.768c-0.294-0.168-1.09-0.729-1.264-1.301l-0.771,0.352
	c0.35,0.451,1.082,0.951,0.786,1.462c1.85-0.014,3.876,3.407,6.566,3.45c-0.119-0.191-0.153-0.26-0.266-0.463
	c0.437,0.23,1.245,0.186,1.579-0.209c-1.719,0.195-3.759-1.809-4.366-3.247l0.987-0.218c-0.307-0.071-1.214-0.011-1.783-1.171
	c0.478,0.113,0.138,0.198,0.503,0.005c-0.79-0.521-0.69,0.226-1.669-0.374C9.12,35.102,9.648,34.756,8.96,35.768"/>
<path fill-rule="evenodd" clip-rule="evenodd" fill="#BDBDBD" d="M22.066,37.1c1.504,0.684,2.395,1.596,3.417,2.484l-0.338-1.691
	c0.5,0.066,0.313,0.15,0.921,0.119l-0.017-0.381c1.323,1.125,3.935,2.143,5.841,2.479c-0.101-0.574-0.16-0.412-0.296-0.908
	c-0.396,0.391-2.542,0.395-2.597-0.748l1.399,0.301c-0.043,0.332,0.104,0.148-0.183,0.285c0.483,0.002,0.414-0.102,0.481-0.242
	c1.492,0.393,1.365,0.111,1.842,0.674c0.067-0.385-0.014-0.574,1.344-0.646c-0.654-0.313-1.42-0.111-2.165-0.277l0.291-0.117
	c-1.291-0.43-3.331-0.561-3.756-2.051c-0.338,0.807,0.404,0.47,0.249,1.324c0.387-0.053,0.656-0.137,1.207,0.424
	c-1.157,0.002-1.389,0.078-1.302-0.717l-1.142-0.998l0.999-0.463c-0.57-0.068-0.691-0.222-1.132-0.265
	c0.661,0.565,0.486,0.085,0.418,0.388c-0.646,0.152-1.705-0.386-2.425-0.585c-0.198,0.41,0.172-0.079,0.065,0.626l-1.424-0.021
	c-0.514-1.351,0.465-0.121,0.994-0.304c-0.583-0.108-0.442,0.308-0.572-0.416c0.659-0.493,0.107,0.03,0.513,0
	c-0.271-0.5-0.48-0.283-0.731-0.934C23.208,35.014,22.563,36.502,22.066,37.1"/>
<path fill-rule="evenodd" clip-rule="evenodd" fill="#BDBDBD" d="M39.757,14.231c0.099-0.25-0.187-0.306-0.408-0.441
	c0.146-0.327,0.258-0.582,0.265-1.117l-0.4,0.927c-0.395-0.155-0.635-0.739-0.854-1.193l1.672-0.529
	c-0.221-0.61-1.385-1.242-2.143-1.197c0.098-0.624,0.23-0.035,0.034-0.594c1.116,0.069,1.448,0.257,2.487,0.063
	c-0.435-0.11-1.427-0.37-1.816-0.199c-0.115-0.508-0.121-0.502-0.043-0.494c-1.117-0.235-0.848-0.312-1.66,0.229
	c-1.06-0.803-4.322-3.335-3.248-4.975c-0.273-0.395-0.929-1.926-1.992-0.398c0.249,0.708,0.546,0.249,1.062,0.195
	c0.218,0.251,0.101,0.138,0.389,0.293c0.164,1.506-1.727,3.475,1.006,3.552c0.119,0.927,1.37,1.797,1.523,2.064
	c-0.396,0.275-1.258,0.125-1.727,0.131c0.249,0.233,0.486,0.452,0.797,0.608l-0.006,0.632c-0.354,0.303-0.283,0.117-0.602,0.408
	l0.432,0.295c0.159-0.225,0.806-0.446,1.051-0.879l1.501,0.292C37.141,13.957,38.87,13.716,39.757,14.231"/>
<path fill-rule="evenodd" clip-rule="evenodd" fill="#BDBDBD" d="M51.226,10.193c-1.275-0.503-0.757-0.239-0.934-0.122
	c1.076,1.929,2.917,2.507,3.927,4.723c-0.541,0.198-1.068-0.02-1.604-0.057c-0.179-0.568,0.093-0.312-0.303-0.519
	c0.104-0.56,0.12,0.119,0.183-0.362l-1.689-2.026c-0.576,0.724,0.432,0.543-0.375,1.304c0.945,0.618,0.869,1.714,1.327,2.654
	l1.436,0.024c0.265,1.328,1.446,1.748,1.636,2.785c0.085-0.144-0.076-0.246,0.38-0.42c0.799,1.087,4.771,1.833,6.093,2.09
	c-2.012-3.268-9.405-6.3-9.787-10.317c1.099,0.026,0.532,0.669,1.748,0.132c-0.378,0.917-0.32,0.81-0.112,1.062
	c0.238-0.234,0.264-0.82,0.354-1.35c-1.157-0.094-1.716-1.681-2.545-2.256C50.88,8.501,51.256,9.333,51.226,10.193"/>
<path fill-rule="evenodd" clip-rule="evenodd" fill="#BDBDBD" d="M18.413,51.625c1.393,0.498,2.574,1.375,2.62,2.885
	c-0.697,0.313-1.745,0.346-2.507,0.566c0.138,0.313,0.512,0.295,0.817,0.426c0.305-0.432,0.267-0.205,0.156-0.607
	c0.604,0.393,0.5,0.471,1.029-0.063c0.539,0.086,0.221,0.113,0.729,0.201c-0.12,0.102-0.308,0.145-0.478,0.203l0.266,1.189
	c1.633-0.039,6.314-1.238,7.033,0.797c0.497-0.098,0.475-0.162,1.062-0.135c0.419,0.91,1.839,1.943,2.81,2.352l0.111-0.357
	l0.271,0.527c0.907-0.012,1.642,0.313,1.453,1.328c1.095-0.896,1.806,0.666,1.402,1.016l0.558-0.051l0.054,0.73
	c0.06-0.195-0.035-0.273-0.097-0.732c0.986,0.232,3.028,0.887,3.68,0.451l0.256,0.439c0.182-1.049,1.17-0.828,1.307-1.877
	c-0.968-0.611-2.218-0.986-3.363-1.254c-0.144-0.404,0.012-0.904-0.423-1.189c0.313-0.297-0.231-0.189,0.582-0.293
	c-0.984,0.012-0.302-0.746-1.013-0.822c-0.171,0.377-0.035,0.582-0.049,0.975c-0.575,0.148-0.928-0.141-1.311-0.58
	c-0.412,0.42,0.116,0.207-0.449,0.436c-0.235-0.637-0.247-0.324-0.757-0.768c0.399,1.367,0.495,0.918,0.419,1.482
	c-1.678-0.6-2.799-1.688-4.5-2.576c0.625-0.252,0.899,0.135,1.604,0.154c0.201-0.207-0.206,0.064-0.043-0.391
	c0.766-0.041,1.503,0.186,2.06-0.357c-3.62-0.039-5.239-2.162-8.785-0.801c-0.074-0.15,0.003-0.264,0-0.307
	c-0.423,0.303-1.801,0.217-2.521,0.322c-0.313-0.727-1.425-2.143-1.052-2.902c-0.361-0.094-0.529-0.162-0.738-0.477
	c1.436-0.465,7.069,1.949,7.272,1.477l-1.621-0.646c-0.025-0.289,0.075-0.35,0.274-0.529c-0.894,0.08-1.23-1.049-1.443-1.742
	C25.089,50.125,19.69,51.104,18.413,51.625"/>
<path fill-rule="evenodd" clip-rule="evenodd" fill="#BDBDBD" d="M29.019,24.665c-0.422,0.134-0.037-0.026-0.207,0.239l2.456,1.593
	l-0.589,0.714c3.574,0.388,9.625,5.436,9.371,8.71c2.154,0.46,1.072,3.499-2.14,1.808c0.229,0.389,5.53,3.727,6.387,4.297
	c0.724-0.168,1.482-0.641,2.162-0.914c-0.906-0.479-1.581,0.797-2.426-0.148c0.62,0.082,1.901,0.158,1.561-0.398
	c-0.304-0.023,0.334,0.225-0.635,0.117c-0.372-0.57-0.269-1.99-0.976-2.145l-0.549-1.291l-0.315,0.299
	c-0.181-0.365-0.618-0.64-0.735-1.018l0.414,2.334c-1.357-0.561-2.37-4.615-2.14-5.985c1.237,0.336,4.97,1.081,5.093,2.177
	c1.921,1.455,2.538,3.932,4.25,5.217c-0.166,0.336-0.152,0.232-0.354,0.549c1.815,1.816,2.252,3.215,2.791,5.641
	c-0.394-0.268,2.361,4.07,2.872,5.518l0.755-0.279c0.229,0.424,0.03,0.486,0.309,0.922c0.41-0.605,0.705-0.76,1.305-1.02
	c-0.462-0.258-0.377-0.215-0.971-0.156c0.506-0.684,1.313-0.432,1.999-0.967c-0.403-0.09-1.071,0.307-2.067,0.121l0.041,0.58
	c-0.75-0.221-0.745-1.344-0.851-1.967c1.844-0.139,1.636,0.18,3.427-0.328c-0.225-0.75-0.231-0.098-0.772,0.082
	c0,0-3.777-1.016-3.785-3.432c-0.371,0.27-0.561-0.143-0.646-0.391l-0.333,0.584c-0.363-0.477-0.009-0.533-0.664-1.023
	c0.065-0.373-0.323-0.457,0.3-0.324l-0.422-0.125l-0.146-1.074c0.7,0.221,0.771,0.254,1.503,0.037c-0.957-0.406-2.675-2.553-3-2.48
	c-0.83-1.334-0.277-2.564-0.565-4.012c-0.865,1.07-1.193,0.674-2.711,0.122c0.009-1.462-1.433-1.843-2.079-2.755
	c3.845-0.335,7.142,2.621,9.968,3.418c0.305-2.828-11.865-5.328-14.297-6.862c-0.234,0.072-0.183,0.133-0.361,0.369
	c-1.131-0.587-1.822-0.698-2.652-0.54c-0.593-1.847-4.561-1.043-4.814-2.651c0.58,0.134,2.088,0.92,2.564,0.661l-0.759-0.53
	c0.228-0.432,0.496-0.766,0.62-1.062c-1.469-1.78-3.725-3.472-5.179-5.442c-0.118,0.448,0.019,0.596-0.009,1.243
	c-0.871-0.203-0.903-0.73-1.613-1.242c0.363-0.206,0.191-0.14,0.626,0.064c-0.253-0.108-0.344-0.443-0.402-0.787
	c-0.262,0.896-1.501-0.545-1.799-0.722c0.143-0.102,0.256-0.111,0.367-0.147c-0.349-0.33-0.856-0.094-1.257-0.906
	c0.938-0.167,0.166-0.119,0.641,0.472c0.493-0.015,0.595,0.072,0.961,0.169l-0.918-0.443c0.053-0.823-1.385-0.487-1.812-0.363
	c-0.371-0.342-0.78-0.433-0.905-0.92c-0.414-0.157-0.975-0.352-1.336-0.827c-0.037,0.617-0.237,0.555-0.369,1.267
	c1.842,1.703,7.154,6.361,9.287,7.125v0.926C31.645,25.917,30.538,24.726,29.019,24.665"/>
<path fill-rule="evenodd" clip-rule="evenodd" fill="#F0F0F0" d="M28.951,18.084c-0.217,0.958,1.616,1.253,2.279,2.662
	c0.423,0.898,2.53,2.262,3.305,3.261c0.727,0.937,1.823,1.771,2.753,2.474c0.479,0.361,1.071,2.583,1.988,2.789
	c0.495,0.111,3.141,1.39,4.015,1.734c0.163,0.064,5.166,1.879,3.027,0.435c-0.199-0.135-0.296-0.581-0.863-0.875
	c-3.361-1.747-5.002-1.626-7.4-4.872c-1.036-1.401-0.9-1.69-2.557-2.903c-1.211-0.888-2.644-2.785-3.942-3.31
	c-0.438-0.177-1.397-1.233-1.878-1.253C29.674,18.225,28.968,18.007,28.951,18.084"/>
<path fill-rule="evenodd" clip-rule="evenodd" fill="#F0F0F0" d="M25.641,50.014c0.251-0.016,0.33,0.385,0.627,0.754
	c0.414,0.514,0.428,0.898,1.135,1.377c1.387,0.941,0.319,1.861,2.704,2.355c0.556,0.115,2.209,0.906,2.859,0.943
	c1.056,0.061,1.44,0.469,0.7-0.271c-1.314-1.316-3.765-0.094-5.127-3.324c-0.296-0.703-2.837-3.289-2.881-1.902L25.641,50.014z"/>
<path fill-rule="evenodd" clip-rule="evenodd" fill="#F0F0F0" d="M53.856,10.054c-0.129,0.555-0.135,2.862,0.578,3.141
	c0.139,0.054,1.68,1.374,2.206,1.625c0.828,0.395,2.301,2.283,3.973,2.946c0.55,0.219,1.808,0.992,0.857-0.494
	c-0.313-0.49-1.947-2.009-2.135-2.563c-0.289-0.854-3.016-2.605-3.745-3.841C54.377,8.81,53.905,9.841,53.856,10.054"/>
<path fill-rule="evenodd" clip-rule="evenodd" fill="#F0F0F0" d="M2.145,27.123c0.169,0.065,4.624,0.65,5.31,0.65
	c1.929,0,1.812,0.153,2.558,2.081c0.232,0.602,0.748,1.908,1.432,2.032c0.866,0.157-1.61-4.454-1.785-4.748
	c-0.132-0.014-0.12-0.121-0.767-0.121c-1.792,0-3.151-0.333-5.048-0.333c-0.19,0-1.691-0.1-1.684,0.124
	C2.163,26.906,2.134,27.118,2.145,27.123"/>
<path fill-rule="evenodd" clip-rule="evenodd" fill="#F0F0F0" d="M3.022,51.357c0.127,0.412,2.703,2.236,3.157,2.633
	c1.193,1.035,3.093,1.945,4.389,3.018c0.496,0.41,1.184,0.629,1.573,1.389c0.008,0.016,3.442,3.865,2.865,2.402
	c-0.27-0.686-2.677-3.379-3.355-3.822c-0.6-0.391-1.668-2.115-2.875-2.977c-0.488-0.35-2.154-2.24-2.36-2.758
	c-0.185-0.465-2.678-3.549-2.893-0.934C3.5,50.604,2.937,51.084,3.022,51.357"/>
</svg>
