<?xml version="1.0" encoding="utf-8"?>
<!-- Generator: Adobe Illustrator 16.0.0, SVG Export Plug-In . SVG Version: 6.00 Build 0)  -->
<!DOCTYPE svg PUBLIC "-//W3C//DTD SVG 1.1//EN" "http://www.w3.org/Graphics/SVG/1.1/DTD/svg11.dtd">
<svg version="1.1" id="Layer_1" xmlns="http://www.w3.org/2000/svg" xmlns:xlink="http://www.w3.org/1999/xlink" x="0px" y="0px"
	 width="64px" height="64px" viewBox="0 0 64 64" enable-background="new 0 0 64 64" xml:space="preserve">
<rect fill-rule="evenodd" clip-rule="evenodd" fill="#D1F0AD" width="64" height="64"/>
<polygon fill-rule="evenodd" clip-rule="evenodd" fill="#A2CD83" points="11.442,10.906 14.647,10.906 11.292,7.552 12.104,6.74 
	15.404,10.04 15.404,3.945 16.553,3.945 16.553,10.082 19.896,6.74 20.708,7.552 17.353,10.906 20.514,10.906 20.514,12.055 
	11.442,12.055 "/>
<polygon fill-rule="evenodd" clip-rule="evenodd" fill="#A2CD83" points="11.442,42.906 14.647,42.906 11.292,39.552 12.104,38.74 
	15.404,42.039 15.404,35.945 16.553,35.945 16.553,42.082 19.896,38.74 20.708,39.552 17.353,42.906 20.514,42.906 20.514,44.055 
	11.442,44.055 "/>
<polygon fill-rule="evenodd" clip-rule="evenodd" fill="#A2CD83" points="43.574,26.907 46.78,26.907 43.425,23.552 44.237,22.74 
	47.537,26.04 47.537,19.944 48.686,19.944 48.686,26.082 52.028,22.74 52.84,23.552 49.485,26.907 52.646,26.907 52.646,28.055 
	43.574,28.055 "/>
<polygon fill-rule="evenodd" clip-rule="evenodd" fill="#A2CD83" points="43.574,58.907 46.78,58.907 43.425,55.552 44.237,54.739 
	47.537,58.039 47.537,51.944 48.686,51.944 48.686,58.082 52.028,54.739 52.84,55.552 49.485,58.907 52.646,58.907 52.646,60.056 
	43.574,60.056 "/>
</svg>
