<?xml version="1.0" encoding="UTF-8" standalone="no"?>
<!-- Generator: Adobe Illustrator 16.0.0, SVG Export Plug-In . SVG Version: 6.00 Build 0)  -->

<svg
   xmlns:dc="http://purl.org/dc/elements/1.1/"
   xmlns:cc="http://creativecommons.org/ns#"
   xmlns:rdf="http://www.w3.org/1999/02/22-rdf-syntax-ns#"
   xmlns:svg="http://www.w3.org/2000/svg"
   xmlns="http://www.w3.org/2000/svg"
   xmlns:sodipodi="http://sodipodi.sourceforge.net/DTD/sodipodi-0.dtd"
   xmlns:inkscape="http://www.inkscape.org/namespaces/inkscape"
   version="1.1"
   id="Layer_1"
   x="0px"
   y="0px"
   width="64px"
   height="64px"
   viewBox="0 0 64 64"
   enable-background="new 0 0 64 64"
   xml:space="preserve"
   inkscape:version="0.91 r13725"
   sodipodi:docname="vineyard.svg"><metadata
     id="metadata3375"><rdf:RDF><cc:Work
         rdf:about=""><dc:format>image/svg+xml</dc:format><dc:type
           rdf:resource="http://purl.org/dc/dcmitype/StillImage" /><dc:title></dc:title></cc:Work></rdf:RDF></metadata><defs
     id="defs3373" /><sodipodi:namedview
     pagecolor="#ffffff"
     bordercolor="#666666"
     borderopacity="1"
     objecttolerance="10"
     gridtolerance="10"
     guidetolerance="10"
     inkscape:pageopacity="0"
     inkscape:pageshadow="2"
     inkscape:window-width="1920"
     inkscape:window-height="1017"
     id="namedview3371"
     showgrid="false"
     inkscape:zoom="13.25"
     inkscape:cx="32"
     inkscape:cy="32"
     inkscape:window-x="-8"
     inkscape:window-y="-8"
     inkscape:window-maximized="1"
     inkscape:current-layer="Layer_1" /><rect
     fill-rule="evenodd"
     clip-rule="evenodd"
     fill="#E0E56A"
     width="64"
     height="64"
     id="rect3337" /><path
     fill="#9BBB4A"
     d="M8.457,10.702c0.613-0.22,1.077-0.589,1.077-1.203c0-0.586-0.483-0.805-1.077-0.942V10.702z M7.474,5.141  C6.879,5.343,6.429,5.708,6.429,6.354c0,0.625,0.465,0.872,1.044,1.02V5.141z M10.36,4.978c-0.006-0.001-0.945-0.127-1.904-0.034  V7.57c1.075,0.21,2.045,0.524,2.045,1.929c0,2.866-5.058,2.458-5.072,2.458l0.064-0.964c0.006,0,0.987,0.077,1.98-0.062V8.366  c-1.06-0.217-2.012-0.571-2.012-2.012c0-3.014,5.005-2.335,5.02-2.333L10.36,4.978z"
     id="path3339" /><path
     fill="#9BBB4A"
     d="M40.457,10.702c0.612-0.22,1.076-0.589,1.076-1.203c0-0.586-0.482-0.805-1.076-0.942V10.702z M39.474,5.141  c-0.595,0.202-1.044,0.567-1.044,1.213c0,0.625,0.464,0.872,1.044,1.02V5.141z M42.36,4.978c-0.006-0.001-0.944-0.127-1.903-0.034  V7.57c1.074,0.21,2.045,0.524,2.045,1.929c0,2.866-5.059,2.458-5.072,2.458l0.064-0.964c0.006,0,0.986,0.077,1.979-0.062V8.366  c-1.06-0.217-2.013-0.571-2.013-2.012c0-3.014,5.006-2.335,5.021-2.333L42.36,4.978z"
     id="path3343" /><path
     fill="#9BBB4A"
     d="M56.947,26.301c0.613-0.22,1.077-0.589,1.077-1.203c0-0.586-0.482-0.804-1.077-0.942V26.301z M55.965,20.741  c-0.595,0.202-1.045,0.567-1.045,1.213c0,0.625,0.466,0.872,1.045,1.02V20.741z M58.852,20.577  c-0.006-0.001-0.944-0.127-1.904-0.034v2.626c1.076,0.21,2.045,0.524,2.045,1.929c0,2.866-5.058,2.458-5.071,2.458l0.064-0.964  c0.005,0,0.986,0.077,1.979-0.062v-2.565c-1.061-0.216-2.012-0.571-2.012-2.012c0-3.014,5.005-2.335,5.02-2.333L58.852,20.577z"
     id="path3347" /><path
     fill="#9BBB4A"
     d="M24.457,26.779c0.613-0.22,1.077-0.589,1.077-1.203c0-0.586-0.483-0.804-1.077-0.941V26.779z M23.474,21.218  c-0.595,0.202-1.044,0.568-1.044,1.213c0,0.625,0.465,0.872,1.044,1.02V21.218z M26.36,21.055c-0.005,0-0.944-0.127-1.903-0.033  v2.626c1.075,0.209,2.044,0.524,2.044,1.929c0,2.866-5.057,2.458-5.072,2.457l0.064-0.964c0.005,0,0.987,0.078,1.98-0.061v-2.565  c-1.061-0.217-2.012-0.571-2.012-2.011c0-3.015,5.006-2.335,5.02-2.333L26.36,21.055z"
     id="path3351" /><path
     fill="#9BBB4A"
     d="M8.457,42.791c0.613-0.221,1.077-0.59,1.077-1.204c0-0.586-0.483-0.804-1.077-0.941V42.791z M7.474,37.229  c-0.595,0.202-1.044,0.568-1.044,1.213c0,0.626,0.465,0.872,1.044,1.021V37.229z M10.36,37.066  c-0.006-0.001-0.945-0.127-1.904-0.033v2.625c1.075,0.211,2.045,0.524,2.045,1.929c0,2.867-5.058,2.459-5.072,2.458l0.064-0.964  c0.006,0,0.987,0.077,1.98-0.062v-2.564c-1.06-0.217-2.012-0.571-2.012-2.013c0-3.014,5.005-2.335,5.02-2.333L10.36,37.066z"
     id="path3355" /><path
     fill="#9BBB4A"
     d="M40.457,42.791c0.612-0.221,1.076-0.59,1.076-1.204c0-0.586-0.482-0.804-1.076-0.941V42.791z M39.474,37.229  c-0.595,0.202-1.044,0.568-1.044,1.213c0,0.626,0.464,0.872,1.044,1.021V37.229z M42.36,37.066  c-0.006-0.001-0.944-0.127-1.903-0.033v2.625c1.074,0.211,2.045,0.524,2.045,1.929c0,2.867-5.059,2.459-5.072,2.458l0.064-0.964  c0.006,0,0.986,0.077,1.979-0.062v-2.564c-1.06-0.217-2.013-0.571-2.013-2.013c0-3.014,5.006-2.335,5.021-2.333L42.36,37.066z"
     id="path3359" /><path
     fill="#9BBB4A"
     d="M56.947,58.391c0.613-0.221,1.077-0.59,1.077-1.204c0-0.586-0.482-0.804-1.077-0.941V58.391z M55.965,52.829  c-0.595,0.202-1.045,0.568-1.045,1.213c0,0.626,0.466,0.872,1.045,1.021V52.829z M58.852,52.666  c-0.006-0.001-0.944-0.127-1.904-0.033v2.625c1.076,0.21,2.045,0.524,2.045,1.929c0,2.867-5.058,2.459-5.071,2.458l0.064-0.964  c0.005,0,0.986,0.077,1.979-0.062v-2.565c-1.061-0.216-2.012-0.57-2.012-2.012c0-3.014,5.005-2.334,5.02-2.332L58.852,52.666z"
     id="path3363" /><path
     fill="#9BBB4A"
     d="M24.457,58.868c0.613-0.221,1.077-0.59,1.077-1.203c0-0.586-0.483-0.805-1.077-0.941V58.868z M23.474,53.307  c-0.595,0.203-1.044,0.568-1.044,1.213c0,0.626,0.465,0.873,1.044,1.021V53.307z M26.36,53.144  c-0.005-0.001-0.944-0.127-1.903-0.033v2.626c1.075,0.21,2.044,0.524,2.044,1.929c0,2.866-5.057,2.458-5.072,2.457l0.064-0.964  c0.005,0.001,0.987,0.077,1.98-0.062v-2.564c-1.061-0.217-2.012-0.571-2.012-2.013c0-3.014,5.006-2.334,5.02-2.332L26.36,53.144z"
     id="path3367" /></svg>