<?xml version="1.0" encoding="utf-8"?>
<!-- Generator: Adobe Illustrator 16.0.0, SVG Export Plug-In . SVG Version: 6.00 Build 0)  -->
<!DOCTYPE svg PUBLIC "-//W3C//DTD SVG 1.1//EN" "http://www.w3.org/Graphics/SVG/1.1/DTD/svg11.dtd">
<svg version="1.1" id="Layer_1" xmlns="http://www.w3.org/2000/svg" xmlns:xlink="http://www.w3.org/1999/xlink" x="0px" y="0px"
	 width="64px" height="64px" viewBox="0 0 64 64" enable-background="new 0 0 64 64" xml:space="preserve">
<rect fill-rule="evenodd" clip-rule="evenodd" fill="#ACC684" width="64" height="64"/>
<path fill-rule="evenodd" clip-rule="evenodd" fill="#9DBA75" d="M21.235,22.849c-3.885,0.102-6.769-4.297-3.17-5.146
	c-2.339-1.696-1.167-4.356,1.153-4.121c0.872-2.318,3.816-1.742,4.266,0.086c3.555-0.615,4.429,2.892,3.574,4.208
	c2.813,1.687,0.352,5.021-3.833,4.961v4.78h-1.989V22.849z"/>
<polygon fill-rule="evenodd" clip-rule="evenodd" fill="#94B875" points="10.347,19.693 10.347,22.561 8.357,22.561 8.357,19.693 
	3.945,19.693 8.027,15.516 4.882,14.748 8.109,10.808 6.011,10.28 9.353,5.187 12.694,10.28 10.596,10.808 13.823,14.748 
	10.678,15.516 14.76,19.693 "/>
<path fill-rule="evenodd" clip-rule="evenodd" fill="#9DBA75" d="M53.256,54.553c-3.886,0.101-6.77-4.298-3.17-5.146
	c-2.34-1.696-1.168-4.356,1.152-4.121c0.871-2.317,3.815-1.742,4.266,0.086c3.555-0.614,4.429,2.893,3.573,4.209
	c2.813,1.686,0.352,5.02-3.833,4.961v4.78h-1.988V54.553z"/>
<polygon fill-rule="evenodd" clip-rule="evenodd" fill="#94B875" points="42.367,51.396 42.367,54.264 40.379,54.264 40.379,51.396 
	35.966,51.396 40.048,47.219 36.902,46.45 40.129,42.51 38.031,41.983 41.373,36.889 44.715,41.983 42.617,42.51 45.844,46.45 
	42.699,47.219 46.78,51.396 "/>
</svg>
