<?xml version="1.0" encoding="utf-8"?>
<!-- Generator: Adobe Illustrator 16.0.0, SVG Export Plug-In . SVG Version: 6.00 Build 0)  -->
<!DOCTYPE svg PUBLIC "-//W3C//DTD SVG 1.1//EN" "http://www.w3.org/Graphics/SVG/1.1/DTD/svg11.dtd">
<svg version="1.1" id="Layer_1" xmlns="http://www.w3.org/2000/svg" xmlns:xlink="http://www.w3.org/1999/xlink" x="0px" y="0px"
	 width="64px" height="64px" viewBox="0 0 64 64" enable-background="new 0 0 64 64" xml:space="preserve">
<rect fill-rule="evenodd" clip-rule="evenodd" fill="#B8D38F" width="64" height="64"/>
<path fill-rule="evenodd" clip-rule="evenodd" fill="#A5C27C" d="M14.894,19.01c-3.885,0.102-6.77-4.297-3.17-5.146
	c-2.339-1.697-1.167-4.356,1.153-4.121c0.871-2.318,3.816-1.742,4.266,0.086c3.555-0.615,4.429,2.892,3.574,4.208
	c2.813,1.687,0.352,5.021-3.833,4.962v4.78h-1.989V19.01z"/>
<path fill-rule="evenodd" clip-rule="evenodd" fill="#A5C27C" d="M46.894,51.01c-3.884,0.102-6.77-4.297-3.17-5.146
	c-2.339-1.696-1.167-4.356,1.153-4.121c0.871-2.318,3.816-1.742,4.265,0.086c3.556-0.614,4.429,2.892,3.574,4.208
	c2.813,1.687,0.352,5.021-3.833,4.962v4.779h-1.989V51.01z"/>
</svg>
