<?xml version="1.0" encoding="utf-8"?>
<!-- Generator: Adobe Illustrator 16.0.0, SVG Export Plug-In . SVG Version: 6.00 Build 0)  -->
<!DOCTYPE svg PUBLIC "-//W3C//DTD SVG 1.1//EN" "http://www.w3.org/Graphics/SVG/1.1/DTD/svg11.dtd">
<svg version="1.1" id="Layer_1" xmlns="http://www.w3.org/2000/svg" xmlns:xlink="http://www.w3.org/1999/xlink" x="0px" y="0px"
	 width="64px" height="64px" viewBox="0 0 64 64" enable-background="new 0 0 64 64" xml:space="preserve">
<rect fill-rule="evenodd" clip-rule="evenodd" fill="#A1C788" width="64" height="64"/>
<polygon fill-rule="evenodd" clip-rule="evenodd" fill="#88B774" points="16.995,21.82 16.995,24.688 15.005,24.688 15.005,21.82 
	10.593,21.82 14.675,17.643 11.53,16.874 14.756,12.934 12.658,12.406 16,7.313 19.341,12.406 17.243,12.934 20.47,16.874 
	17.325,17.643 21.407,21.82 "/>
<polygon fill-rule="evenodd" clip-rule="evenodd" fill="#88B774" points="48.994,53.819 48.994,56.688 47.006,56.688 47.006,53.819 
	42.592,53.819 46.674,49.643 43.529,48.874 46.756,44.934 44.658,44.406 48,39.313 51.341,44.406 49.243,44.934 52.47,48.874 
	49.325,49.643 53.407,53.819 "/>
</svg>
