<?xml version="1.0" encoding="utf-8"?>
<!-- Generator: Adobe Illustrator 16.0.0, SVG Export Plug-In . SVG Version: 6.00 Build 0)  -->
<!DOCTYPE svg PUBLIC "-//W3C//DTD SVG 1.1//EN" "http://www.w3.org/Graphics/SVG/1.1/DTD/svg11.dtd">
<svg version="1.1" id="Layer_1" xmlns="http://www.w3.org/2000/svg" xmlns:xlink="http://www.w3.org/1999/xlink" x="0px" y="0px"
	 width="20px" height="20px" viewBox="0 0 20 20" enable-background="new 0 0 20 20" xml:space="preserve">
<path fill-rule="evenodd" clip-rule="evenodd" fill="#FFFFFF" d="M4.396,15.622l-3.168-1.141c-0.359-0.129-0.606-0.408-0.689-0.781
	c-0.083-0.373,0.021-0.73,0.291-1.002l1.459-1.458c0.195-0.195,0.426-0.3,0.702-0.315l2.689-0.158l1.295-1.295L0.599,6.125
	C0.284,5.96,0.085,5.681,0.032,5.33c-0.054-0.351,0.053-0.677,0.305-0.928l1.44-1.441c0.284-0.284,0.671-0.385,1.059-0.276
	l8.526,2.399l3.308-3.308c0.009-0.009,0.017-0.017,0.026-0.025l0.539-0.503l0.055-0.055c0.06-0.059,0.117-0.105,0.187-0.149
	c0.051-0.049,0.103-0.089,0.163-0.127c0.059-0.055,0.116-0.099,0.188-0.142l0.182-0.109c0.025-0.015,0.047-0.027,0.074-0.041
	l0.035-0.018l0.238-0.143c0.071-0.042,0.136-0.072,0.214-0.099l0.024-0.008l0.034-0.021c0.071-0.042,0.136-0.073,0.216-0.099
	l0.218-0.073c0.029-0.009,0.056-0.017,0.083-0.024c0.025-0.011,0.052-0.021,0.08-0.03l0.109-0.037
	c0.116-0.039,0.221-0.056,0.344-0.056h0.075C17.821,0.005,17.881,0,17.951,0h0.072c0.075,0,0.139,0.006,0.212,0.021l0.091,0.018
	c0.044,0.009,0.08,0.019,0.122,0.032l0.025,0.005c0.046,0.009,0.085,0.02,0.129,0.034l0.055,0.018
	c0.052,0.018,0.095,0.035,0.144,0.059l0.218,0.109c0.109,0.055,0.195,0.117,0.281,0.203l0.219,0.219c0.1,0.1,0.177,0.21,0.229,0.331
	c0.052,0.078,0.092,0.162,0.123,0.257l0.019,0.055c0.021,0.061,0.034,0.118,0.043,0.177c0.008,0.031,0.014,0.061,0.019,0.091
	c0.021,0.083,0.03,0.164,0.03,0.255v0.329c0,0.054-0.004,0.1-0.011,0.153l-0.019,0.127c-0.003,0.021-0.006,0.039-0.011,0.059
	l-0.018,0.091c-0.01,0.046-0.02,0.085-0.034,0.129l-0.052,0.155l-0.005,0.025c-0.01,0.046-0.02,0.084-0.035,0.129l-0.036,0.109
	c-0.025,0.075-0.054,0.137-0.093,0.204c-0.025,0.078-0.056,0.141-0.097,0.211l-0.109,0.182c-0.01,0.015-0.018,0.028-0.027,0.043
	l-0.06,0.088l-0.041,0.069c-0.01,0.016-0.018,0.029-0.028,0.044l-0.146,0.218c-0.028,0.043-0.056,0.08-0.088,0.115
	c-0.041,0.067-0.091,0.129-0.15,0.19c-0.042,0.067-0.092,0.128-0.152,0.188l-0.012,0.012c-0.041,0.066-0.091,0.126-0.149,0.186
	l-0.015,0.015c-0.042,0.066-0.091,0.127-0.151,0.187l-3.51,3.511l2.399,8.525c0.109,0.387,0.008,0.773-0.276,1.059l-1.44,1.441
	c-0.252,0.25-0.576,0.357-0.928,0.305c-0.352-0.055-0.631-0.254-0.796-0.568l-3.347-6.375l-1.295,1.295l-0.158,2.689
	c-0.016,0.275-0.12,0.508-0.315,0.703L7.319,19.19c-0.27,0.27-0.629,0.373-1.001,0.291c-0.372-0.084-0.653-0.332-0.782-0.691
	L4.396,15.622z"/>
<polygon fill-rule="evenodd" clip-rule="evenodd" fill="#000001" points="6.554,18.425 5.241,14.778 1.594,13.464 3.053,12.005 
	6.152,11.823 8.779,9.197 1.102,5.167 2.542,3.726 11.678,6.297 15.435,2.541 16,2.012 16.055,1.957 16.146,1.903 16.219,1.83 
	16.31,1.775 16.383,1.702 16.474,1.647 16.565,1.593 16.639,1.556 16.729,1.501 16.82,1.447 16.911,1.392 17.021,1.355 
	17.094,1.319 17.186,1.264 17.294,1.228 17.403,1.191 17.495,1.173 17.567,1.137 17.678,1.1 17.751,1.1 17.859,1.1 17.951,1.082 
	18.023,1.082 18.115,1.1 18.17,1.119 18.261,1.137 18.315,1.155 18.389,1.191 18.461,1.228 18.534,1.264 18.589,1.319 18.644,1.374 
	18.681,1.41 18.717,1.447 18.753,1.483 18.753,1.52 18.79,1.556 18.808,1.611 18.845,1.647 18.863,1.702 18.863,1.738 18.881,1.793 
	18.881,1.83 18.899,1.884 18.899,1.957 18.899,1.994 18.899,2.067 18.899,2.103 18.899,2.213 18.881,2.34 18.863,2.432 
	18.826,2.541 18.79,2.65 18.771,2.742 18.735,2.851 18.681,2.942 18.644,3.052 18.589,3.143 18.534,3.234 18.461,3.343 
	18.406,3.435 18.334,3.544 18.261,3.653 18.17,3.745 18.151,3.799 18.097,3.854 18.061,3.891 18.023,3.927 18.006,3.981 
	17.969,4.018 17.933,4.055 17.896,4.091 17.859,4.127 17.841,4.182 17.823,4.2 17.787,4.237 17.769,4.255 17.751,4.273 17.714,4.31 
	17.695,4.328 17.678,4.383 17.641,4.419 17.604,4.456 17.586,4.474 17.55,4.51 17.531,4.529 17.495,4.565 17.477,4.583 13.721,8.34 
	16.291,17.476 14.852,18.917 10.821,11.239 8.195,13.866 8.013,16.966 6.554,18.425 "/>
</svg>
