<?xml version="1.0" encoding="UTF-8" standalone="no"?>
<!-- Generator: Adobe Illustrator 16.0.0, SVG Export Plug-In . SVG Version: 6.00 Build 0)  -->

<svg
   xmlns:dc="http://purl.org/dc/elements/1.1/"
   xmlns:cc="http://creativecommons.org/ns#"
   xmlns:rdf="http://www.w3.org/1999/02/22-rdf-syntax-ns#"
   xmlns:svg="http://www.w3.org/2000/svg"
   xmlns="http://www.w3.org/2000/svg"
   xmlns:sodipodi="http://sodipodi.sourceforge.net/DTD/sodipodi-0.dtd"
   xmlns:inkscape="http://www.inkscape.org/namespaces/inkscape"
   version="1.1"
   id="Layer_1"
   x="0px"
   y="0px"
   width="20px"
   height="20px"
   viewBox="0 0 20 20"
   enable-background="new 0 0 20 20"
   xml:space="preserve"
   inkscape:version="0.91 r13725"
   sodipodi:docname="alpine_hut.svg"><metadata
     id="metadata15"><rdf:RDF><cc:Work
         rdf:about=""><dc:format>image/svg+xml</dc:format><dc:type
           rdf:resource="http://purl.org/dc/dcmitype/StillImage" /></cc:Work></rdf:RDF></metadata><defs
     id="defs13" /><sodipodi:namedview
     pagecolor="#ffffff"
     bordercolor="#666666"
     borderopacity="1"
     objecttolerance="10"
     gridtolerance="10"
     guidetolerance="10"
     inkscape:pageopacity="0"
     inkscape:pageshadow="2"
     inkscape:window-width="947"
     inkscape:window-height="628"
     id="namedview11"
     showgrid="false"
     inkscape:zoom="11.8"
     inkscape:cx="15.973955"
     inkscape:cy="10"
     inkscape:window-x="0"
     inkscape:window-y="0"
     inkscape:window-maximized="0"
     inkscape:current-layer="Layer_1" /><path
     d="m 18.003516,9.1639053 0,9.0187107 c 0,0.550008 -0.448343,1.000384 -1.000384,1.000384 l -14.0074165,0 c -0.5510248,0 -1.0003845,-0.450376 -1.0003845,-1.000384 l 0,-9.0187107 -0.9922513,0 C 0.56286994,9.1639053 0.18975905,8.8924595 0.05251118,8.474616 -0.08575334,8.0577891 0.05454448,7.6185959 0.408339,7.3563 L 9.4056995,0.70943634 c 0.3588778,-0.26534589 0.8306035,-0.26534589 1.1884645,0 L 19.591525,7.3563 c 0.354811,0.2622959 0.493076,0.7004725 0.356844,1.118316 -0.138264,0.4178435 -0.511375,0.6892893 -0.951585,0.6892893 l -0.993268,0 z"
     id="path3"
     inkscape:connector-curvature="0"
     style="clip-rule:evenodd;fill:#ffffff;fill-rule:evenodd" /><polygon
     points="3.111,18.198 16.889,18.198 16.889,8.342 18.85,8.342 10,1.805 1.151,8.342 3.111,8.342 "
     id="polygon5"
     style="clip-rule:evenodd;fill:#e30000;fill-opacity:1;fill-rule:evenodd"
     transform="matrix(1.0166509,0,0,1.0166509,-0.16701733,-0.31941438)" /><polygon
     points="14.979,8.342 14.979,16.26 5.021,16.26 5.021,8.342 10,4.664 "
     id="polygon7"
     transform="matrix(1.0166509,0,0,1.0166509,-0.166509,-0.31941438)"
     style="clip-rule:evenodd;fill:#ffffff;fill-rule:evenodd" /><rect
     x="7.0115547"
     y="9.233037"
     width="5.976891"
     height="4.8331585"
     id="rect9"
     style="clip-rule:evenodd;fill:#e30000;fill-opacity:1;fill-rule:evenodd" /></svg>