<?xml version="1.0" encoding="utf-8"?>
<!-- Generator: Adobe Illustrator 16.0.0, SVG Export Plug-In . SVG Version: 6.00 Build 0)  -->
<!DOCTYPE svg PUBLIC "-//W3C//DTD SVG 1.1//EN" "http://www.w3.org/Graphics/SVG/1.1/DTD/svg11.dtd">
<svg version="1.1" id="Layer_1" xmlns="http://www.w3.org/2000/svg" xmlns:xlink="http://www.w3.org/1999/xlink" x="0px" y="0px"
	 width="20px" height="20px" viewBox="0 0 20 20" enable-background="new 0 0 20 20" xml:space="preserve">
<path fill-rule="evenodd" clip-rule="evenodd" fill="#FFFFFF" d="M3.816,0.017h12.367c1.782,0,3.237,1.455,3.237,3.237
	s-1.455,3.237-3.237,3.237h-0.019l1.569,12.384c0.037,0.29-0.044,0.556-0.237,0.774c-0.194,0.221-0.446,0.334-0.739,0.334H3.241
	c-0.292,0-0.545-0.113-0.738-0.334c-0.193-0.219-0.274-0.484-0.238-0.774L3.834,6.491H3.816c-1.782,0-3.237-1.455-3.237-3.237
	S2.034,0.017,3.816,0.017z"/>
<path fill-rule="evenodd" clip-rule="evenodd" fill="#000001" d="M3.241,18.999h13.517l-1.71-13.492h1.136
	c1.239,0,2.253-1.014,2.253-2.253l0,0c0-1.239-1.014-2.253-2.253-2.253H3.816c-1.239,0-2.253,1.014-2.253,2.253l0,0
	c0,1.239,1.014,2.253,2.253,2.253h1.135L3.241,18.999z"/>
<path fill-rule="evenodd" clip-rule="evenodd" fill="#FFFFFF" d="M6.162,12.36c0.627-0.055,1.252-0.109,1.877-0.164
	c0.081,0.553,0.287,0.961,0.626,1.221c0.027,0.02,0.055,0.039,0.083,0.059c0.029-0.754,0.059-1.508,0.088-2.262
	c-0.602-0.186-1.037-0.4-1.309-0.645C7.017,10.106,6.802,9.538,6.869,8.87c0.043-0.43,0.204-0.832,0.478-1.207
	c0.27-0.375,0.63-0.66,1.08-0.855c0.184-0.08,0.38-0.145,0.589-0.191c0.019-0.479,0.038-0.957,0.056-1.438c0.204,0,0.407,0,0.611,0
	C9.675,5.628,9.666,6.077,9.658,6.524c0.114-0.008,0.233-0.012,0.354-0.012c0.149,0,0.293,0.006,0.432,0.017
	c-0.002-0.45-0.005-0.9-0.009-1.351c0.203,0,0.407,0,0.611,0c0.014,0.482,0.025,0.963,0.039,1.443c0.491,0.112,0.9,0.31,1.228,0.594
	c0.556,0.469,0.885,1.09,0.984,1.873c-0.583,0.02-1.166,0.039-1.75,0.059c-0.079-0.383-0.218-0.67-0.416-0.863
	c0.015,0.584,0.03,1.166,0.047,1.748c0.482,0.133,0.868,0.27,1.153,0.406c0.439,0.211,0.793,0.494,1.069,0.856
	c0.277,0.364,0.446,0.808,0.499,1.339c0.048,0.482-0.062,0.938-0.34,1.357c-0.281,0.422-0.713,0.734-1.29,0.939
	c-0.281,0.1-0.599,0.176-0.952,0.227c0.013,0.471,0.025,0.943,0.038,1.414c-0.282,0-0.563,0.001-0.845,0.001
	c-0.003-0.446-0.007-0.894-0.009-1.341c-0.143,0.006-0.291,0.008-0.441,0.008c-0.195,0.002-0.384-0.004-0.564-0.016
	c-0.009,0.451-0.018,0.9-0.025,1.35c-0.281,0-0.563,0.002-0.845,0.002c0.019-0.481,0.037-0.963,0.057-1.445
	c-0.635-0.117-1.149-0.325-1.542-0.624C6.51,14.017,6.187,13.3,6.162,12.36L6.162,12.36z M9.523,13.762
	c0.175,0.03,0.362,0.044,0.565,0.043c0.143-0.001,0.276-0.005,0.404-0.019c-0.004-0.72-0.01-1.442-0.015-2.166
	c-0.241-0.059-0.546-0.128-0.911-0.211C9.553,12.194,9.538,12.978,9.523,13.762L9.523,13.762z M9.632,7.944
	C9.621,8.509,9.611,9.071,9.601,9.634C9.82,9.7,10.08,9.767,10.377,9.833c0.03,0.008,0.06,0.014,0.09,0.021
	c-0.004-0.631-0.009-1.262-0.013-1.891c-0.142-0.025-0.3-0.039-0.473-0.039C9.858,7.925,9.742,7.931,9.632,7.944L9.632,7.944z
	 M8.908,9.365C8.924,8.96,8.94,8.556,8.956,8.149C8.911,8.175,8.867,8.202,8.827,8.231C8.642,8.362,8.542,8.536,8.53,8.757
	c-0.01,0.199,0.068,0.37,0.235,0.512C8.804,9.3,8.851,9.333,8.908,9.365L8.908,9.365z M11.275,13.601
	c0.091-0.042,0.172-0.09,0.244-0.143c0.312-0.232,0.459-0.502,0.445-0.813c-0.009-0.199-0.083-0.367-0.22-0.508
	c-0.109-0.113-0.282-0.215-0.518-0.304C11.243,12.423,11.26,13.011,11.275,13.601z"/>
<path fill-rule="evenodd" clip-rule="evenodd" fill="#FFFFFF" d="M4.323,2.292h11.624c0.521,0,0.946,0.426,0.946,0.946v0.001
	c0,0.521-0.426,0.947-0.946,0.947h-1.066l-0.123-0.97H5.241l-0.123,0.97H4.323c-0.521,0-0.946-0.427-0.946-0.947V3.238
	C3.377,2.718,3.803,2.292,4.323,2.292z"/>
</svg>
