<?xml version="1.0" encoding="utf-8"?>
<!-- Generator: Adobe Illustrator 16.0.0, SVG Export Plug-In . SVG Version: 6.00 Build 0)  -->
<!DOCTYPE svg PUBLIC "-//W3C//DTD SVG 1.1//EN" "http://www.w3.org/Graphics/SVG/1.1/DTD/svg11.dtd">
<svg version="1.1" id="Layer_1" xmlns="http://www.w3.org/2000/svg" xmlns:xlink="http://www.w3.org/1999/xlink" x="0px" y="0px"
	 width="20px" height="20px" viewBox="0 0 20 20" enable-background="new 0 0 20 20" xml:space="preserve">
<path fill-rule="evenodd" clip-rule="evenodd" fill="#FFFFFF" d="M16.302,7.601c0.105-0.111,0.236-0.195,0.391-0.25
	c0.287-0.1,0.574-0.07,0.835,0.086c0.458,0.275,1.192,1.037,1.521,1.475c0.855,1.145,1.346,2.773,0.488,4.06
	c-0.73,1.096-2.119,1.473-3.351,1.646c-0.774,0.109-1.591,0.143-2.374,0.17c-0.988,0.031-1.98,0.039-2.969,0.041
	c-1.476,0.004-2.952-0.018-4.428-0.012c-0.023,0-0.042,0-0.065-0.002l-1.829-0.113c-0.007,0-0.013,0-0.021-0.002
	c-1.644-0.137-3.866-0.629-4.367-2.463c-0.584-2.132,1.13-4.001,2.763-5.089c0.111-0.074,0.217-0.156,0.33-0.227
	c0.255-0.156,0.537-0.189,0.821-0.096c0.376,0.123,0.72,0.277,1.033,0.461C5.073,7.271,5.064,7.255,5.056,7.24
	C4.912,6.97,4.897,6.679,5.014,6.398C5.13,6.116,5.346,5.92,5.638,5.832C5.85,5.767,6.054,5.695,6.27,5.64
	c0.936-0.232,1.674-0.375,2.638-0.465c0.243-0.023,0.46,0.033,0.659,0.174c0.393,0.277,0.73,0.584,1.011,0.916
	c-0.015-0.287,0.089-0.549,0.3-0.754c0.227-0.219,0.514-0.311,0.826-0.266c0.223,0.033,0.449,0.053,0.672,0.09
	c0.908,0.15,1.792,0.391,2.646,0.734c0.099,0.039,0.197,0.076,0.295,0.115c0.193,0.078,0.34,0.197,0.454,0.371
	C15.997,6.898,16.173,7.248,16.302,7.601z"/>
<path fill-rule="evenodd" clip-rule="evenodd" fill="#000001" d="M14.949,7.097c-0.087-0.034-0.183-0.07-0.294-0.115
	c-0.783-0.314-1.588-0.535-2.439-0.676c-0.181-0.029-0.43-0.053-0.654-0.086c0.107,0.962-0.143,2.168-0.9,3.725
	C10.834,8.204,10.194,6.996,9,6.155c-1.084,0.103-1.465,0.187-2.493,0.44c-0.212,0.053-0.393,0.121-0.584,0.18
	c0.473,0.881,0.667,2.143,0.453,3.96C5.983,9.11,5.05,8.189,3.742,7.761C3.665,7.808,3.576,7.878,3.442,7.967
	c-1.233,0.823-2.815,2.347-2.36,4.01c0.357,1.303,2.28,1.641,3.5,1.742l1.83,0.113c2.629-0.01,7.583,0.1,9.636-0.189
	c0.98-0.139,2.139-0.424,2.668-1.219c0.625-0.936,0.104-2.172-0.457-2.923c-0.16-0.216-0.861-0.994-1.24-1.221
	c-0.293,0.799-0.873,1.684-1.83,2.679C15.837,9.472,15.679,8.206,14.949,7.097z"/>
</svg>
