<?xml version="1.0" encoding="utf-8"?>
<!-- Generator: Adobe Illustrator 16.0.0, SVG Export Plug-In . SVG Version: 6.00 Build 0)  -->
<!DOCTYPE svg PUBLIC "-//W3C//DTD SVG 1.1//EN" "http://www.w3.org/Graphics/SVG/1.1/DTD/svg11.dtd">
<svg version="1.1" id="Layer_1" xmlns="http://www.w3.org/2000/svg" xmlns:xlink="http://www.w3.org/1999/xlink" x="0px" y="0px"
	 width="20px" height="20px" viewBox="0 0 20 20" enable-background="new 0 0 20 20" xml:space="preserve">
<path fill-rule="evenodd" clip-rule="evenodd" fill="#FFFFFF" d="M17.873,9.327v8.871c0,0.542-0.442,0.984-0.984,0.984H3.111
	c-0.542,0-0.984-0.442-0.984-0.984V9.327H1.15c-0.433,0-0.8-0.266-0.935-0.677s0.002-0.843,0.35-1.101l8.85-6.537
	c0.354-0.261,0.817-0.261,1.17,0l8.85,6.537c0.348,0.258,0.485,0.689,0.35,1.101c-0.135,0.411-0.502,0.677-0.935,0.677H17.873z"/>
<polygon fill-rule="evenodd" clip-rule="evenodd" fill="#000001" points="1.15,8.343 3.111,8.343 3.111,18.198 16.889,18.198 
	16.889,8.343 18.85,8.343 10,1.805 "/>
<path fill-rule="evenodd" clip-rule="evenodd" fill="#FFFFFF" d="M6.591,12.501l1.652-0.164c0.1,0.553,0.299,0.956,0.601,1.216
	c0.034,0.028,0.068,0.056,0.103,0.081V11.37c-0.574-0.188-0.998-0.405-1.271-0.652c-0.514-0.463-0.77-1.027-0.77-1.693
	c0-0.426,0.121-0.828,0.361-1.201c0.242-0.373,0.59-0.656,1.045-0.852c0.194-0.084,0.406-0.149,0.634-0.197V5.396h0.606v1.297
	c0.131-0.01,0.266-0.014,0.405-0.014c0.128,0,0.253,0.004,0.373,0.01V5.396h0.606v1.363c0.576,0.105,1.039,0.311,1.389,0.619
	c0.531,0.467,0.809,1.087,0.836,1.866l-1.698,0.058c-0.072-0.433-0.227-0.742-0.463-0.932c-0.021-0.018-0.042-0.033-0.063-0.047
	v1.818c0.52,0.146,0.923,0.295,1.211,0.447c0.395,0.209,0.703,0.492,0.926,0.854s0.334,0.807,0.334,1.336
	c0,0.479-0.133,0.931-0.4,1.35c-0.268,0.42-0.645,0.732-1.133,0.936c-0.274,0.115-0.587,0.197-0.938,0.248v1.295h-0.606v-1.242
	c-0.092,0.004-0.186,0.006-0.281,0.006c-0.172,0-0.338-0.006-0.497-0.02v1.256H8.947v-1.342c-0.541-0.115-0.987-0.324-1.339-0.629
	C7.04,14.147,6.703,13.437,6.591,12.501L6.591,12.501z M9.554,13.891c0.158,0.034,0.329,0.05,0.515,0.05
	c0.092,0,0.18-0.002,0.264-0.01v-2.187c-0.205-0.055-0.456-0.118-0.752-0.192l-0.026-0.007V13.891L9.554,13.891z M10.938,13.803
	c0.138-0.054,0.257-0.122,0.358-0.207c0.275-0.23,0.414-0.5,0.414-0.808c0-0.199-0.06-0.367-0.174-0.508
	c-0.114-0.138-0.314-0.258-0.599-0.359V13.803L10.938,13.803z M10.332,8.11c-0.121-0.018-0.252-0.025-0.395-0.025
	c-0.136,0-0.264,0.008-0.384,0.023v1.668c0.218,0.068,0.477,0.139,0.774,0.209l0.004,0.002V8.11L10.332,8.11z M8.947,8.29
	C8.893,8.32,8.84,8.353,8.792,8.39C8.614,8.521,8.524,8.693,8.524,8.912c0,0.199,0.084,0.368,0.251,0.509
	C8.82,9.46,8.877,9.497,8.947,9.536V8.29z"/>
</svg>
