<?xml version="1.0" encoding="utf-8"?>
<!-- Generator: Adobe Illustrator 16.0.0, SVG Export Plug-In . SVG Version: 6.00 Build 0)  -->
<!DOCTYPE svg PUBLIC "-//W3C//DTD SVG 1.1//EN" "http://www.w3.org/Graphics/SVG/1.1/DTD/svg11.dtd">
<svg version="1.1" id="Layer_1" xmlns="http://www.w3.org/2000/svg" xmlns:xlink="http://www.w3.org/1999/xlink" x="0px" y="0px"
	 width="20px" height="20px" viewBox="0 0 20 20" enable-background="new 0 0 20 20" xml:space="preserve">
<path fill-rule="evenodd" clip-rule="evenodd" fill="#FFFFFF" d="M6.911,2.307C7.252,1.79,7.734,1.31,8.24,0.946
	C9.265,0.213,10.323,0,11.605,0c2.25,0,4.254,1.646,4.773,3.601c0.002,0.006,0.003,0.012,0.005,0.019
	c0.008,0.002,0.015,0.004,0.022,0.008c2.124,0.778,2.876,3.182,1.497,4.867c-0.275,0.338-0.519,0.542-0.818,0.722
	c0,2.07,0,4.138,0,6.209c0,0.808,0.117,1.969-0.125,2.721C16.628,19.183,15.553,20,14.349,20H7.553c-1.05,0-2.012-0.63-2.465-1.477
	c-2.021-0.175-3.689-1.803-3.689-3.677V11.43c0-1.505,1.065-2.846,2.53-3.407C2.846,6.445,3.176,4.574,4.614,3.274
	C5.278,2.672,6.048,2.397,6.911,2.307z"/>
<path fill-rule="evenodd" clip-rule="evenodd" fill="#000001" d="M7.638,3.305c-0.868,0-1.61,0.144-2.227,0.702
	C4.32,4.994,4.091,6.356,4.92,7.519C5.064,7.721,5.435,8.09,5.663,8.227c0.33,0.197,0.287,0.089,0.287,0.545H5.443
	c-1.557,0-2.912,1.24-2.912,2.658v3.417c0,1.415,1.362,2.657,2.912,2.657h0.506c0.018,0.74,0.788,1.464,1.604,1.464h6.795
	c0.685,0,1.331-0.501,1.526-1.111c0.166-0.521,0.078-1.747,0.078-2.432c0-1.681,0-5.126,0-6.806c0.486-0.236,0.714-0.34,1.043-0.742
	c0.978-1.194,0.357-2.791-1.012-3.292c-0.644-0.235-0.562,0.061-0.64-0.455c-0.016-0.103-0.045-0.203-0.066-0.287
	c-0.414-1.549-2.01-2.81-3.673-2.81c-1.073,0-1.875,0.16-2.665,0.727c-0.462,0.33-0.928,0.808-1.192,1.3
	C7.698,3.156,7.681,3.222,7.638,3.305z"/>
<path fill-rule="evenodd" clip-rule="evenodd" fill="#FFFFFF" d="M15.234,5.729c0.206,0,0.426,0.141,0.541,0.24
	c0.493,0.42,0.334,1.494-0.71,1.494c-1.058,0-0.602-1.078-1.604-1.078c-0.373,0-0.384,0.195-0.913,0.437
	c-1.689,0.771-2.783-0.36-3.18-0.36c-0.211,0-0.384,0.093-0.498,0.2C8.672,6.846,8.376,7.463,7.427,7.463
	c-0.667,0-1.236-0.385-1.449-0.834C5.46,5.533,6.442,4.404,7.724,4.613c0.319,0.051,0.854,0.299,1.12-0.555
	c0.124-0.396,0.264-0.6,0.512-0.88c1.535-1.732,4.613-0.673,4.613,1.437c0,0.457-0.113,0.78,0.286,1.048
	C14.514,5.833,14.858,5.729,15.234,5.729z"/>
<path fill-rule="evenodd" clip-rule="evenodd" fill="#FFFFFF" d="M4.388,14.655c0-1.17-0.243-4.188,1.266-4.188h0.295v5.342
	C5.121,15.81,4.388,15.655,4.388,14.655z"/>
<path fill-rule="evenodd" clip-rule="evenodd" fill="#FFFFFF" d="M8.44,9.008L8.44,9.008c0.372,0,0.676,0.276,0.676,0.615v6.946
	c0,0.338-0.304,0.615-0.676,0.615l0,0c-0.371,0-0.676-0.277-0.676-0.615V9.623C7.764,9.285,8.069,9.008,8.44,9.008z"/>
<path fill-rule="evenodd" clip-rule="evenodd" fill="#FFFFFF" d="M11,9.008L11,9.008c0.372,0,0.676,0.276,0.676,0.615v6.946
	c0,0.338-0.304,0.615-0.676,0.615l0,0c-0.371,0-0.675-0.277-0.675-0.615V9.623C10.325,9.285,10.629,9.008,11,9.008z"/>
<path fill-rule="evenodd" clip-rule="evenodd" fill="#FFFFFF" d="M13.56,9.008L13.56,9.008c0.372,0,0.677,0.276,0.677,0.615v6.946
	c0,0.338-0.305,0.615-0.676,0.615H13.56c-0.37,0-0.674-0.277-0.674-0.615V9.623C12.886,9.285,13.189,9.008,13.56,9.008z"/>
</svg>
