<?xml version="1.0" encoding="utf-8"?>
<!-- Generator: Adobe Illustrator 16.0.0, SVG Export Plug-In . SVG Version: 6.00 Build 0)  -->
<!DOCTYPE svg PUBLIC "-//W3C//DTD SVG 1.1//EN" "http://www.w3.org/Graphics/SVG/1.1/DTD/svg11.dtd">
<svg version="1.1" id="Layer_1" xmlns="http://www.w3.org/2000/svg" xmlns:xlink="http://www.w3.org/1999/xlink" x="0px" y="0px"
	 width="20px" height="20px" viewBox="0 0 20 20" enable-background="new 0 0 20 20" xml:space="preserve">
<path fill-rule="evenodd" clip-rule="evenodd" fill="#FFFFFF" d="M5.346,8.47C3.449,8.03,2.048,6.317,2.048,4.29
	c0-2.354,1.893-4.288,4.256-4.288c1.33,0,2.562,0.623,3.357,1.654h6.022c0.277,0,0.516,0.1,0.71,0.297l1.117,1.128
	c0.59,0.597,0.59,1.364,0,1.961l-1.359,1.371c-0.194,0.197-0.433,0.297-0.71,0.297s-0.516-0.1-0.711-0.297l-0.09-0.09l-0.09,0.09
	C14.355,6.61,14.117,6.71,13.84,6.71c-0.276,0-0.515-0.1-0.71-0.297l-0.08-0.08l-0.059,0.06c-0.194,0.196-0.433,0.296-0.71,0.296
	s-0.516-0.1-0.711-0.296l-0.09-0.091l-0.332,0.336c-0.195,0.197-0.434,0.297-0.711,0.297H9.653C9.553,7.063,9.445,7.187,9.332,7.303
	c0.045,0.034,0.089,0.071,0.13,0.112c0.195,0.199,0.291,0.439,0.287,0.719l-0.012,0.75C9.736,8.919,9.734,8.955,9.729,8.99
	l0.581-0.001c-0.025-0.445,0.25-0.86,0.688-1.004c0.478-0.155,1.436-0.121,1.952-0.113c0.5,0.007,1.005,0.029,1.505,0.029
	c0.55,0,0.999,0.448,0.999,0.999V9.51c0,0.278-0.1,0.517-0.297,0.712c-0.125,0.123-0.266,0.206-0.423,0.25
	c0.096,0.195,0.193,0.393,0.284,0.59c0.214-0.027,0.428-0.049,0.646-0.051c0.921-0.013,1.672,0.299,2.424,0.813
	c0.771,0.527,1.335,1.283,1.647,2.162c0.089,0.249,0.104,0.52,0.182,0.738c0.057,0.131,0.08,0.25,0.08,0.393v0.758
	c0,0.135-0.022,0.252-0.072,0.374c-0.056,0.188-0.071,0.392-0.135,0.591c-0.603,1.884-2.284,3.141-4.267,3.15
	c-1.141,0.006-2.208-0.425-3.056-1.18c-0.609-0.544-0.992-1.219-1.234-1.965c-0.69-0.012-1.271-0.02-1.989-0.506
	c-0.098-0.066-0.193-0.141-0.288-0.223c-0.151,1.011-0.654,1.979-1.474,2.725c-1.735,1.582-4.063,1.471-5.89,0.1
	c-0.563-0.424-0.946-1.006-1.202-1.655c-0.143-0.358-0.203-0.687-0.317-1.036c-0.05-0.123-0.072-0.24-0.072-0.375v-0.758
	c0-0.143,0.025-0.266,0.072-0.373c0.036-0.105,0.061-0.238,0.088-0.348c0.063-0.243,0.135-0.48,0.228-0.715
	c0.277-0.691,0.708-1.273,1.311-1.717c0.951-0.699,1.75-0.947,2.769-0.949c0.159-0.51,0.356-1.021,0.516-1.512
	C5.09,9.175,5.192,8.804,5.346,8.47z"/>
<path fill-rule="evenodd" clip-rule="evenodd" fill="#000001" d="M12.794,15.103c0.079-0.855,0.678-1.678,1.25-1.908l0.849,1.923
	L12.794,15.103L12.794,15.103z M12.802,15.866c0.168,2.179,3.255,3.4,4.92,1.232c1.06-1.381,0.58-4.75-2.996-4.254
	c0.163,0.553,1.016,2.112,1.118,2.514c0.172,0.668-0.741,0.508-1.225,0.508C14.014,15.866,13.407,15.866,12.802,15.866
	L12.802,15.866z M5.675,13.03c1.801,0.716,2.323,3.674,0.099,4.896c-0.585,0.32-1.411,0.404-2.103,0.179
	c-1.171-0.382-2.268-1.671-1.819-3.319c0.358-1.316,1.454-2.133,3.113-2.003c-0.306,1.476-1.506,3.333-0.215,3.026
	C4.935,15.507,5.55,13.53,5.675,13.03L5.675,13.03z M11.565,15.118l0.445-0.006c0.313-1.244,0.543-1.867,1.698-2.617l-0.66-1.494
	C12.927,11.167,11.596,14.833,11.565,15.118L11.565,15.118z M10.72,15.069c0.118-0.15,1.467-3.904,1.575-4.328l-5.756,0.002
	c0.161,0.239,0.264,0.326,0.462,0.551l2.49,2.852C9.907,14.597,10.138,15.021,10.72,15.069L10.72,15.069z M1.001,15.116v0.758
	c0.118,0.27,0.264,1.568,1.193,2.266c3.697,2.777,7.47-1.808,5.051-4.809c-0.581-0.721-1.132-0.898-1.307-1.074l0.228-0.723
	c0.315,0.211,0.876,0.997,1.193,1.324l0.899,1.021c0.449,0.465,1.121,1.342,1.547,1.631c0.68,0.461,1.337,0.295,2.211,0.368
	c0.2,1.004,0.565,1.692,1.117,2.183c0.548,0.489,1.358,0.934,2.386,0.929c1.544-0.008,2.847-0.979,3.319-2.456
	c0.061-0.19,0.093-0.508,0.16-0.66v-0.758c-0.094-0.215-0.115-0.543-0.204-0.795c-0.253-0.712-0.7-1.282-1.271-1.672
	c-1.315-0.898-2.005-0.631-3.151-0.491c-0.108-0.407-0.659-1.466-0.873-1.966c-0.158-0.372-0.053-0.33,0.045-0.695l0.911,0.013V8.9
	c-0.625,0-2.746-0.095-3.147,0.036l0.047,0.225c0.458,0.201,0.767,0.295,1.401,0.344l-0.169,0.483L6.676,9.991
	c0.288-1.355,0.692-1.125,2.062-1.123l0.012-0.752H7.215C7.2,8.126,7.18,8.136,7.169,8.142S7.138,8.159,7.124,8.165
	c-0.83,0.432-0.77,0.352-1.188,1.646c-0.207,0.639-0.594,1.637-0.702,2.246c-1.384-0.139-2.048,0.055-2.94,0.711
	C1.202,13.571,1.149,14.772,1.001,15.116L1.001,15.116z M6.304,7.579c1.204,0,2.257-0.662,2.819-1.645h1.314L11.48,4.88l0.801,0.809
	l0.769-0.775l0.79,0.797l0.801-0.809l0.801,0.809L16.8,4.338c0.2-0.202,0.205-0.347,0-0.554l-1.116-1.128H9.129
	C8.567,1.668,7.512,1.002,6.304,1.002c-1.798,0-3.256,1.472-3.256,3.288S4.506,7.579,6.304,7.579L6.304,7.579z M4.854,3.491
	c0.441,0,0.799,0.357,0.799,0.799S5.296,5.089,4.854,5.089c-0.442,0-0.8-0.357-0.8-0.799S4.412,3.491,4.854,3.491z"/>
</svg>
