<?xml version="1.0" encoding="utf-8"?>
<!-- Generator: Adobe Illustrator 16.0.0, SVG Export Plug-In . SVG Version: 6.00 Build 0)  -->
<!DOCTYPE svg PUBLIC "-//W3C//DTD SVG 1.1//EN" "http://www.w3.org/Graphics/SVG/1.1/DTD/svg11.dtd">
<svg version="1.1" id="Layer_1" xmlns="http://www.w3.org/2000/svg" xmlns:xlink="http://www.w3.org/1999/xlink" x="0px" y="0px"
	 width="20px" height="20px" viewBox="0 0 20 20" enable-background="new 0 0 20 20" xml:space="preserve">
<path fill-rule="evenodd" clip-rule="evenodd" fill="#FFFFFF" d="M10.308,1.934c-0.006-0.09,0.002-0.181,0.023-0.27
	c0.082-0.52,0.441-0.741,0.881-0.847c0.129-0.03,0.254-0.033,0.383-0.036c0.011,0,0.02,0,0.029,0l2.859,0.023
	c0.459,0.004,0.844,0.304,0.961,0.747c0.107,0.411,0.118,0.867-0.053,1.262c-0.037,0.098-0.09,0.189-0.16,0.273
	c-0.098,0.121-0.219,0.215-0.355,0.278c-0.039,0.019-0.078,0.034-0.119,0.047c-0.008,0.002-0.014,0.004-0.021,0.006
	c0.096,0.194,0.193,0.392,0.284,0.588c0.214-0.027,0.429-0.047,0.646-0.05c0.922-0.012,1.672,0.3,2.424,0.814
	c0.771,0.527,1.336,1.283,1.648,2.162c0.088,0.248,0.104,0.518,0.182,0.737c0.057,0.132,0.08,0.249,0.08,0.393v0.758
	c0,0.135-0.023,0.251-0.072,0.374c-0.057,0.188-0.072,0.393-0.135,0.592c-0.604,1.883-2.285,3.141-4.268,3.15
	c-1.141,0.006-2.207-0.426-3.057-1.182c-0.609-0.543-0.991-1.217-1.232-1.963c-0.691-0.014-1.271-0.02-1.99-0.507
	C9.147,9.218,9.052,9.142,8.958,9.06c-0.152,1.012-0.654,1.979-1.474,2.727c-0.313,0.285-0.646,0.516-0.992,0.693
	c0.055,0.032,0.109,0.066,0.163,0.102c0.277,0.184,0.547,0.365,0.77,0.617c0.068,0.076,0.121,0.159,0.173,0.24
	c2.06,0,4.122,0,6.182,0c0.289,0,0.871,0.057,1.166,0.012c0.096-0.055,0.188-0.121,0.281-0.176c0.455-0.273,0.896-0.352,1.424-0.324
	c3.338,0.173,3.439,5.084,0.174,5.461c-0.719,0.084-1.307-0.075-1.887-0.482c-0.228-0.041-0.83,0.01-1.039,0.01
	c-1.066,0-2.134-0.017-3.2-0.023c-0.673-0.004-1.345-0.006-2.018,0c-0.234,0.001-0.476,0.001-0.717,0.006
	c-0.392,0.701-1,1.264-1.733,1.615c-0.281,0.137-0.461,0.182-0.746,0.27c-0.008,0.002-0.012,0.006-0.02,0.01
	c-0.154,0.084-0.305,0.123-0.48,0.123H4.036c-0.176,0-0.327-0.039-0.47-0.117c-0.001-0.002-0.002-0.002-0.003-0.002
	c-0.145-0.049-0.293-0.078-0.442-0.132c-0.327-0.116-0.629-0.286-0.917-0.479c-0.609-0.41-0.7-0.606-1.097-1.171
	c-0.218-0.312-0.245-0.692-0.071-1.03c0.174-0.34,0.499-0.539,0.879-0.543c0.548-0.006,1.094,0,1.642,0.006
	c0.118,0.002,0.318,0.012,0.466,0.002c0.104-0.121,0.214-0.275,0.307-0.385c0.039-0.047,0.08-0.094,0.121-0.141
	c-0.045-0.051-0.086-0.098-0.12-0.142c-0.075-0.095-0.183-0.245-0.287-0.368l-2.119-0.002c-0.377-0.001-0.7-0.193-0.879-0.525
	C0.867,14.577,0.883,14.2,1.09,13.886c0.393-0.599,0.903-1.078,1.479-1.411c-0.336-0.159-0.663-0.356-0.975-0.591
	c-0.563-0.422-0.946-1.006-1.203-1.654C0.25,9.87,0.189,9.542,0.075,9.194c-0.05-0.123-0.073-0.24-0.073-0.376V8.061
	c0-0.144,0.025-0.266,0.073-0.374C0.11,7.581,0.135,7.45,0.163,7.341C0.224,7.097,0.297,6.858,0.39,6.626
	C0.667,5.933,1.097,5.353,1.7,4.909c0.951-0.701,1.75-0.949,2.768-0.95c0.159-0.511,0.357-1.021,0.516-1.511
	C5.158,1.91,5.32,1.258,5.717,0.839c0.27-0.284,0.606-0.44,0.943-0.615C6.675,0.217,6.69,0.208,6.705,0.201
	c0.003-0.002,0.006-0.003,0.01-0.005c0.157-0.092,0.316-0.134,0.5-0.134H8.75c0.278,0,0.518,0.1,0.712,0.298
	s0.292,0.439,0.287,0.718l-0.012,0.75c0,0.036-0.003,0.072-0.007,0.107L10.308,1.934z"/>
<path fill-rule="evenodd" clip-rule="evenodd" fill="#000001" d="M12.794,8.046c0.078-0.854,0.678-1.676,1.25-1.908l0.85,1.924
	L12.794,8.046L12.794,8.046z M12.802,8.812c0.168,2.178,3.255,3.4,4.92,1.23c1.061-1.381,0.58-4.748-2.996-4.252
	c0.164,0.553,1.016,2.111,1.119,2.512c0.171,0.668-0.742,0.51-1.225,0.51C14.013,8.812,13.407,8.812,12.802,8.812L12.802,8.812z
	 M5.674,5.974C7.476,6.69,7.999,9.647,5.773,10.87c-0.584,0.322-1.412,0.406-2.103,0.18C2.5,10.667,1.404,9.378,1.852,7.73
	C2.21,6.413,3.306,5.599,4.965,5.728C4.66,7.202,3.459,9.06,4.75,8.755C4.935,8.452,5.55,6.474,5.674,5.974L5.674,5.974z
	 M11.565,8.062l0.445-0.005c0.314-1.243,0.543-1.868,1.699-2.616l-0.66-1.495C12.927,4.111,11.597,7.776,11.565,8.062L11.565,8.062z
	 M10.72,8.015c0.119-0.152,1.467-3.906,1.576-4.329L6.54,3.687c0.161,0.24,0.264,0.326,0.462,0.55l2.49,2.854
	C9.907,7.542,10.138,7.964,10.72,8.015L10.72,8.015z M1.001,8.061v0.758c0.118,0.269,0.264,1.568,1.193,2.267
	c3.698,2.775,7.47-1.809,5.051-4.809C6.664,5.554,6.113,5.378,5.939,5.2l0.228-0.723c0.315,0.211,0.875,0.998,1.192,1.326
	l0.899,1.02c0.45,0.465,1.122,1.344,1.548,1.633c0.679,0.46,1.335,0.294,2.21,0.367c0.2,1.004,0.564,1.691,1.117,2.184
	c0.548,0.488,1.359,0.933,2.387,0.928c1.543-0.008,2.846-0.979,3.318-2.455c0.061-0.191,0.094-0.508,0.16-0.661V8.061
	c-0.094-0.214-0.115-0.544-0.203-0.796c-0.254-0.711-0.701-1.281-1.271-1.672c-1.314-0.898-2.004-0.629-3.152-0.49
	c-0.107-0.406-0.658-1.465-0.872-1.966c-0.159-0.372-0.053-0.33,0.046-0.694l0.91,0.012V1.845c-0.625,0-2.746-0.095-3.146,0.036
	l0.047,0.224c0.457,0.202,0.766,0.296,1.4,0.345l-0.168,0.483L6.675,2.936C6.964,1.58,7.369,1.811,8.738,1.812L8.75,1.061H7.214
	C7.2,1.07,7.18,1.081,7.169,1.086C7.159,1.091,7.137,1.104,7.125,1.11C6.293,1.541,6.354,1.46,5.935,2.756
	C5.729,3.394,5.342,4.392,5.233,5.003C3.85,4.864,3.185,5.058,2.292,5.714C1.202,6.517,1.15,7.718,1.001,8.061z"/>
<path fill-rule="evenodd" clip-rule="evenodd" fill="#000001" d="M16.274,14.736c1.264-0.343,1.695,1.542,0.539,1.898
	C15.479,17.046,14.95,15.095,16.274,14.736L16.274,14.736z M4.036,18.938h0.949c0.29-0.158,0.315-0.063,0.813-0.303
	c0.67-0.322,1.25-0.902,1.507-1.686c1.031-0.078,5.222-0.012,6.595-0.012c0.492,0,1.24-0.104,1.565,0.137
	c0.364,0.27,0.71,0.404,1.246,0.344c2.056-0.238,2.011-3.36-0.11-3.47c-0.723-0.038-0.848,0.216-1.264,0.427
	c-0.282,0.143-1.189,0.063-1.557,0.063c-2.201,0-4.4,0-6.6,0c-0.225-0.088-0.37-0.428-0.503-0.576
	c-0.145-0.164-0.355-0.303-0.574-0.447c-1.443-0.953-3.212-0.45-4.177,1.02l2.495,0.002c0.208,0.098,0.539,0.551,0.695,0.75
	c0.183,0.232,0.481,0.525,0.609,0.752c-0.174,0.279-0.388,0.504-0.631,0.793c-0.802,0.949-0.248,0.701-3.168,0.731
	c0.348,0.495,0.332,0.577,0.836,0.915C3.49,18.868,3.736,18.774,4.036,18.938z"/>
</svg>
