<?xml version="1.0" encoding="utf-8"?>
<!-- Generator: Adobe Illustrator 16.0.0, SVG Export Plug-In . SVG Version: 6.00 Build 0)  -->
<!DOCTYPE svg PUBLIC "-//W3C//DTD SVG 1.1//EN" "http://www.w3.org/Graphics/SVG/1.1/DTD/svg11.dtd">
<svg version="1.1" id="Layer_1" xmlns="http://www.w3.org/2000/svg" xmlns:xlink="http://www.w3.org/1999/xlink" x="0px" y="0px"
	 width="20px" height="20px" viewBox="0 0 20 20" enable-background="new 0 0 20 20" xml:space="preserve">
<path fill-rule="evenodd" clip-rule="evenodd" fill="#FFFFFF" d="M11.323,3.996c-0.31-0.415-0.664-0.95-0.767-1.146l-0.048-0.093
	c-0.167-0.319-0.155-0.673,0.031-0.98s0.496-0.481,0.855-0.481h5.17c0.459,0,0.848,0.298,0.966,0.741l0.025,0.092
	c0.068,0.258,0.061,0.646,0.059,0.916c-0.003,0.265,0.001,0.604-0.071,0.886c0.031,0.093,0.049,0.191,0.052,0.295l0.012,0.535
	c0.015,0.672-0.027,1.242-0.332,1.852c-0.093,0.186-0.203,0.357-0.327,0.516c0.002,0.002,0.004,0.004,0.006,0.006
	c0.186-0.158,0.418-0.236,0.675-0.229l0.192,0.008c1.103,0.039,1.923,0.982,2.119,2.016c0.07,0.373,0.044,1.055,0.048,1.441
	c0.01,1.049,0.011,2.1,0.011,3.149v4.186c0,0.55-0.449,0.999-1,0.999h-7.313c-0.309,0-0.584-0.141-0.768-0.359
	c-0.149,0.108-0.318,0.195-0.51,0.26c-0.282,0.096-0.807,0.085-1.109,0.09c-0.792,0.012-1.584,0.01-2.376,0.01
	c-0.875,0-1.757,0.009-2.631-0.012c-0.336-0.009-0.666-0.014-0.978-0.158c-0.432-0.199-0.767-0.553-0.955-0.988
	c-0.14-0.324-0.158-0.741-0.166-1.111c-0.396-0.006-0.818-0.02-1.165-0.203c-0.37-0.195-0.646-0.459-0.838-0.832
	c-0.165-0.32-0.168-0.656-0.177-1.008c-0.021-0.916-0.011-1.84-0.011-2.756l0.001-3.156c0-0.18,0.041-0.335,0.13-0.492l0.092-0.162
	C0.501,7.338,1.008,7.003,1.553,6.9c0.476-0.088,1.649-0.117,2.061,0.104C4.179,7.307,4.199,7.848,4.21,8.399
	c0.022,1.085,0.011,2.181,0.011,3.266v2.738l0.964,0.001c-0.023-0.357,0.042-0.733,0.191-1.026c0.156-0.306,0.55-0.78,0.761-1.06
	c0.495-0.658,0.994-1.313,1.495-1.967C8.244,9.556,8.856,8.725,9.5,7.955c0.309-0.368,0.62-0.715,1.083-0.887
	c0.098-0.037,0.194-0.063,0.295-0.088c0.305-0.08,0.819-0.076,1.139-0.085c0.005,0,0.01,0,0.014,0
	c-0.124-0.196-0.228-0.407-0.304-0.632c-0.437-0.047-0.846-0.197-1.018-0.717c-0.104-0.314-0.045-0.619,0.12-0.889
	c0.037-0.061,0.077-0.119,0.118-0.176c0.095-0.134,0.197-0.265,0.301-0.393L11.323,3.996L11.323,3.996z M9.489,14.414
	c0.017,0,0.034,0,0.05,0c0.309,0.004,0.838-0.025,1.246,0.045c-0.088-0.285-0.083-0.623-0.089-0.904
	c-0.004-0.242-0.007-0.484-0.009-0.727c-0.031,0.042-0.063,0.084-0.095,0.126C10.226,13.441,9.858,13.928,9.489,14.414z"/>
<path fill-rule="evenodd" clip-rule="evenodd" fill="#000001" d="M3.735,17.627c-0.204-0.096-0.364-0.263-0.457-0.478
	c-0.056-0.13-0.074-0.327-0.089-0.931L3.17,15.451l-0.766-0.014c-0.646-0.014-0.788-0.027-0.909-0.092
	c-0.2-0.105-0.324-0.225-0.415-0.403c-0.075-0.146-0.078-0.286-0.077-3.308l0-3.156l0.092-0.162
	c0.122-0.215,0.369-0.381,0.641-0.433C2.027,7.83,3.04,7.83,3.142,7.885c0.077,0.041,0.079,0.127,0.079,3.78v3.737l3.688,0.002
	c2.028,0,3.712,0.016,3.742,0.035c0.043,0.027,0.052,0.201,0.041,0.83c-0.014,0.785-0.016,0.801-0.127,0.99
	c-0.122,0.209-0.26,0.322-0.479,0.396c-0.101,0.035-0.986,0.047-3.163,0.047C4.068,17.703,3.89,17.697,3.735,17.627L3.735,17.627z
	 M11.686,16.578c0-0.988,0.008-1.129,0.065-1.15c0.035-0.014,1.229-0.025,2.651-0.025h2.587L16.978,14.9l-0.012-0.504l-2.064-0.011
	c-1.273-0.007-2.065-0.026-2.065-0.05c0-0.021,1.07-1.478,2.379-3.236l2.378-3.195l0.192,0.006c0.546,0.021,1.046,0.533,1.173,1.205
	c0.026,0.137,0.041,1.764,0.041,4.403v4.186h-3.656h-3.657V16.578L11.686,16.578z M6.733,15.1c0.402,0.188,0.828,0.113,1.116-0.196
	c0.07-0.075,0.946-1.224,1.945-2.551s1.834-2.403,1.855-2.392c0.021,0.014,0.036,0.922,0.036,2.074c0,1.262,0.015,2.053,0.039,2.053
	c0.047,0,4.619-6.055,4.638-6.143c0.021-0.094-4.869-0.093-5.232,0.002c-0.498,0.129-0.461,0.088-2.705,3.014
	c-1.139,1.485-2.11,2.777-2.158,2.871c-0.102,0.199-0.117,0.559-0.032,0.762C6.325,14.807,6.511,14.997,6.733,15.1L6.733,15.1z
	 M14.295,7.264c-0.867-0.113-1.563-0.785-1.703-1.646c-0.023-0.143-0.043-0.273-0.043-0.29s-0.197-0.034-0.438-0.042
	c-0.253-0.006-0.444-0.029-0.452-0.053s0.157-0.254,0.367-0.514l0.381-0.473h2.095h2.095l0.012,0.535
	c0.016,0.668-0.041,1.014-0.226,1.383C15.997,6.932,15.156,7.375,14.295,7.264L14.295,7.264z M12.376,3.723
	C12.31,3.67,11.53,2.555,11.443,2.388l-0.048-0.093h2.585h2.585l0.025,0.093c0.042,0.156,0.028,1.223-0.017,1.307
	c-0.041,0.077-0.108,0.08-2.088,0.08C12.912,3.774,12.426,3.762,12.376,3.723z"/>
</svg>
