<?xml version="1.0" encoding="utf-8"?>
<!-- Generator: Adobe Illustrator 16.0.0, SVG Export Plug-In . SVG Version: 6.00 Build 0)  -->
<!DOCTYPE svg PUBLIC "-//W3C//DTD SVG 1.1//EN" "http://www.w3.org/Graphics/SVG/1.1/DTD/svg11.dtd">
<svg version="1.1" id="Layer_1" xmlns="http://www.w3.org/2000/svg" xmlns:xlink="http://www.w3.org/1999/xlink" x="0px" y="0px"
	 width="20px" height="20px" viewBox="0 0 20 20" enable-background="new 0 0 20 20" xml:space="preserve">
<path fill-rule="evenodd" clip-rule="evenodd" fill="#FFFFFF" d="M5.729,5.924h8.542l2.189-2.189c0.39-0.39,1.024-0.389,1.414,0
	l1.401,1.402c0.39,0.39,0.39,1.024,0.001,1.414l-3.063,3.063c-0.194,0.194-0.432,0.292-0.707,0.293H4.493
	C4.219,9.906,3.981,9.809,3.786,9.614L0.723,6.551c-0.389-0.389-0.389-1.024,0-1.414l1.403-1.403c0.389-0.39,1.024-0.389,1.413,0
	L5.729,5.924L5.729,5.924z M14.271,14.076l2.189,2.189c0.389,0.389,1.024,0.389,1.414,0l1.401-1.402
	c0.39-0.39,0.39-1.024,0.001-1.413l-3.063-3.064c-0.194-0.194-0.432-0.293-0.708-0.292H4.494c-0.275-0.001-0.513,0.098-0.708,0.292
	l-3.063,3.063c-0.39,0.39-0.39,1.024,0,1.414l1.402,1.402c0.39,0.39,1.025,0.39,1.414,0l2.189-2.188L14.271,14.076z"/>
<path fill-rule="evenodd" clip-rule="evenodd" fill="#000001" d="M2.833,4.441l2.482,2.482l9.37,0.001l2.482-2.482l1.402,1.402
	l-2.772,2.772l-0.29,0.29h-0.411H4.904H4.493l-0.291-0.29L1.43,5.844L2.833,4.441L2.833,4.441z M1.431,14.156l1.402,1.402
	l2.482-2.481l9.371-0.001l2.482,2.482l1.402-1.401l-2.772-2.772l-0.291-0.291h-0.41L4.904,11.095l-0.411-0.001l-0.29,0.29
	L1.431,14.156z"/>
</svg>
