<?xml version="1.0" encoding="UTF-8" standalone="no"?>
<!-- Generator: Adobe Illustrator 16.0.0, SVG Export Plug-In . SVG Version: 6.00 Build 0)  -->

<svg
   xmlns:dc="http://purl.org/dc/elements/1.1/"
   xmlns:cc="http://creativecommons.org/ns#"
   xmlns:rdf="http://www.w3.org/1999/02/22-rdf-syntax-ns#"
   xmlns:svg="http://www.w3.org/2000/svg"
   xmlns="http://www.w3.org/2000/svg"
   xmlns:sodipodi="http://sodipodi.sourceforge.net/DTD/sodipodi-0.dtd"
   xmlns:inkscape="http://www.inkscape.org/namespaces/inkscape"
   version="1.1"
   id="Layer_1"
   x="0px"
   y="0px"
   width="20px"
   height="20px"
   viewBox="0 0 20 20"
   enable-background="new 0 0 20 20"
   xml:space="preserve"
   inkscape:version="0.91 r13725"
   sodipodi:docname="bus_sta.svg"><metadata
     id="metadata13"><rdf:RDF><cc:Work
         rdf:about=""><dc:format>image/svg+xml</dc:format><dc:type
           rdf:resource="http://purl.org/dc/dcmitype/StillImage" /></cc:Work></rdf:RDF></metadata><defs
     id="defs11" /><sodipodi:namedview
     pagecolor="#ffffff"
     bordercolor="#666666"
     borderopacity="1"
     objecttolerance="10"
     gridtolerance="10"
     guidetolerance="10"
     inkscape:pageopacity="0"
     inkscape:pageshadow="2"
     inkscape:window-width="787"
     inkscape:window-height="552"
     id="namedview9"
     showgrid="false"
     inkscape:zoom="11.8"
     inkscape:cx="10"
     inkscape:cy="10"
     inkscape:window-x="0"
     inkscape:window-y="0"
     inkscape:window-maximized="0"
     inkscape:current-layer="Layer_1" /><path
     fill-rule="evenodd"
     clip-rule="evenodd"
     fill="#FFFFFF"
     d="M9.999,19.998c5.508,0,10-4.492,10-9.998  c0-5.508-4.492-9.998-10-9.998c-5.506,0-9.998,4.49-9.998,9.998C0.001,15.506,4.493,19.998,9.999,19.998z"
     id="path3" /><path
     fill-rule="evenodd"
     clip-rule="evenodd"
     fill="#2B4EA1"
     d="M9.999,18.998c4.957,0,9-4.043,9-8.998  c0-4.957-4.043-8.998-9-8.998c-4.956,0-8.998,4.041-8.998,8.998C1.001,14.955,5.043,18.998,9.999,18.998z"
     id="path5"
     style="fill:#001aff;fill-opacity:1" /><path
     fill-rule="evenodd"
     clip-rule="evenodd"
     fill="#FFFFFF"
     d="M15.634,9.232c0-0.451-0.145-1.205-0.207-1.68  c-0.07-0.541-0.139-1.084-0.211-1.623c-0.071-0.549-0.084-1.1-0.335-1.539c-0.565-0.989-2.987-1.363-4.089-1.46  c-1.143-0.1-2.286,0.034-3.354,0.284C6.455,3.445,5.4,3.779,5.044,4.529c-0.21,0.441-0.412,2.557-0.497,3.216  C4.479,8.279,4.365,8.889,4.367,9.426v5.52l0.943,0.016c0.01,0.342-0.046,0.947,0.062,1.23c0.245,0.645,1.284,0.689,1.52-0.041  c0.091-0.281,0.035-0.873,0.051-1.203l6.121,0.004c0.025,0.585-0.212,1.734,0.814,1.734c1.027,0,0.789-1.149,0.814-1.736  l0.941-0.002V9.232L15.634,9.232z M13.696,11.519c0.496-0.126,0.923,0.231,1.01,0.628c0.119,0.543-0.234,0.947-0.65,1.035  C12.985,13.405,12.558,11.808,13.696,11.519L13.696,11.519z M5.949,11.516c1.119-0.238,1.432,1.439,0.361,1.666  C5.196,13.416,4.84,11.752,5.949,11.516L5.949,11.516z M7.369,3.838c0.183-0.052,4.347-0.033,5.091-0.02  c0.662,0.013,0.527,0.848,0.17,0.936C12.476,4.793,8.031,4.781,7.521,4.77C6.936,4.756,6.977,3.948,7.369,3.838L7.369,3.838z   M5.877,9.584c-0.583,0-0.537-0.381-0.468-0.887l0.345-2.557C5.82,5.639,5.8,5.325,6.361,5.325h7.291  c0.568,0,0.543,0.335,0.611,0.845l0.344,2.563c0.068,0.496,0.092,0.852-0.471,0.852H5.877z"
     id="path7" /></svg>