<?xml version="1.0" encoding="utf-8"?>
<!-- Generator: Adobe Illustrator 16.0.0, SVG Export Plug-In . SVG Version: 6.00 Build 0)  -->
<!DOCTYPE svg PUBLIC "-//W3C//DTD SVG 1.1//EN" "http://www.w3.org/Graphics/SVG/1.1/DTD/svg11.dtd">
<svg version="1.1" id="Layer_1" xmlns="http://www.w3.org/2000/svg" xmlns:xlink="http://www.w3.org/1999/xlink" x="0px" y="0px"
	 width="20px" height="20px" viewBox="0 0 20 20" enable-background="new 0 0 20 20" xml:space="preserve">
<path fill-rule="evenodd" clip-rule="evenodd" fill="#FFFFFF" d="M8.655,3.237h3.868c1.555,0,2.817,1.083,3.323,2.5
	c0.158,0.445,0.247,0.906,0.348,1.365c0.183-0.058,0.381-0.131,0.531-0.168c0.894-0.221,2.067-0.424,2.739,0.391
	c0.527,0.638,0.386,1.492,0.386,2.254c0,0.551-0.449,1-1,1c-0.217,0-0.426,0.057-0.649,0.069c-0.007,0.001-0.013,0.001-0.019,0.001
	l-0.348,0.012c0.031,0.168,0.047,0.346,0.047,0.535v2.742c0,0.643-0.272,1.258-0.708,1.723c-0.21,0.223-0.396,0.398-0.603,0.537
	c0.039,0.723,0.073,1.504-0.343,2.072c-0.529,0.724-1.417,1.096-2.299,1.096c-0.95,0-1.931-0.217-2.466-1.08
	c-0.292-0.472-0.361-0.991-0.372-1.521H7.054v0.196c0,0.816-0.02,1.304-0.493,2c-0.427,0.626-1.149,1.037-1.913,1.037
	c-1.993,0-2.757-1.176-2.757-3.037V7.305C1.472,7.01,1.105,6.597,0.849,6.214c-0.583-0.873-0.716-1.496-0.716-2.54
	c0-1.388,1.03-3.313,2.461-3.646c0.307-0.071,0.601-0.005,0.848,0.19C3.689,0.416,3.82,0.687,3.82,1.002V3.02l0.587,0.332
	l0.577-0.329V1.002c0-0.315,0.131-0.587,0.378-0.783c0.247-0.196,0.541-0.262,0.848-0.19C7.483,0.325,8.513,1.936,8.655,3.237
	L8.655,3.237z M7.054,8.087h6.723c-0.091-0.354-0.182-0.708-0.271-1.063c-0.121-0.486-0.146-0.877-0.588-1.141
	c-0.59-0.299-3.633-0.17-4.673-0.156C7.96,6.322,7.548,6.87,7.054,7.229V8.087z"/>
<path fill-rule="evenodd" clip-rule="evenodd" fill="#000001" d="M8.875,4.729c1.393,0,3.718-0.202,4.549,0.294
	c0.715,0.425,0.837,0.893,1.053,1.76c0.196,0.785,0.397,1.533,0.576,2.305H7.398l-0.001,2.24h4.463v0.713H7.397l0,0.884h4.463v0.714
	H7.398v2.129h4.703c0,1.379-0.279,2.601,1.828,2.601c0.66,0,1.203-0.292,1.492-0.687c0.288-0.393,0.125-1.525,0.125-2.125
	c0.447-0.105,0.62-0.283,0.897-0.579c0.222-0.237,0.438-0.606,0.438-1.038v-2.742c0-0.74-0.377-1.132-0.772-1.477l2.038-0.07
	c0.318-0.017,0.333-0.07,0.703-0.07c0-1.379,0.324-2.221-1.886-1.674c-0.28,0.068-0.718,0.244-0.997,0.268
	c0,0.482-0.104,0.91-0.141,1.336l-0.505-1.744c-0.129-0.51-0.24-1.193-0.418-1.691c-0.348-0.978-1.219-1.837-2.381-1.837H9.155
	C8.849,4.236,9,4.467,8.875,4.729L8.875,4.729z M1.133,3.674c0-1.092,0.862-2.479,1.688-2.672v2.602l1.617,0.915
	c0.105-0.093-0.054,0.029,0.114-0.098l1.432-0.817V1.002c0.791,0.185,1.688,1.521,1.688,2.531v0.493c0,1.105-0.885,2.404-1.617,2.6
	l0,10.336c0.003,0.727-0.008,0.979-0.32,1.438c-0.209,0.306-0.606,0.6-1.086,0.6c-1.395,0-1.763-0.699-1.758-2.037l0-10.265
	C2.436,6.591,1.923,6.021,1.68,5.657C1.232,4.987,1.133,4.573,1.133,3.674L1.133,3.674z M13.968,10.885
	c0.788,0,1.427,0.64,1.427,1.427c0,0.789-0.639,1.428-1.427,1.428s-1.428-0.639-1.428-1.428
	C12.54,11.524,13.18,10.885,13.968,10.885z"/>
</svg>
