<?xml version="1.0" encoding="UTF-8" standalone="no"?>
<!-- Generator: Adobe Illustrator 16.0.0, SVG Export Plug-In . SVG Version: 6.00 Build 0)  -->

<svg
   xmlns:dc="http://purl.org/dc/elements/1.1/"
   xmlns:cc="http://creativecommons.org/ns#"
   xmlns:rdf="http://www.w3.org/1999/02/22-rdf-syntax-ns#"
   xmlns:svg="http://www.w3.org/2000/svg"
   xmlns="http://www.w3.org/2000/svg"
   xmlns:sodipodi="http://sodipodi.sourceforge.net/DTD/sodipodi-0.dtd"
   xmlns:inkscape="http://www.inkscape.org/namespaces/inkscape"
   version="1.1"
   id="Layer_1"
   x="0px"
   y="0px"
   width="20px"
   height="20px"
   viewBox="0 0 20 20"
   enable-background="new 0 0 20 20"
   xml:space="preserve"
   inkscape:version="0.91 r13725"
   sodipodi:docname="castle.svg"><metadata
     id="metadata11"><rdf:RDF><cc:Work
         rdf:about=""><dc:format>image/svg+xml</dc:format><dc:type
           rdf:resource="http://purl.org/dc/dcmitype/StillImage" /></cc:Work></rdf:RDF></metadata><defs
     id="defs9"><pattern
       y="0"
       x="0"
       height="6"
       width="6"
       patternUnits="userSpaceOnUse"
       id="EMFhbasepattern" /></defs><sodipodi:namedview
     pagecolor="#ffffff"
     bordercolor="#666666"
     borderopacity="1"
     objecttolerance="10"
     gridtolerance="10"
     guidetolerance="10"
     inkscape:pageopacity="0"
     inkscape:pageshadow="2"
     inkscape:window-width="1280"
     inkscape:window-height="748"
     id="namedview7"
     showgrid="false"
     inkscape:zoom="11.8"
     inkscape:cx="-2.5423729"
     inkscape:cy="10"
     inkscape:window-x="-8"
     inkscape:window-y="-8"
     inkscape:window-maximized="1"
     inkscape:current-layer="Layer_1" /><path
     inkscape:connector-curvature="0"
     id="path4144"
     d="M 12.230961,4.9771163 C 12.124679,4.6576526 12.18373,4.3145049 12.396347,4.042375 l 2.905631,-3.67991015 c 0.200779,-0.2484802 0.472442,-0.3786372 0.791371,-0.3786372 0.307089,0 0.578752,0.130157 0.779564,0.3786372 L 19.778544,4.042375 c 0.236203,0.3076228 0.283471,0.6862623 0.141735,1.02941 0.04723,0.1183185 0.07085,0.260321 0.07085,0.3904815 0,0.8755987 0,1.7393565 0,2.6031131 0,0.3668317 -0.200779,0.6981374 -0.507901,0.8755986 l 0,10.0812768 c 0,0.544293 -0.448824,0.993917 -0.992149,0.993917 -12.7682509,0 -4.21671,0 -16.9849591,0 -0.54332847,0 -0.99216547,-0.449624 -0.99216547,-0.993917 l 0,-10.0812768 C 0.20685453,8.763517 0.00605923,8.4322113 0.00605923,8.0653796 c 0,-0.8637566 0,-1.7275144 0,-2.6031131 0,-0.1301605 0.023627,-0.272163 0.082678,-0.3904815 -0.1535493,-0.3431477 -0.1063053,-0.7217872 0.1299274,-1.02941 L 3.1242945,0.36246485 c 0.2008013,-0.2484802 0.4724643,-0.3786372 0.7795529,-0.3786372 0.3189307,0 0.5905925,0.130157 0.7913713,0.3786372 L 7.6008498,4.042375 c 0.2126196,0.2721299 0.271663,0.6152776 0.1653863,0.9347413 0.082654,0.1420025 0.1298934,0.3076559 0.1298934,0.4851502 0,0.8755987 0,1.7393565 0,2.6031131 0,0.248479 -0.094462,0.4733082 -0.2480121,0.6508026 1.5709339,0 3.1300246,0 4.7009606,0 -0.153545,-0.1774943 -0.248047,-0.4023236 -0.248047,-0.6508026 0,-0.8637566 0,-1.7275144 0,-2.6031131 0,-0.1774943 0.04727,-0.3431477 0.129927,-0.4851502 z"
     style="fill:#ffffee;fill-opacity:1;fill-rule:evenodd;stroke:none" /><path
     style="fill:#000000;fill-opacity:1;fill-rule:evenodd;stroke:none"
     d="m 3.9052471,0.98366415 1.4646239,1.83403115 1.4528149,1.845879 -2.9174388,0 -2.905624,0 1.452815,-1.845879 z"
     id="path4143" /><path
     style="fill:#000000;fill-opacity:1;fill-rule:evenodd;stroke:none"
     d="m 6.3856708,8.0594594 0,1.6565628 c 3.1182511,0 4.1104012,0 7.2286522,0 l 0,-1.6565628 -0.5079,0 c 0,-0.8637568 0,-1.7275144 0,-2.6031131 3.177293,0 2.704819,0 5.893954,0 0,0.8755987 0,1.7393565 0,2.6031131 l -0.507899,0 0,10.9568766 -6.319163,0 0,-3.573414 c 0,-1.195062 -0.980374,-2.177172 -2.1733351,-2.177172 l 0,0 c -1.192961,0 -2.1733019,0.98211 -2.1733019,2.177172 l 0,3.573414 -6.3191591,0 0,-10.9568766 -0.5078958,0 c 0,-0.8637568 0,-1.7275144 0,-2.6031131 3.0828181,0 2.8229639,0 5.905756,0 0,0.8755987 0,1.7393565 0,2.6031131 z"
     id="path4139" /><path
     style="fill:#000000;fill-opacity:1;fill-rule:evenodd;stroke:none"
     d="m 16.094746,0.98366426 1.452816,1.83403114 1.452815,1.845879 -2.905631,0 -2.917438,0 1.452814,-1.845879 z"
     id="path4137" /><path
     style="fill:#ffffff;fill-opacity:1;fill-rule:evenodd;stroke:none"
     d="m 2.9130876,13.076447 2.0788105,0 0,-2.544002 c 0,-0.5797862 -0.4724407,-1.053094 -1.0393834,-1.053094 l 0,0 c -0.5787848,0 -1.0394271,0.4733078 -1.0394271,1.053094 z"
     id="path4141" /><path
     style="fill:#ffffff;fill-opacity:1;fill-rule:evenodd;stroke:none"
     d="m 15.008062,13.076447 2.078834,0 0,-2.544002 c 0,-0.5797862 -0.460632,-1.053094 -1.039417,-1.053094 l 0,0 c -0.566942,0 -1.039417,0.4733078 -1.039417,1.053094 z"
     id="path4146" /></svg>