<?xml version="1.0" encoding="UTF-8" standalone="no"?>
<!-- Generator: Adobe Illustrator 16.0.0, SVG Export Plug-In . SVG Version: 6.00 Build 0)  -->

<svg
   xmlns:dc="http://purl.org/dc/elements/1.1/"
   xmlns:cc="http://creativecommons.org/ns#"
   xmlns:rdf="http://www.w3.org/1999/02/22-rdf-syntax-ns#"
   xmlns:svg="http://www.w3.org/2000/svg"
   xmlns="http://www.w3.org/2000/svg"
   xmlns:sodipodi="http://sodipodi.sourceforge.net/DTD/sodipodi-0.dtd"
   xmlns:inkscape="http://www.inkscape.org/namespaces/inkscape"
   version="1.1"
   id="Layer_1"
   x="0px"
   y="0px"
   width="20px"
   height="20px"
   viewBox="0 0 20 20"
   enable-background="new 0 0 20 20"
   xml:space="preserve"
   inkscape:version="0.91 r13725"
   sodipodi:docname="chair_lift.svg"><metadata
     id="metadata11"><rdf:RDF><cc:Work
         rdf:about=""><dc:format>image/svg+xml</dc:format><dc:type
           rdf:resource="http://purl.org/dc/dcmitype/StillImage" /></cc:Work></rdf:RDF></metadata><defs
     id="defs9" /><sodipodi:namedview
     pagecolor="#ffffff"
     bordercolor="#666666"
     borderopacity="1"
     objecttolerance="10"
     gridtolerance="10"
     guidetolerance="10"
     inkscape:pageopacity="0"
     inkscape:pageshadow="2"
     inkscape:window-width="657"
     inkscape:window-height="480"
     id="namedview7"
     showgrid="false"
     inkscape:zoom="11.8"
     inkscape:cx="10"
     inkscape:cy="10"
     inkscape:window-x="0"
     inkscape:window-y="0"
     inkscape:window-maximized="0"
     inkscape:current-layer="Layer_1" /><path
     fill-rule="evenodd"
     clip-rule="evenodd"
     fill="#FFFFFF"
     d="M9.019,14.728c-0.016,0.006-0.031,0.01-0.046,0.014l-1.872,0.547  c-0.387,0.119-0.792,0.176-1.197,0.176c-1.549,0-2.976-0.857-3.674-2.24l-1.406-2.784C0.399,9.599,0.634,8.585,1.497,8.139  C1.715,8.026,1.939,7.968,2.16,7.956C2.025,7.497,2.032,7.017,2.191,6.569C1.635,6.259,1.195,5.739,1,5.079  C0.607,3.743,1.378,2.333,2.715,1.943C4.05,1.554,5.455,2.32,5.843,3.657c0.172,0.59,0.118,1.196-0.11,1.72  c0.279,0.19,0.525,0.45,0.716,0.784C6.455,6.171,6.459,6.18,6.465,6.19l0.203,0.385V1.001c0-0.551,0.449-1,1-1h0.659  c0.551,0,1,0.449,1,1v7.171l0.792-0.227c1.24-0.352,2.508,0.805,2.514,2.047l0.019,4.414l4.117-1.404  c-0.048-0.223-0.018-0.442,0.09-0.654c0.126-0.246,0.321-0.412,0.585-0.496l0.558-0.18c0.521-0.168,1.083,0.117,1.255,0.637  c0.429,1.295-0.272,2.689-1.558,3.111L4.416,19.944c-0.521,0.178-1.091-0.102-1.269-0.623l-0.189-0.556  c-0.178-0.521,0.103-1.091,0.624-1.269l5.745-1.957C9.167,15.308,9.058,15.034,9.019,14.728z"
     id="path3" /><path
     d="m 17.375,14.474 c 0.771,-0.252 1.188,-1.08 0.932,-1.85 l -0.558,0.18 c 0.151,0.463 -0.102,0.959 -0.561,1.113 l -9.41,3.207 0,0.619 9.597,-3.269 0,0 z"
     id="path4155" /><path
     d="m 7.778,14.048 0,-1.354 0.553,-0.162 c 0.952,-0.287 1.321,0.969 0.361,1.25 l -0.914,0.266 0,0 z"
     id="path4153" /><path
     d="m 7.778,11.864 0,-2.213 2.613,-0.742 c 0.521,-0.15 1.241,0.42 1.241,1.09 l 0.019,4.484 c 0.005,1.113 -1.649,1.119 -1.649,-0.01 C 10,13.432 9.972,11.205 9.972,11.205 l -2.194,0.659 0,0 z"
     id="path4151" /><path
     d="m 7.778,8.805 0.548,-0.151 0,-7.653 -0.548,0 0,7.804 z"
     id="path4149" /><path
     d="m 7.778,17.124 -3.874,1.32 0.189,0.555 3.684,-1.256 0,-0.619 10e-4,0 z"
     id="path4147" /><path
     d="m 7.778,1.001 0,7.803 -0.111,0.03 0,-7.833 0.111,0 0,0 z"
     id="path4145" /><path
     d="M 7.778,9.651 7.24,9.804 5.581,6.656 C 4.732,5.169 2.425,6.411 3.229,7.944 l 1.853,3.566 c 0.284,0.531 0.879,0.891 1.598,0.684 l 1.099,-0.33 0,-2.213 -0.001,0 z"
     id="path4143" /><path
     d="m 7.778,12.694 -1.241,0.364 c -0.198,0.04 -0.402,0.097 -0.619,0.097 -0.697,0 -1.302,-0.393 -1.612,-0.969 L 2.884,9.397 C 2.43,8.506 1.262,9.097 1.717,9.989 l 1.406,2.783 c 0.518,1.004 1.567,1.692 2.782,1.692 0.314,0 0.619,-0.044 0.9,-0.132 l 0.974,-0.285 0,-1.353 -0.001,0 z"
     id="path4141" /><path
     d="M 3.853,5.829 C 3.04,6.065 2.196,5.603 1.959,4.796 1.721,3.988 2.187,3.137 2.995,2.903 3.801,2.666 4.649,3.127 4.883,3.936 5.12,4.745 4.659,5.593 3.853,5.829 Z"
     id="path5" /></svg>