<?xml version="1.0" encoding="utf-8"?>
<!-- Generator: Adobe Illustrator 16.0.0, SVG Export Plug-In . SVG Version: 6.00 Build 0)  -->
<!DOCTYPE svg PUBLIC "-//W3C//DTD SVG 1.1//EN" "http://www.w3.org/Graphics/SVG/1.1/DTD/svg11.dtd">
<svg version="1.1" id="Layer_1" xmlns="http://www.w3.org/2000/svg" xmlns:xlink="http://www.w3.org/1999/xlink" x="0px" y="0px"
	 width="20px" height="20px" viewBox="0 0 20 20" enable-background="new 0 0 20 20" xml:space="preserve">
<path fill-rule="evenodd" clip-rule="evenodd" fill="#FFFFFF" d="M17.874,9.327v8.871c0,0.543-0.442,0.984-0.985,0.984H3.111
	c-0.542,0-0.984-0.441-0.984-0.984V9.327H1.151c-0.433,0-0.8-0.266-0.935-0.677C0.08,8.239,0.218,7.808,0.566,7.55l8.85-6.537
	c0.353-0.261,0.817-0.261,1.169,0l8.85,6.537c0.348,0.258,0.485,0.689,0.351,1.101c-0.136,0.411-0.503,0.677-0.936,0.677H17.874z"/>
<polygon fill-rule="evenodd" clip-rule="evenodd" fill="#000001" points="1.151,8.343 3.111,8.343 3.111,18.198 16.889,18.198 
	16.889,8.343 18.85,8.343 10,1.805 "/>
<polygon fill-rule="evenodd" clip-rule="evenodd" fill="#FFFFFF" points="5.021,8.343 10,4.663 14.979,8.343 14.979,16.261 
	5.021,16.261 "/>
<path fill-rule="evenodd" clip-rule="evenodd" fill="#000001" d="M10.756,10.866l0.499,3.629h-2.51l0.5-3.629
	C8.63,10.581,8.204,9.958,8.204,9.235c0-0.992,0.804-1.797,1.796-1.797s1.797,0.805,1.797,1.797
	C11.797,9.958,11.37,10.581,10.756,10.866z"/>
</svg>
