<?xml version="1.0" encoding="utf-8"?>
<!-- Generator: Adobe Illustrator 16.0.0, SVG Export Plug-In . SVG Version: 6.00 Build 0)  -->
<!DOCTYPE svg PUBLIC "-//W3C//DTD SVG 1.1//EN" "http://www.w3.org/Graphics/SVG/1.1/DTD/svg11.dtd">
<svg version="1.1" id="Layer_1" xmlns="http://www.w3.org/2000/svg" xmlns:xlink="http://www.w3.org/1999/xlink" x="0px" y="0px"
	 width="20px" height="20px" viewBox="0 0 20 20" enable-background="new 0 0 20 20" xml:space="preserve">
<path fill-rule="evenodd" clip-rule="evenodd" fill="#FFFFFF" d="M14.376,12.016c1.371,0.002,3.195,0.125,4.01,0.686
	c0.824,0.568,1.48,1.225,1.574,2.268c0.02,0.207,0.045,0.436,0.045,0.643c0,0.268-0.092,0.498-0.275,0.691
	c-0.428,0.447-0.896,0.941-1.365,1.34c-0.371,0.314-0.895,0.57-1.377,0.652c-0.305,0.055-0.586-0.023-0.821-0.225
	s-0.356-0.465-0.351-0.775c0-0.107-0.035-0.365-0.098-0.469c-0.932-0.387-1.443-0.686-2.524-0.686c-0.534,0-1.538,0.012-2.062-0.143
	c-0.117-0.034-0.225-0.086-0.316-0.154c-1.007,0.506-2.145,0.789-3.348,0.789c-4.126,0-7.472-3.346-7.472-7.472
	c0-4.126,3.346-7.472,7.472-7.472c4.127,0,7.473,3.346,7.473,7.472C14.94,10.171,14.739,11.136,14.376,12.016z"/>
<path fill-rule="evenodd" clip-rule="evenodd" fill="#000001" d="M7.467,15.634c-3.574,0-6.473-2.897-6.473-6.473
	c0-3.575,2.898-6.472,6.473-6.472c3.575,0,6.473,2.897,6.473,6.472C13.94,12.736,11.042,15.634,7.467,15.634L7.467,15.634z
	 M7.467,6.792c0.727,0,1.315-0.589,1.315-1.315c0-0.726-0.589-1.315-1.315-1.315s-1.315,0.59-1.315,1.315
	C6.152,6.204,6.741,6.792,7.467,6.792L7.467,6.792z M10.677,8.638c0.727,0,1.314-0.588,1.314-1.314s-0.588-1.316-1.314-1.316
	s-1.316,0.59-1.316,1.316S9.95,8.638,10.677,8.638L10.677,8.638z M10.696,12.344c0.727,0,1.316-0.59,1.316-1.316
	c0-0.727-0.59-1.315-1.316-1.315S9.381,10.3,9.381,11.027C9.381,11.754,9.97,12.344,10.696,12.344L10.696,12.344z M7.504,14.205
	c0.727,0,1.315-0.588,1.315-1.314s-0.589-1.316-1.315-1.316s-1.316,0.59-1.316,1.316S6.778,14.205,7.504,14.205L7.504,14.205z
	 M4.25,12.385c0.727,0,1.315-0.59,1.315-1.316c0-0.727-0.589-1.315-1.315-1.315s-1.315,0.588-1.315,1.315
	C2.935,11.795,3.524,12.385,4.25,12.385L4.25,12.385z M4.271,8.66c0.726,0,1.315-0.59,1.315-1.316S4.997,6.029,4.271,6.029
	c-0.727,0-1.315,0.588-1.315,1.314S3.544,8.66,4.271,8.66L4.271,8.66z M7.467,10.052c0.492,0,0.892-0.398,0.892-0.892
	c0-0.492-0.399-0.892-0.892-0.892S6.576,8.668,6.576,9.161C6.576,9.654,6.975,10.052,7.467,10.052L7.467,10.052z M11.413,15.039
	c0,0,0.348,0.102,1.78,0.102s2.251,0.492,2.946,0.778c0.697,0.286,0.676,1.392,0.676,1.392s0.492-0.082,0.9-0.43
	c0.41-0.348,1.289-1.27,1.289-1.27s0-0.102-0.041-0.552s-0.225-0.901-1.146-1.534c-0.921-0.635-4.421-0.492-4.421-0.492
	s-0.184,0.43-0.716,0.922C12.149,14.445,11.413,15.039,11.413,15.039z"/>
</svg>
