<?xml version="1.0" encoding="utf-8"?>
<!-- Generator: Adobe Illustrator 16.0.0, SVG Export Plug-In . SVG Version: 6.00 Build 0)  -->
<!DOCTYPE svg PUBLIC "-//W3C//DTD SVG 1.1//EN" "http://www.w3.org/Graphics/SVG/1.1/DTD/svg11.dtd">
<svg version="1.1" id="Layer_1" xmlns="http://www.w3.org/2000/svg" xmlns:xlink="http://www.w3.org/1999/xlink" x="0px" y="0px"
	 width="20px" height="20px" viewBox="0 0 20 20" enable-background="new 0 0 20 20" xml:space="preserve">
<path fill-rule="evenodd" clip-rule="evenodd" fill="#FFFFFF" d="M11.44,9.557l1.437-1.959c0.213-0.289,0.535-0.436,0.894-0.404
	s0.65,0.232,0.81,0.555l5.315,10.809c0.157,0.318,0.14,0.668-0.049,0.971c-0.188,0.301-0.493,0.471-0.849,0.471H1.001
	c-0.335,0-0.623-0.148-0.816-0.422c-0.194-0.273-0.238-0.596-0.126-0.91L6.406,0.669c0.144-0.407,0.51-0.667,0.942-0.667
	c0.432,0,0.799,0.259,0.943,0.666L11.44,9.557z"/>
<polygon fill-rule="evenodd" clip-rule="evenodd" fill="#000001" points="1.001,18.999 7.349,1.001 11.129,11.673 13.683,8.19 
	18.998,18.999 "/>
</svg>
