<?xml version="1.0" encoding="utf-8"?>
<!-- Generator: Adobe Illustrator 16.0.0, SVG Export Plug-In . SVG Version: 6.00 Build 0)  -->
<!DOCTYPE svg PUBLIC "-//W3C//DTD SVG 1.1//EN" "http://www.w3.org/Graphics/SVG/1.1/DTD/svg11.dtd">
<svg version="1.1" id="Layer_1" xmlns="http://www.w3.org/2000/svg" xmlns:xlink="http://www.w3.org/1999/xlink" x="0px" y="0px"
	 width="20px" height="20px" viewBox="0 0 20 20" enable-background="new 0 0 20 20" xml:space="preserve">
<path fill-rule="evenodd" clip-rule="evenodd" fill="#FFFFFF" d="M16.223,9.921l-0.07,7.208c-0.006,0.549-0.453,0.991-1.001,0.99
	l-10.38-0.008c-0.548,0-0.996-0.445-0.999-0.994L3.736,9.905l-1.562,0.099C1.696,10.033,1.273,9.73,1.147,9.267l-1.11-4.093
	c-0.105-0.388,0.019-0.776,0.328-1.032C0.603,3.945,0.99,3.758,1.268,3.619c0.428-0.217,0.861-0.421,1.295-0.623
	c0.412-0.19,0.826-0.377,1.243-0.556c0.281-0.121,0.591-0.259,0.884-0.35c1.881-0.582,3.536,0.244,5.369,0.231
	c0.509-0.003,1.028-0.087,1.529-0.172c1.287-0.217,2.602-0.477,3.87-0.011c0.669,0.245,1.373,0.58,2.022,0.879
	c0.42,0.194,0.839,0.393,1.252,0.602c0.283,0.143,0.653,0.324,0.898,0.523c0.313,0.255,0.438,0.646,0.333,1.035l-1.104,4.104
	c-0.124,0.464-0.548,0.769-1.027,0.737L16.223,9.921z"/>
<path fill-rule="evenodd" clip-rule="evenodd" fill="#000001" d="M1.001,4.913l1.111,4.093L4.73,8.841l0.042,8.271l10.38,0.008
	l0.08-8.261l2.662,0.166l1.104-4.105c-0.394-0.32-3.275-1.617-3.886-1.841c-1.517-0.557-3.348,0.232-5.048,0.244
	c-1.796,0.014-3.501-0.765-5.08-0.276C4.411,3.224,1.346,4.628,1.001,4.913L1.001,4.913z M7.252,3.987
	c2.015,0.378,3.463,0.396,5.432-0.007c-0.384,1.354-2.573,2.15-4.425,1.205C7.613,4.856,7.538,4.728,7.252,3.987z"/>
</svg>
