<?xml version="1.0" encoding="utf-8"?>
<!-- Generator: Adobe Illustrator 16.0.0, SVG Export Plug-In . SVG Version: 6.00 Build 0)  -->
<!DOCTYPE svg PUBLIC "-//W3C//DTD SVG 1.1//EN" "http://www.w3.org/Graphics/SVG/1.1/DTD/svg11.dtd">
<svg version="1.1" id="Layer_1" xmlns="http://www.w3.org/2000/svg" xmlns:xlink="http://www.w3.org/1999/xlink" x="0px" y="0px"
	 width="20px" height="20px" viewBox="0 0 20 20" enable-background="new 0 0 20 20" xml:space="preserve">
<path fill-rule="evenodd" clip-rule="evenodd" fill="#FFFFFF" d="M4.283,5.897l2.942-3.049C7.607,2.452,8.242,2.44,8.638,2.822
	l0.886,0.853c0.199,0.192,0.302,0.426,0.307,0.702s-0.089,0.516-0.28,0.713L8.771,5.897h2.478L10.47,5.089
	c-0.191-0.197-0.285-0.438-0.28-0.713s0.108-0.51,0.307-0.702l0.887-0.853c0.396-0.382,1.03-0.37,1.413,0.026l2.942,3.049h3.265
	c0.551,0,1,0.449,1,1V8.13c0,0.551-0.449,1-1,1h-0.229l-1.95,7.576c-0.115,0.448-0.506,0.751-0.969,0.751H4.108
	c-0.464,0-0.855-0.305-0.969-0.754L1.22,9.13H0.997c-0.551,0-1-0.449-1-1V6.897c0-0.551,0.449-1,1-1H4.283z"/>
<path fill-rule="evenodd" clip-rule="evenodd" fill="#000001" d="M0.997,6.897h3.71l3.238-3.355l0.886,0.853L6.417,6.897h7.187
	l-2.414-2.502l0.887-0.853l3.237,3.355h3.689V8.13h-1.005l-2.023,7.862l-0.12,0.465H15.38H4.587H4.108L3.99,15.989L1.998,8.13H0.997
	V6.897L0.997,6.897z M15.339,13.538h-0.727v1.686h0.292L15.339,13.538L15.339,13.538z M13.687,13.538h-1.841v1.686h1.841V13.538
	L13.687,13.538z M10.921,13.538H9.079v1.686h1.842V13.538L10.921,13.538z M8.154,13.538H6.313v1.686h1.842V13.538L8.154,13.538z
	 M5.388,13.538H4.639l0.427,1.686h0.321V13.538L5.388,13.538z M4.404,12.612h0.983v-1.842h-1.45L4.404,12.612L4.404,12.612z
	 M6.313,12.612h1.842v-1.842H6.313V12.612L6.313,12.612z M9.079,12.612h1.842v-1.842H9.079V12.612L9.079,12.612z M11.846,12.612
	h1.841v-1.842h-1.841V12.612L11.846,12.612z M14.612,12.612h0.964l0.475-1.842h-1.438V12.612L14.612,12.612z M3.704,9.847h1.684
	V8.13H3.269L3.704,9.847L3.704,9.847z M6.313,9.847h1.842V8.13H6.313V9.847L6.313,9.847z M9.079,9.847h1.842V8.13H9.079V9.847
	L9.079,9.847z M11.846,9.847h1.841V8.13h-1.841V9.847L11.846,9.847z M14.612,9.847h1.676L16.73,8.13h-2.118V9.847z"/>
</svg>
