<?xml version="1.0" encoding="utf-8"?>
<!-- Generator: Adobe Illustrator 16.0.0, SVG Export Plug-In . SVG Version: 6.00 Build 0)  -->
<!DOCTYPE svg PUBLIC "-//W3C//DTD SVG 1.1//EN" "http://www.w3.org/Graphics/SVG/1.1/DTD/svg11.dtd">
<svg version="1.1" id="Layer_1" xmlns="http://www.w3.org/2000/svg" xmlns:xlink="http://www.w3.org/1999/xlink" x="0px" y="0px"
	 width="20px" height="20px" viewBox="0 0 20 20" enable-background="new 0 0 20 20" xml:space="preserve">
<path fill-rule="evenodd" clip-rule="evenodd" fill="#FFFFFF" d="M19.832,15.562c0.104,0.158,0.166,0.348,0.166,0.551v1.502
	c0,0.551-0.449,1-1,1h-3.473c-0.238,0-0.457-0.08-0.629-0.219c-0.175,0.144-0.389,0.219-0.627,0.219H7.824
	c-0.254,0-0.486-0.096-0.663-0.252c-0.177,0.156-0.409,0.252-0.663,0.252H1.001c-0.55,0-0.999-0.449-0.999-1v-1.502
	c0-0.203,0.062-0.393,0.166-0.551c-0.104-0.158-0.166-0.348-0.166-0.551v-1.504c0-0.203,0.062-0.393,0.166-0.551
	c-0.104-0.158-0.166-0.348-0.166-0.551v-1.502c0-0.203,0.062-0.393,0.166-0.551c-0.104-0.158-0.166-0.348-0.166-0.551V8.297
	c0-0.203,0.062-0.393,0.166-0.551C0.063,7.588,0.002,7.399,0.002,7.196V5.694c0-0.203,0.062-0.394,0.166-0.552
	C0.063,4.985,0.002,4.794,0.002,4.59V3.088c0-0.55,0.449-1,0.999-1h5.497c0.126,0,0.246,0.023,0.356,0.065
	c0.109-0.434,0.503-0.756,0.97-0.756c0.841,0,2.063-0.127,2.744,0.438c0.528,0.438,0.669,1.146,0.835,1.767l1.786,6.411
	c0.14-0.074,0.296-0.111,0.466-0.111h5.343c0.551,0,1,0.449,1,1v1.502c0,0.203-0.062,0.393-0.166,0.551
	c0.104,0.158,0.166,0.348,0.166,0.551v1.504C19.998,15.214,19.937,15.403,19.832,15.562z"/>
<path fill-rule="evenodd" clip-rule="evenodd" fill="#000001" d="M7.824,17.614h6.445L10.44,3.872
	c-0.427-1.596-0.338-1.473-2.616-1.473V17.614z"/>
<rect x="1.001" y="8.297" fill-rule="evenodd" clip-rule="evenodd" fill="#2B4EA1" width="5.497" height="1.504"/>
<rect x="1.001" y="10.903" fill-rule="evenodd" clip-rule="evenodd" fill="#2B4EA1" width="5.497" height="1.502"/>
<rect x="1.001" y="13.507" fill-rule="evenodd" clip-rule="evenodd" fill="#2B4EA1" width="5.497" height="1.504"/>
<rect x="1.001" y="16.112" fill-rule="evenodd" clip-rule="evenodd" fill="#2B4EA1" width="5.497" height="1.502"/>
<rect x="1.001" y="5.694" fill-rule="evenodd" clip-rule="evenodd" fill="#2B4EA1" width="5.497" height="1.502"/>
<rect x="1.001" y="3.088" fill-rule="evenodd" clip-rule="evenodd" fill="#2B4EA1" width="5.497" height="1.502"/>
<path fill-rule="evenodd" clip-rule="evenodd" fill="#2B4EA1" d="M14.073,12.405h4.925v-1.502h-5.343L14.073,12.405L14.073,12.405z
	 M14.8,15.011h4.198v-1.504h-4.617L14.8,15.011L14.8,15.011z M15.525,17.614h3.473v-1.502h-3.892L15.525,17.614z"/>
</svg>
