<?xml version="1.0" encoding="utf-8"?>
<!-- Generator: Adobe Illustrator 16.0.0, SVG Export Plug-In . SVG Version: 6.00 Build 0)  -->
<!DOCTYPE svg PUBLIC "-//W3C//DTD SVG 1.1//EN" "http://www.w3.org/Graphics/SVG/1.1/DTD/svg11.dtd">
<svg version="1.1" id="Layer_1" xmlns="http://www.w3.org/2000/svg" xmlns:xlink="http://www.w3.org/1999/xlink" x="0px" y="0px"
	 width="20px" height="20px" viewBox="0 0 20 20" enable-background="new 0 0 20 20" xml:space="preserve">
<path fill-rule="evenodd" clip-rule="evenodd" fill="#FFFFFF" d="M7.271,13.366l7.427-12.865c0.275-0.477,0.889-0.641,1.366-0.366
	l1.196,0.691c0.478,0.275,0.642,0.889,0.366,1.366L10.2,15.058l2.634,1.52c0.478,0.275,0.642,0.889,0.366,1.366l-0.897,1.556
	c-0.275,0.477-0.89,0.641-1.366,0.365l-8.198-4.732c-0.477-0.275-0.641-0.889-0.366-1.365l0.898-1.556
	c0.275-0.478,0.889-0.642,1.365-0.366L7.271,13.366z"/>
<polygon fill-rule="evenodd" clip-rule="evenodd" fill="#000001" points="4.136,12.71 7.637,14.731 15.564,1.001 16.762,1.693 
	8.833,15.423 12.334,17.444 11.437,18.999 3.239,14.266 "/>
</svg>
