<?xml version="1.0" encoding="UTF-8" standalone="no"?>
<!-- Generator: Adobe Illustrator 16.0.0, SVG Export Plug-In . SVG Version: 6.00 Build 0)  -->

<svg
   xmlns:dc="http://purl.org/dc/elements/1.1/"
   xmlns:cc="http://creativecommons.org/ns#"
   xmlns:rdf="http://www.w3.org/1999/02/22-rdf-syntax-ns#"
   xmlns:svg="http://www.w3.org/2000/svg"
   xmlns="http://www.w3.org/2000/svg"
   xmlns:sodipodi="http://sodipodi.sourceforge.net/DTD/sodipodi-0.dtd"
   xmlns:inkscape="http://www.inkscape.org/namespaces/inkscape"
   version="1.1"
   id="Layer_1"
   x="0px"
   y="0px"
   width="20px"
   height="20px"
   viewBox="0 0 20 20"
   enable-background="new 0 0 20 20"
   xml:space="preserve"
   inkscape:version="0.91 r13725"
   sodipodi:docname="drinking_water.svg"><metadata
     id="metadata15"><rdf:RDF><cc:Work
         rdf:about=""><dc:format>image/svg+xml</dc:format><dc:type
           rdf:resource="http://purl.org/dc/dcmitype/StillImage" /></cc:Work></rdf:RDF></metadata><defs
     id="defs13" /><sodipodi:namedview
     pagecolor="#ffffff"
     bordercolor="#666666"
     borderopacity="1"
     objecttolerance="10"
     gridtolerance="10"
     guidetolerance="10"
     inkscape:pageopacity="0"
     inkscape:pageshadow="2"
     inkscape:window-width="657"
     inkscape:window-height="480"
     id="namedview11"
     showgrid="false"
     inkscape:zoom="11.8"
     inkscape:cx="10"
     inkscape:cy="10"
     inkscape:window-x="0"
     inkscape:window-y="0"
     inkscape:window-maximized="0"
     inkscape:current-layer="Layer_1" /><path
     fill-rule="evenodd"
     clip-rule="evenodd"
     fill="#FFFFFF"
     d="M10,19.998c5.507,0,9.998-4.492,9.998-9.998  c0-5.508-4.491-9.998-9.998-9.998S0.002,4.492,0.002,10C0.002,15.506,4.493,19.998,10,19.998z"
     id="path3" /><path
     fill-rule="evenodd"
     clip-rule="evenodd"
     fill="#2B4EA1"
     d="M10,18.998c4.956,0,8.998-4.043,8.998-8.998  c0-4.957-4.042-8.999-8.998-8.999S1.001,5.043,1.001,10C1.001,14.955,5.044,18.998,10,18.998z"
     id="path5"
     style="fill:#001aff;fill-opacity:1" /><path
     fill-rule="evenodd"
     clip-rule="evenodd"
     fill="#FFFFFF"
     d="M7.555,17.164h4.891l1.146-7.967H6.408L7.555,17.164L7.555,17.164z   M12.263,11.92H7.736l-0.259-1.797h5.044L12.263,11.92z"
     id="path7" /><path
     fill-rule="evenodd"
     clip-rule="evenodd"
     fill="#FFFFFF"
     d="M10.896,2.276c-0.088,0.365-0.104,0.132,0,0.574  c0.453,0.105,0.479,0.064,1.021,0.064v0.574l-0.574,0.064l-0.064,0.573c-0.928,0-1.614,0.051-2.251,0.624  C7.968,5.705,8.149,6.249,8.149,7.832h1.533c0.663,0-0.71-2.107,1.661-2.107c0.18,0,0.388,0.412,0.966,0.426  c0.528,0.012,0.85-0.426,1.014-0.426h4.597c-0.311-0.572-0.68-1.107-1.102-1.598h-3.432c0-0.693-0.034-0.638-0.639-0.638V2.915  c0.543,0,0.569,0.041,1.022-0.064V2.276c-0.113-0.026-0.346-0.049-0.632-0.064h-1.822C11.121,2.227,10.97,2.247,10.896,2.276z"
     id="path9" /></svg>