<?xml version="1.0" encoding="UTF-8" standalone="no"?>
<!-- Generator: Adobe Illustrator 16.0.0, SVG Export Plug-In . SVG Version: 6.00 Build 0)  -->

<svg
   xmlns:dc="http://purl.org/dc/elements/1.1/"
   xmlns:cc="http://creativecommons.org/ns#"
   xmlns:rdf="http://www.w3.org/1999/02/22-rdf-syntax-ns#"
   xmlns:svg="http://www.w3.org/2000/svg"
   xmlns="http://www.w3.org/2000/svg"
   xmlns:sodipodi="http://sodipodi.sourceforge.net/DTD/sodipodi-0.dtd"
   xmlns:inkscape="http://www.inkscape.org/namespaces/inkscape"
   version="1.1"
   id="Layer_1"
   x="0px"
   y="0px"
   width="20px"
   height="20px"
   viewBox="0 0 20 20"
   enable-background="new 0 0 20 20"
   xml:space="preserve"
   inkscape:version="0.91 r13725"
   sodipodi:docname="fastfood.svg"><metadata
     id="metadata11"><rdf:RDF><cc:Work
         rdf:about=""><dc:format>image/svg+xml</dc:format><dc:type
           rdf:resource="http://purl.org/dc/dcmitype/StillImage" /></cc:Work></rdf:RDF></metadata><defs
     id="defs9" /><sodipodi:namedview
     pagecolor="#ffffff"
     bordercolor="#666666"
     borderopacity="1"
     objecttolerance="10"
     gridtolerance="10"
     guidetolerance="10"
     inkscape:pageopacity="0"
     inkscape:pageshadow="2"
     inkscape:window-width="1102"
     inkscape:window-height="645"
     id="namedview7"
     showgrid="false"
     inkscape:zoom="11.8"
     inkscape:cx="10"
     inkscape:cy="10"
     inkscape:window-x="0"
     inkscape:window-y="0"
     inkscape:window-maximized="0"
     inkscape:current-layer="Layer_1" /><path
     d="M0.873,9.051C0.826,8.932,0.804,8.803,0.806,8.666  c0.041-2.069,1.649-3.628,3.363-4.538C5.539,3.399,7.076,2.994,8.616,2.85c2.135-0.201,4.459,0.086,6.447,0.908  c1.717,0.709,3.449,1.951,3.989,3.82c0.105,0.363,0.16,0.738,0.164,1.117c0.001,0.123-0.018,0.238-0.056,0.348  c0.053,0.021,0.105,0.043,0.158,0.066c0.316,0.143,0.523,0.41,0.579,0.752c0.13,0.791,0.178,1.978-0.126,2.72  c-0.049,0.119-0.109,0.213-0.197,0.307c-0.11,0.117-0.245,0.2-0.395,0.26c0.05,0.117,0.078,0.248,0.078,0.385  c0.001,0.238,0,0.479-0.009,0.719c-0.034,0.867-0.185,1.828-0.863,2.441c-0.395,0.355-0.887,0.518-1.413,0.518H3.281  c-0.672,0-1.303-0.201-1.771-0.703c-0.73-0.784-0.744-1.97-0.737-2.977c0-0.131,0.027-0.254,0.073-0.369  c-0.13-0.068-0.239-0.164-0.332-0.289c-0.318-0.434-0.463-1.104-0.502-1.633C-0.046,10.432,0.125,9.471,0.873,9.051z"
     id="path3"
     clip-rule="evenodd"
     fill-rule="evenodd"
     fill="#FFFFFF" /><path
     d="M3.281,16.211h13.691c1.268,0,1.289-1.504,1.286-2.676  L1.773,13.537C1.765,14.914,1.821,16.211,3.281,16.211L3.281,16.211z M1.321,12.281c0.549,0.17,17.181,0.289,17.525-0.076  c0.217-0.529,0.167-1.564,0.065-2.182c-2.163-0.966-2.229,1.321-4.104,1.588c-1.253,0.178-1.258-0.602-1.937-1.118  c-0.628-0.478-1.413-0.645-2.36-0.657l-9.066,0.05C0.773,10.124,0.977,11.813,1.321,12.281L1.321,12.281z M1.806,8.685l16.41,0.021  C18.177,4.495,9.862,2.234,4.638,5.01C3.43,5.653,1.841,6.907,1.806,8.685L1.806,8.685z M6.727,5.213  c0.602,0,1.089,0.221,1.089,0.495c0,0.273-0.488,0.495-1.089,0.495S5.637,5.982,5.637,5.708C5.637,5.434,6.125,5.213,6.727,5.213  L6.727,5.213z M9.599,6.7c0.601,0,1.089,0.221,1.089,0.494S10.2,7.69,9.599,7.69c-0.602,0-1.09-0.223-1.09-0.496  S8.998,6.7,9.599,6.7L9.599,6.7z M11.712,4.719c0.602,0,1.09,0.221,1.09,0.494s-0.488,0.496-1.09,0.496s-1.09-0.223-1.09-0.496  S11.11,4.719,11.712,4.719z"
     id="path5"
     clip-rule="evenodd"
     fill-rule="evenodd"
     fill="#030303" /></svg>