<?xml version="1.0" encoding="utf-8"?>
<!-- Generator: Adobe Illustrator 16.0.0, SVG Export Plug-In . SVG Version: 6.00 Build 0)  -->
<!DOCTYPE svg PUBLIC "-//W3C//DTD SVG 1.1//EN" "http://www.w3.org/Graphics/SVG/1.1/DTD/svg11.dtd">
<svg version="1.1" id="Layer_1" xmlns="http://www.w3.org/2000/svg" xmlns:xlink="http://www.w3.org/1999/xlink" x="0px" y="0px"
	 width="20px" height="20px" viewBox="0 0 20 20" enable-background="new 0 0 20 20" xml:space="preserve">
<path fill-rule="evenodd" clip-rule="evenodd" fill="#FFFFFF" d="M3.191,9.573l0.873-1.627C4.242,7.614,4.566,7.42,4.944,7.42h1.026
	l0.456-0.83c0.181-0.328,0.502-0.518,0.876-0.518h2.991l0.37-0.701c0.177-0.338,0.504-0.534,0.885-0.534h1.548
	c0.551,0,1,0.448,1,0.999v1.673h2.074c0.366,0,0.682,0.183,0.865,0.499l0.901,1.564h1.062c0.336,0,0.625,0.15,0.818,0.426
	s0.236,0.598,0.121,0.915l-1.302,3.59c-0.146,0.404-0.511,0.66-0.939,0.66H3.694c-0.325,0-0.604-0.141-0.8-0.4l-2.693-3.59
	c-0.233-0.311-0.268-0.702-0.094-1.047c0.173-0.348,0.506-0.553,0.894-0.553H3.191z"/>
<path fill-rule="evenodd" clip-rule="evenodd" fill="#000001" d="M1.001,10.573h2.788l0.079-0.149l0.987-1.84l0.089-0.165H5.13
	h1.431l0.651-1.185l0.09-0.162h0.184h3.276h0.136l0.65-1.236h1.548v2.673h2.895h0.18l0.091,0.157l1.01,1.75l0.089,0.157h1.639
	l-1.302,3.59H3.694L1.001,10.573L1.001,10.573z M5.316,9.044L4.665,10.26h11.797l-0.649-1.127H9.978H9.452l0.252-0.461l0.533-0.975
	H7.671L7.02,8.881L6.93,9.044H6.746H5.316z"/>
</svg>
