<?xml version="1.0" encoding="UTF-8" standalone="no"?>
<!-- Generator: Adobe Illustrator 16.0.0, SVG Export Plug-In . SVG Version: 6.00 Build 0)  -->

<svg
   xmlns:dc="http://purl.org/dc/elements/1.1/"
   xmlns:cc="http://creativecommons.org/ns#"
   xmlns:rdf="http://www.w3.org/1999/02/22-rdf-syntax-ns#"
   xmlns:svg="http://www.w3.org/2000/svg"
   xmlns="http://www.w3.org/2000/svg"
   xmlns:sodipodi="http://sodipodi.sourceforge.net/DTD/sodipodi-0.dtd"
   xmlns:inkscape="http://www.inkscape.org/namespaces/inkscape"
   version="1.1"
   id="Layer_1"
   x="0px"
   y="0px"
   width="20px"
   height="20px"
   viewBox="0 0 20 20"
   enable-background="new 0 0 20 20"
   xml:space="preserve"
   inkscape:version="0.91 r13725"
   sodipodi:docname="firebrigade.svg"><metadata
     id="metadata21"><rdf:RDF><cc:Work
         rdf:about=""><dc:format>image/svg+xml</dc:format><dc:type
           rdf:resource="http://purl.org/dc/dcmitype/StillImage" /></cc:Work></rdf:RDF></metadata><defs
     id="defs19" /><sodipodi:namedview
     pagecolor="#ffffff"
     bordercolor="#666666"
     borderopacity="1"
     objecttolerance="10"
     gridtolerance="10"
     guidetolerance="10"
     inkscape:pageopacity="0"
     inkscape:pageshadow="2"
     inkscape:window-width="657"
     inkscape:window-height="480"
     id="namedview17"
     showgrid="false"
     inkscape:zoom="11.8"
     inkscape:cx="10"
     inkscape:cy="10"
     inkscape:window-x="0"
     inkscape:window-y="0"
     inkscape:window-maximized="0"
     inkscape:current-layer="Layer_1" /><path
     fill-rule="evenodd"
     clip-rule="evenodd"
     fill="#FFFFFF"
     d="M1.036,8.657H1.005c-0.551,0-1-0.449-1-1V7.142  c0-0.288,0.122-0.547,0.317-0.73C0.127,6.229,0.005,5.97,0.005,5.683V5.165c0-0.551,0.449-1,1-1h11.621c0.551,0,1,0.449,1,1v0.518  c0,0.189-0.054,0.369-0.147,0.521h0.363c0.15-0.874,0.915-1.542,1.831-1.542c0.927,0,1.698,0.684,1.836,1.572  C17.771,6.3,17.99,6.47,18.128,6.718l1.275,2.305c0.086,0.154,0.126,0.307,0.126,0.484v1.99c0.279,0.178,0.466,0.49,0.466,0.846  v1.154c0,0.551-0.449,1-1,1h-0.326c-0.543,0.82-1.472,1.338-2.49,1.338c-1.018,0-1.945-0.518-2.489-1.338H8.701  c-0.543,0.82-1.472,1.338-2.489,1.338c-1.109,0-2.106-0.613-2.621-1.555l-2.738-0.423c-0.491-0.075-0.848-0.491-0.848-0.987v-0.994  c0-0.346,0.178-0.65,0.446-0.83V9.567C0.451,9.163,0.691,8.815,1.036,8.657z"
     id="path3" /><path
     fill-rule="evenodd"
     clip-rule="evenodd"
     fill="#CE1F26"
     d="M1.036,12.87v-0.994h0.446V9.567h1.094V8.21h8.489v1.297h2.228  V7.202h3.992l1.276,2.305v2.836h0.466v1.154h-0.939c-0.269,0.778-1.007,1.338-1.877,1.338c-0.869,0-1.608-0.56-1.877-1.338H8.12  c-0.269,0.778-1.007,1.338-1.877,1.338c-0.914,0-1.683-0.617-1.914-1.457L1.036,12.87z"
     id="path5"
     style="fill:#e30000;fill-opacity:1" /><polygon
     fill-rule="evenodd"
     clip-rule="evenodd"
     fill="#FFFFFF"
     points="14.057,7.692 16.714,7.692 17.774,9.622 14.057,9.622 "
     id="polygon7" /><path
     fill-rule="evenodd"
     clip-rule="evenodd"
     fill="#2B4EA1"
     d="M15.704,5.661L15.704,5.661c0.473,0,0.858,0.387,0.858,0.858V6.78  h-1.717V6.52C14.846,6.048,15.231,5.661,15.704,5.661z"
     id="path9"
     style="fill:#001aff;fill-opacity:1" /><path
     fill-rule="evenodd"
     clip-rule="evenodd"
     fill="#000001"
     d="M1.036,5.165h11.621v0.518h-0.849v1.459h0.849v0.516H1.036V7.142  h0.85V5.683h-0.85V5.165L1.036,5.165z M2.509,5.683v1.459h1.702V5.683H2.509L2.509,5.683z M4.834,5.683v1.459h1.702V5.683H4.834  L4.834,5.683z M7.158,5.683v1.459H8.86V5.683H7.158L7.158,5.683z M9.483,5.683v1.459h1.702V5.683H9.483z"
     id="path11" /><circle
     fill-rule="evenodd"
     clip-rule="evenodd"
     fill="#FFFFFF"
     cx="6.243"
     cy="12.849"
     r="0.906"
     id="circle13" /><circle
     fill-rule="evenodd"
     clip-rule="evenodd"
     fill="#FFFFFF"
     cx="16.211"
     cy="12.849"
     r="0.906"
     id="circle15" /></svg>