<?xml version="1.0" encoding="UTF-8" standalone="no"?>
<!-- Generator: Adobe Illustrator 16.0.0, SVG Export Plug-In . SVG Version: 6.00 Build 0)  -->

<svg
   xmlns:dc="http://purl.org/dc/elements/1.1/"
   xmlns:cc="http://creativecommons.org/ns#"
   xmlns:rdf="http://www.w3.org/1999/02/22-rdf-syntax-ns#"
   xmlns:svg="http://www.w3.org/2000/svg"
   xmlns="http://www.w3.org/2000/svg"
   xmlns:sodipodi="http://sodipodi.sourceforge.net/DTD/sodipodi-0.dtd"
   xmlns:inkscape="http://www.inkscape.org/namespaces/inkscape"
   version="1.1"
   id="Layer_1"
   x="0px"
   y="0px"
   width="20px"
   height="20px"
   viewBox="0 0 20 20"
   enable-background="new 0 0 20 20"
   xml:space="preserve"
   inkscape:version="0.91 r13725"
   sodipodi:docname="first_aid.svg"><metadata
     id="metadata15"><rdf:RDF><cc:Work
         rdf:about=""><dc:format>image/svg+xml</dc:format><dc:type
           rdf:resource="http://purl.org/dc/dcmitype/StillImage" /></cc:Work></rdf:RDF></metadata><defs
     id="defs13" /><sodipodi:namedview
     pagecolor="#ffffff"
     bordercolor="#666666"
     borderopacity="1"
     objecttolerance="10"
     gridtolerance="10"
     guidetolerance="10"
     inkscape:pageopacity="0"
     inkscape:pageshadow="2"
     inkscape:window-width="657"
     inkscape:window-height="480"
     id="namedview11"
     showgrid="false"
     inkscape:zoom="11.8"
     inkscape:cx="10"
     inkscape:cy="10"
     inkscape:window-x="0"
     inkscape:window-y="0"
     inkscape:window-maximized="0"
     inkscape:current-layer="Layer_1" /><path
     fill-rule="evenodd"
     clip-rule="evenodd"
     fill="#FFFFFF"
     d="M6.16,4.122C6.948,2.741,8.36,1.798,10,1.798  s3.052,0.943,3.84,2.324h3.761c1.321,0,2.397,1.076,2.397,2.397v9.285c0,1.32-1.076,2.397-2.397,2.397H2.399  c-1.321,0-2.397-1.077-2.397-2.397V6.52c0-1.321,1.076-2.397,2.397-2.397H6.16z"
     id="path3" /><path
     fill-rule="evenodd"
     clip-rule="evenodd"
     fill="#CE1F26"
     d="M2.399,5.121h4.386C7.332,3.753,8.565,2.798,10,2.798  s2.668,0.955,3.215,2.323h4.386c0.769,0,1.397,0.629,1.397,1.398v9.285c0,0.77-0.629,1.398-1.397,1.398H2.399  c-0.77,0-1.397-0.629-1.397-1.398V6.52C1.002,5.75,1.63,5.121,2.399,5.121L2.399,5.121z M7.642,5.121h4.717  C11.884,4.197,11.005,3.578,10,3.578S8.116,4.197,7.642,5.121z"
     id="path5"
     style="fill:#e30000;fill-opacity:1" /><path
     fill-rule="evenodd"
     clip-rule="evenodd"
     fill="#FFFFFF"
     d="M10,16.278c2.818,0,5.116-2.298,5.116-5.116S12.818,6.045,10,6.045  c-2.817,0-5.116,2.299-5.116,5.117S7.183,16.278,10,16.278z"
     id="path7" /><polygon
     fill-rule="evenodd"
     clip-rule="evenodd"
     fill="#CE1F26"
     points="6.259,12.371 6.259,9.953 8.791,9.953 8.791,7.42   11.209,7.42 11.209,9.953 13.741,9.953 13.741,12.371 11.209,12.371 11.209,14.902 8.791,14.902 8.791,12.371 "
     id="polygon9"
     style="fill:#e30000;fill-opacity:1" /></svg>