<?xml version="1.0" encoding="utf-8"?>
<!-- Generator: Adobe Illustrator 16.0.0, SVG Export Plug-In . SVG Version: 6.00 Build 0)  -->
<!DOCTYPE svg PUBLIC "-//W3C//DTD SVG 1.1//EN" "http://www.w3.org/Graphics/SVG/1.1/DTD/svg11.dtd">
<svg version="1.1" id="Layer_1" xmlns="http://www.w3.org/2000/svg" xmlns:xlink="http://www.w3.org/1999/xlink" x="0px" y="0px"
	 width="20px" height="20px" viewBox="0 0 20 20" enable-background="new 0 0 20 20" xml:space="preserve">
<path fill-rule="evenodd" clip-rule="evenodd" fill="#FFFFFF" d="M15.443,10.278c0.093,0.059,0.185,0.118,0.275,0.18
	c0.661,0.436,1.928,1.634,2.13,2.389c0.109,0.408-0.037,0.82-0.38,1.068l-0.248,0.18c0.063,0.041,0.124,0.082,0.184,0.121
	c0.457,0.307,0.58,0.93,0.274,1.387c-0.213,0.318-0.658,0.656-0.973,0.889c-0.644,0.475-1.186,0.734-1.893,1.078
	c-0.337,0.164-0.692,0.287-1.043,0.419c-0.223,0.084-0.497,0.136-0.724,0.212c-0.457,0.57-0.661,0.746-1.392,1.18
	c-0.089,0.053-0.172,0.103-0.265,0.148c-0.355,0.178-0.956,0.434-1.342,0.467c-0.338,0.027-0.643-0.102-0.858-0.365
	c-0.214-0.264-0.28-0.588-0.183-0.914l0.088-0.299c-0.657-0.129-1.313-0.338-1.87-0.59c-1.045-0.475-1.878-0.984-2.756-1.676
	c-0.021,0.021-0.041,0.041-0.06,0.061c-0.163,0.158-0.234,0.289-0.439,0.443c-0.149,0.113-0.282,0.236-0.428,0.354
	c-0.311,0.25-0.663,0.41-1.026,0.566c-0.41,0.178-1.044,0.295-1.491,0.305c-0.319,0.008-0.597-0.121-0.798-0.369
	c-0.201-0.247-0.27-0.545-0.198-0.855c0.06-0.258,0.146-0.375,0.263-0.586c0.705-1.363,1.044-2.115,0.444-3.604
	c-0.087-0.217-0.182-0.422-0.286-0.631l-0.341-0.682c-0.195-0.389-0.124-0.838,0.181-1.148C0.558,9.733,0.936,9.64,1.289,9.747
	c0.184,0.027,0.364,0.025,0.554,0.068c0.686,0.154,1.224,0.41,1.781,0.838c0.321,0.246,0.614,0.521,0.876,0.828
	c0.31-0.23,0.629-0.447,0.952-0.662c0.236-0.158,0.568-0.367,0.92-0.565c-0.021-0.009-0.039-0.017-0.057-0.021
	c-0.458-0.106-0.772-0.503-0.772-0.974v-0.07c0-0.471,0.315-0.867,0.773-0.975c0.224-0.051,0.454-0.15,0.68-0.215
	c1.408-0.4,3.246-0.643,4.645-0.115c0.432,0.164,0.836,0.336,1.209,0.611c0.106,0.078,0.209,0.162,0.311,0.246
	c-0.126-0.189-0.233-0.391-0.321-0.599c-0.342-0.817-0.617-2.046-0.152-2.854c0.479-0.832,1.636-1.064,2.411-0.51
	c0.21,0.151,0.367,0.313,0.501,0.537c0.253,0.426,0.207,0.725,0.275,1.166c0.023,0.156,0.075,0.4,0.253,0.453
	c0.096,0.029,0.271,0.02,0.367-0.029c0.088-0.156,0.095-0.657,0.095-0.822c0-0.268-0.667-0.906-0.841-1.08
	c-0.015-0.014-0.025-0.025-0.039-0.039l-0.352-0.389c-0.79-0.872-0.851-1.617-0.851-2.727c0-0.945,0.596-1.772,1.58-1.844
	c0.025-0.002,0.047-0.003,0.072-0.003h0.102c0.025,0,0.046,0.001,0.07,0.003c0.605,0.042,1.146,0.399,1.414,0.946
	c0.211,0.432,0.175,0.867,0.172,1.327c0,0.015,0,0.037,0.002,0.055c0.144,0.181,0.353,0.343,0.511,0.549
	c0.131,0.168,0.318,0.32,0.462,0.498C19.754,4.45,20,5.071,20,6.472C20,9.036,17.933,10.763,15.443,10.278z"/>
<path fill-rule="evenodd" clip-rule="evenodd" fill="#000001" d="M6.543,9.188v0.07c0.489,0.113,1.225,0.729,1.376,1.377
	c-0.435,0.102-1.516,0.751-1.913,1.016c-0.441,0.295-0.861,0.58-1.274,0.914c-0.145,0.116-0.268,0.23-0.412,0.328
	c-0.145-0.105-0.423-0.77-1.306-1.447c-0.44-0.339-0.84-0.531-1.391-0.655c-0.161-0.036-0.533-0.044-0.621-0.085l0.341,0.682
	c0.126,0.254,0.208,0.43,0.319,0.704c0.727,1.806,0.346,2.831-0.484,4.437c-0.063,0.121-0.142,0.203-0.177,0.354
	c0.31-0.008,0.835-0.102,1.118-0.225c0.845-0.363,0.718-0.399,1.247-0.799c0.137-0.104,0.217-0.238,0.344-0.361
	c0.132-0.129,0.528-0.633,0.574-0.804c0.209,0.14,0.367,0.319,0.591,0.502c0.935,0.763,1.658,1.221,2.761,1.72
	c0.757,0.344,1.843,0.637,2.752,0.637c-0.041,0.086-0.073,0.262-0.102,0.357l-0.322,1.09c0.213-0.018,0.79-0.271,0.978-0.364
	c0.089-0.044,0.121-0.067,0.202-0.115c0.773-0.458,0.774-0.503,1.254-1.11c0.096-0.122,0.736-0.25,1.02-0.357
	c0.31-0.115,0.666-0.24,0.958-0.383c0.69-0.334,1.068-0.49,1.735-0.982c0.185-0.137,0.619-0.467,0.735-0.641
	c-0.185-0.123-1.272-0.824-1.341-0.918c0.065-0.09,0.55-0.42,0.681-0.519l0.695-0.505c-0.112-0.42-1.215-1.482-1.715-1.813
	c-0.157-0.104-0.271-0.18-0.431-0.275c-0.397-0.24-0.779-0.389-1.213-0.553c-0.194-0.072-0.307-0.305-0.515-0.543
	c-0.064-0.074-0.114-0.113-0.186-0.168c-0.601-0.459-0.601-0.58-1.537-0.934c-1.187-0.447-2.865-0.186-4.018,0.143
	C7.006,9.036,6.785,9.132,6.543,9.188L6.543,9.188z M15.507,1.848c0-0.559,0.317-0.822,0.652-0.847h0.102
	c0.239,0.017,0.471,0.152,0.586,0.389c0.102,0.208,0.072,0.573,0.07,0.883c-0.004,0.674,0.375,0.771,0.722,1.219
	c0.146,0.189,0.314,0.315,0.475,0.515C18.79,4.847,19,5.241,19,6.472c0,1.967-1.536,3.256-3.502,2.795
	c-0.795-0.186-1.444-0.812-1.736-1.51c-0.203-0.486-0.485-1.49-0.209-1.969c0.199-0.346,0.692-0.39,0.963-0.196
	c0.096,0.069,0.159,0.126,0.224,0.235c0.123,0.205,0.103,0.521,0.146,0.807c0.239,1.549,1.637,1.463,2.189,1.088
	c0.468-0.318,0.514-1.031,0.514-1.639c0-0.689-0.677-1.334-1.139-1.791l-0.353-0.388C15.5,3.238,15.507,2.69,15.507,1.848z"/>
<circle fill-rule="evenodd" clip-rule="evenodd" fill="#FFFFFF" cx="13.734" cy="12.675" r="0.801"/>
</svg>
