<?xml version="1.0" encoding="utf-8"?>
<!-- Generator: Adobe Illustrator 16.0.0, SVG Export Plug-In . SVG Version: 6.00 Build 0)  -->
<!DOCTYPE svg PUBLIC "-//W3C//DTD SVG 1.1//EN" "http://www.w3.org/Graphics/SVG/1.1/DTD/svg11.dtd">
<svg version="1.1" id="Layer_1" xmlns="http://www.w3.org/2000/svg" xmlns:xlink="http://www.w3.org/1999/xlink" x="0px" y="0px"
	 width="20px" height="20px" viewBox="0 0 20 20" enable-background="new 0 0 20 20" xml:space="preserve">
<path fill-rule="evenodd" clip-rule="evenodd" fill="#FFFFFF" d="M15.401,10.749c0.919-0.279,2.012-0.361,2.68,0.428
	c0.787,0.932,0.277,2.246-0.267,3.155c-0.69,1.153-1.73,2.233-2.752,3.099c-1.118,0.945-2.631,1.971-4.063,2.387
	c-0.313,0.141-0.656,0.188-0.998,0.176c-0.343,0.012-0.689-0.035-1.003-0.176c-1.431-0.416-2.943-1.441-4.062-2.387
	c-1.021-0.865-2.062-1.945-2.751-3.099c-0.544-0.909-1.054-2.224-0.267-3.155c0.667-0.789,1.76-0.707,2.679-0.428
	c-0.073-0.548,0.06-1.148,0.268-1.703C3.944,8.628,3.084,7.96,3.084,6.919c0-1.039,0.86-1.707,1.781-2.127
	C4.51,3.845,4.375,2.766,5.11,2.03c0.735-0.736,1.815-0.6,2.763-0.245C8.292,0.864,8.959,0.005,10,0.005
	c1.04,0,1.708,0.859,2.126,1.78c0.948-0.355,2.028-0.491,2.764,0.245c0.735,0.735,0.6,1.815,0.245,2.762
	c0.921,0.42,1.78,1.088,1.78,2.127c0,1.041-0.859,1.709-1.78,2.127C15.342,9.601,15.475,10.201,15.401,10.749z"/>
<path fill-rule="evenodd" clip-rule="evenodd" fill="#000001" d="M10,1.004c0.627,0,1.188,0.837,1.559,2.15
	c1.191-0.666,2.18-0.861,2.624-0.417s0.249,1.433-0.417,2.624c1.313,0.371,2.149,0.932,2.149,1.559c0,0.629-0.837,1.189-2.15,1.561
	c0.667,1.191,0.862,2.179,0.418,2.623s-1.433,0.248-2.623-0.418c-0.371,1.314-0.933,2.15-1.56,2.15c-0.627,0-1.189-0.837-1.56-2.15
	c-1.191,0.666-2.179,0.861-2.624,0.418C5.373,10.659,5.568,9.671,6.234,8.48c-1.313-0.371-2.15-0.932-2.15-1.561
	c0-0.627,0.837-1.188,2.15-1.56c-0.667-1.19-0.862-2.179-0.418-2.623C6.261,2.293,7.25,2.488,8.44,3.154
	C8.811,1.841,9.373,1.004,10,1.004L10,1.004z M2.682,11.821c-0.651,0.771,0.647,2.939,2.9,4.846c1.35,1.142,2.736,1.93,3.771,2.213
	c0.168,0.09,0.388,0.126,0.647,0.111c0.259,0.014,0.478-0.021,0.645-0.111c1.034-0.283,2.421-1.07,3.771-2.213
	c2.253-1.906,3.552-4.074,2.9-4.846c-0.651-0.77-3.007,0.15-5.26,2.057c-0.833,0.705-1.536,1.445-2.058,2.139
	c-0.522-0.693-1.225-1.435-2.058-2.14C5.688,11.972,3.333,11.052,2.682,11.821z"/>
<path fill-rule="evenodd" clip-rule="evenodd" fill="#FFFFFF" d="M10,9.185c1.247,0,2.265-1.018,2.265-2.266
	c0-1.247-1.018-2.265-2.265-2.265c-1.248,0-2.265,1.018-2.265,2.265C7.735,8.167,8.752,9.185,10,9.185z"/>
</svg>
