<?xml version="1.0" encoding="utf-8"?>
<!-- Generator: Adobe Illustrator 16.0.0, SVG Export Plug-In . SVG Version: 6.00 Build 0)  -->
<!DOCTYPE svg PUBLIC "-//W3C//DTD SVG 1.1//EN" "http://www.w3.org/Graphics/SVG/1.1/DTD/svg11.dtd">
<svg version="1.1" id="Layer_1" xmlns="http://www.w3.org/2000/svg" xmlns:xlink="http://www.w3.org/1999/xlink" x="0px" y="0px"
	 width="20px" height="20px" viewBox="0 0 20 20" enable-background="new 0 0 20 20" xml:space="preserve">
<path fill-rule="evenodd" clip-rule="evenodd" fill="#FFFFFF" d="M12.88,10l6.521,6.522c0.796,0.795,0.796,2.086,0,2.881
	c-0.795,0.795-2.085,0.795-2.88,0L10,12.881l-6.521,6.521c-0.795,0.795-2.085,0.795-2.88,0c-0.795-0.795-0.795-2.086,0-2.881
	L7.12,10L0.598,3.479c-0.795-0.795-0.795-2.085,0-2.881c0.795-0.795,2.085-0.795,2.881,0L10,7.119l6.521-6.521
	c0.795-0.795,2.085-0.795,2.88,0c0.795,0.795,0.795,2.085,0,2.881L12.88,10z"/>
<path fill-rule="evenodd" clip-rule="evenodd" fill="#000001" d="M17.229,1.305c0.404-0.404,1.061-0.404,1.466,0
	c0.405,0.405,0.405,1.062,0,1.467L11.466,10l7.229,7.229c0.405,0.404,0.405,1.061,0,1.467c-0.404,0.404-1.062,0.404-1.466,0
	L10,11.467l-7.228,7.229c-0.405,0.404-1.062,0.404-1.467,0c-0.405-0.406-0.405-1.063,0-1.467L8.534,10L1.306,2.771
	c-0.405-0.405-0.405-1.062,0-1.467C1.71,0.9,2.367,0.9,2.772,1.305L10,8.533L17.229,1.305z"/>
</svg>
