<?xml version="1.0" encoding="UTF-8" standalone="no"?>
<!-- Generator: Adobe Illustrator 16.0.0, SVG Export Plug-In . SVG Version: 6.00 Build 0)  -->

<svg
   xmlns:dc="http://purl.org/dc/elements/1.1/"
   xmlns:cc="http://creativecommons.org/ns#"
   xmlns:rdf="http://www.w3.org/1999/02/22-rdf-syntax-ns#"
   xmlns:svg="http://www.w3.org/2000/svg"
   xmlns="http://www.w3.org/2000/svg"
   xmlns:sodipodi="http://sodipodi.sourceforge.net/DTD/sodipodi-0.dtd"
   xmlns:inkscape="http://www.inkscape.org/namespaces/inkscape"
   version="1.1"
   id="Layer_1"
   x="0px"
   y="0px"
   width="20px"
   height="20px"
   viewBox="0 0 20 20"
   enable-background="new 0 0 20 20"
   xml:space="preserve"
   inkscape:version="0.91 r13725"
   sodipodi:docname="fountain.svg"><metadata
     id="metadata13"><rdf:RDF><cc:Work
         rdf:about=""><dc:format>image/svg+xml</dc:format><dc:type
           rdf:resource="http://purl.org/dc/dcmitype/StillImage" /></cc:Work></rdf:RDF></metadata><defs
     id="defs11" /><sodipodi:namedview
     pagecolor="#ffffff"
     bordercolor="#666666"
     borderopacity="1"
     objecttolerance="10"
     gridtolerance="10"
     guidetolerance="10"
     inkscape:pageopacity="0"
     inkscape:pageshadow="2"
     inkscape:window-width="657"
     inkscape:window-height="480"
     id="namedview9"
     showgrid="false"
     inkscape:zoom="11.8"
     inkscape:cx="10"
     inkscape:cy="10"
     inkscape:window-x="0"
     inkscape:window-y="0"
     inkscape:window-maximized="0"
     inkscape:current-layer="Layer_1" /><path
     fill-rule="evenodd"
     clip-rule="evenodd"
     fill="#FFFFFF"
     d="M11.691,8.297h3.933c0.137,0,0.273,0.02,0.405,0.059  c1.533,0.44,1.688,2.826-0.045,3.275c-0.324,0.476-0.727,0.88-1.193,1.238c-0.015,0.01-0.027,0.02-0.042,0.029l-0.604,0.416  c-0.008,0.004-0.015,0.01-0.022,0.014c-0.126,0.082-0.247,0.133-0.373,0.203c-0.414,0.234-0.869,0.426-1.344,0.574v0.414h5.854  c0.883,0,1.602,0.59,1.729,1.469c0.007,0.049,0.01,0.092,0.01,0.143v0.225c0,0.051-0.003,0.094-0.011,0.145  c-0.032,0.221-0.106,0.434-0.224,0.621c-0.256,0.412-0.576,0.632-0.968,0.732l-0.271,0.416c-0.024,0.037-0.048,0.068-0.076,0.102  c-0.796,0.935-2.035,1.627-3.282,1.627H4.833c-0.834,0-1.776-0.371-2.448-0.855c-0.541-0.391-0.861-0.779-1.159-1.277  c-0.204-0.052-0.394-0.146-0.6-0.314c-0.328-0.268-0.546-0.643-0.612-1.061c-0.009-0.055-0.012-0.102-0.012-0.156v-0.221  c0-0.056,0.003-0.104,0.012-0.158c0.144-0.895,0.918-1.436,1.796-1.436h5.784v-0.416c-0.639-0.197-1.246-0.465-1.746-0.795  c-0.759-0.502-1.345-0.955-1.823-1.66c-0.232-0.055-0.441-0.16-0.667-0.357C2.816,10.818,2.618,10.075,2.869,9.4  c0.258-0.692,0.875-1.104,1.612-1.104h3.815V7.328c0-0.285-0.097-0.447-0.389-0.471C7.747,6.845,7.402,7.273,7.274,7.374  c-1.146,0.899-2.702,0.167-2.771-1.28c-0.006,0.01-0.013,0.02-0.02,0.029c-0.279,0.408-0.741,0.668-1.23,0.723  C2.132,6.975,1.372,6.098,1.372,5.01c0-0.684,0.183-1.361,0.443-1.988c0.739-1.772,2.511-2.895,4.4-3.018  c0.023-0.002,0.043-0.002,0.066-0.002h0.566c0.023,0,0.043,0,0.066,0.002c0.82,0.054,1.612,0.299,2.316,0.724  c0.268,0.161,0.527,0.355,0.768,0.568c0.849-0.799,2.008-1.227,3.163-1.292c0.02-0.001,0.036-0.001,0.057-0.001h0.512  c0.02,0,0.037,0,0.057,0.001c0.685,0.039,1.366,0.207,1.98,0.515c1.813,0.909,2.859,2.64,2.859,4.667  c0,0.851-0.729,1.667-1.597,1.667c-0.558,0-1.084-0.16-1.44-0.613c-0.033-0.043-0.063-0.086-0.091-0.129c0,0.02,0,0.039,0,0.06  c0,0.836-0.806,1.597-1.633,1.597c-0.448,0-0.847-0.123-1.186-0.424c-0.129-0.113-0.231-0.266-0.35-0.365  c-0.094-0.079-0.26-0.137-0.386-0.098l-0.146,0.109C11.657,7.188,11.675,7.857,11.691,8.297L11.691,8.297z M7.17,3.522  C6.542,3.271,5.894,3.418,5.29,3.909C5.264,3.942,5.239,3.976,5.214,4.008C5.171,4.06,5.12,4.116,5.083,4.171  C4.927,4.406,4.832,4.667,4.809,4.949c-0.003,0.04-0.007,0.08-0.01,0.119c0.264-0.414,0.665-0.764,1.045-1.006  C6.264,3.794,6.711,3.615,7.17,3.522L7.17,3.522z M15.201,5.064c-0.004-0.039-0.007-0.076-0.01-0.115  c-0.042-0.51-0.363-1.042-0.814-1.292c-0.521-0.289-1.049-0.326-1.54-0.134c0.474,0.095,0.933,0.281,1.356,0.563  c0.122,0.081,0.223,0.169,0.337,0.257c0.155,0.121,0.281,0.232,0.408,0.385C15.043,4.854,15.13,4.961,15.201,5.064z"
     id="path3" /><path
     fill-rule="evenodd"
     clip-rule="evenodd"
     fill="#000001"
     d="M4.622,10.703c0.447,0.846,1.009,1.264,1.778,1.771  c0.544,0.361,1.344,0.676,2.193,0.854v2.191H1.81c-0.491,0-0.758,0.279-0.809,0.594v0.221c0.026,0.166,0.112,0.324,0.256,0.441  c0.178,0.145,0.281,0.15,0.588,0.15c0.306,0.576,0.541,0.984,1.125,1.406c0.408,0.295,1.167,0.666,1.863,0.666h10.334  c0.979,0,1.941-0.594,2.521-1.275l0.375-0.574c0.042-0.088,0.056-0.148,0.092-0.223c0.381,0,0.582-0.045,0.76-0.332  c0.043-0.068,0.071-0.15,0.084-0.238v-0.225c-0.044-0.311-0.275-0.611-0.738-0.611h-6.854v-2.186  c0.711-0.148,1.354-0.393,1.852-0.674c0.12-0.067,0.208-0.098,0.321-0.17l0.604-0.416c0.496-0.379,0.9-0.814,1.194-1.371  c1.305,0,0.901-1.406,0.246-1.406H4.481c-0.34,0-0.57,0.17-0.676,0.453c-0.104,0.281-0.021,0.586,0.209,0.787  C4.194,10.693,4.302,10.703,4.622,10.703z"
     id="path5" /><path
     fill-rule="evenodd"
     clip-rule="evenodd"
     fill="#2B4EA1"
     d="M2.372,5.01c0,1.038,0.979,0.996,1.287,0.547  c0.119-0.173,0.133-0.438,0.153-0.689c0.041-0.498,0.217-0.916,0.438-1.249c0.06-0.09,0.117-0.155,0.184-0.237  c0.073-0.09,0.108-0.152,0.197-0.225C5.811,2.18,7.229,2.133,8.408,3.121C8.589,3.273,8.836,3.6,8.946,3.813  c0.112,0.218,0.291,0.654,0.315,0.951C8.309,4.306,7.277,4.333,6.381,4.904c-0.301,0.193-0.88,0.68-0.88,1.089  c0,0.753,0.695,0.956,1.156,0.595c0.178-0.141,0.597-0.785,1.33-0.727c0.773,0.061,1.31,0.611,1.31,1.467v1.301h1.406  c0-0.973-0.148-1.836,0.425-2.387l0.301-0.227c0.502-0.27,1.133-0.154,1.549,0.199c0.309,0.262,0.355,0.552,0.889,0.552  c0.274,0,0.633-0.315,0.633-0.598c0-0.415-0.028-0.442-0.326-0.798c-0.085-0.102-0.149-0.154-0.256-0.236  c-0.102-0.079-0.168-0.144-0.277-0.216c-0.887-0.589-1.955-0.61-2.901-0.155c0.044-0.533,0.446-1.301,0.854-1.643  c0.962-0.806,2.164-0.952,3.271-0.338c0.725,0.402,1.254,1.219,1.325,2.084c0.048,0.58,0.093,0.984,0.843,0.984  c0.24,0,0.597-0.291,0.597-0.667c0-1.674-0.854-3.044-2.308-3.773c-0.484-0.243-1.031-0.378-1.589-0.41h-0.512  C12.235,1.057,11.271,1.43,10.606,2.1c-0.111,0.112-0.211,0.201-0.317,0.316C10.184,2.53,10.116,2.681,10,2.759  C9.886,2.683,9.826,2.545,9.728,2.434C9.445,2.117,9.084,1.807,8.715,1.583C8.13,1.231,7.489,1.044,6.849,1.001H6.282  c-1.523,0.1-2.956,0.996-3.544,2.405C2.558,3.84,2.372,4.418,2.372,5.01z"
     id="path7"
     style="fill:#001bff;fill-opacity:1" /></svg>