<?xml version="1.0" encoding="UTF-8" standalone="no"?>
<!-- Generator: Adobe Illustrator 16.0.0, SVG Export Plug-In . SVG Version: 6.00 Build 0)  -->

<svg
   xmlns:dc="http://purl.org/dc/elements/1.1/"
   xmlns:cc="http://creativecommons.org/ns#"
   xmlns:rdf="http://www.w3.org/1999/02/22-rdf-syntax-ns#"
   xmlns:svg="http://www.w3.org/2000/svg"
   xmlns="http://www.w3.org/2000/svg"
   xmlns:sodipodi="http://sodipodi.sourceforge.net/DTD/sodipodi-0.dtd"
   xmlns:inkscape="http://www.inkscape.org/namespaces/inkscape"
   version="1.1"
   id="Layer_1"
   x="0px"
   y="0px"
   width="20px"
   height="20px"
   viewBox="0 0 20 20"
   enable-background="new 0 0 20 20"
   xml:space="preserve"
   inkscape:version="0.91 r13725"
   sodipodi:docname="gate.svg"><metadata
     id="metadata15"><rdf:RDF><cc:Work
         rdf:about=""><dc:format>image/svg+xml</dc:format><dc:type
           rdf:resource="http://purl.org/dc/dcmitype/StillImage" /></cc:Work></rdf:RDF></metadata><defs
     id="defs13"><pattern
       y="0"
       x="0"
       height="6"
       width="6"
       patternUnits="userSpaceOnUse"
       id="EMFhbasepattern" /></defs><sodipodi:namedview
     pagecolor="#ffffff"
     bordercolor="#666666"
     borderopacity="1"
     objecttolerance="10"
     gridtolerance="10"
     guidetolerance="10"
     inkscape:pageopacity="0"
     inkscape:pageshadow="2"
     inkscape:window-width="1920"
     inkscape:window-height="1148"
     id="namedview11"
     showgrid="false"
     inkscape:zoom="11.8"
     inkscape:cx="2.0762712"
     inkscape:cy="10"
     inkscape:window-x="-8"
     inkscape:window-y="-8"
     inkscape:window-maximized="1"
     inkscape:current-layer="Layer_1" /><path
     inkscape:connector-curvature="0"
     id="path4148"
     d="m 15.699959,10.639037 -11.388095,0 0,5.727827 c 0,0.544377 -0.448894,0.994072 -1.004115,0.994072 l -2.303615,0 C 0.448907,17.360936 0,16.911241 0,16.366864 L 0,3.644978 C 0,3.088766 0.448907,2.639064 1.004134,2.639064 c 6.001194,0 12.00236,0 18.003561,0 C 19.551106,2.639064 20,3.088766 20,3.644978 l 0,12.721886 c 0,0.544377 -0.448894,0.994072 -0.992305,0.994072 l -2.303622,0 c -0.55522,0 -1.004114,-0.449695 -1.004114,-0.994072 z"
     style="fill:#ffffee;fill-opacity:1;fill-rule:evenodd;stroke:none" /><path
     inkscape:connector-curvature="0"
     id="path4150"
     d="m 16.704073,9.644963 -13.396324,0 0,6.721901 -2.303615,0 0,-12.721886 c 6.001194,0 12.00236,0 18.003561,0 l 0,12.721886 -2.303622,0 z"
     style="fill:#000000;fill-opacity:1;fill-rule:nonzero;stroke:none" /><path
     inkscape:connector-curvature="0"
     id="path4152"
     d="m 17.696411,4.946754 -15.392807,0 0,3.384624 15.392807,0 z"
     style="fill:#ffffee;fill-opacity:1;fill-rule:nonzero;stroke:none" /><path
     style="fill:#ff0000;fill-opacity:1;fill-rule:nonzero;stroke:none"
     d="m 17.696411,4.946754 -1.831073,3.384624 -2.138211,0 1.831041,-3.384624 z"
     id="path3341" /><path
     style="fill:#ff0000;fill-opacity:1;fill-rule:nonzero;stroke:none"
     d="m 11.990536,4.946754 -2.13821,0 -1.831073,3.384624 2.138243,0 z"
     id="path3339" /><path
     style="fill:#ff0000;fill-opacity:1;fill-rule:nonzero;stroke:none"
     d="m 6.284696,4.946754 -2.138211,0 -1.842881,3.384624 2.138208,0 z"
     id="path4154" /></svg>