<?xml version="1.0" encoding="utf-8"?>
<!-- Generator: Adobe Illustrator 16.0.0, SVG Export Plug-In . SVG Version: 6.00 Build 0)  -->
<!DOCTYPE svg PUBLIC "-//W3C//DTD SVG 1.1//EN" "http://www.w3.org/Graphics/SVG/1.1/DTD/svg11.dtd">
<svg version="1.1" id="Layer_1" xmlns="http://www.w3.org/2000/svg" xmlns:xlink="http://www.w3.org/1999/xlink" x="0px" y="0px"
	 width="20px" height="20px" viewBox="0 0 20 20" enable-background="new 0 0 20 20" xml:space="preserve">
<path fill-rule="evenodd" clip-rule="evenodd" fill="#FFFFFF" d="M4.917,4.417c0.227-0.685,0.536-1.345,0.933-1.944
	C6.796,1.047,8.242-0.001,10-0.001c1.759,0,3.204,1.048,4.149,2.474c0.397,0.6,0.706,1.26,0.934,1.944h1.348c0.551,0,1,0.449,1,1
	v13.585c0,0.55-0.449,0.999-1,0.999H3.569c-0.551,0-1-0.449-1-0.999V5.417c0-0.551,0.449-1,1-1H4.917L4.917,4.417z M8.461,4.417
	h3.078c-0.03-0.051-0.063-0.102-0.096-0.15C11.132,3.797,10.61,3.248,10,3.248S8.868,3.797,8.557,4.267
	C8.523,4.315,8.491,4.366,8.461,4.417z"/>
<path fill-rule="evenodd" clip-rule="evenodd" fill="#000001" d="M3.569,5.417h2.103c0.217-0.904,0.565-1.72,1.012-2.392
	C7.515,1.773,8.686,0.999,10,0.999s2.485,0.774,3.316,2.026c0.446,0.672,0.795,1.487,1.012,2.392h2.103v13.585H3.569V5.417
	L3.569,5.417z M6.961,5.417h6.078c-0.182-0.643-0.442-1.221-0.763-1.703C11.676,2.809,10.87,2.249,10,2.249
	c-0.87,0-1.676,0.56-2.276,1.465C7.403,4.196,7.143,4.774,6.961,5.417z"/>
</svg>
