<?xml version="1.0" encoding="utf-8"?>
<!-- Generator: Adobe Illustrator 16.0.0, SVG Export Plug-In . SVG Version: 6.00 Build 0)  -->
<!DOCTYPE svg PUBLIC "-//W3C//DTD SVG 1.1//EN" "http://www.w3.org/Graphics/SVG/1.1/DTD/svg11.dtd">
<svg version="1.1" id="Layer_1" xmlns="http://www.w3.org/2000/svg" xmlns:xlink="http://www.w3.org/1999/xlink" x="0px" y="0px"
	 width="20px" height="20px" viewBox="0 0 20 20" enable-background="new 0 0 20 20" xml:space="preserve">
<path fill-rule="evenodd" clip-rule="evenodd" fill="#FFFFFF" d="M10,0.002c3.9,0,7.088,3.187,7.088,7.088v11.908
	c0,0.551-0.449,1-1,1H3.912c-0.551,0-1-0.449-1-1V7.09C2.912,3.189,6.1,0.002,10,0.002z"/>
<path fill-rule="evenodd" clip-rule="evenodd" fill="#000001" d="M10,1.001L10,1.001c3.349,0,6.088,2.74,6.088,6.088v11.908H3.912
	V7.09C3.912,3.741,6.651,1.001,10,1.001z"/>
<path fill-rule="evenodd" clip-rule="evenodd" fill="#FFFFFF" d="M5.125,17.786h9.75V7.09c0-2.68-2.196-4.875-4.875-4.875
	S5.125,4.41,5.125,7.09V17.786z"/>
<rect x="6.016" y="6.905" fill-rule="evenodd" clip-rule="evenodd" fill="#000001" width="7.968" height="1.171"/>
<rect x="7.417" y="9.926" fill-rule="evenodd" clip-rule="evenodd" fill="#000001" width="5.166" height="1.172"/>
</svg>
