<?xml version="1.0" encoding="utf-8"?>
<!-- Generator: Adobe Illustrator 16.0.0, SVG Export Plug-In . SVG Version: 6.00 Build 0)  -->
<!DOCTYPE svg PUBLIC "-//W3C//DTD SVG 1.1//EN" "http://www.w3.org/Graphics/SVG/1.1/DTD/svg11.dtd">
<svg version="1.1" id="Layer_1" xmlns="http://www.w3.org/2000/svg" xmlns:xlink="http://www.w3.org/1999/xlink" x="0px" y="0px"
	 width="20px" height="20px" viewBox="0 0 20 20" enable-background="new 0 0 20 20" xml:space="preserve">
<path fill-rule="evenodd" clip-rule="evenodd" fill="#FFFFFF" d="M3.78,8.683c-0.165-0.488-0.161-1.037,0.083-1.57
	c0.421-0.921,1.161-1.391,2.172-1.391c1.168,0,2.193,1.025,2.193,2.193v0.209c0,0.195-0.035,0.389-0.098,0.576
	c0.353,0.176,0.624,0.467,0.936,0.779l1.614,1.613c0.121,0.121,0.256,0.246,0.39,0.373V8.651c0-0.713,0.037-1.434,0.015-2.15
	L8.969,4.386C8.764,4.181,8.56,3.976,8.354,3.771C7.892,3.308,7.597,2.984,7.597,2.266c0-0.902,0.772-1.631,1.667-1.631
	c0.78,0,1.24,0.563,1.732,1.056c0.25,0.25,0.5,0.5,0.75,0.75c0.106-0.209,0.241-0.4,0.392-0.554
	c0.562-0.568,0.988-0.691,1.756-0.691c0.908,0,1.604,0.55,1.938,1.28l1.241-1.241c0.575-0.575,1.385-0.825,2.114-0.363
	c0.457,0.289,0.794,0.848,0.794,1.395c0,0.778-0.314,1.061-0.81,1.557l-2.665,2.664l0.002,7.109c0,0.604,0.013,1.207,0.015,1.809
	c0.002,0.477,0.045,1.797-0.117,2.209c-0.473,1.199-1.786,1.376-2.617,0.793c-0.281,0.206-0.622,0.33-0.981,0.33
	c-0.498,0-0.96-0.176-1.291-0.557c-0.489-0.563-0.468-1.178-0.451-1.826c-0.085,0.084-0.173,0.168-0.261,0.256
	c-0.287,0.287-0.573,0.574-0.86,0.861l-1.511,1.506c-0.047,0.049-0.092,0.084-0.146,0.121c-0.382,0.258-0.661,0.27-1.093,0.27
	c-0.495,0-0.935-0.227-1.243-0.576c-0.304,0.352-0.74,0.576-1.248,0.576c-0.816,0-1.019-0.166-1.575-0.723
	c-0.425-0.424-0.856-0.844-1.282-1.268c-0.291-0.289-0.581-0.58-0.867-0.874c-0.187-0.192-0.432-0.433-0.581-0.653
	c-0.41-0.602-0.369-1.332-0.038-1.889C0.144,13.665,0.02,13.285,0.02,12.86c0-0.75,0.585-1.191,1.056-1.662l1.701-1.701
	C3.101,9.173,3.398,8.862,3.78,8.683z"/>
<g>
	<path fill-rule="evenodd" clip-rule="evenodd" fill="#000001" d="M1.019,12.86c0,0.578,0.38,0.836,0.832,0.73
		c0.191-0.046,0.29-0.186,0.423-0.318c0.305-0.305,1.75-1.783,1.902-1.885v2.701H1.86c-0.581,0-0.975,0.704-0.638,1.199
		c0.197,0.291,2.145,2.184,2.611,2.65c0.415,0.416,0.389,0.43,0.868,0.43c0.383,0,0.702-0.35,0.702-0.807
		c0-0.373-0.37-0.633-0.711-0.973c-0.204-0.205-0.698-0.65-0.833-0.852h4.21c-0.167,0.25-0.739,0.709-0.97,0.961l-0.106,0.104
		c-0.264,0.237-0.503,0.443-0.503,0.795c0,0.389,0.314,0.771,0.702,0.771c0.226,0,0.355,0.022,0.533-0.098l1.51-1.506
		c0.296-0.296,0.565-0.564,0.86-0.86c0.236-0.235,0.71-0.583,0.71-1.009c0-0.429-0.349-0.807-0.771-0.807H7.72v-2.666
		c0.194,0.13,0.617,0.6,0.815,0.798c0.277,0.278,0.529,0.528,0.807,0.808c0.24,0.238,0.535,0.67,0.978,0.576
		c0.496-0.105,0.673-0.639,0.448-0.984c-0.138-0.211-0.591-0.617-0.794-0.82l-1.614-1.613C8.123,9.948,7.805,9.528,7.368,9.528
		H4.492c-0.422,0-0.777,0.443-1.009,0.676l-1.701,1.701C1.591,12.097,1.019,12.56,1.019,12.86z"/>
	<path fill-rule="evenodd" clip-rule="evenodd" fill="#000001" d="M8.597,2.266c0,0.398,0.216,0.549,0.465,0.798
		c0.213,0.213,0.4,0.401,0.614,0.615l2.14,2.139c0.21,0.211,0.247,0.182,0.257,0.375c0.041,0.766-0.003,1.677-0.003,2.459v7.367
		c0,0.568-0.209,1.719,0.737,1.719c0.316,0,0.702-0.307,0.702-0.701v-5.965h0.561v5.895c0,0.846,1.098,1.064,1.405,0.283
		c0.084-0.213,0.033-3.273,0.033-3.651l-0.002-7.3c-0.003-0.301,0.024-0.252,0.187-0.41l2.771-2.771
		c0.339-0.339,0.518-0.434,0.518-0.851c0-0.311-0.48-1.051-1.202-0.325l-2.631,2.632c-0.088,0.087-0.37,0.43-0.482,0.43h-1.719
		c-0.122,0-1.668-1.615-1.781-1.729c-0.301-0.301-0.576-0.576-0.877-0.877C10.072,2.181,9.63,1.634,9.264,1.634
		C8.918,1.634,8.597,1.919,8.597,2.266z"/>
	<path fill-rule="evenodd" clip-rule="evenodd" fill="#000001" d="M12.491,3.424c0,0.675,0.577,1.298,1.122,1.298
		c0.406,0,0.74-0.016,1.063-0.34c0.835-0.841,0.182-2.186-0.782-2.186c-0.464,0-0.661,0.006-1.044,0.394
		C12.647,2.794,12.491,3.165,12.491,3.424z"/>
	<path fill-rule="evenodd" clip-rule="evenodd" fill="#000001" d="M7.229,8.124V7.915c0-0.617-0.578-1.193-1.193-1.193
		c-0.621,0-1.006,0.244-1.263,0.807C4.364,8.421,5.295,9.606,6.428,9.183C6.843,9.028,7.229,8.536,7.229,8.124z"/>
</g>
</svg>
