<?xml version="1.0" encoding="utf-8"?>
<!-- Generator: Adobe Illustrator 16.0.0, SVG Export Plug-In . SVG Version: 6.00 Build 0)  -->
<!DOCTYPE svg PUBLIC "-//W3C//DTD SVG 1.1//EN" "http://www.w3.org/Graphics/SVG/1.1/DTD/svg11.dtd">
<svg version="1.1" id="Layer_1" xmlns="http://www.w3.org/2000/svg" xmlns:xlink="http://www.w3.org/1999/xlink" x="0px" y="0px"
	 width="20px" height="20px" viewBox="0 0 20 20" enable-background="new 0 0 20 20" xml:space="preserve">
<path fill-rule="evenodd" clip-rule="evenodd" fill="#FFFFFF" d="M4.489,10.275c-0.795,1.061-2.6,1.004-3.594,0.161
	C0.034,9.707,0.004,9.098,0.004,8.088c0-1.006,0.959-1.855,1.848-2.152C2.16,5.834,2.46,5.789,2.748,5.797
	C2.713,5.668,2.696,5.532,2.696,5.395c0-0.557,0.177-1.083,0.63-1.434c0.517-0.4,1.157-0.396,1.771-0.316l4.932,0.289
	c0.295-0.407,0.73-0.671,1.317-0.671c0.613,0,1.027,0.209,1.281,0.646c0.062-0.007,0.119-0.016,0.161-0.021
	c0.035-0.006,0.065-0.008,0.101-0.01l4.594-0.213c0.18-0.021,0.356-0.043,0.538-0.051c1.056-0.045,1.976,0.465,1.976,1.641
	c0,0.399-0.122,0.777-0.382,1.084c-0.724,0.852-2.068,0.691-3.177,0.557c0.531,0.344,1.019,0.762,1.442,1.258
	c1.053,1.229,1.721,3.068,0.983,4.613c0.231,0.076,0.448,0.204,0.635,0.387c0.72,0.709,0.616,1.802-0.036,2.514
	c-0.799,0.871-2.18,1.071-3.299,1.071H7.805c-1.354,0-2.13-1.683-1.3-2.708c0.364-0.451,1.092-0.6,1.745-0.662
	c-0.604-0.682-0.778-1.529-0.724-2.389L4.489,10.275z"/>
<path fill-rule="evenodd" clip-rule="evenodd" fill="#000001" d="M10.638,4.971l-5.637-0.33c-0.73-0.1-1.306-0.066-1.306,0.754
	c0,1.021,2.432,0.49,3.125,0.434l3.817-0.149v1.417C9.869,7.301,9.716,7.847,9.292,8.018C8.475,8.346,3.327,7.727,2.279,8.229
	C2.325,8.785,2.182,8.607,2.67,8.829l5.984,1.384c-1.006,4.199,3.669,3.4,6.8,3.4c4.855,0,2.892-6.943-3.399-6.943V5.679
	l3.817,0.149c1.195,0.098,3.125,0.557,3.125-0.574c0-0.789-0.889-0.658-1.432-0.594l-4.63,0.215
	c-1.708,0.254-0.626-0.613-1.59-0.613C10.911,4.262,10.733,4.611,10.638,4.971L10.638,4.971z M13.296,7.777
	c1.842,0,3.436,1.701,3.472,2.656c0.035,0.957-2.976,1.134-3.684,0.461C12.375,10.221,12.446,8.096,13.296,7.777L13.296,7.777z
	 M7.805,15.738c-0.554,0-0.799-0.738-0.523-1.08c0.553-0.682,7.422-0.197,9.306-0.339c0.905-0.068,1.107-0.431,1.419-0.563
	c1.233-0.526,1.958,1.982-1.843,1.982H7.805L7.805,15.738z M1.004,8.088c0-0.838,2.063-2.275,3.117-0.283
	c-0.905,0-2.267-0.484-2.267,0.424c0,1.346,0.557,0.801,1.982,1.134c-0.256,0.958-1.691,0.823-2.295,0.312
	C0.914,9.141,1.004,8.68,1.004,8.088z"/>
</svg>
