<?xml version="1.0" encoding="UTF-8" standalone="no"?>
<!-- Generator: Adobe Illustrator 16.0.0, SVG Export Plug-In . SVG Version: 6.00 Build 0)  -->

<svg
   xmlns:dc="http://purl.org/dc/elements/1.1/"
   xmlns:cc="http://creativecommons.org/ns#"
   xmlns:rdf="http://www.w3.org/1999/02/22-rdf-syntax-ns#"
   xmlns:svg="http://www.w3.org/2000/svg"
   xmlns="http://www.w3.org/2000/svg"
   xmlns:sodipodi="http://sodipodi.sourceforge.net/DTD/sodipodi-0.dtd"
   xmlns:inkscape="http://www.inkscape.org/namespaces/inkscape"
   version="1.1"
   id="Layer_1"
   x="0px"
   y="0px"
   width="20px"
   height="20px"
   viewBox="0 0 20 20"
   enable-background="new 0 0 20 20"
   xml:space="preserve"
   inkscape:version="0.91 r13725"
   sodipodi:docname="hospital.svg"><metadata
     id="metadata15"><rdf:RDF><cc:Work
         rdf:about=""><dc:format>image/svg+xml</dc:format><dc:type
           rdf:resource="http://purl.org/dc/dcmitype/StillImage" /></cc:Work></rdf:RDF></metadata><defs
     id="defs13" /><sodipodi:namedview
     pagecolor="#ffffff"
     bordercolor="#666666"
     borderopacity="1"
     objecttolerance="10"
     gridtolerance="10"
     guidetolerance="10"
     inkscape:pageopacity="0"
     inkscape:pageshadow="2"
     inkscape:window-width="657"
     inkscape:window-height="480"
     id="namedview11"
     showgrid="false"
     inkscape:zoom="11.8"
     inkscape:cx="10"
     inkscape:cy="10"
     inkscape:window-x="0"
     inkscape:window-y="0"
     inkscape:window-maximized="0"
     inkscape:current-layer="Layer_1" /><path
     fill-rule="evenodd"
     clip-rule="evenodd"
     fill="#FFFFFF"
     d="M10,19.998c5.507,0,9.998-4.492,9.998-9.998  c0-5.508-4.491-9.998-9.998-9.998S0.002,4.492,0.002,10C0.002,15.506,4.493,19.998,10,19.998z"
     id="path3" /><path
     fill-rule="evenodd"
     clip-rule="evenodd"
     fill="#CE1F26"
     d="M10,18.998c4.956,0,8.998-4.042,8.998-8.998  c0-4.957-4.042-8.998-8.998-8.998S1.001,5.043,1.001,10C1.001,14.956,5.044,18.998,10,18.998z"
     id="path5"
     style="fill:#e30000;fill-opacity:1" /><path
     fill-rule="evenodd"
     clip-rule="evenodd"
     fill="#FFFFFF"
     d="M10,17.518c4.141,0,7.518-3.377,7.518-7.518S14.141,2.482,10,2.482  S2.482,5.859,2.482,10S5.859,17.518,10,17.518z"
     id="path7" /><polygon
     fill-rule="evenodd"
     clip-rule="evenodd"
     fill="#CE1F26"
     points="3.873,11.98 3.873,8.02 8.02,8.02 8.02,3.873 11.98,3.873   11.98,8.02 16.127,8.02 16.127,11.98 11.98,11.98 11.98,16.127 8.02,16.127 8.02,11.98 "
     id="polygon9"
     style="fill:#e30000;fill-opacity:1" /></svg>