<?xml version="1.0" encoding="utf-8"?>
<!-- Generator: Adobe Illustrator 16.0.0, SVG Export Plug-In . SVG Version: 6.00 Build 0)  -->
<!DOCTYPE svg PUBLIC "-//W3C//DTD SVG 1.1//EN" "http://www.w3.org/Graphics/SVG/1.1/DTD/svg11.dtd">
<svg version="1.1" id="Layer_1" xmlns="http://www.w3.org/2000/svg" xmlns:xlink="http://www.w3.org/1999/xlink" x="0px" y="0px"
	 width="20px" height="20px" viewBox="0 0 20 20" enable-background="new 0 0 20 20" xml:space="preserve">
<g>
	<path fill-rule="evenodd" clip-rule="evenodd" fill="#FFFFFF" d="M16.539,2.694c0.143-0.378,0.509-0.646,0.935-0.646h1.524
		c0.551,0,1,0.448,1,0.999v15.495c0,0.551-0.449,0.999-1,0.999h-1.524c-0.551,0-0.999-0.448-0.999-0.999v-1.679H3.525v1.679
		c0,0.551-0.449,0.999-0.999,0.999H1.001c-0.55,0-0.999-0.448-0.999-0.999V1.459c0-0.551,0.449-1,0.999-1h1.525
		c0.55,0,0.999,0.449,0.999,1V1.73C3.901,1.52,4.335,1.4,4.796,1.4c1.028,0,1.918,0.595,2.343,1.46
		C7.38,2.689,7.636,2.54,7.896,2.411c1.231-0.612,2.701-0.867,4.067-0.867c1.367,0,2.837,0.255,4.068,0.867
		C16.203,2.496,16.373,2.591,16.539,2.694L16.539,2.694z M16.475,10.361V9.156H5.302c0.809,0.158,1.483,0.691,1.837,1.41
		c0.241-0.17,0.497-0.32,0.756-0.449c1.232-0.611,2.702-0.865,4.068-0.865c1.367,0,2.837,0.254,4.068,0.865
		C16.181,10.191,16.329,10.273,16.475,10.361L16.475,10.361z M4.291,9.156H3.525v0.281C3.761,9.306,4.019,9.209,4.291,9.156z"/>
	<path fill-rule="evenodd" clip-rule="evenodd" fill="#000001" d="M2.526,14.339h14.947V8.156H2.526V14.339L2.526,14.339z
		 M2.526,6.631h14.947V3.047h1.524v15.495h-1.524v-2.679H2.526v2.679H1.001V1.459h1.525V6.631L2.526,6.631z M4.796,10.107
		c0.889,0,1.608,0.719,1.608,1.607c0,0.888-0.72,1.607-1.608,1.607c-0.888,0-1.607-0.72-1.607-1.607
		C3.188,10.826,3.908,10.107,4.796,10.107L4.796,10.107z M11.963,10.251c2.946,0,5.334,1.282,5.334,2.862
		c0,0.066-0.005,0.133-0.014,0.199H6.644C6.635,13.246,6.63,13.18,6.63,13.113C6.63,11.533,9.018,10.251,11.963,10.251
		L11.963,10.251z M4.796,2.4c-0.888,0-1.607,0.72-1.607,1.607s0.72,1.607,1.607,1.607c0.889,0,1.608-0.72,1.608-1.607
		S5.685,2.4,4.796,2.4L4.796,2.4z M11.963,2.544c-2.945,0-5.333,1.282-5.333,2.862c0,0.066,0.005,0.133,0.014,0.199h10.64
		c0.009-0.066,0.014-0.133,0.014-0.199C17.297,3.826,14.909,2.544,11.963,2.544z"/>
</g>
</svg>
