<?xml version="1.0" encoding="utf-8"?>
<!-- Generator: Adobe Illustrator 16.0.0, SVG Export Plug-In . SVG Version: 6.00 Build 0)  -->
<!DOCTYPE svg PUBLIC "-//W3C//DTD SVG 1.1//EN" "http://www.w3.org/Graphics/SVG/1.1/DTD/svg11.dtd">
<svg version="1.1" id="Layer_1" xmlns="http://www.w3.org/2000/svg" xmlns:xlink="http://www.w3.org/1999/xlink" x="0px" y="0px"
	 width="20px" height="20px" viewBox="0 0 20 20" enable-background="new 0 0 20 20" xml:space="preserve">
<path fill-rule="evenodd" clip-rule="evenodd" fill="#FFFFFF" d="M7.139,9.786C7.38,9.614,7.636,9.465,7.895,9.337
	c1.231-0.613,2.702-0.867,4.068-0.867c1.367,0,2.837,0.254,4.068,0.867c0.432,0.215,0.855,0.486,1.217,0.818
	c0.072-0.018,0.148-0.025,0.226-0.025h1.524c0.551,0,1,0.449,1,1v7.62c0,0.55-0.449,0.999-1,0.999h-1.524c-0.551,0-1-0.449-1-0.999
	v-2.669H3.525v2.669c0,0.55-0.449,0.999-1,0.999H1.001c-0.551,0-0.999-0.449-0.999-0.999V9.533c0-0.55,0.448-0.999,0.999-0.999
	h1.524c0.281,0,0.536,0.116,0.718,0.305c0.435-0.322,0.972-0.514,1.553-0.514C5.824,8.325,6.714,8.921,7.139,9.786z"/>
<path fill-rule="evenodd" clip-rule="evenodd" fill="#000001" d="M18.998,11.13v7.62h-1.524v-3.669H2.525v3.669H1.001V9.533h1.524
	v4.024h14.948V11.13H18.998L18.998,11.13z M4.796,9.325c-0.888,0-1.607,0.72-1.607,1.607c0,0.889,0.72,1.607,1.607,1.607
	c0.889,0,1.608-0.719,1.608-1.607C6.404,10.045,5.685,9.325,4.796,9.325L4.796,9.325z M11.963,9.47
	c-2.945,0-5.333,1.281-5.333,2.863c0,0.066,0.005,0.132,0.013,0.197h10.641c0.008-0.065,0.013-0.131,0.013-0.197
	C17.296,10.751,14.908,9.47,11.963,9.47z"/>
<path fill-rule="evenodd" clip-rule="evenodd" fill="#FFFFFF" d="M12.214,4.771l0.08,0.313c0.104,0.406-0.042,0.811-0.381,1.057
	c-0.338,0.246-0.769,0.26-1.122,0.036L10,5.675L9.209,6.176C8.855,6.399,8.425,6.386,8.087,6.14
	c-0.339-0.246-0.485-0.65-0.381-1.057l0.079-0.312c0,0.001-0.001,0.001-0.002,0.001L7.063,5.37l0.231,0.906
	c0.104,0.406-0.043,0.811-0.381,1.057s-0.77,0.26-1.122,0.037L5.001,6.868L4.21,7.37C3.856,7.593,3.426,7.579,3.087,7.333
	c-0.338-0.246-0.484-0.65-0.381-1.057L2.938,5.37L2.218,4.772C1.896,4.506,1.775,4.091,1.905,3.693
	c0.129-0.397,0.47-0.662,0.887-0.688l0.934-0.06l0.346-0.87c0.154-0.389,0.511-0.631,0.93-0.631c0.418,0,0.774,0.242,0.929,0.631
	l0.346,0.87l0.592,0.037C6.84,2.826,6.852,2.662,6.904,2.5c0.129-0.397,0.47-0.662,0.887-0.688l0.935-0.06l0.345-0.87
	C9.226,0.493,9.582,0.251,10,0.251s0.774,0.242,0.929,0.631l0.346,0.87l0.935,0.06c0.417,0.026,0.758,0.291,0.887,0.688
	c0.053,0.162,0.063,0.326,0.037,0.483l0.592-0.038l0.346-0.87c0.154-0.389,0.511-0.631,0.929-0.631s0.775,0.242,0.93,0.631
	l0.345,0.87l0.935,0.06c0.417,0.026,0.758,0.291,0.887,0.688s0.009,0.813-0.313,1.079L17.062,5.37l0.231,0.906
	c0.104,0.406-0.042,0.811-0.381,1.057c-0.338,0.246-0.769,0.26-1.122,0.037l-0.791-0.502L14.208,7.37
	c-0.354,0.223-0.784,0.209-1.122-0.037c-0.339-0.246-0.484-0.65-0.381-1.057l0.231-0.906l-0.721-0.598
	C12.216,4.772,12.215,4.772,12.214,4.771z"/>
<path fill-rule="evenodd" clip-rule="evenodd" fill="#000001" d="M14.999,2.444l0.579,1.459l1.566,0.1l-1.208,1.002l0.389,1.52
	l-1.326-0.84l-1.325,0.84l0.388-1.52l-1.207-1.002l1.565-0.1L14.999,2.444L14.999,2.444z M5.001,2.444L5.58,3.903l1.565,0.1
	L5.938,5.005l0.389,1.52l-1.325-0.84l-1.326,0.84l0.389-1.52L2.855,4.003l1.566-0.1L5.001,2.444L5.001,2.444z M10,1.251l0.579,1.458
	l1.565,0.101l-1.208,1.001l0.389,1.521L10,4.491l-1.326,0.84l0.389-1.521L7.854,2.81l1.566-0.101L10,1.251z"/>
</svg>
