<?xml version="1.0" encoding="utf-8"?>
<!-- Generator: Adobe Illustrator 16.0.0, SVG Export Plug-In . SVG Version: 6.00 Build 0)  -->
<!DOCTYPE svg PUBLIC "-//W3C//DTD SVG 1.1//EN" "http://www.w3.org/Graphics/SVG/1.1/DTD/svg11.dtd">
<svg version="1.1" id="Layer_1" xmlns="http://www.w3.org/2000/svg" xmlns:xlink="http://www.w3.org/1999/xlink" x="0px" y="0px"
	 width="20px" height="20px" viewBox="0 0 20 20" enable-background="new 0 0 20 20" xml:space="preserve">
<path fill-rule="evenodd" clip-rule="evenodd" fill="#FFFFFF" d="M17.873,9.327v8.871c0,0.543-0.442,0.984-0.984,0.984H3.111
	c-0.542,0-0.985-0.441-0.985-0.984V9.327H1.15c-0.433,0-0.8-0.266-0.936-0.678c-0.135-0.41,0.003-0.842,0.351-1.1l8.85-6.537
	c0.354-0.261,0.816-0.261,1.17,0l8.85,6.537c0.348,0.258,0.485,0.689,0.351,1.1c-0.136,0.412-0.504,0.678-0.936,0.678H17.873z"/>
<polygon fill-rule="evenodd" clip-rule="evenodd" fill="#000001" points="1.15,8.343 3.111,8.343 3.111,18.198 16.889,18.198 
	16.889,8.343 18.85,8.343 10,1.805 "/>
<polygon fill-rule="evenodd" clip-rule="evenodd" fill="#FFFFFF" points="5.021,8.343 10,4.663 14.979,8.343 14.979,16.261 
	5.021,16.261 "/>
</svg>
