<?xml version="1.0" encoding="utf-8"?>
<!-- Generator: Adobe Illustrator 16.0.0, SVG Export Plug-In . SVG Version: 6.00 Build 0)  -->
<!DOCTYPE svg PUBLIC "-//W3C//DTD SVG 1.1//EN" "http://www.w3.org/Graphics/SVG/1.1/DTD/svg11.dtd">
<svg version="1.1" id="Layer_1" xmlns="http://www.w3.org/2000/svg" xmlns:xlink="http://www.w3.org/1999/xlink" x="0px" y="0px"
	 width="20px" height="20px" viewBox="0 0 20 20" enable-background="new 0 0 20 20" xml:space="preserve">
<path fill-rule="evenodd" clip-rule="evenodd" fill="#FFFFFF" d="M18.394,3.463c0.627,0.252,1.041,0.861,1.041,1.541v8.82
	c-0.01,0.584-0.262,1.037-0.74,1.364l-0.023,0.015l-6.986,4.494l-0.02,0.014l-0.039,0.025l-0.057,0.035l-0.072,0.039l-0.06,0.031
	l-0.021,0.008l-0.031,0.015l-0.018,0.007l-0.023,0.012l-0.063,0.021l-0.027,0.01h-0.004l-0.057,0.018l-0.039,0.012l-0.045,0.012
	l0.002-0.002l-0.066,0.015l-0.02,0.005l-0.059,0.008h0.002l-0.018,0.004L10.89,19.99l-0.012,0.002l-0.028,0.002h-0.003l-0.053,0.003
	l-0.078,0.001h-0.022l-0.043-0.002H10.63l-0.096-0.01l-0.057-0.008l-0.084-0.016l-0.027-0.005l-0.007-0.003l-0.058-0.012
	l-0.038-0.014l-0.065-0.02l-0.004-0.001l-0.042-0.015l-0.009-0.004l-0.061-0.023l-0.023-0.011l-0.023-0.009l-0.031-0.017
	l-0.051-0.026l-0.049-0.027l-0.033-0.02l-8.426-4.486c-0.542-0.289-0.878-0.852-0.878-1.463L0.565,5.004
	c0-0.707,0.449-1.336,1.111-1.566l7.985-3.289c0.433-0.195,0.929-0.196,1.363-0.001L18.394,3.463z"/>
<path fill-rule="evenodd" clip-rule="evenodd" fill="#000001" d="M18.007,4.385c0.25,0.094,0.428,0.336,0.428,0.619v8.805
	c-0.004,0.285-0.119,0.428-0.305,0.555l-7.006,4.506l0,0l-0.006,0.004l-0.004,0.004h-0.002l-0.004,0.004l-0.006,0.004l-0.01,0.006
	l-0.006,0.004l0,0l-0.006,0.004l-0.012,0.006l-0.004,0.004l-0.006,0.004l-0.006,0.002l-0.006,0.004h-0.002l-0.004,0.003
	l-0.006,0.003l-0.004,0.002l-0.002,0.001l-0.006,0.003l-0.006,0.002v0.002l-0.005,0.002l-0.006,0.002l-0.005,0.002l-0.002,0.002
	l-0.006,0.002l-0.006,0.002v0.002l-0.006,0.002l-0.006,0.002l-0.004,0.002h-0.002l-0.006,0.002l-0.006,0.003l-0.002,0.001
	l-0.004,0.002l-0.006,0.002l-0.006,0.001l-0.002,0.001l-0.006,0.002l-0.006,0.002h-0.001l-0.005,0.002l-0.006,0.002h-0.004
	l-0.003,0.002l-0.007,0.002l-0.006,0.001h-0.001l-0.005,0.001l-0.008,0.002l-0.004,0.001l-0.002,0.001l-0.006,0.002h-0.007h-0.001
	l-0.012,0.004h-0.004h-0.003l-0.007,0.002h-0.006h-0.001l-0.007,0.002h-0.006l-0.004,0.002h-0.003h-0.007H10.8v0.001l-0.008,0.001
	h-0.006h-0.004h-0.004l-0.006,0.001l-0.008,0.001l0,0h-0.006h-0.008h-0.002h-0.004h-0.007h-0.007l0,0h-0.006h-0.007h-0.005h-0.002
	h-0.006H10.7h-0.003h-0.003l-0.006-0.001l-0.006-0.001h-0.002h-0.005h-0.007l-0.006-0.001v-0.001h-0.006h-0.006h-0.004l-0.002-0.002
	H10.64l-0.006-0.001L10.63,18.99h-0.002h-0.007l-0.006-0.002h-0.001l-0.005-0.001l-0.006-0.001l-0.005-0.002h-0.002h-0.005
	l-0.006-0.002l-0.004-0.001L10.58,18.98h-0.006l-0.006-0.002l-0.002-0.001l-0.004-0.001l-0.005-0.002l-0.006-0.001l-0.002-0.001
	h-0.004l-0.006-0.002l-0.006-0.002l0,0l-0.006-0.002l-0.006-0.002l-0.004-0.001l-0.002-0.001l-0.006-0.002l-0.005-0.002h-0.001
	l-0.004-0.002l-0.006-0.002l-0.012-0.004l-0.005-0.003l-0.005-0.001v-0.002l-0.006-0.002l-0.006-0.002l-0.002-0.002h-0.004
	l-0.004-0.003l-0.006-0.003h-0.002l-0.004-0.002l-0.004-0.003h-0.002l-0.01-0.005l-0.004-0.004l-0.004-0.002h-0.002l-0.006-0.002
	l-0.004-0.004l-0.006-0.003l-0.005-0.003l-0.01-0.006l-0.005-0.004l-0.005-0.002h-0.001l-0.004-0.004l0,0l-8.455-4.502
	c-0.222-0.118-0.348-0.346-0.348-0.58L1.565,5.004c0-0.295,0.194-0.547,0.461-0.631l8.033-3.308c0.17-0.08,0.371-0.088,0.555-0.005
	L18.007,4.385z"/>
<polygon fill-rule="evenodd" clip-rule="evenodd" fill="#FFFFFF" points="10.07,17.24 10.07,9.214 2.886,6.018 2.886,13.414 "/>
<polygon fill-rule="evenodd" clip-rule="evenodd" fill="#FFFFFF" points="17.114,6.107 11.392,9.182 11.392,17.129 17.114,13.449 
	"/>
<polygon fill-rule="evenodd" clip-rule="evenodd" fill="#FFFFFF" points="10.702,8.055 16.284,5.057 10.331,2.378 3.898,5.027 "/>
<path fill-rule="evenodd" clip-rule="evenodd" fill="#000001" d="M8.542,14.742l-0.979-0.475l-0.387-1.318l-1.799-0.871
	l-0.373,0.948l-0.961-0.466l1.742-4.119l0.959,0.466L8.542,14.742L8.542,14.742z M6.882,11.969L6.259,9.828l-0.605,1.545
	L6.882,11.969z"/>
<path fill-rule="evenodd" clip-rule="evenodd" fill="#000001" d="M13.063,9.217l1.547-0.846c0.307-0.167,0.533-0.275,0.684-0.324
	c0.15-0.051,0.285-0.055,0.404-0.018c0.118,0.039,0.217,0.123,0.297,0.252c0.078,0.129,0.119,0.301,0.119,0.516
	c0,0.23-0.049,0.471-0.146,0.717c-0.098,0.247-0.229,0.464-0.396,0.652c0.235-0.039,0.416,0.012,0.543,0.155
	c0.125,0.144,0.188,0.358,0.188,0.646c0,0.227-0.04,0.468-0.121,0.728c-0.082,0.258-0.193,0.49-0.336,0.695
	c-0.142,0.205-0.316,0.379-0.523,0.521c-0.13,0.089-0.443,0.271-0.941,0.549l-1.316,0.719V9.217L13.063,9.217z M13.847,9.613v1.145
	l0.512-0.279c0.303-0.166,0.491-0.275,0.564-0.326c0.134-0.094,0.238-0.209,0.315-0.35s0.114-0.289,0.114-0.449
	c0-0.152-0.033-0.258-0.1-0.318c-0.064-0.061-0.163-0.064-0.293-0.013c-0.077,0.03-0.299,0.146-0.666,0.347L13.847,9.613
	L13.847,9.613z M13.847,11.582v1.332l0.723-0.396c0.281-0.152,0.461-0.262,0.535-0.322c0.117-0.092,0.211-0.209,0.283-0.354
	c0.074-0.146,0.11-0.307,0.11-0.482c0-0.15-0.028-0.262-0.085-0.334c-0.055-0.074-0.137-0.105-0.243-0.094
	c-0.106,0.01-0.337,0.111-0.692,0.307L13.847,11.582z"/>
<path fill-rule="evenodd" clip-rule="evenodd" fill="#000001" d="M10.476,5.857l0.209,0.602c-0.605,0.074-1.125,0.057-1.56-0.053
	c-0.434-0.109-0.788-0.306-1.061-0.59C7.725,5.465,7.666,5.113,7.883,4.758c0.218-0.353,0.705-0.641,1.461-0.861
	c0.799-0.233,1.53-0.301,2.192-0.203s1.172,0.332,1.528,0.703c0.312,0.324,0.391,0.637,0.237,0.941
	c-0.09,0.18-0.297,0.357-0.625,0.529l-0.737-0.461c0.218-0.104,0.353-0.227,0.401-0.369c0.047-0.141,0.003-0.283-0.133-0.424
	c-0.189-0.197-0.471-0.318-0.844-0.366S10.519,4.26,9.946,4.426C9.34,4.604,8.966,4.79,8.825,4.985
	c-0.142,0.196-0.12,0.39,0.065,0.583c0.137,0.143,0.337,0.24,0.6,0.295S10.081,5.916,10.476,5.857z"/>
</svg>
