<?xml version="1.0" encoding="utf-8"?>
<!-- Generator: Adobe Illustrator 16.0.0, SVG Export Plug-In . SVG Version: 6.00 Build 0)  -->
<!DOCTYPE svg PUBLIC "-//W3C//DTD SVG 1.1//EN" "http://www.w3.org/Graphics/SVG/1.1/DTD/svg11.dtd">
<svg version="1.1" id="Layer_1" xmlns="http://www.w3.org/2000/svg" xmlns:xlink="http://www.w3.org/1999/xlink" x="0px" y="0px"
	 width="20px" height="20px" viewBox="0 0 20 20" enable-background="new 0 0 20 20" xml:space="preserve">
<g>
	<path fill-rule="evenodd" clip-rule="evenodd" fill="#FFFFFF" d="M19.31,4.003c-0.012,0.984-0.094,1.969-0.095,2.951
		c0.016,0.063,0.039,0.129,0.057,0.191c0.063,0.23,0.081,0.424,0.054,0.659c-0.045,0.38-0.214,0.747-0.297,1.124
		c-0.093,0.417-0.081,0.803,0.031,1.215c0.106,0.389,0.299,0.739,0.285,1.153c-0.023,0.67-0.618,1.258-1.023,1.752l-5.098,6.203
		c-0.007,0.007-0.012,0.014-0.019,0.021c-0.416,0.477-0.789,0.73-1.456,0.738c-0.005,0-0.009,0-0.014,0h-0.019
		c-0.512,0-1.406-0.293-1.905-0.445c-0.937-0.285-1.869-0.596-2.797-0.908c-1.291-0.434-2.58-0.891-3.876-1.309
		c-0.754-0.213-1.314-0.611-1.785-1.236c-0.359-0.477-0.556-1.039-0.655-1.623c-0.131-0.762-0.038-1.568,0.272-2.279
		c-0.617-1.408-0.418-3.51,0.53-4.704c0.013-0.017,0.025-0.031,0.04-0.047c2.081-2.309,4.158-4.622,6.236-6.933
		c0.02-0.022,0.037-0.04,0.059-0.06c0.414-0.389,0.909-0.548,1.474-0.451c0.49,0.084,0.964,0.222,1.449,0.322
		c2.39,0.496,4.75,1.123,7.14,1.618c0.48,0.1,0.928,0.364,1.2,0.779C19.373,3.155,19.462,3.562,19.31,4.003z"/>
</g>
<path fill-rule="evenodd" clip-rule="evenodd" fill="#000001" d="M18.311,3.794c0.13-0.233,0.062-0.342-0.049-0.51v0l0,0
	c-0.113-0.172-0.322-0.298-0.567-0.349c-2.388-0.494-4.762-1.124-7.14-1.617c-0.464-0.097-0.936-0.234-1.416-0.316
	C8.871,0.955,8.693,1.033,8.52,1.195C6.44,3.507,4.364,5.82,2.283,8.13c-0.739,0.93-0.875,2.729-0.348,3.786l0.177,0.281
	c-0.406,0.607-0.554,1.395-0.429,2.125c0.075,0.439,0.215,0.853,0.469,1.189c0.337,0.447,0.714,0.725,1.274,0.881
	c1.75,0.563,7.517,2.619,8.29,2.619h0.019c0.379-0.004,0.51-0.158,0.716-0.396l5.098-6.202c1.079-1.324,0.84-0.936,0.547-2.004
	c-0.376-1.375,0.18-2.241,0.236-2.722c0.011-0.087,0.013-0.142-0.025-0.278c-0.049-0.178-0.092-0.264-0.092-0.439
	C18.215,5.988,18.311,4.816,18.311,3.794z"/>
<path fill-rule="evenodd" clip-rule="evenodd" fill="#FFFFFF" d="M11.576,17.494c-0.18-0.004-2.31-0.719-2.529-0.791
	c-1.629-0.541-3.398-1.061-5.033-1.605c-0.409-0.137-0.726-0.195-0.892-0.768c-0.155-0.539-0.064-0.941,0.155-1.355l2.027,0.621
	c1.018,0.288,2.074,0.648,3.08,0.945l3.079,0.945c0.782,0.227,0.979-0.402,1.515-1.003c0.502-0.563,1.298-1.661,1.801-2.225
	c0.202-0.228,1.703-2.144,1.81-2.216l0.128,0.651c0.117,0.463,0.159,0.293-0.238,0.793l-2.353,2.873
	c-0.134,0.152-0.241,0.285-0.37,0.443l-1.464,1.785C12.199,16.703,11.608,17.375,11.576,17.494z"/>
<path fill-rule="evenodd" clip-rule="evenodd" fill="#FFFFFF" d="M7.763,4.322c0-0.152,0.533-0.917,0.953-0.917
	c0.487,0,2.143,0.457,2.635,0.58l1.843,0.451c0.796,0.197,0.518,0.336,0.089,0.852c-0.441,0.531-0.728,0.32-1.256,0.21L7.969,4.505
	C7.907,4.481,7.763,4.38,7.763,4.322z"/>
<path fill-rule="evenodd" clip-rule="evenodd" fill="#FFFFFF" d="M16.938,5.491c0,0.62-0.137,1.118-0.137,1.692
	c0,0.396,0.115,0.201-0.149,0.521L12.91,12.33c-0.325,0.398-1.075,1.264-1.369,1.703c-0.326-0.156-5.655-1.709-6.537-2.008
	c-0.442-0.15-0.87-0.261-1.324-0.406c-0.578-0.186-0.546-0.35-0.635-1.098c-0.06-0.5,0.163-0.973,0.728-0.973
	c0.304,0,4.855,1.426,5.398,1.594c0.32,0.1,1.73,0.547,2.017,0.598c0.485,0.088,0.769-0.343,1.024-0.674
	c0.125-0.162,0.267-0.303,0.403-0.479l1.492-1.756c0.055-0.064,0.051-0.074,0.108-0.139l0.406-0.477
	c0.637-0.686,1.181-1.451,1.818-2.137L16.938,5.491z"/>
</svg>
