<?xml version="1.0" encoding="utf-8"?>
<!-- Generator: Adobe Illustrator 16.0.0, SVG Export Plug-In . SVG Version: 6.00 Build 0)  -->
<!DOCTYPE svg PUBLIC "-//W3C//DTD SVG 1.1//EN" "http://www.w3.org/Graphics/SVG/1.1/DTD/svg11.dtd">
<svg version="1.1" id="Layer_1" xmlns="http://www.w3.org/2000/svg" xmlns:xlink="http://www.w3.org/1999/xlink" x="0px" y="0px"
	 width="20px" height="20px" viewBox="0 0 20 20" enable-background="new 0 0 20 20" xml:space="preserve">
<path fill-rule="evenodd" clip-rule="evenodd" fill="#FFFFFF" d="M2.713,7.92C2.587,7.829,2.474,7.714,2.376,7.576
	c-0.388-0.551-0.3-1.115-0.3-1.734c0-0.434,0.279-0.805,0.668-0.941V4.71C2.356,4.574,2.077,4.203,2.077,3.768V2.995
	c0-0.5,0.256-0.89,0.64-1.183c0.142-0.107,0.27-0.21,0.422-0.305c0.36-0.225,0.715-0.465,1.074-0.693
	c0.469-0.298,1.248-0.886,1.826-0.792c0.336,0.055,1.368,0.757,1.678,0.953c0.275,0.173,0.55,0.348,0.823,0.527
	c0.183,0.12,0.409,0.26,0.572,0.405c0.333,0.298,0.456,0.623,0.5,0.974l6.236-1.403c0.486-0.109,0.972-0.215,1.455-0.328
	c0.006-0.001,0.01-0.002,0.014-0.003l1.469-0.323c0.307-0.067,0.598,0.001,0.842,0.197s0.373,0.466,0.373,0.779v6.01
	c0,0.316-0.131,0.588-0.379,0.783c-0.246,0.197-0.541,0.262-0.848,0.191c-1.969-0.459-3.951-0.858-5.916-1.34
	c-0.953-0.232-1.93-0.432-2.889-0.645C9.852,6.775,9.737,6.75,9.622,6.724C9.594,7.021,9.517,7.31,9.319,7.585
	C9.217,7.725,9.1,7.839,8.97,7.929l2.705,10.817c0.076,0.309,0.014,0.607-0.183,0.857c-0.196,0.252-0.47,0.385-0.788,0.385H1.002
	c-0.317,0-0.591-0.133-0.787-0.383c-0.196-0.251-0.26-0.549-0.183-0.857L2.713,7.92L2.713,7.92z M6.224,4.842V4.767H6.15v0.075
	H6.224z"/>
<path fill-rule="evenodd" clip-rule="evenodd" fill="#000001" d="M3.112,16.246h5.483c0.003,0.121,0.276,1.252,0.316,1.336H2.795
	c0.051-0.217,0.104-0.416,0.162-0.646C3.004,16.746,3.108,16.428,3.112,16.246L3.112,16.246z M3.814,13.471h4.078
	c0.067,0.289,0.316,1.152,0.316,1.369h-4.71C3.505,14.539,3.809,13.734,3.814,13.471L3.814,13.471z M4.518,10.693h2.707
	c0.02,0.236,0.295,1.107,0.316,1.371H4.201C4.208,11.785,4.492,10.998,4.518,10.693L4.518,10.693z M1.002,18.988h9.702L7.935,7.914
	l-4.19,0.002L1.002,18.988L1.002,18.988z M7.224,4.436v0.702c0.182,0.088,5.259,1.188,5.871,1.336
	c1.888,0.463,3.986,0.889,5.904,1.336V1.8L17.53,2.123c-0.477,0.112-0.965,0.22-1.463,0.33L8.722,4.106
	c-0.266,0.06-0.481,0.108-0.746,0.168C7.744,4.328,7.441,4.417,7.224,4.436L7.224,4.436z M3.077,2.995
	c0-0.185,0.139-0.306,0.245-0.387c0.122-0.092,0.204-0.164,0.346-0.252c0.182-0.114,2.076-1.369,2.209-1.347
	C5.885,1.01,8.22,2.452,8.445,2.653C8.707,2.887,8.63,3.303,8.63,3.768H5.151v1.968c0,0.082,0.024,0.105,0.105,0.105H8.63
	c0,0.846,0.145,1.406-0.844,1.406H3.85c-0.94,0-0.773-0.668-0.773-1.406h0.668V3.768H3.077V2.995z"/>
</svg>
