<?xml version="1.0" encoding="UTF-8" standalone="no"?>
<!-- Generator: Adobe Illustrator 16.0.0, SVG Export Plug-In . SVG Version: 6.00 Build 0)  -->

<svg
   xmlns:dc="http://purl.org/dc/elements/1.1/"
   xmlns:cc="http://creativecommons.org/ns#"
   xmlns:rdf="http://www.w3.org/1999/02/22-rdf-syntax-ns#"
   xmlns:svg="http://www.w3.org/2000/svg"
   xmlns="http://www.w3.org/2000/svg"
   xmlns:sodipodi="http://sodipodi.sourceforge.net/DTD/sodipodi-0.dtd"
   xmlns:inkscape="http://www.inkscape.org/namespaces/inkscape"
   version="1.1"
   id="Layer_1"
   x="0px"
   y="0px"
   width="20px"
   height="20px"
   viewBox="0 0 20 20"
   enable-background="new 0 0 20 20"
   xml:space="preserve"
   inkscape:version="0.91 r13725"
   sodipodi:docname="memorial.svg"><metadata
     id="metadata15"><rdf:RDF><cc:Work
         rdf:about=""><dc:format>image/svg+xml</dc:format><dc:type
           rdf:resource="http://purl.org/dc/dcmitype/StillImage" /><dc:title></dc:title></cc:Work></rdf:RDF></metadata><defs
     id="defs13"><pattern
       y="0"
       x="0"
       height="6"
       width="6"
       patternUnits="userSpaceOnUse"
       id="EMFhbasepattern" /><pattern
       y="0"
       x="0"
       height="6"
       width="6"
       patternUnits="userSpaceOnUse"
       id="EMFhbasepattern-9" /></defs><sodipodi:namedview
     pagecolor="#ffffff"
     bordercolor="#666666"
     borderopacity="1"
     objecttolerance="10"
     gridtolerance="10"
     guidetolerance="10"
     inkscape:pageopacity="0"
     inkscape:pageshadow="2"
     inkscape:window-width="1280"
     inkscape:window-height="748"
     id="namedview11"
     showgrid="false"
     inkscape:zoom="11.8"
     inkscape:cx="10"
     inkscape:cy="10"
     inkscape:window-x="-8"
     inkscape:window-y="-8"
     inkscape:window-maximized="1"
     inkscape:current-layer="Layer_1" /><path
     inkscape:connector-curvature="0"
     id="path4205"
     d="m 13.243783,6.4205957 5.856339,0.5503802 c 0.40912,0.035127 0.724718,0.292753 0.8533,0.6791939 0.116891,0.3864081 0.0117,0.7845697 -0.292224,1.0538825 l -4.418556,3.9228777 1.297513,5.796455 c 0.08183,0.398127 -0.05843,0.784569 -0.385749,1.018758 -0.327283,0.234189 -0.74809,0.257627 -1.087093,0.04685 l -5.06147,-3.021185 -5.0614702,3.021182 C 4.5937172,19.69977 4.1845965,19.676332 3.8572805,19.442143 3.5299973,19.207954 3.3780079,18.821512 3.4715321,18.423385 L 4.7573594,12.62693 0.33880944,8.7040523 C 0.03488796,8.4347395 -0.07031595,8.0365779 0.04657702,7.6501698 0.17515905,7.2637289 0.502461,7.0061016 0.89989499,6.9709759 L 6.7562173,6.4205957 9.0940778,0.96374155 c 0.163675,-0.36301132 0.5026449,-0.59721134 0.9117652,-0.59721134 0.397434,0 0.748124,0.23420002 0.900079,0.59721134 z"
     style="fill:#ffffee;fill-opacity:1;fill-rule:evenodd;stroke:none" /><path
     inkscape:connector-curvature="0"
     id="path4207"
     d="m 10.005843,1.3618797 2.559968,5.9838188 6.440788,0.608911 -4.85105,4.3210055 1.414409,6.35852 -5.564115,-3.313934 -5.575768,3.313934 1.4143767,-6.35852 L 0.99340866,7.9546095 7.4342227,7.3456985 Z"
     style="fill:#000000;fill-opacity:1;fill-rule:evenodd;stroke:none" /></svg>