<?xml version="1.0" encoding="utf-8"?>
<!-- Generator: Adobe Illustrator 16.0.0, SVG Export Plug-In . SVG Version: 6.00 Build 0)  -->
<!DOCTYPE svg PUBLIC "-//W3C//DTD SVG 1.1//EN" "http://www.w3.org/Graphics/SVG/1.1/DTD/svg11.dtd">
<svg version="1.1" id="Layer_1" xmlns="http://www.w3.org/2000/svg" xmlns:xlink="http://www.w3.org/1999/xlink" x="0px" y="0px"
	 width="20px" height="20px" viewBox="0 0 20 20" enable-background="new 0 0 20 20" xml:space="preserve">
<path fill-rule="evenodd" clip-rule="evenodd" fill="#FFFFFF" d="M17.415,6.951l1.341-0.335c0.309-0.077,0.607-0.015,0.857,0.183
	c0.251,0.195,0.385,0.469,0.385,0.787v3.77c0,0.166-0.035,0.318-0.106,0.455c0.272,1.275-0.293,2.361-1.413,3.082
	c-0.546,0.352-1.038,0.676-1.621,0.973c-0.177,0.09-0.369,0.146-0.539,0.234c-0.159,0.094-0.313,0.133-0.498,0.133H4.832
	c-0.18,0-0.333-0.039-0.471-0.117c-0.179-0.086-0.368-0.135-0.553-0.23c-0.573-0.295-1.12-0.629-1.656-0.986
	c-1.035-0.69-1.59-1.582-1.479-2.725C0.488,12.07,0.317,11.9,0.146,11.617C0.047,11.453,0.002,11.29,0.002,11.1v-0.257
	c0-0.181,0.041-0.337,0.13-0.494c0.443-0.779,0.6-0.761,1.399-1.009c0.34-0.105,0.681-0.211,1.021-0.314l3.078-0.943
	c0.05-0.016,0.098-0.029,0.144-0.043L0.962,7.85c-0.536-0.021-0.96-0.463-0.96-0.998V5.998c0-0.551,0.446-0.998,0.996-1l6.89-0.021
	c0.159-0.207,0.399-0.35,0.678-0.383c1.251-0.146,2.506-0.266,3.759-0.398c0.618-0.066,1.241-0.116,1.86-0.178
	c0.369-0.035,0.738-0.072,1.106-0.117c0.175-0.02,0.393-0.039,0.568-0.076c0.105-0.039,0.214-0.057,0.333-0.057h0.222
	c0.551,0,1,0.449,1,1L17.415,6.951z"/>
<path fill-rule="evenodd" clip-rule="evenodd" fill="#000001" d="M16.286,12.574c0.152,0.924,1.598,0.746,1.469-0.24
	c-0.048-0.365-0.424-0.691-0.866-0.623C16.529,11.766,16.213,12.133,16.286,12.574L16.286,12.574z M4.186,12.641
	c0.269-0.968-1.194-1.332-1.434-0.393c-0.115,0.449,0.2,0.826,0.527,0.91C3.719,13.271,4.094,12.975,4.186,12.641L4.186,12.641z
	 M4.553,13.158c-0.212-1.766,2.39-2.014,2.588-0.342C7.347,14.557,4.752,14.807,4.553,13.158L4.553,13.158z M1.001,5.998v0.854
	l7.421,0.291L8.419,5.975L1.001,5.998L1.001,5.998z M4.832,15.232c-0.125-0.07-0.405-0.153-0.565-0.236
	c-0.549-0.283-1.047-0.588-1.56-0.93c-0.653-0.436-1.313-1.065-0.934-2.307l0.513-0.025c0.015,0.662-0.522,1.17,0.81,1.92
	C3.4,13.826,4.688,14.6,4.929,14.607c1.762,0.045,3.574-0.002,5.341-0.002c1.78,0.002,3.561-0.008,5.341,0.002
	c0.378,0.002,0.652-0.246,0.951-0.414c0.302-0.17,0.606-0.338,0.91-0.506c1.048-0.582,0.999-0.838,0.866-1.859
	c-0.015-0.137-0.012-0.037,0.03-0.074H18.5l0.344,0.008c0.389,1.179-0.281,1.887-0.906,2.289c-0.594,0.383-0.892,0.596-1.534,0.924
	c-0.159,0.08-0.451,0.182-0.583,0.258H4.832L4.832,15.232z M16.414,4.768h-0.222c-0.213,0.11-3.243,0.366-3.763,0.422
	c-1.246,0.133-2.503,0.252-3.748,0.396l0.003,2.104c0.317,0.176,0.629,0.393,0.94,0.572c0.293,0.17,0.193,0.166,0.585,0.164h3.609
	l0.005-0.342l2.591-0.578L16.414,4.768L16.414,4.768z M1.001,10.843c0.264-0.464,0.164-0.343,0.826-0.548
	c0.347-0.107,0.672-0.207,1.018-0.314l3.078-0.942C6.426,8.883,6.526,8.857,7.09,8.857h6.479c0.454,0,0.72-0.093,1.14-0.2
	l4.289-1.071v3.77L1.901,11.32c-0.711-0.002-0.716,0.085-0.9-0.221V10.843L1.001,10.843z M7.486,13.158
	c0.199,1.648,2.794,1.398,2.588-0.342C9.876,11.145,7.274,11.393,7.486,13.158L7.486,13.158z M10.42,13.158
	c0.199,1.648,2.794,1.398,2.588-0.342C12.81,11.145,10.208,11.393,10.42,13.158L10.42,13.158z M13.354,13.158
	c0.199,1.648,2.794,1.398,2.588-0.342C15.743,11.145,13.142,11.393,13.354,13.158z"/>
</svg>
