<?xml version="1.0" encoding="utf-8"?>
<!-- Generator: Adobe Illustrator 16.0.0, SVG Export Plug-In . SVG Version: 6.00 Build 0)  -->
<!DOCTYPE svg PUBLIC "-//W3C//DTD SVG 1.1//EN" "http://www.w3.org/Graphics/SVG/1.1/DTD/svg11.dtd">
<svg version="1.1" id="Layer_1" xmlns="http://www.w3.org/2000/svg" xmlns:xlink="http://www.w3.org/1999/xlink" x="0px" y="0px"
	 width="20px" height="20px" viewBox="0 0 20 20" enable-background="new 0 0 20 20" xml:space="preserve">
<path fill-rule="evenodd" clip-rule="evenodd" fill="#FFFFFF" d="M14.852,9.512l-1.378,1.385l6.233,6.256
	c0.389,0.391,0.388,1.023-0.001,1.412l-1.013,1.014c-0.195,0.195-0.433,0.293-0.708,0.293s-0.513-0.1-0.707-0.295l-6.226-6.248
	l-6.345,6.376C4.513,19.9,4.276,19.998,4,19.998c-0.275,0.001-0.513-0.098-0.708-0.292l-1.013-1.013
	c-0.389-0.389-0.39-1.023-0.001-1.412l6.353-6.383L5.772,8.029c-0.8,1.1-1.522,2.287-2.073,3.508
	c-0.124,0.276-0.341,0.465-0.632,0.549c-0.291,0.085-0.575,0.043-0.828-0.123l-1.786-1.174C0.005,10.496-0.131,9.9,0.144,9.44
	C1.006,8,2.001,6.619,3.129,5.369C2.814,4.977,2.839,4.398,3.202,4.036l1.013-1.013C4.41,2.828,4.647,2.73,4.922,2.73
	c0.272,0,0.507,0.097,0.7,0.287c1.879-1.483,4.021-2.567,6.405-2.999c0.499-0.09,0.981,0.202,1.133,0.687
	c0.15,0.485-0.081,1-0.544,1.208c-1.684,0.759-3.305,2.103-4.63,3.475l3.066,3.076l1.373-1.38l-1.052-1.052
	c-0.374-0.373-0.393-0.971-0.044-1.367c2.06-2.339,4.632-3.338,7.695-2.435c0.34,0.1,0.584,0.347,0.68,0.687
	c0.845,2.99-0.189,5.57-2.413,7.662c-0.394,0.37-1.01,0.361-1.392-0.021L14.852,9.512z"/>
<path fill-rule="evenodd" clip-rule="evenodd" fill="#000001" d="M1.001,9.953l1.786,1.174C3.472,9.609,4.48,8.005,5.671,6.512
	l4.37,4.385l-7.055,7.09l1.013,1.013l7.054-7.087l6.934,6.959l1.013-1.013l-6.937-6.962l2.787-2.801l1.756,1.756
	c2.205-2.074,2.802-4.307,2.137-6.662c-2.771-0.817-4.904,0.139-6.662,2.136l1.757,1.758l-2.785,2.798l-4.454-4.47
	c1.716-1.919,3.699-3.55,5.607-4.41C9.64,1.466,7.421,2.741,5.559,4.369L4.922,3.73L3.909,4.742l0.608,0.611
	C3.101,6.791,1.927,8.408,1.001,9.953z"/>
</svg>
