<?xml version="1.0" encoding="utf-8"?>
<!-- Generator: Adobe Illustrator 16.0.0, SVG Export Plug-In . SVG Version: 6.00 Build 0)  -->
<!DOCTYPE svg PUBLIC "-//W3C//DTD SVG 1.1//EN" "http://www.w3.org/Graphics/SVG/1.1/DTD/svg11.dtd">
<svg version="1.1" id="Layer_1" xmlns="http://www.w3.org/2000/svg" xmlns:xlink="http://www.w3.org/1999/xlink" x="0px" y="0px"
	 width="20px" height="20px" viewBox="0 0 20 20" enable-background="new 0 0 20 20" xml:space="preserve">
<path fill-rule="evenodd" clip-rule="evenodd" fill="#FFFFFF" d="M17.718,6.432v8.52h0.107c0.55,0,0.999,0.449,0.999,1v0.525h0.175
	c0.55,0,0.999,0.449,0.999,1V19c0,0.551-0.449,1-0.999,1H1.001c-0.55,0-1-0.449-1-1v-1.523c0-0.551,0.449-1,1-1h0.174v-0.525
	c0-0.551,0.449-1,1-1h0.107v-8.52H1.001c-0.47,0-0.867-0.314-0.974-0.771c-0.107-0.459,0.11-0.916,0.532-1.125l8.999-4.429
	c0.288-0.142,0.595-0.142,0.883,0l8.999,4.429c0.422,0.209,0.639,0.666,0.531,1.125c-0.106,0.457-0.503,0.771-0.973,0.771H17.718z"
	/>
<path fill-rule="evenodd" clip-rule="evenodd" fill="#000001" d="M1.001,5.434h2.281v10.518H2.176v1.525H1.001V19h17.998v-1.523
	h-1.174v-1.525h-1.107V5.434h2.281L10,1.002L1.001,5.434L1.001,5.434z M5.678,15.951V5.434h1.284v10.518H5.678L5.678,15.951z
	 M9.357,15.951V5.434h1.285v10.518H9.357L9.357,15.951z M13.038,15.951V5.434h1.284v10.518H13.038z"/>
</svg>
