<?xml version="1.0" encoding="utf-8"?>
<!-- Generator: Adobe Illustrator 16.0.0, SVG Export Plug-In . SVG Version: 6.00 Build 0)  -->
<!DOCTYPE svg PUBLIC "-//W3C//DTD SVG 1.1//EN" "http://www.w3.org/Graphics/SVG/1.1/DTD/svg11.dtd">
<svg version="1.1" id="Layer_1" xmlns="http://www.w3.org/2000/svg" xmlns:xlink="http://www.w3.org/1999/xlink" x="0px" y="0px"
	 width="20px" height="20px" viewBox="0 0 20 20" enable-background="new 0 0 20 20" xml:space="preserve">
<path fill-rule="evenodd" clip-rule="evenodd" fill="#FFFFFF" d="M2.873,16.01L4.087,5.855c-0.36-0.15-0.614-0.508-0.614-0.922
	V1.002c0-0.551,0.449-1,1-1h1.988c0.551,0,1,0.449,1,1v0.944h0.545V1.002c0-0.551,0.449-1,1-1h1.988c0.551,0,1,0.449,1,1v0.944
	h0.546V1.002c0-0.551,0.449-1,1-1h1.987c0.551,0,0.999,0.449,0.999,1v3.932c0,0.414-0.254,0.771-0.613,0.922l1.215,10.154h0.371
	c0.551,0,1,0.449,1,1v1.988c0,0.551-0.449,1-1,1H2.501c-0.551,0-1-0.449-1-1V17.01c0-0.551,0.449-1,1-1H2.873z"/>
<path fill-rule="evenodd" clip-rule="evenodd" fill="#000001" d="M2.501,17.01H3.76L5.205,4.934H4.473V4.096V2.946V1.002h1.988
	v1.944h2.545V1.002h1.988v1.944h2.546V1.002h1.987v1.944v1.149v0.838h-0.731l1.443,12.076h1.26v1.988H2.501V17.01L2.501,17.01z
	 M7.207,4.934L5.762,17.01h8.475L12.794,4.934H7.207z"/>
</svg>
