<?xml version="1.0" encoding="utf-8"?>
<!-- Generator: Adobe Illustrator 16.0.0, SVG Export Plug-In . SVG Version: 6.00 Build 0)  -->
<!DOCTYPE svg PUBLIC "-//W3C//DTD SVG 1.1//EN" "http://www.w3.org/Graphics/SVG/1.1/DTD/svg11.dtd">
<svg version="1.1" id="Layer_1" xmlns="http://www.w3.org/2000/svg" xmlns:xlink="http://www.w3.org/1999/xlink" x="0px" y="0px"
	 width="20px" height="20px" viewBox="0 0 20 20" enable-background="new 0 0 20 20" xml:space="preserve">
<path fill-rule="evenodd" clip-rule="evenodd" fill="#FFFFFF" d="M7.37,5.242V1.001c0-0.545,0.444-0.989,0.989-0.989h9.53
	c0.545,0,0.989,0.444,0.989,0.989v17.997c0,0.545-0.444,0.99-0.989,0.99H2.11c-0.545,0-0.989-0.445-0.989-0.99V6.23
	c0-0.545,0.444-0.988,0.989-0.988H7.37z"/>
<polygon fill-rule="evenodd" clip-rule="evenodd" fill="#000001" points="2.11,6.23 8.359,6.23 8.359,1.001 17.89,1.001 
	17.89,18.998 14.878,18.998 8.359,18.998 2.11,18.998 "/>
<path fill-rule="evenodd" clip-rule="evenodd" fill="#FFFFFF" d="M3.1,7.221h10.789V18.01H9.523v-3.264H7.466v3.264H3.1V7.221
	L3.1,7.221z M6.34,11.543H4.283V13.6H6.34V11.543L6.34,11.543z M6.34,14.746H4.283v2.057H6.34V14.746L6.34,14.746z M6.34,8.393
	H4.283v2.057H6.34V8.393L6.34,8.393z M12.706,8.393h-2.057v2.057h2.057V8.393L12.706,8.393z M12.706,11.543h-2.057V13.6h2.057
	V11.543L12.706,11.543z M12.706,14.746h-2.057v2.057h2.057V14.746L12.706,14.746z M9.523,8.393H7.466v2.057h2.057V8.393L9.523,8.393
	z M9.523,11.543H7.466V13.6h2.057V11.543z"/>
<path fill-rule="evenodd" clip-rule="evenodd" fill="#FFFFFF" d="M9.401,2.043h7.446v15.914h-1.97V6.23H9.401V2.043L9.401,2.043z
	 M12.552,3.093h-2.057V5.15h2.057V3.093L12.552,3.093z M15.755,3.093h-2.058V5.15h2.058V3.093z"/>
</svg>
