<?xml version="1.0" encoding="UTF-8" standalone="no"?>
<!-- Generator: Adobe Illustrator 16.0.0, SVG Export Plug-In . SVG Version: 6.00 Build 0)  -->

<svg
   xmlns:dc="http://purl.org/dc/elements/1.1/"
   xmlns:cc="http://creativecommons.org/ns#"
   xmlns:rdf="http://www.w3.org/1999/02/22-rdf-syntax-ns#"
   xmlns:svg="http://www.w3.org/2000/svg"
   xmlns="http://www.w3.org/2000/svg"
   xmlns:sodipodi="http://sodipodi.sourceforge.net/DTD/sodipodi-0.dtd"
   xmlns:inkscape="http://www.inkscape.org/namespaces/inkscape"
   version="1.1"
   id="Layer_1"
   x="0px"
   y="0px"
   width="20px"
   height="20px"
   viewBox="0 0 20 20"
   enable-background="new 0 0 20 20"
   xml:space="preserve"
   inkscape:version="0.91 r13725"
   sodipodi:docname="parking.svg"><metadata
     id="metadata13"><rdf:RDF><cc:Work
         rdf:about=""><dc:format>image/svg+xml</dc:format><dc:type
           rdf:resource="http://purl.org/dc/dcmitype/StillImage" /></cc:Work></rdf:RDF></metadata><defs
     id="defs11" /><sodipodi:namedview
     pagecolor="#ffffff"
     bordercolor="#666666"
     borderopacity="1"
     objecttolerance="10"
     gridtolerance="10"
     guidetolerance="10"
     inkscape:pageopacity="0"
     inkscape:pageshadow="2"
     inkscape:window-width="657"
     inkscape:window-height="480"
     id="namedview9"
     showgrid="false"
     inkscape:zoom="11.8"
     inkscape:cx="10"
     inkscape:cy="10"
     inkscape:window-x="0"
     inkscape:window-y="0"
     inkscape:window-maximized="0"
     inkscape:current-layer="Layer_1" /><path
     fill-rule="evenodd"
     clip-rule="evenodd"
     fill="#FFFFFF"
     d="M3.646,0.002h12.71c2.004,0,3.643,1.64,3.643,3.644v12.71  c0,2.004-1.639,3.643-3.643,3.643H3.646c-2.004,0-3.644-1.639-3.644-3.643V3.646C0.002,1.642,1.642,0.002,3.646,0.002z"
     id="path3" /><path
     fill-rule="evenodd"
     clip-rule="evenodd"
     fill="#2B4EA1"
     d="M3.646,1.002h12.71c1.454,0,2.644,1.189,2.644,2.644v12.71  c0,1.455-1.189,2.643-2.644,2.643H3.646c-1.454,0-2.644-1.188-2.644-2.643V3.646C1.002,2.191,2.191,1.002,3.646,1.002z"
     id="path5"
     style="fill:#001aff;fill-opacity:1" /><path
     fill-rule="evenodd"
     clip-rule="evenodd"
     fill="#FFFFFF"
     d="M4.871,3.959h6.209c1.353,0,2.365,0.322,3.04,0.965  c0.673,0.645,1.01,1.561,1.01,2.75c0,1.221-0.368,2.178-1.103,2.863c-0.733,0.689-1.856,1.033-3.363,1.033H8.616v4.471H4.871V3.959  L4.871,3.959z M8.616,9.123h0.92c0.726,0,1.234-0.127,1.527-0.377c0.292-0.25,0.438-0.57,0.438-0.961  c0-0.381-0.126-0.701-0.382-0.965c-0.254-0.266-0.731-0.396-1.435-0.396H8.616V9.123z"
     id="path7" /></svg>