<?xml version="1.0" encoding="utf-8"?>
<!-- Generator: Adobe Illustrator 16.0.0, SVG Export Plug-In . SVG Version: 6.00 Build 0)  -->
<!DOCTYPE svg PUBLIC "-//W3C//DTD SVG 1.1//EN" "http://www.w3.org/Graphics/SVG/1.1/DTD/svg11.dtd">
<svg version="1.1" id="Layer_1" xmlns="http://www.w3.org/2000/svg" xmlns:xlink="http://www.w3.org/1999/xlink" x="0px" y="0px"
	 width="20px" height="20px" viewBox="0 0 20 20" enable-background="new 0 0 20 20" xml:space="preserve">
<path fill-rule="evenodd" clip-rule="evenodd" fill="#FFFFFF" d="M4.098,10.137l6.04-6.041V1.001c0-0.551,0.449-0.999,1-0.999h1.983
	c0.551,0,1,0.448,1,0.999v4.331c0,0.275-0.099,0.512-0.293,0.707L6.04,13.826c-0.195,0.195-0.432,0.293-0.707,0.293H1.001
	c-0.551,0-1-0.449-1-0.998v-1.984c0-0.551,0.449-1,1-1H4.098L4.098,10.137z M15.902,9.861h3.097c0.55,0,0.999-0.449,0.999-1V6.877
	c0-0.549-0.449-0.998-0.999-0.998h-4.332c-0.275,0-0.512,0.098-0.707,0.293l-7.788,7.787c-0.195,0.195-0.293,0.432-0.293,0.707
	v4.332c0,0.551,0.449,1,1,1h1.983c0.551,0,1-0.449,1-1v-3.096L15.902,9.861z"/>
<path fill-rule="evenodd" clip-rule="evenodd" fill="#000001" d="M1.001,11.137h3.51l6.626-6.625V1.001h1.983v4.331l-7.789,7.789
	H1.001V11.137L1.001,11.137z M6.879,18.998h1.983v-3.512l6.626-6.625h3.511V6.877h-4.332l-7.788,7.789V18.998z"/>
</svg>
