<?xml version="1.0" encoding="utf-8"?>
<!-- Generator: Adobe Illustrator 16.0.0, SVG Export Plug-In . SVG Version: 6.00 Build 0)  -->
<!DOCTYPE svg PUBLIC "-//W3C//DTD SVG 1.1//EN" "http://www.w3.org/Graphics/SVG/1.1/DTD/svg11.dtd">
<svg version="1.1" id="Layer_1" xmlns="http://www.w3.org/2000/svg" xmlns:xlink="http://www.w3.org/1999/xlink" x="0px" y="0px"
	 width="20px" height="20px" viewBox="0 0 20 20" enable-background="new 0 0 20 20" xml:space="preserve">
<path fill-rule="evenodd" clip-rule="evenodd" fill="#FFFFFF" d="M15.147,18.281V19c0,0.549-0.449,0.998-1,0.998H1.002
	c-0.551,0-1-0.449-1-0.998v-1.441c0-0.551,0.449-1,1-1h0.371V3.271c0-1.801,1.469-3.27,3.27-3.27h5.864
	c1.19,0,2.235,0.642,2.808,1.597c0.326-0.194,0.701-0.271,1.085-0.204c0.571,0.102,0.92,0.438,1.308,0.824
	c0.327,0.328,0.654,0.656,0.982,0.983c0.166,0.165,0.312,0.347,0.477,0.511c0.158,0.158,0.316,0.316,0.475,0.475
	c0.009,0.01,0.017,0.018,0.025,0.027l0.461,0.496c0.469,0.467,1.186,1.275,1.479,1.842c0.249,0.482,0.374,0.838,0.392,1.381
	c0,0.012,0,0.021,0,0.033v5.656c0,0.006,0,0.012,0,0.018c-0.006,0.295-0.048,0.576-0.07,0.869c-0.073,0.939-0.282,2.01-0.826,2.795
	c-0.093,0.133-0.207,0.273-0.32,0.393c-0.676,0.705-1.7,1.055-2.666,0.893C15.774,18.533,15.447,18.432,15.147,18.281L15.147,18.281
	z M13.776,5.121v3.955c1.128,0.17,2.095,0.674,2.526,1.92c0.318,0.92,0.224,1.92,0.272,2.885c0.023-0.424,0.024-0.852,0.026-1.195
	c0.003-0.646-0.012-1.291-0.009-1.938c-0.005-0.004-0.01-0.01-0.015-0.014c-0.321-0.322-0.643-0.645-0.965-0.965
	c-0.212-0.211-0.413-0.443-0.578-0.693c-0.664-1.006-0.482-2.029-0.481-3.154c0-0.008,0-0.016,0-0.023L13.776,5.121z"/>
<path fill-rule="evenodd" clip-rule="evenodd" fill="#000001" d="M12.776,11.406c0.314,0.002,0.66,0.008,0.889,0.063
	c0.323,0.078,0.359,0.229,0.423,0.561c0.1,0.523,0.028,1.273,0.09,1.844c0.033,0.307,0.029,0.604,0.069,0.879
	c0.122,0.828,0.244,1.523,0.773,2.18c0.284,0.35,0.709,0.58,1.261,0.672c0.651,0.109,1.338-0.139,1.777-0.598
	c0.066-0.068,0.166-0.191,0.222-0.271c0.421-0.605,0.59-1.521,0.65-2.303c0.021-0.254,0.063-0.529,0.068-0.809V8.699V8.656V7.967
	c-0.012-0.342-0.065-0.537-0.28-0.955c-0.223-0.428-0.961-1.258-1.312-1.607l-0.474-0.51c-0.167-0.166-0.308-0.307-0.475-0.475
	c-0.179-0.178-0.299-0.334-0.475-0.51C15.647,3.576,15.337,3.263,15,2.927c-0.254-0.254-0.729-0.813-1.245-0.42
	c-0.077,0.058-0.171,0.147-0.217,0.24c-0.198,0.403,0.004,0.729,0.284,1.007l1.459,1.457c0.302,0.301,0.273,0.152,0.272,0.713
	c-0.001,1.033-0.16,1.881,0.315,2.602c0.125,0.188,0.286,0.373,0.449,0.535c0.332,0.33,0.636,0.637,0.967,0.967
	c0.346,0.346,0.31,0.211,0.308,0.676c-0.008,1.402,0.091,3.535-0.223,4.629c-0.142,0.494-0.37,1.043-1.011,0.857
	c-0.429-0.123-0.581-0.805-0.675-1.293c-0.224-1.17-0.007-2.646-0.327-3.574c-0.389-1.123-1.453-1.307-2.581-1.32v-6.73
	c0-1.249-1.021-2.27-2.27-2.27H4.643c-1.249,0-2.271,1.021-2.271,2.27v14.287h-1.37V19h13.146v-1.441h-1.371V11.406L12.776,11.406z
	 M3.939,2.834h7.446v3.203H3.939V2.834z"/>
</svg>
