<?xml version="1.0" encoding="utf-8"?>
<!-- Generator: Adobe Illustrator 16.0.0, SVG Export Plug-In . SVG Version: 6.00 Build 0)  -->
<!DOCTYPE svg PUBLIC "-//W3C//DTD SVG 1.1//EN" "http://www.w3.org/Graphics/SVG/1.1/DTD/svg11.dtd">
<svg version="1.1" id="Layer_1" xmlns="http://www.w3.org/2000/svg" xmlns:xlink="http://www.w3.org/1999/xlink" x="0px" y="0px"
	 width="20px" height="20px" viewBox="0 0 20 20" enable-background="new 0 0 20 20" xml:space="preserve">
<path fill-rule="evenodd" clip-rule="evenodd" fill="#FFFFFF" d="M3.646,0.002h12.71c2.004,0,3.643,1.639,3.643,3.644v12.708
	c0,2.004-1.639,3.645-3.643,3.645H3.646c-2.004,0-3.644-1.641-3.644-3.645V3.646C0.002,1.641,1.642,0.002,3.646,0.002z"/>
<path fill-rule="evenodd" clip-rule="evenodd" fill="#00A74B" d="M3.646,1.001h12.71c1.454,0,2.643,1.189,2.643,2.645v12.708
	c0,1.455-1.188,2.645-2.643,2.645H3.646c-1.454,0-2.644-1.189-2.644-2.645V3.646C1.002,2.19,2.191,1.001,3.646,1.001z"/>
<polygon fill-rule="evenodd" clip-rule="evenodd" fill="#FFFFFF" points="7.688,2.912 12.313,2.912 12.313,7.688 17.088,7.688 
	17.088,12.313 12.313,12.313 12.313,17.088 7.688,17.088 7.688,12.313 2.913,12.313 2.913,7.688 7.688,7.688 "/>
</svg>
