<?xml version="1.0" encoding="UTF-8" standalone="no"?>
<!-- Generator: Adobe Illustrator 16.0.0, SVG Export Plug-In . SVG Version: 6.00 Build 0)  -->

<svg
   xmlns:dc="http://purl.org/dc/elements/1.1/"
   xmlns:cc="http://creativecommons.org/ns#"
   xmlns:rdf="http://www.w3.org/1999/02/22-rdf-syntax-ns#"
   xmlns:svg="http://www.w3.org/2000/svg"
   xmlns="http://www.w3.org/2000/svg"
   xmlns:sodipodi="http://sodipodi.sourceforge.net/DTD/sodipodi-0.dtd"
   xmlns:inkscape="http://www.inkscape.org/namespaces/inkscape"
   version="1.1"
   id="Layer_1"
   x="0px"
   y="0px"
   width="20px"
   height="20px"
   viewBox="0 0 20 20"
   enable-background="new 0 0 20 20"
   xml:space="preserve"
   inkscape:version="0.91 r13725"
   sodipodi:docname="police.svg"><metadata
     id="metadata25"><rdf:RDF><cc:Work
         rdf:about=""><dc:format>image/svg+xml</dc:format><dc:type
           rdf:resource="http://purl.org/dc/dcmitype/StillImage" /></cc:Work></rdf:RDF></metadata><defs
     id="defs23" /><sodipodi:namedview
     pagecolor="#ffffff"
     bordercolor="#666666"
     borderopacity="1"
     objecttolerance="10"
     gridtolerance="10"
     guidetolerance="10"
     inkscape:pageopacity="0"
     inkscape:pageshadow="2"
     inkscape:window-width="657"
     inkscape:window-height="480"
     id="namedview21"
     showgrid="false"
     inkscape:zoom="11.8"
     inkscape:cx="10"
     inkscape:cy="10"
     inkscape:window-x="0"
     inkscape:window-y="0"
     inkscape:window-maximized="0"
     inkscape:current-layer="Layer_1" /><path
     fill-rule="evenodd"
     clip-rule="evenodd"
     fill="#FFFFFF"
     d="M4.405,10.272C4.382,9.495,4.642,8.754,4.959,8.059  c0.875-1.926,3.026-3.164,5.118-3.125c1.512,0.029,2.738,0.553,3.838,1.576c0.955,0.889,1.74,2.512,1.686,3.832l0.004,5.363  c0.242,0.115,0.43,0.326,0.518,0.6l0.566,1.758c0.098,0.305,0.053,0.609-0.131,0.875c-0.182,0.264-0.451,0.414-0.771,0.43  l-0.102,0.004c-0.018,0.002-0.033,0.002-0.051,0.002l-11.382-0.01c-0.331,0-0.615-0.145-0.81-0.414  c-0.193-0.268-0.243-0.584-0.139-0.898l0.579-1.758c0.088-0.268,0.274-0.475,0.513-0.588L4.405,10.272z"
     id="path3" /><path
     fill-rule="evenodd"
     clip-rule="evenodd"
     fill="#2B4EA1"
     d="M5.405,10.256l-0.011,5.875l9.21,0.002l-0.004-5.812  c0.053-1.049-0.641-2.404-1.367-3.08c-0.758-0.705-1.719-1.279-3.176-1.307C8.229,5.899,6.525,7.03,5.869,8.473  C5.636,8.985,5.382,9.614,5.405,10.256z"
     id="path5"
     style="fill:#001aff;fill-opacity:1" /><polygon
     fill-rule="evenodd"
     clip-rule="evenodd"
     fill="#000001"
     points="4.253,18.365 15.636,18.373 15.735,18.367 15.171,16.609   4.832,16.607 "
     id="polygon7" /><path
     fill-rule="evenodd"
     clip-rule="evenodd"
     fill="#2B4EA1"
     d="M4.598,2.475C4.225,2.556,3.906,2.886,4.006,3.362  c0.058,0.275,0.464,0.697,0.622,0.9C4.842,4.54,5.069,4.819,5.29,5.094c0.218,0.271,0.438,0.654,0.971,0.553  C6.624,5.579,6.944,5.2,6.83,4.733c-0.064-0.26-1.068-1.439-1.295-1.722C5.34,2.768,5.097,2.366,4.598,2.475z"
     id="path9"
     style="fill:#001aff;fill-opacity:1" /><path
     fill-rule="evenodd"
     clip-rule="evenodd"
     fill="#2B4EA1"
     d="M15.319,2.736c-0.348,0.097-0.826,0.732-1.148,1.1  c-0.426,0.484-0.957,0.91-0.854,1.426c0.086,0.43,0.727,0.959,1.357,0.256c0.127-0.143,0.229-0.25,0.354-0.393l1.059-1.211  c0.123-0.166,0.191-0.36,0.141-0.618C16.157,2.937,15.769,2.612,15.319,2.736z"
     id="path11"
     style="fill:#001aff;fill-opacity:1" /><path
     fill-rule="evenodd"
     clip-rule="evenodd"
     fill="#2B4EA1"
     d="M9.36,1.42l0.004,1.983c0.001,1.078,0.948,1.062,1.301,0.664  c0.271-0.307,0.189-0.943,0.188-1.353l-0.002-0.748c-0.001-0.326,0.042-0.783-0.14-1.028c-0.104-0.141-0.275-0.282-0.51-0.306  C9.698,0.58,9.36,0.943,9.36,1.42z"
     id="path13"
     style="fill:#001aff;fill-opacity:1" /><path
     fill-rule="evenodd"
     clip-rule="evenodd"
     fill="#2B4EA1"
     d="M1.001,7.926v0.322L1.065,8.37C1.2,8.672,1.399,8.795,1.752,8.86  c0.391,0.07,1.891,0.445,2.156,0.4c0.749-0.125,0.879-1.256-0.005-1.469L1.77,7.354C1.213,7.331,1.017,7.913,1.015,7.907  C1.013,7.903,1.006,7.92,1.001,7.926z"
     id="path15"
     style="fill:#001aff;fill-opacity:1" /><path
     fill-rule="evenodd"
     clip-rule="evenodd"
     fill="#2B4EA1"
     d="M18.999,8.635V8.344c-0.07-0.109-0.174-0.604-0.746-0.602  l-2.141,0.344c-0.857,0.182-0.77,1.361,0.016,1.465c0.26,0.035,0.721-0.1,1-0.145c0.383-0.061,0.773-0.113,1.15-0.174  C18.86,9.139,18.835,8.891,18.999,8.635z"
     id="path17"
     style="fill:#001aff;fill-opacity:1" /><path
     fill-rule="evenodd"
     clip-rule="evenodd"
     fill="#FFFFFF"
     d="M9.931,6.997C9.634,7.067,9.5,7.383,9.712,7.629  c0.273,0.316,1.099-0.119,2.234,0.842c0.357,0.303,0.609,0.65,0.832,1.211c0.102,0.254,0.143,0.547,0.16,0.852  c0.018,0.302,0.174,0.599,0.531,0.48c0.473-0.158,0.199-1.199,0.063-1.566c-0.215-0.57-0.418-0.883-0.768-1.277  c-0.293-0.328-0.68-0.631-1.178-0.861C11.229,7.145,10.393,6.885,9.931,6.997z"
     id="path19" /></svg>