<?xml version="1.0" encoding="UTF-8" standalone="no"?>
<!-- Generator: Adobe Illustrator 16.0.0, SVG Export Plug-In . SVG Version: 6.00 Build 0)  -->

<svg
   xmlns:dc="http://purl.org/dc/elements/1.1/"
   xmlns:cc="http://creativecommons.org/ns#"
   xmlns:rdf="http://www.w3.org/1999/02/22-rdf-syntax-ns#"
   xmlns:svg="http://www.w3.org/2000/svg"
   xmlns="http://www.w3.org/2000/svg"
   xmlns:sodipodi="http://sodipodi.sourceforge.net/DTD/sodipodi-0.dtd"
   xmlns:inkscape="http://www.inkscape.org/namespaces/inkscape"
   version="1.1"
   id="Layer_1"
   x="0px"
   y="0px"
   width="20px"
   height="20px"
   viewBox="0 0 20 20"
   enable-background="new 0 0 20 20"
   xml:space="preserve"
   inkscape:version="0.91 r13725"
   sodipodi:docname="postbox.svg"><metadata
     id="metadata13"><rdf:RDF><cc:Work
         rdf:about=""><dc:format>image/svg+xml</dc:format><dc:type
           rdf:resource="http://purl.org/dc/dcmitype/StillImage" /></cc:Work></rdf:RDF></metadata><defs
     id="defs11" /><sodipodi:namedview
     pagecolor="#ffffff"
     bordercolor="#666666"
     borderopacity="1"
     objecttolerance="10"
     gridtolerance="10"
     guidetolerance="10"
     inkscape:pageopacity="0"
     inkscape:pageshadow="2"
     inkscape:window-width="657"
     inkscape:window-height="480"
     id="namedview9"
     showgrid="false"
     inkscape:zoom="11.8"
     inkscape:cx="10"
     inkscape:cy="10"
     inkscape:window-x="0"
     inkscape:window-y="0"
     inkscape:window-maximized="0"
     inkscape:current-layer="Layer_1" /><path
     fill-rule="evenodd"
     clip-rule="evenodd"
     fill="#FFFFFF"
     d="M10,19.998c5.507,0,9.998-4.49,9.998-9.998  c0-5.506-4.491-9.998-9.998-9.998S0.002,4.494,0.002,10C0.002,15.508,4.493,19.998,10,19.998z"
     id="path3" /><path
     fill-rule="evenodd"
     clip-rule="evenodd"
     fill="#EC1C24"
     d="M5.029,7l3,3.016l-3,3V7L5.029,7z M14.361,6.436H5.58l3.666,3.666  c0.193,0.193,0.435,0.291,0.725,0.291c0.28,0,0.513-0.092,0.696-0.277L14.361,6.436L14.361,6.436z M14.941,13.016l-3-3l3-3.016  V13.016L14.941,13.016z M5.565,13.58h8.796l-3.014-3l-0.13,0.131c-0.339,0.338-0.754,0.508-1.247,0.508  c-0.492,0-0.913-0.17-1.261-0.508L8.58,10.58L5.565,13.58L5.565,13.58z M4.218,14.393h11.564V5.609H4.218V14.393z"
     id="path5"
     style="fill:#e30000;fill-opacity:1" /><path
     fill-rule="evenodd"
     clip-rule="evenodd"
     fill="#EC1C24"
     d="M10,1.827c4.514,0,8.173,3.659,8.173,8.173  S14.514,18.174,10,18.174S1.827,14.514,1.827,10S5.486,1.827,10,1.827L10,1.827z M10,1.002c-4.97,0-8.999,4.029-8.999,8.998  c0,4.971,4.029,9,8.999,9s8.998-4.029,8.998-9C18.998,5.031,14.97,1.002,10,1.002z"
     id="path7"
     style="fill:#e30000;fill-opacity:1" /></svg>