<?xml version="1.0" encoding="UTF-8" standalone="no"?>
<!-- Generator: Adobe Illustrator 16.0.0, SVG Export Plug-In . SVG Version: 6.00 Build 0)  -->

<svg
   xmlns:dc="http://purl.org/dc/elements/1.1/"
   xmlns:cc="http://creativecommons.org/ns#"
   xmlns:rdf="http://www.w3.org/1999/02/22-rdf-syntax-ns#"
   xmlns:svg="http://www.w3.org/2000/svg"
   xmlns="http://www.w3.org/2000/svg"
   xmlns:sodipodi="http://sodipodi.sourceforge.net/DTD/sodipodi-0.dtd"
   xmlns:inkscape="http://www.inkscape.org/namespaces/inkscape"
   version="1.1"
   id="Layer_1"
   x="0px"
   y="0px"
   width="20px"
   height="20px"
   viewBox="0 0 20 20"
   enable-background="new 0 0 20 20"
   xml:space="preserve"
   inkscape:version="0.91 r13725"
   sodipodi:docname="postoffice.svg"><metadata
     id="metadata13"><rdf:RDF><cc:Work
         rdf:about=""><dc:format>image/svg+xml</dc:format><dc:type
           rdf:resource="http://purl.org/dc/dcmitype/StillImage" /></cc:Work></rdf:RDF></metadata><defs
     id="defs11" /><sodipodi:namedview
     pagecolor="#ffffff"
     bordercolor="#666666"
     borderopacity="1"
     objecttolerance="10"
     gridtolerance="10"
     guidetolerance="10"
     inkscape:pageopacity="0"
     inkscape:pageshadow="2"
     inkscape:window-width="657"
     inkscape:window-height="480"
     id="namedview9"
     showgrid="false"
     inkscape:zoom="11.8"
     inkscape:cx="10"
     inkscape:cy="10"
     inkscape:window-x="0"
     inkscape:window-y="0"
     inkscape:window-maximized="0"
     inkscape:current-layer="Layer_1" /><path
     fill-rule="evenodd"
     clip-rule="evenodd"
     fill="#FFFFFF"
     d="M10,19.998c5.507,0,9.999-4.49,9.999-9.998  c0-5.506-4.492-9.998-9.999-9.998S0.002,4.494,0.002,10C0.002,15.508,4.493,19.998,10,19.998z"
     id="path3" /><circle
     fill-rule="evenodd"
     clip-rule="evenodd"
     fill="#EC1C24"
     cx="10"
     cy="10.001"
     r="8.999"
     id="circle5"
     style="fill:#e30000;fill-opacity:1" /><path
     fill-rule="evenodd"
     clip-rule="evenodd"
     fill="#FFFFFF"
     d="M4.615,6.75l3.25,3.266l-3.25,3.25V6.75L4.615,6.75z M14.725,6.139  H5.212l3.972,3.971c0.209,0.211,0.471,0.314,0.785,0.314c0.304,0,0.555-0.1,0.753-0.299L14.725,6.139L14.725,6.139z M15.354,13.266  l-3.25-3.25l3.25-3.266V13.266L15.354,13.266z M5.196,13.879h9.528l-3.265-3.25l-0.142,0.141c-0.366,0.367-0.815,0.551-1.35,0.551  s-0.989-0.184-1.366-0.551l-0.142-0.141L5.196,13.879L5.196,13.879z M3.736,14.758h12.527V5.244H3.736V14.758z"
     id="path7" /></svg>