<?xml version="1.0" encoding="UTF-8" standalone="no"?>
<!-- Generator: Adobe Illustrator 16.0.0, SVG Export Plug-In . SVG Version: 6.00 Build 0)  -->

<svg
   xmlns:dc="http://purl.org/dc/elements/1.1/"
   xmlns:cc="http://creativecommons.org/ns#"
   xmlns:rdf="http://www.w3.org/1999/02/22-rdf-syntax-ns#"
   xmlns:svg="http://www.w3.org/2000/svg"
   xmlns="http://www.w3.org/2000/svg"
   xmlns:sodipodi="http://sodipodi.sourceforge.net/DTD/sodipodi-0.dtd"
   xmlns:inkscape="http://www.inkscape.org/namespaces/inkscape"
   version="1.1"
   id="Layer_1"
   x="0px"
   y="0px"
   width="20px"
   height="20px"
   viewBox="0 0 20 20"
   enable-background="new 0 0 20 20"
   xml:space="preserve"
   inkscape:version="0.91 r13725"
   sodipodi:docname="railway-crossing.svg"><metadata
     id="metadata13"><rdf:RDF><cc:Work
         rdf:about=""><dc:format>image/svg+xml</dc:format><dc:type
           rdf:resource="http://purl.org/dc/dcmitype/StillImage" /></cc:Work></rdf:RDF></metadata><defs
     id="defs11"><pattern
       y="0"
       x="0"
       height="6"
       width="6"
       patternUnits="userSpaceOnUse"
       id="EMFhbasepattern" /></defs><sodipodi:namedview
     pagecolor="#ffffff"
     bordercolor="#666666"
     borderopacity="1"
     objecttolerance="10"
     gridtolerance="10"
     guidetolerance="10"
     inkscape:pageopacity="0"
     inkscape:pageshadow="2"
     inkscape:window-width="882"
     inkscape:window-height="585"
     id="namedview9"
     showgrid="false"
     inkscape:zoom="16.68772"
     inkscape:cx="8.2091132"
     inkscape:cy="9.8758927"
     inkscape:window-x="0"
     inkscape:window-y="0"
     inkscape:window-maximized="0"
     inkscape:current-layer="Layer_1"
     showguides="false" /><path
     inkscape:connector-curvature="0"
     id="path4140"
     d="M 10.003449,6.6449881 14.445282,4.195287 C 14.669746,4.0651094 14.90602,3.9822699 15.177726,3.9586025 l 2.492622,-0.3313607 c 0.815115,-0.1065084 1.618421,0.2603546 2.043694,0.9585781 0.437084,0.7218939 0.366222,1.6213003 -0.165378,2.2721852 L 18.001105,8.7633215 C 17.835726,8.9644982 17.634883,9.1301769 17.410453,9.260358 l -1.334939,0.7337443 1.334939,0.7337107 c 0.22443,0.130181 0.425273,0.29586 0.590652,0.497037 l 1.547559,1.917183 c 0.5316,0.650872 0.602462,1.538451 0.165378,2.260351 -0.425273,0.710057 -1.228579,1.076913 -2.043694,0.970386 l -2.492622,-0.331357 c -0.271706,-0.0355 -0.50798,-0.118337 -0.732444,-0.248518 L 10.003449,13.34321 5.5616483,15.792895 C 5.3253742,15.923076 5.0891,16.005914 4.8292051,16.041413 L 2.3247798,16.37277 C 1.5096597,16.479297 0.7181647,16.112441 0.28106947,15.402384 -0.14421027,14.680484 -0.08514344,13.792905 0.44645682,13.142033 L 1.9940051,11.22485 C 2.1593936,11.023673 2.3602204,10.857994 2.5964877,10.727813 L 3.9313834,9.9941023 2.5964877,9.260358 C 2.3602204,9.1301769 2.1593936,8.9644982 1.9940051,8.7633215 L 0.44645682,6.8580051 C -0.08514344,6.2071202 -0.14421027,5.3077138 0.28106947,4.5858199 0.7181647,3.8875964 1.5096597,3.520733 2.3247798,3.6272418 L 4.8292051,3.9586025 C 5.0891,3.9822702 5.3253742,4.0651098 5.5616483,4.195287 Z"
     style="fill:#ffffff;fill-opacity:1;fill-rule:evenodd;stroke:none" /><path
     inkscape:connector-curvature="0"
     id="path4142"
     d="M 10.003449,7.7929027 14.917831,5.071026 c 0.129947,-0.071005 0.248084,-0.1065073 0.389842,-0.1301777 l 2.492589,-0.3195239 c 0.437117,-0.059172 0.83877,0.1301776 1.051389,0.4852061 0.224464,0.3668621 0.189033,0.7928962 -0.07086,1.1124234 l -1.55937,1.9053064 c -0.0827,0.1183707 -0.177188,0.1893664 -0.295326,0.2603619 l -2.929705,1.6094801 2.929705,1.6212907 c 0.118132,0.05919 0.212621,0.142024 0.295326,0.248518 l 1.55937,1.905339 c 0.259895,0.331358 0.295326,0.757399 0.07086,1.112411 -0.212619,0.366855 -0.614272,0.556222 -1.051389,0.497036 L 15.307673,15.04734 c -0.141758,-0.02365 -0.259895,-0.05915 -0.389842,-0.130182 l -4.914382,-2.710046 -4.9261593,2.710046 c -0.1299475,0.07103 -0.2480846,0.106528 -0.378032,0.130182 L 2.1948354,15.378697 C 1.7577413,15.437882 1.3560855,15.248516 1.1434456,14.881661 0.91899144,14.526649 0.95443319,14.100608 1.2261363,13.76925 l 1.5475495,-1.905339 c 0.082691,-0.106493 0.1772017,-0.189333 0.2953353,-0.248518 L 5.9987309,9.9941023 3.0690211,8.3846222 C 2.9508898,8.3136267 2.8563812,8.242631 2.7736858,8.1242603 L 1.2261363,6.2189539 C 0.95443201,5.8994267 0.91899026,5.4733926 1.1434456,5.1065305 1.3560855,4.751502 1.7577413,4.5621525 2.1948354,4.6213244 l 2.5044223,0.3195239 c 0.1299474,0.023671 0.2480845,0.059172 0.378032,0.1301777 z"
     style="fill:#ff0000;fill-opacity:1;fill-rule:evenodd;stroke:none" /><path
     inkscape:connector-curvature="0"
     id="path4144"
     d="m 4.5456895,5.9349312 5.4577595,3.0059128 5.445982,-3.0059128 2.504432,-0.3313609 -1.55937,1.9171601 -4.489074,2.4733719 4.489074,2.4851817 1.55937,1.90534 L 15.449431,14.053267 10.003449,11.04736 4.5456895,14.053267 2.0530743,14.384624 3.6006261,12.479284 8.0897015,9.9941023 3.6006261,7.5207304 2.0530743,5.6035703 Z"
     style="fill:#ffffff;fill-opacity:1;fill-rule:evenodd;stroke:none" /></svg>