<?xml version="1.0" encoding="utf-8"?>
<!-- Generator: Adobe Illustrator 16.0.0, SVG Export Plug-In . SVG Version: 6.00 Build 0)  -->
<!DOCTYPE svg PUBLIC "-//W3C//DTD SVG 1.1//EN" "http://www.w3.org/Graphics/SVG/1.1/DTD/svg11.dtd">
<svg version="1.1" id="Layer_1" xmlns="http://www.w3.org/2000/svg" xmlns:xlink="http://www.w3.org/1999/xlink" x="0px" y="0px"
	 width="20px" height="20px" viewBox="0 0 20 20" enable-background="new 0 0 20 20" xml:space="preserve">
<path fill-rule="evenodd" clip-rule="evenodd" fill="#FFFFFF" d="M14.269,9.632L11.493,8.79c-0.31-0.094-0.536-0.307-0.647-0.611
	c-0.112-0.303-0.078-0.613,0.098-0.885c0.084-0.133,0.351-0.363,0.631-0.586c-0.074-0.131-0.148-0.26-0.225-0.389
	c-0.184-0.311-0.82-1.258-1.215-1.441c-0.012,0.018-0.022,0.035-0.033,0.053L9.043,6.599C8.984,6.694,8.924,6.79,8.864,6.884
	C8.607,7.292,8.367,7.585,7.829,7.595C7.608,7.599,7.343,7.519,7.076,7.405l0.747,3.201c0.087,0.373-0.033,0.738-0.324,0.988
	c-0.291,0.248-0.67,0.311-1.025,0.166l-0.489-0.197c-0.142,0.238-0.274,0.48-0.401,0.729c-0.126,0.25-0.492,1.07-0.466,1.441
	l2.348,0.094c0.337,0.014,0.562-0.004,0.869,0.221c0.266,0.191,0.384,0.434,0.448,0.715l0.086-0.08
	c0.003-0.004,0.006-0.006,0.009-0.008c0.111-0.102,0.216-0.213,0.326-0.314l1.701-1.598c0.238-0.223,0.538-0.313,0.858-0.254
	c0.321,0.057,0.572,0.242,0.719,0.533c0.116,0.23,0.146,0.549,0.179,0.826c0.421,0.008,1.894-0.043,2.32-0.348
	c-0.046-0.084-0.104-0.178-0.142-0.248c-0.339-0.646-0.672-1.299-1.026-1.938c-0.319-0.576-0.244-1.055,0.228-1.514
	C14.113,9.753,14.189,9.69,14.269,9.632L14.269,9.632z M16.573,8.325c0.042-0.016,0.082-0.027,0.117-0.037
	c0.455-0.121,0.919,0.082,1.14,0.496l1.348,2.533c0.124,0.232,0.231,0.436,0.314,0.691c0.463,1.42,0.373,2.928-0.442,4.201
	c-0.591,0.922-1.454,1.508-2.429,1.971c-0.271,0.129-0.477,0.209-0.782,0.242c-0.613,0.064-2.024,0.219-3.046,0.207
	c-0.013,0.129-0.021,0.26-0.024,0.389c-0.008,0.352-0.18,0.648-0.48,0.832s-0.646,0.197-0.961,0.043
	c-0.224-0.109-0.488-0.391-0.664-0.58c-0.109-0.117-0.226-0.23-0.339-0.346L9.242,17.87c-0.136-0.139-0.273-0.275-0.41-0.414
	l-0.006,0.158c-0.021,0.518-0.428,0.93-0.944,0.959c-0.275,0.014-0.521-0.01-0.793-0.02l-1.883-0.068
	c-0.515-0.018-0.916-0.031-1.42-0.176c-2.197-0.631-3.557-2.369-3.557-4.688c0-0.506,0.012-1.139,0.22-1.604
	c0.039-0.086,0.079-0.172,0.118-0.26c0.219-0.486,0.45-0.969,0.688-1.445c0.157-0.314,0.341-0.689,0.54-1.031
	C1.648,9.185,1.497,9.089,1.364,8.978C1.12,8.774,0.995,8.499,1.004,8.183c0.008-0.316,0.147-0.586,0.401-0.775
	c0.284-0.211,1.953-0.592,2.342-0.691c0.45-0.117,0.9-0.234,1.351-0.348c0.037-0.01,0.079-0.02,0.124-0.031L4.929,6.153
	C4.563,5.927,4.388,5.511,4.48,5.091c0.071-0.322,0.432-0.822,0.617-1.115c0.201-0.319,0.397-0.64,0.596-0.958
	c0.208-0.335,0.448-0.76,0.686-1.069c0.116-0.151,0.242-0.296,0.377-0.431c1.27-1.268,2.933-1.836,4.697-1.336
	c0.77,0.217,1.621,0.688,2.232,1.199c0.136,0.114,0.212,0.225,0.31,0.363c0.329,0.463,0.654,0.929,0.97,1.401
	c0.203,0.304,0.474,0.704,0.694,1.092c0.144-0.066,0.278-0.135,0.367-0.182c0.361-0.186,0.775-0.145,1.091,0.113
	c0.316,0.258,0.441,0.654,0.331,1.047L16.573,8.325z"/>
<path fill-rule="evenodd" clip-rule="evenodd" fill="#00A74B" d="M2.003,8.21c0.09,0.074,0.448,0.303,0.614,0.43
	c0.125,0.096,0.526,0.387,0.509,0.557C3.092,9.235,3.062,9.237,3.021,9.272C2.987,9.302,2.959,9.335,2.928,9.374
	c-0.373,0.484-1.188,2.213-1.451,2.795c-0.038,0.086-0.079,0.174-0.117,0.26c-0.128,0.285-0.132,0.865-0.132,1.193
	c0,2.043,1.24,3.27,2.833,3.727c0.426,0.123,0.714,0.121,1.18,0.139l1.883,0.068c0.26,0.008,0.438,0.033,0.702,0.02l0.054-1.33
	c0.004-0.297-0.008-0.824-0.045-1.102c-0.049-0.371-0.065-0.303-0.409-0.316l-2.456-0.1c-0.158-0.008-0.178-0.002-0.305-0.061
	c-1.053-0.484-0.301-2.18,0.028-2.826c0.216-0.426,0.409-0.764,0.655-1.15c0.078-0.123,0.182-0.256,0.241-0.367l1.261,0.512
	L5.998,7.183C5.886,7.183,2.019,8.196,2.003,8.21L2.003,8.21z M16.015,13.519v0.039c0,1.188-2.261,1.332-3.372,1.309l-0.856-0.033
	c-0.042-0.213-0.065-0.457-0.095-0.674c-0.017-0.119-0.066-0.598-0.101-0.668l-1.702,1.598c-0.12,0.111-0.218,0.215-0.337,0.324
	l-0.343,0.32c-0.069,0.066-0.301,0.277-0.337,0.33c0.046,0.066,0.984,1.006,1.082,1.104l1.082,1.1
	c0.122,0.121,0.243,0.242,0.36,0.367c0.049,0.053,0.326,0.34,0.373,0.363c0.005-0.262,0.035-0.549,0.068-0.805
	c0.023-0.184,0.065-0.59,0.207-0.662c0.06,0.002,0.069,0.029,0.12,0.049c0.45,0.164,3.042-0.094,3.568-0.15
	c0.185-0.02,0.282-0.068,0.459-0.152c0.803-0.381,1.533-0.854,2.016-1.605c0.649-1.014,0.706-2.211,0.334-3.352
	c-0.069-0.211-0.149-0.35-0.247-0.533l-1.348-2.531c-0.133,0.035-1.17,0.613-1.308,0.691c-0.213,0.121-0.426,0.248-0.62,0.381
	c-0.097,0.064-0.207,0.139-0.281,0.211c-0.134,0.131-0.152,0.125-0.05,0.311c0.333,0.602,0.712,1.336,1.038,1.961
	C15.859,13.063,16.015,13.269,16.015,13.519L16.015,13.519z M5.457,5.306c0.017-0.076,0.415-0.684,0.486-0.797
	c0.179-0.285,1.113-1.801,1.229-1.953c0.092-0.12,0.193-0.234,0.291-0.332c0.791-0.789,2.07-1.549,3.718-1.082
	c0.668,0.189,1.401,0.618,1.863,1.005c0.051,0.043,0.099,0.122,0.137,0.175c0.418,0.59,1.651,2.333,1.847,2.904
	c0.033,0.098-0.002,0.209,0.085,0.229c0.235,0.049,1.174-0.406,1.374-0.51l-1.119,3.977l-3.584-1.088
	c0.029-0.043,0.975-0.77,1.063-0.832c-0.021-0.082-0.107-0.232-0.149-0.314c-0.053-0.102-0.098-0.195-0.155-0.299
	C12.43,6.19,12.323,6.003,12.21,5.812c-0.408-0.693-1.517-2.341-2.508-1.881C9.445,4.048,9.4,4.171,9.258,4.396L8.194,6.071
	c-0.06,0.096-0.116,0.186-0.175,0.279c-0.082,0.129-0.12,0.244-0.207,0.244C7.582,6.599,6.755,6.11,6.578,6.003L5.457,5.306z"/>
</svg>
