<?xml version="1.0" encoding="utf-8"?>
<!-- Generator: Adobe Illustrator 16.0.0, SVG Export Plug-In . SVG Version: 6.00 Build 0)  -->
<!DOCTYPE svg PUBLIC "-//W3C//DTD SVG 1.1//EN" "http://www.w3.org/Graphics/SVG/1.1/DTD/svg11.dtd">
<svg version="1.1" id="Layer_1" xmlns="http://www.w3.org/2000/svg" xmlns:xlink="http://www.w3.org/1999/xlink" x="0px" y="0px"
	 width="20px" height="20px" viewBox="0 0 20 20" enable-background="new 0 0 20 20" xml:space="preserve">
<path fill-rule="evenodd" clip-rule="evenodd" fill="#FFFFFF" d="M13.605,11.248l4.562,4.232c0.011,0.01,0.021,0.02,0.028,0.027
	c0.176,0.172,0.391,0.322,0.574,0.498c0.688,0.658,1.09,1.625,0.309,2.408l-0.915,0.914c-0.538,0.537-1.451,0.541-2.023,0.057
	c-0.031-0.025-0.058-0.051-0.086-0.082l-5.536-5.947C9.126,15,7.734,16.646,6.341,18.291c-0.007,0.01-0.014,0.018-0.021,0.025
	c-0.488,0.539-1.005,1.363-1.789,1.42c-0.539,0.041-0.954-0.26-1.322-0.611c-0.006-0.006-0.012-0.01-0.019-0.018l-0.694-0.693
	c-0.574-0.574-0.574-1.572,0-2.146l5.56-5.559L7.177,9.766C6.99,9.862,6.836,9.944,6.561,9.993C5.888,10.112,5.3,9.829,4.831,9.36
	L0.594,5.124c-0.07-0.07-0.139-0.143-0.202-0.221C-0.051,4.368-0.186,3.636,0.35,3.101c0.149-0.149,0.321-0.267,0.51-0.339
	C0.882,2.71,0.908,2.659,0.939,2.608c0.188-0.303,0.419-0.554,0.741-0.675C1.802,1.608,2.055,1.379,2.358,1.19
	c0.042-0.025,0.083-0.048,0.125-0.067c0.059-0.162,0.152-0.309,0.274-0.431c0.717-0.717,1.498-0.465,2.146,0.183L9.11,5.083
	c0.489,0.488,0.752,1.094,0.607,1.789C9.674,7.077,9.6,7.262,9.513,7.452l0.934,0.865l7.016-7.015
	c0.597-0.598,1.45-0.512,2.023,0.061c0.528,0.528,0.556,1.47,0.487,2.175c-0.166,1.719-1.518,3.622-2.713,4.817
	C16.136,9.479,14.992,10.518,13.605,11.248z"/>
<path fill-rule="evenodd" clip-rule="evenodd" fill="#000001" d="M16.553,7.647c-1.339,1.34-2.627,2.48-4.298,3.119
	c-0.177,0.068-0.328,0.121-0.461,0.166l5.692,5.281c0.269,0.271,1.391,0.988,0.885,1.494l-0.915,0.914
	c-0.169,0.17-0.496,0.148-0.67,0.002l-6.31-6.779c-0.041,0.051-0.084,0.104-0.128,0.162c-1.59,1.881-3.179,3.762-4.771,5.639
	c-1,1.105-0.997,1.408-1.682,0.756l-0.694-0.693c-0.184-0.184-0.184-0.549,0-0.732l6.241-6.242L7.763,8.928
	c-0.187-0.188-0.349-0.273-0.64-0.227C6.768,8.76,6.3,9.417,5.538,8.655L1.301,4.417C1.128,4.245,0.893,3.971,1.057,3.807
	c0.349-0.349,0.552,0.064,1.067,0.58l1.92,1.92c0.253,0.252,0.71,0.814,0.945,0.578c0.165-0.164,0.095-0.32-0.058-0.486
	C4.263,5.67,1.955,3.611,1.789,3.137c0.306-0.492,0.416-0.315,1.127,0.396l1.951,1.952c0.265,0.264,0.675,0.848,0.945,0.578
	c0.273-0.273-0.341-0.707-0.61-0.977l-1.951-1.95C2.559,2.444,2.403,2.34,2.886,2.039c0.369,0.13,2.398,2.276,2.835,2.713
	c0.302,0.303,0.625,0.775,0.914,0.488C6.874,5,6.283,4.522,6.025,4.264l-1.921-1.92c-0.235-0.235-0.872-0.712-0.64-0.944
	c0.204-0.204,0.344-0.205,0.731,0.183L8.403,5.79c1.041,1.039-0.649,1.553,0.363,2.332l1.706,1.584l7.697-7.697
	c0.194-0.195,0.423-0.126,0.609,0.061c0.264,0.264,0.229,1.063,0.2,1.371C18.843,4.846,17.646,6.555,16.553,7.647z"/>
</svg>
