<?xml version="1.0" encoding="utf-8"?>
<!-- Generator: Adobe Illustrator 16.0.0, SVG Export Plug-In . SVG Version: 6.00 Build 0)  -->
<!DOCTYPE svg PUBLIC "-//W3C//DTD SVG 1.1//EN" "http://www.w3.org/Graphics/SVG/1.1/DTD/svg11.dtd">
<svg version="1.1" id="Layer_1" xmlns="http://www.w3.org/2000/svg" xmlns:xlink="http://www.w3.org/1999/xlink" x="0px" y="0px"
	 width="20px" height="20px" viewBox="0 0 20 20" enable-background="new 0 0 20 20" xml:space="preserve">
<path fill-rule="evenodd" clip-rule="evenodd" fill="#FFFFFF" d="M8.069,5.418v1.246c0.937,0,1.873,0,2.809,0c0.551,0,1,0.449,1,1
	v0.508h1.568c0.551,0,0.999,0.447,0.999,0.998c0,1.035-0.001,2.072-0.005,3.107h2.059c0.551,0,1,0.447,1,0.998v0.938h1.499
	c0.551,0,1,0.449,1,1v3.193c0,0.551-0.449,1-1,1c-15.394,0-5.413,0-17.424,0c-0.551,0-1-0.449-1-1V5.418
	C0.236,5.256,0.002,4.912,0.002,4.514v-2.92c0-0.551,0.449-1,1-1h1.755c0.121,0,0.236,0.021,0.344,0.062
	c0.107-0.04,0.223-0.062,0.344-0.062H5.2c0.12,0,0.236,0.021,0.343,0.062c0.107-0.04,0.224-0.062,0.344-0.062h1.756
	c0.551,0,1,0.449,1,1v2.92C8.642,4.912,8.408,5.256,8.069,5.418z"/>
<path fill-rule="evenodd" clip-rule="evenodd" fill="#000001" d="M7.07,4.514v3.15c2.749,0,1.453,0,3.808,0V9.17h2.568
	c0,1.369-0.002,2.738-0.009,4.105h3.062v1.938h2.499v1.654l0,0v1.539c-3.109,0-5.668,0-8.778,0v-3.828
	c0-0.928-0.759-1.686-1.687-1.686l0,0c-0.927,0-1.687,0.758-1.687,1.686v3.828c-2.332,0-2.94,0-5.272,0V4.514H1.001V4.15V3.33V1.594
	h1.755V3.33h0.688V1.594H5.2V3.33h0.687V1.594h1.756V3.33v0.82v0.363H7.07z"/>
<path fill-rule="evenodd" clip-rule="evenodd" fill="#FFFFFF" d="M3.349,14.201h1.947v-2.387c0-0.535-0.438-0.973-0.973-0.973l0,0
	c-0.536,0-0.974,0.438-0.974,0.973V14.201z"/>
<path fill-rule="evenodd" clip-rule="evenodd" fill="#FFFFFF" d="M3.349,8.885h1.947V6.5c0-0.535-0.438-0.973-0.973-0.973l0,0
	c-0.536,0-0.974,0.438-0.974,0.973V8.885z"/>
</svg>
