<?xml version="1.0" encoding="utf-8"?>
<!-- Generator: Adobe Illustrator 16.0.0, SVG Export Plug-In . SVG Version: 6.00 Build 0)  -->
<!DOCTYPE svg PUBLIC "-//W3C//DTD SVG 1.1//EN" "http://www.w3.org/Graphics/SVG/1.1/DTD/svg11.dtd">
<svg version="1.1" id="Layer_1" xmlns="http://www.w3.org/2000/svg" xmlns:xlink="http://www.w3.org/1999/xlink" x="0px" y="0px"
	 width="20px" height="20px" viewBox="0 0 20 20" enable-background="new 0 0 20 20" xml:space="preserve">
<path fill-rule="evenodd" clip-rule="evenodd" fill="#FFFFFF" d="M6.258,5.465c0.706,0.033,1.417,0.154,2.141,0.367
	C8.852,5.965,9.315,6.129,9.73,6.354c0.091,0.051,0.171,0.1,0.248,0.152c0.195-0.088,0.406-0.199,0.565-0.273
	c1.021-0.475,2.128-0.73,3.243-0.771c-0.052-0.027-0.104-0.055-0.156-0.08c-0.666-0.334-1.326-0.682-1.992-1.016
	c-0.395-0.199-0.789-0.395-1.188-0.583C10.337,3.729,10.2,3.66,10.065,3.6L6.258,5.465L6.258,5.465z M0.64,7.207
	C0.182,6.871,0.002,6.322,0.002,5.752c0-0.701,0.582-1.182,1.113-1.537c0.503-0.338,1.061-0.632,1.602-0.904
	c0.711-0.358,1.44-0.676,2.149-1.03C5.901,1.763,6.904,1.2,7.931,0.676c0.649-0.331,1.325-0.645,2.068-0.645
	c0.744,0,1.42,0.313,2.07,0.645c1.027,0.524,2.029,1.087,3.064,1.604c0.709,0.354,1.438,0.672,2.148,1.029
	c0.543,0.273,1.1,0.565,1.604,0.905c0.531,0.355,1.113,0.836,1.113,1.537c0,0.531-0.174,1.035-0.605,1.367
	c-0.023,0.02-0.049,0.037-0.072,0.053c0.447,0.375,0.678,0.791,0.678,1.533v8.998c0,0.361-0.113,0.705-0.348,0.982
	c-0.693,0.822-1.834,0.578-2.76,0.58l-4.906,0.012c-0.012,0.008-0.023,0.016-0.033,0.021c-0.221,0.15-0.387,0.287-0.635,0.404
	c-0.416,0.197-0.861,0.266-1.318,0.266c-0.828,0-1.243-0.176-1.897-0.633c-0.067-0.047-0.098-0.07-0.179-0.08
	c-0.746-0.084-1.656,0.01-2.422,0.01c-0.843,0-1.685-0.002-2.528,0c-0.205,0-0.413,0.018-0.618,0.025
	c-0.702,0.029-1.477-0.002-1.981-0.57c-0.251-0.283-0.372-0.641-0.372-1.018V8.705C0.002,7.973,0.226,7.566,0.64,7.207z"/>
<path fill-rule="evenodd" clip-rule="evenodd" fill="#000001" d="M1.001,5.752c0,1.479,1.694,0.35,2.016,0.188l6.982-3.421
	c0.295,0,3.574,1.716,4.078,1.968c1.847,0.924,4.922,3.053,4.922,1.266c0-0.67-3.387-2.115-4.313-2.578
	c-5.716-2.858-3.656-2.858-9.374,0C4.387,3.637,1.001,5.082,1.001,5.752L1.001,5.752z M1.001,8.705c0-0.662,0.322-0.793,0.754-1.074
	c0.4-0.258,0.67-0.439,1.09-0.598c1.752-0.66,3.451-0.775,5.272-0.242C10.483,7.484,9.111,8,10.964,7.139
	c2.33-1.082,5.193-0.873,7.367,0.547c0.396,0.262,0.668,0.398,0.668,1.02v8.998c0,0.816-1.318,0.564-2.109,0.563l-5.049,0.012
	c-0.646,0.121-0.672,0.691-1.842,0.691c-1.215,0-1.166-0.615-1.964-0.705c-0.633-0.072-1.838,0.002-2.534,0.002
	c-0.843,0-1.688-0.002-2.531,0c-0.773,0.002-1.968,0.234-1.968-0.563V8.705z"/>
<path fill-rule="evenodd" clip-rule="evenodd" fill="#FFFFFF" d="M2.408,16.156V8.846C3.093,8.578,3.292,8.01,6.485,8.002
	c1.204,0,2.084,0.496,2.812,0.984v7.17c-0.869-0.072-1.263-0.703-3.656-0.703C4.283,15.453,3.468,15.91,2.408,16.156z"/>
<path fill-rule="evenodd" clip-rule="evenodd" fill="#FFFFFF" d="M10.702,16.156v-7.17c1.598-1.07,2.227-0.984,4.078-0.984
	c0.873,0.023,1.934,0.453,2.813,0.844v7.311c-2.078-0.482-2.842-1.064-5.375-0.453C11.591,15.854,11.247,16.111,10.702,16.156z"/>
</svg>
