<?xml version="1.0" encoding="utf-8"?>
<!-- Generator: Adobe Illustrator 16.0.0, SVG Export Plug-In . SVG Version: 6.00 Build 0)  -->
<!DOCTYPE svg PUBLIC "-//W3C//DTD SVG 1.1//EN" "http://www.w3.org/Graphics/SVG/1.1/DTD/svg11.dtd">
<svg version="1.1" id="Layer_1" xmlns="http://www.w3.org/2000/svg" xmlns:xlink="http://www.w3.org/1999/xlink" x="0px" y="0px"
	 width="20px" height="20px" viewBox="0 0 20 20" enable-background="new 0 0 20 20" xml:space="preserve">
<path fill-rule="evenodd" clip-rule="evenodd" fill="#FFFFFF" d="M15.33,8.308c-0.112,0.107-0.229,0.213-0.35,0.303
	c0.811,0.436,1.62,0.873,2.431,1.311c0.045,0.023,0.096,0.043,0.141,0.064c0.545,0.258,0.916,0.695,0.896,1.332
	c-0.02,0.582-0.358,0.875-0.726,1.225c-0.181,0.182-0.274,0.313-0.526,0.434c-0.413,0.197-0.824,0.127-1.227-0.045
	c-0.006-0.002-0.013-0.004-0.019-0.008v4.979c0,0.588,0.071,1.207-0.379,1.67c-0.452,0.467-1.077,0.414-1.667,0.416
	c-1,0.004-1.582-0.494-1.581-1.525v-6.766l-2.549-1.029l-2.553,1.029l0.001,6.836c0,0.006,0,0.01,0,0.014
	c-0.006,0.438-0.138,0.844-0.485,1.129c-0.342,0.279-0.715,0.314-1.133,0.313c-0.594-0.004-1.221,0.035-1.663-0.447
	c-0.435-0.475-0.347-1.09-0.347-1.674v-4.932c-0.015,0.006-0.03,0.012-0.045,0.02c-0.437,0.18-0.906,0.172-1.312-0.088
	c-0.182-0.115-0.261-0.221-0.403-0.363c-0.379-0.381-0.743-0.814-0.678-1.395c0.099-0.867,1.072-1.234,1.753-1.574
	c0.417-0.207,0.827-0.432,1.234-0.66c0.603-0.338,1.214-0.66,1.826-0.982C5.387,7.7,4.96,7.106,5.067,6.407
	C5.106,6.159,5.201,5.974,5.326,5.81c-0.61,0.072-1.195-0.291-1.402-0.861c-0.1,0.1-0.199,0.201-0.299,0.301
	C3.606,5.267,3.586,5.288,3.563,5.312C4.12,5.327,4.633,5.688,4.784,6.29c0.148,0.59-0.075,1.02-0.478,1.42
	c-0.34,0.338-0.674,0.682-1.012,1.021c-0.286,0.289-1.013,1.074-1.35,1.248c-0.522,0.268-1.179,0.158-1.585-0.266
	C-0.217,9.108-0.042,8.269,0.506,7.72l0.855-0.857C0.656,6.817,0.047,6.214,0.115,5.427C0.16,4.913,0.421,4.655,0.752,4.323
	C1.174,3.901,1.588,3.469,2.01,3.046C2.36,2.694,3.166,1.833,3.582,1.614c0.752-0.396,1.61-0.007,1.868,0.711
	c0.102-0.104,0.204-0.206,0.307-0.31c0.286-0.288,0.573-0.576,0.864-0.86c0.183-0.178,0.452-0.459,0.671-0.581
	c0.933-0.526,2.053,0.199,1.967,1.263C9.234,2.133,9.13,2.349,8.981,2.54c0.208-0.025,0.413,0.002,0.602,0.07
	c0.099-0.284,0.284-0.544,0.495-0.771c0.145-0.155,0.297-0.291,0.454-0.43l0.811-0.851c0.262-0.295,0.529-0.458,0.928-0.526
	c1.257-0.217,2.004,1.333,1.1,2.283c-0.279,0.293-0.554,0.592-0.837,0.884c-0.002,0.002-0.004,0.004-0.006,0.006
	c0.228,0.13,0.414,0.329,0.532,0.565c0.225-0.225,0.448-0.448,0.672-0.672l0.622-0.623c0.177-0.181,0.275-0.258,0.501-0.374
	c0.797-0.412,1.703,0.039,1.901,0.834c0.116-0.115,0.232-0.229,0.35-0.342c0.322-0.309,0.576-0.639,1.007-0.816
	c1.302-0.539,2.556,1.158,1.284,2.31l-0.357,0.35c0.116,0.033,0.228,0.08,0.33,0.143c0.861,0.516,0.777,1.553,0.112,2.213
	c-0.004,0.004-0.008,0.008-0.013,0.012l-2.096,2.004c-0.105,0.1-0.214,0.168-0.352,0.217C16.344,9.269,15.599,8.942,15.33,8.308
	L15.33,8.308z M15.288,5.362c-0.001-0.006-0.003-0.012-0.005-0.02c-0.006,0.006-0.011,0.012-0.017,0.018
	C15.274,5.36,15.281,5.362,15.288,5.362L15.288,5.362z M12.854,7.347c-0.076,0.01-0.151,0.01-0.226,0.006
	c0.07,0.037,0.141,0.074,0.211,0.111C12.842,7.425,12.847,7.386,12.854,7.347L12.854,7.347z M9.165,5.722
	C8.961,5.929,8.756,6.136,8.551,6.343C8.472,6.423,8.349,6.55,8.204,6.7c0.302-0.172,0.694-0.395,1.053-0.533
	C9.202,6.026,9.17,5.878,9.165,5.722L9.165,5.722z M11.378,6.692c0.038,0.021,0.073,0.039,0.104,0.057
	c0.058,0.029,0.114,0.061,0.172,0.09c-0.06-0.076-0.111-0.158-0.153-0.248C11.461,6.626,11.42,6.661,11.378,6.692z"/>
<path fill-rule="evenodd" clip-rule="evenodd" fill="#000001" d="M4.595,11.458v6.408c0,1.141-0.142,1.115,1.015,1.121
	c0.412,0.002,0.607-0.014,0.613-0.455l-0.001-7.51l3.553-1.434l3.549,1.434l-0.001,7.439c-0.001,0.463,0.13,0.527,0.578,0.525
	c1.151-0.004,1.05,0.061,1.05-1.086v-6.453c0.394,0.109,1.017,0.396,1.408,0.563c0.42,0.178,0.433,0.051,0.651-0.17
	c0.107-0.109,0.432-0.346,0.438-0.557c0.01-0.299-0.301-0.371-0.511-0.484c-1.271-0.686-6.956-3.762-7.131-3.764
	c-0.156-0.004-1.133,0.547-1.32,0.65C7.237,8.372,5.84,9.069,4.633,9.747c-0.405,0.227-0.852,0.471-1.276,0.682
	c-1.373,0.686-1.471,0.709-0.813,1.367c0.16,0.16,0.27,0.381,0.625,0.232C3.615,11.845,4.15,11.599,4.595,11.458L4.595,11.458z
	 M4.048,2.499C3.776,2.642,1.768,4.722,1.459,5.03c-0.108,0.107-0.33,0.281-0.348,0.484C1.09,5.759,1.34,5.95,1.595,5.831
	c0.108-0.049,2.189-2.164,2.567-2.542c0.1-0.1,0.349-0.296,0.364-0.479C4.549,2.539,4.289,2.372,4.048,2.499L4.048,2.499z
	 M15.313,2.989c-0.155,0.08-0.122,0.06-0.245,0.186l-0.63,0.629c-0.294,0.295-0.563,0.564-0.857,0.859
	c-0.201,0.201-1.184,1.078-1.203,1.342c-0.018,0.238,0.231,0.43,0.482,0.316c0.105-0.047,2.191-2.166,2.567-2.543
	c0.102-0.102,0.35-0.291,0.366-0.479C15.817,3.019,15.559,2.862,15.313,2.989L15.313,2.989z M8.989,3.565
	c0.246-0.12,0.52,0.09,0.472,0.361C9.436,4.071,9.167,4.302,9.077,4.392C8.695,4.774,6.641,6.866,6.528,6.919
	C6.27,7.044,6.014,6.831,6.056,6.56c0.025-0.162,0.284-0.375,0.38-0.471C6.837,5.687,8.841,3.64,8.989,3.565L8.989,3.565z
	 M7.782,1.444C7.61,1.541,5.535,3.665,5.211,3.989C5.123,4.077,4.856,4.288,4.845,4.462C4.826,4.712,5.08,4.907,5.333,4.778
	C5.447,4.72,7.511,2.617,7.896,2.23c0.098-0.098,0.351-0.285,0.365-0.475C8.284,1.489,8.024,1.307,7.782,1.444L7.782,1.444z
	 M3.353,6.354c0.192-0.098,0.409-0.031,0.463,0.182c0.06,0.236-0.111,0.363-0.213,0.465c-0.343,0.34-1.979,2.02-2.114,2.088
	c-0.29,0.15-0.762-0.182-0.275-0.662l1.924-1.928C3.263,6.37,3.21,6.427,3.353,6.354L3.353,6.354z M18.598,5.394
	c0.233-0.063,0.667,0.205,0.181,0.688l-2.096,2.004c-0.216,0.076-0.42-0.055-0.45-0.232c-0.041-0.234,0.137-0.385,0.237-0.475
	c0.245-0.217,0.46-0.439,0.698-0.668C17.416,6.474,18.366,5.454,18.598,5.394L18.598,5.394z M18.495,2.7
	c-0.215,0.089-0.455,0.383-0.698,0.615c-0.438,0.42-0.913,0.909-1.361,1.299c-0.398,0.348-0.15,0.813,0.247,0.67
	c0.073-0.027,0.613-0.537,0.688-0.611l1.344-1.316C19.195,2.933,18.747,2.595,18.495,2.7L18.495,2.7z M12.44,1.017
	c0.278-0.048,0.472,0.33,0.206,0.609c-0.232,0.244-1.556,1.687-1.757,1.716c-0.191,0.028-0.338-0.079-0.376-0.226
	c-0.081-0.317,0.503-0.801,0.713-0.986l0.854-0.896C12.178,1.123,12.244,1.05,12.44,1.017L12.44,1.017z M11.749,4.073
	c-0.222,0.109-1.529,1.424-1.552,1.477c-0.124,0.275,0.14,0.553,0.417,0.455c0.123-0.045,0.438-0.365,0.523-0.463
	c0.223-0.254,0.943-0.844,1.021-1.008C12.309,4.218,12.022,3.94,11.749,4.073L11.749,4.073z M15.001,6.382
	c0.221-0.096,0.436,0.059,0.444,0.281c0.008,0.238-0.201,0.359-0.317,0.459c-0.16,0.135-0.698,0.689-0.834,0.742
	c-0.241,0.092-0.451-0.076-0.459-0.293c-0.01-0.283,0.51-0.596,0.734-0.836C14.72,6.575,14.802,6.47,15.001,6.382z"/>
</svg>
