<?xml version="1.0" encoding="utf-8"?>
<!-- Generator: Adobe Illustrator 16.0.0, SVG Export Plug-In . SVG Version: 6.00 Build 0)  -->
<!DOCTYPE svg PUBLIC "-//W3C//DTD SVG 1.1//EN" "http://www.w3.org/Graphics/SVG/1.1/DTD/svg11.dtd">
<svg version="1.1" id="Layer_1" xmlns="http://www.w3.org/2000/svg" xmlns:xlink="http://www.w3.org/1999/xlink" x="0px" y="0px"
	 width="20px" height="20px" viewBox="0 0 20 20" enable-background="new 0 0 20 20" xml:space="preserve">
<path fill-rule="evenodd" clip-rule="evenodd" fill="#FFFFFF" d="M2.931,2.931C4.812,1.05,7.341,0.002,10,0.002
	s5.188,1.048,7.069,2.929C18.95,4.813,19.998,7.34,19.998,10s-1.048,5.189-2.928,7.07c-1.882,1.881-4.411,2.928-7.07,2.928
	s-5.188-1.047-7.069-2.928S0.002,12.66,0.002,10C0.002,7.342,1.05,4.813,2.931,2.931z"/>
<path fill-rule="evenodd" clip-rule="evenodd" fill="#000001" d="M3.637,3.638L3.637,3.638C5.395,1.881,7.697,1.002,10,1.002
	c2.302,0,4.605,0.879,6.362,2.636l0,0h0.001c1.757,1.757,2.635,4.06,2.635,6.362s-0.878,4.605-2.635,6.363h-0.001l0,0
	C14.605,18.121,12.303,19,10,19c-2.302,0-4.605-0.879-6.362-2.637h0l0,0C1.88,14.605,1.002,12.303,1.002,10
	C1.002,7.699,1.88,5.395,3.637,3.638L3.637,3.638L3.637,3.638z M5.305,4.48l3.236,3.236L7.716,8.541L4.479,5.307
	C3.329,6.656,2.753,8.328,2.753,10c0,1.674,0.576,3.346,1.727,4.695l3.236-3.236l0.825,0.826l-3.236,3.236
	c1.35,1.15,3.022,1.727,4.695,1.727c1.673,0,3.345-0.576,4.694-1.727l-3.235-3.236l0.825-0.826l3.236,3.236
	c1.15-1.35,1.727-3.021,1.727-4.695c0-1.672-0.576-3.344-1.727-4.693l-3.236,3.234l-0.825-0.824l3.235-3.236
	C13.345,3.329,11.673,2.754,10,2.754C8.328,2.754,6.655,3.329,5.305,4.48z"/>
</svg>
