<?xml version="1.0" encoding="utf-8"?>
<!-- Generator: Adobe Illustrator 16.0.0, SVG Export Plug-In . SVG Version: 6.00 Build 0)  -->
<!DOCTYPE svg PUBLIC "-//W3C//DTD SVG 1.1//EN" "http://www.w3.org/Graphics/SVG/1.1/DTD/svg11.dtd">
<svg version="1.1" id="Layer_1" xmlns="http://www.w3.org/2000/svg" xmlns:xlink="http://www.w3.org/1999/xlink" x="0px" y="0px"
	 width="20px" height="20px" viewBox="0 0 20 20" enable-background="new 0 0 20 20" xml:space="preserve">
<path fill-rule="evenodd" clip-rule="evenodd" fill="#FFFFFF" d="M6.229,8.895C6.08,8.983,5.907,9.034,5.723,9.034H1.039
	c-0.536,0-0.976-0.422-0.999-0.957L0.016,7.516C0.003,7.233,0.097,6.985,0.292,6.78c0.196-0.203,0.439-0.307,0.722-0.307h4.441
	c0.057-0.098,0.124-0.191,0.202-0.279l1.916-2.188c0.205-0.229,0.347-0.46,0.592-0.662c0.421-0.347,0.91-0.44,1.442-0.438
	c0.786,0,1.572,0,2.359-0.002c-0.004-0.454,0.126-0.922,0.423-1.356c0.356-0.522,0.821-0.813,1.437-0.96
	c1.275-0.308,2.561,0.526,2.835,1.801c0.103,0.478,0.058,0.951-0.105,1.373c0.088-0.072,0.174-0.135,0.256-0.182
	c1.169-0.666,2.58,0.226,2.547,1.544c-0.003,0.105-0.015,0.205-0.033,0.297c0.111,0.061,0.214,0.127,0.294,0.195
	c0.319,0.277,0.429,0.701,0.285,1.098c-0.186,0.51-0.474,0.988-0.714,1.473l-4.331,8.711h2.479c0.031,0,0.079,0,0.127-0.002
	c0.084-0.482,0.497-0.83,0.988-0.828l0.544,0.002c0.52,0.002,0.948,0.396,0.992,0.914c0.083,0.965-0.542,1.887-1.411,2.271
	c-0.664,0.297-1.615,0.211-2.34,0.211H3.865c-0.279,0-0.52-0.102-0.715-0.303c-0.195-0.199-0.291-0.441-0.284-0.723l0.014-0.566
	c0.013-0.543,0.458-0.977,1-0.977h0.219l-3.204-3.229c-0.405-0.408-0.89-0.766-0.891-1.418l-0.001-0.668
	c0-0.35,0.164-0.65,0.459-0.84c0.256-0.166,0.55-0.208,0.832-0.117c0.47-0.719,1.177-0.844,1.992-0.842L5.636,9.79
	c0.102-0.117,0.207-0.232,0.311-0.35c0.126-0.146,0.242-0.297,0.374-0.438l0.046-0.055C6.32,8.932,6.273,8.915,6.229,8.895
	L6.229,8.895z M7.551,16.897h2.311c-0.092-0.285-0.119-0.598-0.065-0.918c0.114-0.682,0.304-1.348,0.454-2.02
	c0.073-0.328,0.146-0.656,0.219-0.982c0.022-0.102,0.061-0.238,0.096-0.375c-0.282-0.26-0.575-0.555-0.734-0.734
	c-0.079-0.09-0.16-0.176-0.244-0.26c-0.037,0.043-0.075,0.086-0.117,0.127l-0.725,0.809c-0.442,0.549-0.913,0.877-1.633,0.982
	c-0.233,0.033-0.509,0.031-0.746,0.035c-0.351,0.004-0.702,0.004-1.053,0.004c-0.299,0-0.597-0.002-0.896-0.004l1.077,1.084
	c0.137,0.139,0.322,0.357,0.489,0.525c0.262-0.061,0.525-0.016,0.76,0.137c0.264,0.168,0.592,0.541,0.738,0.82
	C7.613,16.374,7.636,16.638,7.551,16.897L7.551,16.897z M15.975,8.887c-0.522,0.191-1.089,0.15-1.609-0.246
	c-0.03-0.023-0.055-0.045-0.082-0.07L13.807,8.12c-0.006-0.006-0.011-0.01-0.017-0.016c-0.055-0.055-0.109-0.109-0.163-0.164
	c-0.111,0.127-0.22,0.258-0.331,0.385c-0.132,0.148-0.262,0.301-0.391,0.451l1.16,1.16c0.451,0.461,0.638,1.03,0.573,1.67
	L15.975,8.887z"/>
<path fill-rule="evenodd" clip-rule="evenodd" fill="#000001" d="M9.641,5.303l1.17,0.006L7.063,9.672
	c-0.124,0.129-0.245,0.289-0.365,0.426c-0.135,0.154-0.259,0.281-0.384,0.439c-0.173,0.221-0.18,0.258-0.558,0.252l-2.475-0.006
	c-0.568-0.002-0.94,0.035-1.176,0.426c-0.258,0.428-0.068,0.916,0.208,1.148c0.339,0.283,0.916,0.201,1.415,0.201
	c0.538,0,2.902,0.025,3.239-0.023c0.485-0.07,0.74-0.295,1.014-0.639l0.763-0.852c0.091-0.088,0.115-0.127,0.192-0.221l0.599-0.635
	c0.364,0.338,0.697,0.625,1.043,1.016c0.146,0.164,0.913,0.898,1.066,0.996c-0.005,0.262-0.14,0.719-0.201,0.992
	c-0.075,0.336-0.146,0.652-0.219,0.982c-0.142,0.633-0.338,1.334-0.443,1.967c-0.185,1.102,1.447,1.59,1.765,0.285l1.096-4.912
	c0.044-0.418-0.093-0.678-0.293-0.881l-1.804-1.803c0.329-0.383,0.661-0.787,1-1.17c0.183-0.207,0.326-0.389,0.514-0.586
	c0.174-0.182,0.331-0.43,0.532-0.592c0.308,0.305,0.591,0.6,0.902,0.908l0.476,0.453c0.72,0.547,1.363-0.51,1.695-0.771
	c0.318-0.254,0.647-0.635,0.933-0.924c0.209-0.211,0.75-0.637,0.76-1.053c0.014-0.514-0.537-0.943-1.053-0.65
	c-0.168,0.096-0.771,0.744-0.942,0.914c-0.19,0.189-0.771,0.82-0.949,0.916c-0.148-0.088-1.81-1.773-2.064-2.035
	c-0.322-0.328-0.448-0.341-1.028-0.34c-0.905,0.002-1.811,0.003-2.715,0.002C8.77,3.903,8.744,4.196,8.318,4.672l-1.909,2.18
	C5.985,7.329,6.311,8.02,6.891,8.032C7.317,8.038,7.503,7.696,7.7,7.491l1.597-1.84C9.386,5.545,9.501,5.352,9.641,5.303
	L9.641,5.303z M3.879,17.897h13.46c0.678,0.002,1.017-0.188,1.111-0.83l0.544,0.002c0.053,0.611-0.425,1.096-0.821,1.273
	c-0.429,0.189-1.403,0.123-1.934,0.123H3.865L3.879,17.897L3.879,17.897z M13.056,17.095L18.44,6.137
	c0.119,0.033,0.43,0.152,0.524,0.234c-0.147,0.404-0.47,0.965-0.67,1.369l-4.336,8.723C13.58,17.228,13.775,17.099,13.056,17.095
	L13.056,17.095z M14.06,1.559c0.807-0.194,1.485,0.396,1.624,1.039c0.181,0.839-0.384,1.491-1.031,1.641
	c-1.221,0.285-2.157-1.074-1.438-2.128C13.408,1.828,13.642,1.659,14.06,1.559L14.06,1.559z M1.002,12.112l0-0.529
	c0.161,0.072,0.542,0.502,0.668,0.629l3.116,3.139c0.827,0.832,0.823,1.033,1.418,0.797c0.115,0.074,0.33,0.322,0.395,0.447
	c-0.274,0.098-0.6,0.367-1.028,0.238c-0.265-0.078-0.544-0.418-0.714-0.59l-3.253-3.277c-0.201-0.203-0.601-0.529-0.602-0.717
	V12.112L1.002,12.112z M1.039,8.034L1.014,7.471h4.674h0.05L5.723,8.034H1.039z"/>
</svg>
