<?xml version="1.0" encoding="utf-8"?>
<!-- Generator: Adobe Illustrator 16.0.0, SVG Export Plug-In . SVG Version: 6.00 Build 0)  -->
<!DOCTYPE svg PUBLIC "-//W3C//DTD SVG 1.1//EN" "http://www.w3.org/Graphics/SVG/1.1/DTD/svg11.dtd">
<svg version="1.1" id="Layer_1" xmlns="http://www.w3.org/2000/svg" xmlns:xlink="http://www.w3.org/1999/xlink" x="0px" y="0px"
	 width="20px" height="20px" viewBox="0 0 20 20" enable-background="new 0 0 20 20" xml:space="preserve">
<path fill-rule="evenodd" clip-rule="evenodd" fill="#FFFFFF" d="M7.041,5.856C6.908,5.53,6.834,5.173,6.834,4.8
	c0-1.541,1.249-2.789,2.789-2.789s2.789,1.248,2.789,2.789c0,1.211-0.773,2.244-1.854,2.629c0.148,0.336,0.233,0.701,0.245,1.074
	c0.745-0.064,1.557,0.285,1.879,0.961l1.543,2.859h0.987c0.835,0,1.514,0.68,1.514,1.514c0,0.188-0.034,0.367-0.097,0.533
	c0.202-0.162,0.373-0.363,0.482-0.604c0.347-0.758,1.245-1.092,2.003-0.746s1.093,1.246,0.746,2.002
	c-0.436,0.953-1.176,1.701-2.088,2.205c-0.922,0.512-1.989,0.762-3.042,0.762H1.516c-0.835,0-1.514-0.68-1.514-1.514
	c0-0.836,0.678-1.514,1.514-1.514h0.138c-0.308-0.277-0.502-0.678-0.502-1.125c0-0.834,0.679-1.514,1.513-1.514h1.535
	c-0.144-0.521-0.142-1.09,0.035-1.639l0.962-2.98C5.489,6.796,6.196,6.134,7.041,5.856z"/>
<path fill-rule="evenodd" clip-rule="evenodd" fill="#000001" d="M1.516,16.989c-0.284,0-0.514-0.23-0.514-0.514
	c0-0.285,0.23-0.514,0.514-0.514h1.758v-1.611h-0.61c-0.282,0-0.513-0.23-0.513-0.514l0,0c0-0.283,0.231-0.514,0.513-0.514h3.653
	c-0.933-0.346-1.439-1.377-1.132-2.332l0.962-2.98c0.316-0.98,1.378-1.525,2.359-1.207l0,0c0.981,0.316,1.525,1.377,1.208,2.357
	L9.38,10.2l1.176-0.598c0.372-0.234,1.072-0.064,1.232,0.309l1.841,3.412h1.584c0.283,0,0.514,0.23,0.514,0.514l0,0
	c0,0.283-0.23,0.514-0.514,0.514h-1.091v1.611h0.609c0.742,0,1.465-0.172,2.061-0.502c0.541-0.301,0.979-0.73,1.229-1.277
	c0.117-0.258,0.421-0.369,0.678-0.252c0.258,0.117,0.37,0.42,0.253,0.678c-0.347,0.758-0.938,1.344-1.662,1.746
	c-0.754,0.416-1.65,0.635-2.559,0.635H1.516L1.516,16.989z M7.691,13.323h3.718l-0.883-1.564L7.691,13.323L7.691,13.323z
	 M13.095,14.351H4.301v1.611h8.794V14.351L13.095,14.351z M9.623,6.589c0.988,0,1.79-0.801,1.79-1.789s-0.802-1.79-1.79-1.79
	S7.834,3.812,7.834,4.8S8.635,6.589,9.623,6.589z"/>
</svg>
