<?xml version="1.0" encoding="utf-8"?>
<!-- Generator: Adobe Illustrator 16.0.0, SVG Export Plug-In . SVG Version: 6.00 Build 0)  -->
<!DOCTYPE svg PUBLIC "-//W3C//DTD SVG 1.1//EN" "http://www.w3.org/Graphics/SVG/1.1/DTD/svg11.dtd">
<svg version="1.1" id="Layer_1" xmlns="http://www.w3.org/2000/svg" xmlns:xlink="http://www.w3.org/1999/xlink" x="0px" y="0px"
	 width="20px" height="20px" viewBox="0 0 20 20" enable-background="new 0 0 20 20" xml:space="preserve">
<path fill-rule="evenodd" clip-rule="evenodd" fill="#FFFFFF" d="M2.93,2.93C4.812,1.049,7.34,0.002,10,0.002
	c2.659,0,5.188,1.047,7.069,2.928s2.929,4.41,2.929,7.07c0,2.658-1.048,5.189-2.929,7.068c-1.881,1.881-4.41,2.93-7.069,2.93
	s-5.188-1.049-7.069-2.928C1.05,15.189,0.002,12.66,0.002,10S1.05,4.811,2.93,2.93z"/>
<path fill-rule="evenodd" clip-rule="evenodd" fill="#000001" d="M9.17,1.042c-4.99,0.48-8.596,4.874-8.13,9.796
	c0.333,3.52,2.638,6.404,5.846,7.607c1.177,0.441,2.585,0.645,3.951,0.514c4.669-0.447,8.617-4.555,8.121-9.797
	c-0.259-2.734-1.625-4.883-3.654-6.428c-0.203-0.154-0.449-0.315-0.682-0.454C13.018,1.324,11.125,0.854,9.17,1.042L9.17,1.042z
	 M8.312,12.893c-0.157-0.219-1.598-2.727-1.593-2.811C6.724,9.979,8.173,7.701,8.359,7.33l3.208-0.002
	c0.134,0.057,0.193,0.219,0.26,0.334c0.238,0.412,1.445,2.332,1.451,2.422c0.004,0.051-1.358,2.492-1.591,2.809H8.312L8.312,12.893z
	 M3.844,9.979L3.438,9.113C2.712,7.443,2.659,8.055,3.541,6.6c0.171-0.283,0.305-0.512,0.471-0.783
	C4.189,5.523,4.35,5.145,4.551,5.105C5.114,5,6.228,4.918,6.824,4.885l0.621,1.32c0.096,0.209,0.212,0.43,0.3,0.645
	c0.073,0.178-0.136,0.414-0.238,0.58L6.093,9.762L3.844,9.979L3.844,9.979z M13.903,9.766l-1.426-2.361
	c-0.127-0.211-0.311-0.367-0.212-0.582l0.909-1.943l2.373,0.24l1.394,2.291c0.187,0.305,0.257,0.27,0.09,0.645
	c-0.183,0.41-0.766,1.664-0.828,1.932L13.903,9.766L13.903,9.766z M6.971,15.449c0.084-0.188,0.902-1.279,1.089-1.547
	c0.196-0.279,0.111-0.318,0.528-0.318h2.273c0.798-0.004,0.784-0.109,1.045,0.271c0.19,0.279,1.037,1.4,1.118,1.594
	c-0.071,0.127-0.254,0.338-0.341,0.451l-0.669,0.859c-0.124,0.164-0.227,0.258-0.313,0.43H9.254c-1.131,0-0.829,0.119-1.27-0.432
	L6.971,15.449L6.971,15.449z M10.345,1.958c0.761-0.118,0.507-0.324,1.705-0.009c1.582,0.418,2.894,1.213,3.936,2.293
	C15.8,4.449,15.606,4.43,15.291,4.398c-0.659-0.064-2.08-0.129-2.479-0.346l-2.465-1.268L10.345,1.958L10.345,1.958z M4.009,4.24
	c0.351-0.316,0.662-0.647,1.11-0.963c0.856-0.603,1.766-1.056,2.828-1.328C9.18,1.634,8.864,1.836,9.653,1.958L9.646,2.785
	L7.161,4.066c-0.367,0.199-1.852,0.27-2.489,0.336C4.306,4.441,4.24,4.465,4.009,4.24L4.009,4.24z M2.902,13.754
	c-0.153-0.127-0.307-0.32-0.455-0.475c-0.358-0.375-0.582-1.51-0.662-2.041c-0.114-0.768-0.139-2.637,0.177-3.279
	c0.208,0.02,0.219,0.018,0.297,0.176l0.917,2.104c0.141,0.336,0.191,2.709,0.197,3.252L2.902,13.754L2.902,13.754z M16.624,13.449
	c0.008-0.541,0.046-1.104,0.07-1.646c0.02-0.451-0.023-1.225,0.143-1.59l0.788-1.799c0.175-0.393,0.118-0.428,0.41-0.455
	c0.488,1.008,0.253,4.549-0.484,5.32c-0.153,0.16-0.272,0.342-0.456,0.459C16.919,13.672,16.742,13.563,16.624,13.449L16.624,13.449
	z M3.24,14.346c0.167-0.059,0.214-0.115,0.363-0.201c0.156-0.088,0.195-0.033,0.345,0.064c0.22,0.143,0.445,0.279,0.67,0.428
	c0.454,0.299,0.891,0.563,1.342,0.855c0.366,0.236,0.336,0.23,0.569,0.527c0.17,0.219,0.317,0.391,0.483,0.613
	c0.624,0.838,0.86,0.832,0.557,1.287c-0.681-0.045-2.231-1.018-2.629-1.33C4.237,16.037,3.367,15.318,3.24,14.346L3.24,14.346z
	 M12.269,17.566l0.82-1.064c0.14-0.188,0.27-0.342,0.411-0.531c0.205-0.271,0.193-0.25,0.491-0.447l2.28-1.441
	c0.179,0.072,0.307,0.199,0.493,0.254c-0.132,0.799-0.328,0.904-0.701,1.336c-0.275,0.316-0.655,0.646-1.027,0.934
	c-0.52,0.404-1.769,1.158-2.606,1.324L12.269,17.566z"/>
</svg>
