<?xml version="1.0" encoding="UTF-8" standalone="no"?>
<!-- Generator: Adobe Illustrator 16.0.0, SVG Export Plug-In . SVG Version: 6.00 Build 0)  -->

<svg
   xmlns:dc="http://purl.org/dc/elements/1.1/"
   xmlns:cc="http://creativecommons.org/ns#"
   xmlns:rdf="http://www.w3.org/1999/02/22-rdf-syntax-ns#"
   xmlns:svg="http://www.w3.org/2000/svg"
   xmlns="http://www.w3.org/2000/svg"
   xmlns:sodipodi="http://sodipodi.sourceforge.net/DTD/sodipodi-0.dtd"
   xmlns:inkscape="http://www.inkscape.org/namespaces/inkscape"
   version="1.1"
   id="Layer_1"
   x="0px"
   y="0px"
   width="20px"
   height="20px"
   viewBox="0 0 20 20"
   enable-background="new 0 0 20 20"
   xml:space="preserve"
   inkscape:version="0.91 r13725"
   sodipodi:docname="speedcam.svg"><metadata
     id="metadata11"><rdf:RDF><cc:Work
         rdf:about=""><dc:format>image/svg+xml</dc:format><dc:type
           rdf:resource="http://purl.org/dc/dcmitype/StillImage" /><dc:title></dc:title></cc:Work></rdf:RDF></metadata><defs
     id="defs9"><pattern
       y="0"
       x="0"
       height="6"
       width="6"
       patternUnits="userSpaceOnUse"
       id="EMFhbasepattern" /></defs><sodipodi:namedview
     pagecolor="#ffffff"
     bordercolor="#666666"
     borderopacity="1"
     objecttolerance="10"
     gridtolerance="10"
     guidetolerance="10"
     inkscape:pageopacity="0"
     inkscape:pageshadow="2"
     inkscape:window-width="1422"
     inkscape:window-height="855"
     id="namedview7"
     showgrid="false"
     inkscape:zoom="11.8"
     inkscape:cx="-2.5423729"
     inkscape:cy="10"
     inkscape:window-x="213"
     inkscape:window-y="79"
     inkscape:window-maximized="0"
     inkscape:current-layer="Layer_1" /><path
     inkscape:connector-curvature="0"
     id="path3344"
     d="m 16.089784,6.0886233 0.460742,0 c 0.555206,0 1.004113,0.44904 1.004113,1.0044466 l 0,0.2717841 1.453051,0 C 19.551093,7.364854 20,7.8138941 20,8.3692664 L 20,12.6588 c 0,0.555372 -0.448907,1.004446 -0.99231,1.004446 l -1.453051,0 0,1.004412 c 0,0.543568 -0.448907,0.992608 -1.004113,0.992608 l -3.484951,0 c -0.401657,1.205343 -1.547547,2.067945 -2.870658,2.067945 l -7.1588832,0 C 1.3585357,17.728211 1.7688325e-7,16.369288 1.7688325e-7,14.703102 l 0,-9.3943847 C 1.7688325e-7,3.6307254 1.3585357,2.2717894 3.0360338,2.2717894 l 7.1588832,0 c 1.441248,0 2.658026,1.0162495 2.953352,2.3751855 l 0.519795,0 c 0.318932,0 0.602454,0.1536183 0.791479,0.3899583 l 0.626128,0 c 0.555206,0 1.004113,0.44904 1.004113,1.0044419 z"
     style="fill:#fefefe;fill-opacity:1;fill-rule:evenodd;stroke:none" /><path
     inkscape:connector-curvature="0"
     id="path3346"
     d="m 16.550526,8.3692664 2.457164,0 0,4.2895336 -2.457164,0 0,2.008858 -0.35441,0 -0.496153,0 -2.882464,0 0,-0.862635 2.882464,0 0,-6.7119531 0.850563,0 z"
     style="fill:#000000;fill-opacity:1;fill-rule:evenodd;stroke:none" /><path
     inkscape:connector-curvature="0"
     id="path3348"
     d="m 14.235107,6.0413751 0.850564,0 0,7.2318829 -0.850564,0 z"
     style="fill:#000000;fill-opacity:1;fill-rule:evenodd;stroke:none" /><path
     inkscape:connector-curvature="0"
     id="path3350"
     d="m 12.817499,5.6514216 0.850565,0 0,7.6218364 -0.850565,0 z"
     style="fill:#000000;fill-opacity:1;fill-rule:evenodd;stroke:none" /><path
     inkscape:connector-curvature="0"
     id="path3352"
     d="m 3.0360338,3.2762218 7.1588832,0 c 1.110479,0 2.020095,0.9098972 2.020095,2.0324955 l 0,9.3943847 c 0,1.110779 -0.909616,2.020696 -2.020095,2.020696 l -7.1588832,0 c -1.1222687,0 -2.0318977,-0.909917 -2.0318977,-2.020696 l 0,-9.3943847 c 0,-1.1225983 0.909629,-2.0324955 2.0318977,-2.0324955 z"
     style="fill:#000000;fill-opacity:1;fill-rule:evenodd;stroke:none" /><path
     inkscape:connector-curvature="0"
     id="path3354"
     d="m 9.0608315,7.3057687 c 0.8624009,0 1.5711885,-0.7090201 1.5711885,-1.5716549 0,-0.8626183 -0.7087876,-1.5598119 -1.5711885,-1.5598119 -0.8623678,0 -1.5711551,0.6971936 -1.5711551,1.5598119 0,0.8626348 0.7087873,1.5716549 1.5711551,1.5716549 z"
     style="fill:#ffffff;fill-opacity:1;fill-rule:evenodd;stroke:none" /><path
     inkscape:connector-curvature="0"
     id="path3356"
     d="m 5.4695816,15.341234 c 1.5593511,0 2.8352144,-1.276231 2.8352144,-2.847886 0,-1.559818 -1.2758633,-2.8360149 -2.8352144,-2.8360149 -1.5711894,0 -2.8470161,1.2761969 -2.8470161,2.8360149 0,1.571655 1.2758267,2.847886 2.8470161,2.847886 z"
     style="fill:#ffffff;fill-opacity:1;fill-rule:evenodd;stroke:none" /><path
     inkscape:connector-curvature="0"
     id="path3358"
     d="m 9.0608315,6.5849446 c 0.4607437,0 0.8387609,-0.3781507 0.8387609,-0.8508308 0,-0.4608441 -0.3780172,-0.8389841 -0.8387609,-0.8389841 -0.4607106,0 -0.8387277,0.37814 -0.8387277,0.8389841 0,0.4726801 0.3780171,0.8508308 0.8387277,0.8508308 z"
     style="fill:#000000;fill-opacity:1;fill-rule:evenodd;stroke:none" /><path
     inkscape:connector-curvature="0"
     id="path3360"
     d="m 5.4695816,14.38407 c 1.0395894,0 1.8783172,-0.850831 1.8783172,-1.890722 0,-1.039856 -0.8387278,-1.878851 -1.8783172,-1.878851 -1.0395576,0 -1.8901213,0.838995 -1.8901213,1.878851 0,1.039891 0.8505637,1.890722 1.8901213,1.890722 z"
     style="fill:#000000;fill-opacity:1;fill-rule:evenodd;stroke:none" /></svg>