<?xml version="1.0" encoding="utf-8"?>
<!-- Generator: Adobe Illustrator 16.0.0, SVG Export Plug-In . SVG Version: 6.00 Build 0)  -->
<!DOCTYPE svg PUBLIC "-//W3C//DTD SVG 1.1//EN" "http://www.w3.org/Graphics/SVG/1.1/DTD/svg11.dtd">
<svg version="1.1" id="Layer_1" xmlns="http://www.w3.org/2000/svg" xmlns:xlink="http://www.w3.org/1999/xlink" x="0px" y="0px"
	 width="20px" height="20px" viewBox="0 0 20 20" enable-background="new 0 0 20 20" xml:space="preserve">
<path fill-rule="evenodd" clip-rule="evenodd" fill="#FFFFFF" d="M4.014,13.619l-0.19-0.027c-0.523-0.072-1.054-0.064-1.496-0.402
	c-0.33-0.254-0.492-0.602-0.591-0.996c-0.126-0.504-0.256-1.006-0.386-1.51C1.091,9.667,0.842,8.648,0.57,7.634
	C0.433,7.128,0.313,6.619,0.18,6.113c-0.044-0.166-0.095-0.324-0.13-0.496c-0.212-1.049,0.329-1.918,1.465-1.951
	c1.28-0.037,2.56,0.002,3.839,0.002c2.551,0,5.102-0.004,7.653,0l2.17,0.002c0.08-0.375,0.184-0.757,0.412-1.04
	c0.232-0.287,0.526-0.43,0.838-0.608c0.408-0.234,0.816-0.467,1.229-0.695c0.729-0.403,1.633-0.309,2.105,0.429
	c0.346,0.537,0.305,1.238-0.088,1.739c-0.268,0.341-0.805,0.589-1.188,0.792c-0.111,0.059-0.291,0.146-0.43,0.232
	c-0.168,0.674-0.291,1.369-0.443,2.045c-0.236,1.037-0.461,2.076-0.7,3.111c-0.239,1.036-0.462,2.075-0.7,3.108
	c-0.057,0.244-0.137,0.518-0.174,0.762c-0.031,0.215-0.021,0.479-0.021,0.695c0,0.572,0.107,1.072-0.216,1.604
	c-0.05,0.08-0.104,0.152-0.165,0.219c0.072,0.586-0.051,1.18-0.398,1.701c-0.453,0.676-1.219,1.111-2.034,1.145
	c-0.921,0.039-1.724-0.443-2.188-1.229c-0.225-0.379-0.334-0.742-0.357-1.107H6.979c-0.05,0.533-0.255,1.041-0.649,1.467
	c-0.59,0.631-1.489,0.918-2.335,0.742c-0.313-0.064-0.609-0.189-0.87-0.373c-1.501-1.051-1.482-3.313,0.059-4.307
	c0.094-0.061,0.159-0.146,0.249-0.217C3.608,13.746,3.8,13.666,4.014,13.619z"/>
<path fill-rule="evenodd" clip-rule="evenodd" fill="#000001" d="M14.021,14.004l0.01,0.572c-0.236,0-9.515-0.033-9.772,0.014
	c-0.277,0.049-0.197,0.135-0.533,0.352c-0.908,0.586-0.984,1.979-0.028,2.648c0.999,0.699,2.787-0.154,2.168-2.018h5.967
	c-0.213,0.59-0.285,1.045,0.042,1.6c0.972,1.643,3.492,0.297,2.591-1.586c0.729-0.127,0.551-0.605,0.551-1.346
	c0-0.898,0.018-0.797,0.221-1.68c0.241-1.045,0.461-2.075,0.701-3.11c0.239-1.035,0.464-2.074,0.699-3.107
	c0.153-0.678,0.346-1.699,0.52-2.34c0.084-0.311,1.514-0.852,1.73-1.127C19.194,2.484,18.827,1.82,18.14,2.2
	c-0.4,0.223-0.818,0.46-1.215,0.688c-0.725,0.416-0.6,0.259-0.872,1.49c-0.044,0.197-0.011,0.277-0.188,0.291l-2.857-0.004
	c-2.551,0-5.102,0-7.653,0c-1.253,0-2.564-0.037-3.81,0C0.726,4.689,1.045,5.476,1.146,5.859C1.281,6.367,1.4,6.873,1.535,7.375
	c0.274,1.018,0.523,2.041,0.786,3.061c0.131,0.51,0.26,1.006,0.387,1.516c0.156,0.623,0.375,0.531,1.255,0.65L14.021,14.004
	L14.021,14.004z M7.417,10.255l0.008-1.992l2.407-0.002l0.132,0.016l-0.007,2.111H7.427L7.417,10.255L7.417,10.255z M10.646,10.388
	c-0.029-0.246-0.038-1.945,0.012-2.125h2.453l-0.008,2.125H10.646L10.646,10.388z M4.349,10.255V8.263l2.274-0.002l0.132,0.016
	l-0.007,2.109l-2.39,0.002L4.349,10.255L4.349,10.255z M7.417,7.593l0.008-1.93l2.407-0.002l0.131,0.012l0.001,1.91l-0.132,0.01
	H7.417L7.417,7.593z M10.636,7.593l-0.001-1.93h2.478l-0.004,1.93H10.636L10.636,7.593z M4.349,7.566V5.685
	c0.167-0.047,2.16-0.041,2.406-0.012V7.58C6.517,7.615,4.505,7.619,4.349,7.566L4.349,7.566z M10.636,12.373l0.008-1.322h2.469
	v1.822l-2.441-0.342L10.636,12.373L10.636,12.373z M13.796,7.593c-0.064-0.234-0.021-1.582-0.023-1.93l1.844-0.004l0.129,0.02
	l-0.447,1.918L13.796,7.593L13.796,7.593z M7.417,12.068l0.009-1.018l2.537,0.004l-0.006,1.379L7.417,12.068L7.417,12.068z
	 M2.674,7.593C2.601,7.548,2.625,7.572,2.587,7.484L2.375,6.642c-0.086-0.324-0.185-0.654-0.245-0.98l1.558,0.012v1.918L2.674,7.593
	L2.674,7.593z M13.774,10.255l-0.002-1.992l1.367,0.002l-0.512,2.123h-0.846L13.774,10.255L13.774,10.255z M4.349,11.35v-0.299
	l2.274-0.004l0.132,0.016l-0.001,0.924l-2.443-0.338L4.349,11.35L4.349,11.35z M3.335,10.39L2.797,8.261l0.891,0.016l-0.007,2.107
	L3.335,10.39L3.335,10.39z M13.776,12.971c-0.008-0.318-0.039-1.709,0.02-1.92l0.688,0.004L14.022,13L13.776,12.971z"/>
</svg>
