<?xml version="1.0" encoding="utf-8"?>
<!-- Generator: Adobe Illustrator 16.0.0, SVG Export Plug-In . SVG Version: 6.00 Build 0)  -->
<!DOCTYPE svg PUBLIC "-//W3C//DTD SVG 1.1//EN" "http://www.w3.org/Graphics/SVG/1.1/DTD/svg11.dtd">
<svg version="1.1" id="Layer_1" xmlns="http://www.w3.org/2000/svg" xmlns:xlink="http://www.w3.org/1999/xlink" x="0px" y="0px"
	 width="20px" height="20px" viewBox="0 0 20 20" enable-background="new 0 0 20 20" xml:space="preserve">
<path fill-rule="evenodd" clip-rule="evenodd" fill="#FFFFFF" d="M7.437,0.043c0.104-0.026,0.214-0.041,0.328-0.041h0.006
	c0.481,0,0.865,0.132,1.276,0.361C9.299,0.505,9.58,0.705,9.757,0.932c0.219,0.279,0.314,0.469,0.336,0.825
	c0.157,1.149,0.01,2.37,0.059,3.53c0.006,0.293-0.068,0.518-0.258,0.744C9.837,6.097,9.784,6.166,9.729,6.232
	C9.447,6.568,9.161,6.783,8.761,6.961C8.502,7.078,8.235,7.15,7.949,7.15c-0.051,0-0.101-0.004-0.149-0.008
	C7.767,7.158,7.733,7.172,7.697,7.186C7.662,7.205,7.622,7.23,7.593,7.252C7.566,7.271,7.524,7.305,7.504,7.33
	C7.459,7.391,7.398,7.5,7.398,7.578c0,0.16,0.002,0.324,0.062,0.477c0.785,1.986,2.103,3.743,3.051,5.641l0.125,0.115
	c0.063,0.025,0.135,0.021,0.201,0.012c0.098-0.012,0.199-0.053,0.291-0.094c0.012-0.008,0.023-0.014,0.035-0.02
	c0.088-0.17,0.225-0.309,0.404-0.408c0.351-0.197,0.704-0.385,1.064-0.566c0.252-0.143,0.393-0.162,0.676-0.162
	c0.496,0,0.989,0.275,1.377,0.568c0.951,0.624,1.83,1.333,2.637,2.127c0.242,0.326,0.357,0.637,0.357,1.049
	c0,0.311-0.326,1.365-0.469,1.664c-0.516,1.075-3.333,2.018-4.354,2.018h-0.938c-0.338,0-0.688-0.105-1.012-0.197
	C4.973,18.145,1.25,8.9,2.425,3.511c0.111-0.519,0.279-0.9,0.547-1.352c0.199-0.324,0.485-0.633,0.764-0.88
	c0.686-0.608,1.576-0.964,2.465-1.144c0.333-0.067,0.662-0.118,1.004-0.118C7.285,0.018,7.363,0.026,7.437,0.043
	C7.541,0.017,7.363,0.026,7.437,0.043z"/>
<path fill-rule="evenodd" clip-rule="evenodd" fill="#000001" d="M12.051,14.176c0.134,0.107,4.198,3.357,4.257,3.373
	c0.07-0.146,0.372-1.129,0.372-1.232c0-0.201-0.05-0.305-0.161-0.453c-0.763-0.702-1.575-1.344-2.438-1.926
	c-0.188-0.141-0.53-0.367-0.772-0.367c-0.136,0-0.104-0.012-0.184,0.035C12.761,13.786,12.403,13.977,12.051,14.176L12.051,14.176z
	 M3.32,4.445c0.007-0.236,0.03-0.488,0.082-0.725c0.093-0.435,0.221-0.7,0.43-1.052l0.194-0.263C4.14,2.263,4.266,2.146,4.4,2.027
	c0.55-0.491,1.286-0.768,1.997-0.912C6.66,1.063,6.928,1.018,7.205,1.018C7.584,2.567,7.36,4.665,7.36,6.244
	C7.271,6.264,7.063,6.4,6.995,6.451C6.889,6.531,6.78,6.627,6.702,6.732c-0.17,0.23-0.303,0.531-0.303,0.846S6.42,8.145,6.53,8.422
	c0.784,1.949,1.939,4.312,3.245,5.953l0.258,0.238c0.279,0.193,0.604,0.248,0.942,0.199c0.213-0.029,0.411-0.102,0.601-0.189
	c0.039-0.018,0.094-0.059,0.127-0.066c0.793,0.066,3.778,2.725,4.141,3.256c-0.78,0.521-2.022,1.186-2.986,1.186h-0.938
	c-0.201,0-0.544-0.104-0.74-0.158C5.652,17.296,3.211,9.312,3.32,4.445L3.32,4.445z M7.949,6.15c0.149,0,0.288-0.049,0.403-0.102
	C8.618,5.93,8.778,5.811,8.962,5.59c0.056-0.066,0.109-0.134,0.165-0.199c0.032-0.039,0.025-0.025,0.024-0.094
	c0-1.136-0.035-2.273-0.049-3.409C9.08,1.725,9.128,1.751,8.969,1.548c-0.084-0.108-0.285-0.241-0.41-0.312
	C8.321,1.104,8.093,1.001,7.771,1.001H7.765C7.64,1.002,7.661,1.022,7.662,1.063C7.678,2.695,7.71,4.327,7.794,5.957
	C7.804,6.066,7.817,6.15,7.949,6.15z"/>
</svg>
