<?xml version="1.0" encoding="UTF-8" standalone="no"?>
<!-- Created with Inkscape (http://www.inkscape.org/) -->

<svg
   xmlns:dc="http://purl.org/dc/elements/1.1/"
   xmlns:cc="http://creativecommons.org/ns#"
   xmlns:rdf="http://www.w3.org/1999/02/22-rdf-syntax-ns#"
   xmlns:svg="http://www.w3.org/2000/svg"
   xmlns="http://www.w3.org/2000/svg"
   xmlns:sodipodi="http://sodipodi.sourceforge.net/DTD/sodipodi-0.dtd"
   xmlns:inkscape="http://www.inkscape.org/namespaces/inkscape"
   width="16px"
   height="16px"
   id="svg2998"
   version="1.1"
   inkscape:version="0.48.4 r9939"
   sodipodi:docname="Neues Dokument 1">
  <defs
     id="defs3000" />
  <sodipodi:namedview
     id="base"
     pagecolor="#ffffff"
     bordercolor="#666666"
     borderopacity="1.0"
     inkscape:pageopacity="0.0"
     inkscape:pageshadow="2"
     inkscape:zoom="22.197802"
     inkscape:cx="8"
     inkscape:cy="8"
     inkscape:current-layer="layer1"
     showgrid="true"
     inkscape:grid-bbox="true"
     inkscape:document-units="px"
     inkscape:window-width="1680"
     inkscape:window-height="988"
     inkscape:window-x="-8"
     inkscape:window-y="-8"
     inkscape:window-maximized="1" />
  <metadata
     id="metadata3003">
    <rdf:RDF>
      <cc:Work
         rdf:about="">
        <dc:format>image/svg+xml</dc:format>
        <dc:type
           rdf:resource="http://purl.org/dc/dcmitype/StillImage" />
        <dc:title></dc:title>
      </cc:Work>
    </rdf:RDF>
  </metadata>
  <g
     id="layer1"
     inkscape:label="Layer 1"
     inkscape:groupmode="layer">
    <path
       d="M 7.0854064,4.2177253 C 7.3642562,3.5999956 9.2492616,2.835542 10.465996,2.9417928 c 1.215816,0.1053503 2.588793,0.1720331 3.752988,0.3721249 1.167421,0.2005248 0.903795,1.2625915 -0.234127,1.0942478 -1.138847,-0.1678762 -1.738918,-0.2736594 -2.362496,-0.2819731 -0.655841,-0.00909 -2.0984096,0.112235 -2.0984096,0.112235 0,0 1.9057596,2.8724534 1.7439906,3.3245933 C 11.095116,8.0455185 9.0501622,8.2308838 8.8533629,8.1071568 8.5888176,7.9410993 7.7914864,6.4572766 7.7914864,6.4572766 c 0,0 -0.019521,1.0114529 -0.432771,1.4861306 C 6.9595902,8.4015311 5.9295104,8.9686598 4.7989614,9.5983492 3.6882295,10.217456 3.3872697,9.2340618 4.3984519,8.6756669 5.4294511,8.1062345 5.7566809,8.0910577 6.300062,7.2783066 6.7968983,6.5350097 6.7835308,4.8869698 7.0854099,4.2177297 z"
       id="path3"
       inkscape:connector-curvature="0" />
    <path
       d="M 8.9298691,2.2270136 C 8.8409183,2.8111638 8.308594,3.2140883 7.7417081,3.1280761 7.1748186,3.0420812 6.7872151,2.49885 6.8766274,1.9146999 6.9655782,1.3305497 7.4978991,0.92762526 8.0647884,1.0136374 8.6316744,1.0996322 9.01882,1.6433225 8.9298691,2.2270136 z"
       id="path5"
       inkscape:connector-curvature="0" />
    <path
       d="M 3.4057023,4.8759282 C 3.7711852,5.8059673 3.5794511,6.7511876 2.978,6.9866862 2.3765453,7.2221979 1.5921203,6.658728 1.2266373,5.7286931 0.86115798,4.798654 1.0524272,3.8534337 1.6543396,3.617476 2.2557943,3.3819644 3.0397615,3.9454343 3.4057023,4.8759282 z"
       id="path7"
       inkscape:connector-curvature="0"
       style="fill:none;stroke:#000000;stroke-width:0.46042252" />
    <path
       d="m 2.9936711,6.9503484 1.2185804,2.6162572 0,0"
       id="path9"
       inkscape:connector-curvature="0"
       style="fill:none;stroke:#000000;stroke-width:0.46042252" />
    <path
       d="M 9.0556888,9.7216128 C 9.4428344,10.68247 10.065487,12.181481 10.395482,12.906838 10.769721,13.73109 11.844965,13.449135 11.46243,12.571521 11.083584,11.702193 10.459544,10.387627 10.073324,9.4194098 9.7391728,8.5786001 8.699424,8.8334193 9.0556888,9.7216042 z"
       id="path11"
       inkscape:connector-curvature="0" />
    <path
       d="m 10.510241,8.7644329 c -0.233665,-0.4295845 0.76553,-0.5583907 0.956338,-0.2019103 0.188976,0.3523364 2.656539,4.8429264 3.08378,5.6699354 0.427699,0.827929 -0.653537,1.171518 -1.019016,0.417201 -0.345652,-0.712938 -2.781442,-5.4445522 -3.021102,-5.8851958 z"
       id="path13"
       inkscape:connector-curvature="0" />
    <path
       d="M 1.5063959,0.39498974 H 14.441588 c 0.688563,0 1.246696,0.55701377 1.246696,1.24419306 V 14.54844 c 0,0.687179 -0.558133,1.244193 -1.246696,1.244193 H 1.5063959 c -0.6885633,0 -1.24715401,-0.557014 -1.24715401,-1.244193 V 1.6391828 C 0.25970333,0.95200351 0.8178326,0.39498974 1.5063959,0.39498974 z"
       id="path15"
       inkscape:connector-curvature="0"
       style="fill:none;stroke:#000000;stroke-width:0.46042252;stroke-linejoin:round" />
  </g>
</svg>
