<?xml version="1.0" encoding="utf-8"?>
<!-- Generator: Adobe Illustrator 16.0.0, SVG Export Plug-In . SVG Version: 6.00 Build 0)  -->
<!DOCTYPE svg PUBLIC "-//W3C//DTD SVG 1.1//EN" "http://www.w3.org/Graphics/SVG/1.1/DTD/svg11.dtd">
<svg version="1.1" id="Layer_1" xmlns="http://www.w3.org/2000/svg" xmlns:xlink="http://www.w3.org/1999/xlink" x="0px" y="0px"
	 width="20px" height="20px" viewBox="0 0 20 20" enable-background="new 0 0 20 20" xml:space="preserve">
<path fill-rule="evenodd" clip-rule="evenodd" fill="#FFFFFF" d="M11.692,4.957c0.083,0.002,0.168,0.014,0.253,0.037
	c0.271,0.07,0.438,0.209,0.665,0.344c0.854,0.492,2.018,0.834,2.983,1.02c0.501,0.098,0.807,0.123,1.313,0.15
	c0.101,0.004,0.19,0.016,0.288,0.035c0.449,0.008,0.851-0.125,1.326-0.018c0.965,0.217,1.39,1.07,1.474,1.984
	c0.003,0.031,0.004,0.059,0.004,0.092V9.33c0,0.025-0.001,0.047-0.002,0.07c-0.056,0.777-0.226,1.531-0.414,2.285
	c-0.063,0.252-0.128,0.502-0.198,0.752c-0.29,1.025-0.587,1.99-1.185,2.887c-0.854,1.275-2.04,2.283-3.474,2.848
	c-0.83,0.328-1.338,0.422-2.23,0.422c-1.045,0-2.18-0.896-2.828-1.668c-0.379-0.451-0.948-1.303-1.245-2.029
	c-0.387,0.197-0.8,0.322-1.234,0.322H6.872c-1.051,0-2.361-0.586-3.203-1.195c-0.285-0.205-0.529-0.418-0.801-0.635
	c-0.382-0.305-0.955-1.027-1.225-1.447C1.034,10.992,0.735,10.1,0.497,9.004c-0.222-1.018-0.434-2.02-0.493-3.064
	C0.003,5.918,0.002,5.902,0.002,5.883V5.072c0-0.025,0.001-0.047,0.003-0.07c0.082-1.16,0.612-2.328,1.946-2.328
	c0.639,0,1.168,0.171,1.848,0.111C4.12,2.758,4.464,2.773,4.778,2.73c0.828-0.113,1.601-0.277,2.378-0.59
	C7.388,2.046,7.62,1.955,7.843,1.842c0.119-0.059,0.234-0.125,0.354-0.184c0.916-0.453,1.789-0.313,2.426,0.546
	C11.175,2.949,11.487,3.963,11.692,4.957z"/>
<path fill-rule="evenodd" clip-rule="evenodd" fill="#000001" d="M5.36,11.021c0.899,0,1.424-0.025,2.289-0.313
	c1.143-0.379,1.226-0.982,1.226-0.531c0,0.512-0.4,1.121-0.817,1.432c-0.842,0.623-2.17,0.734-3,0.1
	c-0.068-0.053-0.086-0.08-0.149-0.131c-0.262-0.209-0.656-0.76-0.466-0.787c0.032-0.006,0.299,0.129,0.398,0.152
	C5.011,10.982,5.172,11.021,5.36,11.021L5.36,11.021z M1.002,5.883c0.066,1.184,0.38,2.486,0.472,2.908
	c0.219,1.004,0.468,1.764,1.011,2.609c0.175,0.271,0.751,1.004,1.008,1.207c0.329,0.264,0.321,0.287,0.764,0.607
	c0.548,0.396,1.708,1.004,2.616,1.004h0.316c0.809,0,1.68-0.824,2.206-1.344l0.535-0.658c0.326-0.494,0.61-0.98,0.813-1.543
	c0.545-1.52,0.416-2.639,0.195-4.178C10.772,5.344,10.506,3.725,9.82,2.8C9.29,2.085,8.745,2.51,8.29,2.738
	C8.038,2.864,7.797,2.959,7.53,3.067C6.669,3.414,5.848,3.592,4.914,3.72C4.586,3.765,4.258,3.75,3.886,3.782
	c-0.89,0.078-1.498-0.107-1.935-0.107c-0.64,0-0.893,0.601-0.949,1.398V5.883L1.002,5.883z M3.181,7.506
	c0-0.539,0.737-0.809,1.266-0.809c1.051,0,1.338,1.371,0.316,1.371C4.347,8.068,3.181,8.043,3.181,7.506L3.181,7.506z M7.434,7.541
	c-0.637,0-0.763-0.846-0.187-1.275c0.621-0.465,1.769-0.328,1.769,0.291C9.016,6.986,7.825,7.541,7.434,7.541L7.434,7.541z
	 M11.863,7.295c0-0.406-0.146-0.982-0.176-1.336c0.103,0.027,0.322,0.186,0.423,0.244c0.938,0.541,2.222,0.93,3.294,1.137
	c0.725,0.139,0.788,0.131,1.45,0.166c0.152,0.008,0.129,0.027,0.281,0.035c0.26,0.016,0.917-0.096,1.165-0.041
	c0.454,0.104,0.646,0.543,0.698,1.102V9.33c-0.061,0.846-0.294,1.74-0.387,2.113c-0.063,0.248-0.118,0.465-0.191,0.723
	c-0.282,1.002-0.537,1.83-1.053,2.602c-0.74,1.107-1.765,1.984-3.009,2.475c-0.745,0.293-1.065,0.352-1.864,0.352
	c-0.748,0-1.693-0.871-2.063-1.311c-0.362-0.432-1.163-1.656-1.206-2.17l0.446-0.361c0.23-0.191,0.272-0.344,0.397-0.377
	c0.157,0.678,0.541,1.465,0.922,1.926c0.325,0.393,1.036,1.238,1.609,1.238c0.639,0,0.966-0.113,1.501-0.326
	c1.048-0.414,1.864-1.172,2.464-2.105c0.585-0.908,1.11-2.955,1.292-4.051c0.09-0.539,0.121-0.865,0.121-1.496
	c-0.271,0.063-0.521,0.035-0.844,0.035c-1.377,0-2.907-0.404-4.135-0.822L11.863,7.295L11.863,7.295z M10.984,14.395
	c0.017-0.191,0.194-0.42,0.307-0.537c0.797-0.824,2.085-0.885,2.937-0.033c0.403,0.402,0.482,0.871,0.482,1.449h-0.141
	c-0.09-0.338-0.756-0.674-1.068-0.793C11.896,13.867,11.263,14.389,10.984,14.395L10.984,14.395z M14.394,11.092
	c0,0.422,0.523,0.613,0.866,0.715c0.122,0.037,0.555,0.133,0.678,0.125c0.298-0.02,0.425-0.217,0.425-0.488
	c0-0.266-0.37-0.725-0.694-0.924c-0.302-0.184-0.787-0.201-1.057,0.086C14.532,10.691,14.394,10.947,14.394,11.092L14.394,11.092z
	 M11.828,9.756c-0.006,0.268-0.218,0.814-0.281,1.09c0.281,0.064,1.311,0.387,1.645,0.098c0.308-0.268,0.367-1.293-0.871-1.293
	C12.105,9.65,11.999,9.715,11.828,9.756z"/>
</svg>
