<?xml version="1.0" encoding="utf-8"?>
<!-- Generator: Adobe Illustrator 16.0.0, SVG Export Plug-In . SVG Version: 6.00 Build 0)  -->
<!DOCTYPE svg PUBLIC "-//W3C//DTD SVG 1.1//EN" "http://www.w3.org/Graphics/SVG/1.1/DTD/svg11.dtd">
<svg version="1.1" id="Layer_1" xmlns="http://www.w3.org/2000/svg" xmlns:xlink="http://www.w3.org/1999/xlink" x="0px" y="0px"
	 width="20px" height="20px" viewBox="0 0 20 20" enable-background="new 0 0 20 20" xml:space="preserve">
<path fill-rule="evenodd" clip-rule="evenodd" fill="#FFFFFF" d="M19.981,7.162c0.01,0.057,0.015,0.115,0.015,0.178v1.617
	c0,0.313-0.139,0.592-0.365,0.775c0.007,0.094,0.013,0.188,0.013,0.283c0,0.004,0,0.008,0,0.012l-0.063,6.007
	c-0.002,0.246-0.082,0.459-0.244,0.645l-0.141,0.162c-0.201,0.232-0.469,0.352-0.777,0.346c-0.616-0.014-0.784,0.041-1.29-0.396
	c-0.227-0.195-0.345-0.455-0.345-0.756c0-0.539,0-1.078,0-1.617c0-0.523-0.051-1.043-0.051-1.568v-1.426
	c-0.111,0.066-0.223,0.133-0.334,0.201c-0.599,0.359-1.22,0.764-1.832,1.094c-0.232,0.125-0.456,0.264-0.682,0.4
	c0.022,1.059,0.075,2.346-0.134,3.244c-0.089,0.381-0.367,0.658-0.747,0.746c-0.292,0.068-0.488,0.107-0.8,0.07
	c-0.379-0.047-0.716-0.217-0.933-0.541c-0.297-0.443-0.177-0.715-0.2-1.158c-0.009-0.156-0.048-0.301-0.054-0.475
	c-0.005-0.182-0.008-0.361-0.008-0.543c-0.465,0.135-0.928,0.281-1.404,0.369c-1.721,0.313-3.284,0.559-5.004,0.029
	c-0.522-0.16-0.911-0.334-1.388-0.594c-0.091-0.051-0.185-0.107-0.281-0.168c0,0.582-0.017,1.162-0.071,1.738
	c-0.02,0.207,0.019,0.293-0.064,0.529c-0.091,0.262-0.266,0.467-0.497,0.615c-0.319,0.205-0.821,0.254-1.192,0.178
	c-0.645-0.131-0.942-0.531-1.01-1.164c-0.124-1.154-0.068-2.432-0.045-3.594c0.018-0.922,0.045-1.865-0.004-2.785
	C0.026,9.193-0.031,8.947,0.035,8.49c0.047-0.332,0.068-0.617,0.157-0.947c1.02-3.766,5.198-5.566,8.787-4.369
	c0.579,0.193,1.059,0.416,1.569,0.751c0.541,0.357,1.269,0.988,1.766,1.656c0.071-0.053,0.147-0.1,0.229-0.145
	c0.575-0.313,1.351-0.295,1.883,0.102c0.089,0.066,0.166,0.133,0.233,0.199c0.13-0.148,0.283-0.27,0.444-0.381
	c-0.023-0.104-0.036-0.209-0.04-0.314c-0.016-0.51,0.188-0.99,0.563-1.334c0.684-0.623,1.662-0.63,2.302-0.158
	c0.257-0.161,0.525-0.338,0.811-0.414c0.311-0.082,0.612-0.021,0.867,0.174c0.254,0.195,0.391,0.472,0.391,0.792v2.881
	C19.996,7.044,19.99,7.105,19.981,7.162L19.981,7.162z M8.626,11.675c-0.039-0.244-0.034-0.48,0.002-0.744
	c0.093-0.685,0.169-1.546,0.623-2.097c0.116-0.143,0.263-0.271,0.42-0.395C9.646,8.292,9.64,8.136,9.654,7.968
	C9.661,7.886,9.672,7.81,9.687,7.736C9.594,7.64,9.518,7.527,9.468,7.396C9.386,7.285,9.222,7.14,9.129,7.048
	C7.91,5.841,5.453,5.876,4.247,7.095c-0.091,0.092-0.192,0.18-0.279,0.273c-0.063,0.078-0.123,0.18-0.18,0.264
	C3.377,8.244,3.243,9,3.47,9.707C4.135,11.776,6.55,12.058,8.626,11.675z"/>
<path fill-rule="evenodd" clip-rule="evenodd" fill="#000001" d="M17.732,9.714v3.134c0,0.584,0.051,0.979,0.05,1.568
	c0,0.539,0,1.078,0,1.617c0.223,0.193,0.096,0.141,0.657,0.152l0.142-0.162l0.063-6.007c-0.001-0.328-0.053-0.488-0.053-0.857
	c0.117-0.063,0.281-0.17,0.404-0.203V7.339c-0.159,0.037-4.923,2.938-5.413,3.232l-1.562,0.916c-0.294,0.17-0.517,0.26-0.846,0.418
	c-2.643,1.273-7.514,1.666-8.658-1.892C2.189,8.99,2.392,7.917,2.958,7.076C3.268,6.613,3.154,6.777,3.537,6.39
	c1.619-1.633,4.709-1.623,6.296-0.051c0.167,0.164,0.508,0.473,0.568,0.695c0.241-0.055,0.314-0.152,0.643-0.217
	c0.383-0.076,0.485,0.008,0.824,0.016c-0.151-0.65-1.259-1.672-1.87-2.074C9.573,4.48,9.21,4.304,8.663,4.123
	C5.543,3.081,2.008,4.664,1.157,7.804C1.074,8.111,1.075,8.281,1.025,8.63C0.963,9.058,1.028,9.212,1.047,9.562
	c0.1,1.851-0.123,4.759,0.045,6.326c0.023,0.223,0.029,0.254,0.216,0.293c0.137,0.027,0.382,0.006,0.451-0.039
	c0.153-0.1,0.084-0.168,0.106-0.4c0.115-1.209,0.04-2.658,0.04-3.953l0.181,0.223c0.355,0.477,1.1,1.102,1.606,1.379
	c0.451,0.246,0.695,0.359,1.202,0.516c1.552,0.477,3.023,0.217,4.531-0.059c0.436-0.078,0.913-0.23,1.358-0.361l1.234-0.484
	c0,0.648-0.021,1.33-0.002,1.973c0.008,0.242,0.041,0.232,0.053,0.455c0.024,0.459-0.124,0.711,0.256,0.758
	c0.203,0.025,0.313-0.018,0.452-0.051c0.19-0.816,0.101-2.723,0.101-3.59c0.424-0.225,0.799-0.484,1.214-0.707
	C14.509,11.614,17.466,9.777,17.732,9.714L17.732,9.714z M14.092,7.066c0.986-0.52,1.513,1.178,1.521,1.387
	c0.019,0.402-0.212,0.508-0.741,0.83l-2.957,1.744c-0.485,0.283-1.695,0.963-2.172,0.963c-0.072-0.309-0.192-0.426-0.125-0.924
	c0.259-1.9,0.278-1.447,1.338-2.361c-0.076-0.104-0.059-0.061-0.123-0.131c-0.148-0.16-0.204-0.277-0.184-0.525
	c0.067-0.814,1.405-1.025,1.507-0.104c0.189-0.086,0.593-0.256,0.721-0.383c-0.529-0.494-0.256-1.031,0.141-1.246
	c0.238-0.129,0.596-0.135,0.809,0.023C14.082,6.531,14.092,6.642,14.092,7.066L14.092,7.066z M16.468,5.623l-0.274-0.234
	c-0.075-0.094-0.127-0.23-0.132-0.377c-0.028-0.924,1.521-1.145,1.516-0.1l0.708-0.408c0.154-0.092,0.549-0.357,0.711-0.4v2.881
	l-1.438,0.789c-0.219,0.131-0.522,0.277-0.743,0.369c-0.5,0.205-0.564,0.252-1.041-0.313c-0.092-0.109-0.154-0.217-0.218-0.338
	C14.911,6.25,15.541,6.394,16.468,5.623z"/>
</svg>
