<?xml version="1.0" encoding="UTF-8" standalone="no"?>
<!-- Generator: Adobe Illustrator 16.0.0, SVG Export Plug-In . SVG Version: 6.00 Build 0)  -->

<svg
   xmlns:dc="http://purl.org/dc/elements/1.1/"
   xmlns:cc="http://creativecommons.org/ns#"
   xmlns:rdf="http://www.w3.org/1999/02/22-rdf-syntax-ns#"
   xmlns:svg="http://www.w3.org/2000/svg"
   xmlns="http://www.w3.org/2000/svg"
   xmlns:sodipodi="http://sodipodi.sourceforge.net/DTD/sodipodi-0.dtd"
   xmlns:inkscape="http://www.inkscape.org/namespaces/inkscape"
   version="1.1"
   id="Layer_1"
   x="0px"
   y="0px"
   width="20px"
   height="20px"
   viewBox="0 0 20 20"
   enable-background="new 0 0 20 20"
   xml:space="preserve"
   inkscape:version="0.91 r13725"
   sodipodi:docname="toilets.svg"><metadata
     id="metadata13"><rdf:RDF><cc:Work
         rdf:about=""><dc:format>image/svg+xml</dc:format><dc:type
           rdf:resource="http://purl.org/dc/dcmitype/StillImage" /></cc:Work></rdf:RDF></metadata><defs
     id="defs11" /><sodipodi:namedview
     pagecolor="#ffffff"
     bordercolor="#666666"
     borderopacity="1"
     objecttolerance="10"
     gridtolerance="10"
     guidetolerance="10"
     inkscape:pageopacity="0"
     inkscape:pageshadow="2"
     inkscape:window-width="770"
     inkscape:window-height="536"
     id="namedview9"
     showgrid="false"
     inkscape:zoom="11.8"
     inkscape:cx="10"
     inkscape:cy="10"
     inkscape:window-x="0"
     inkscape:window-y="0"
     inkscape:window-maximized="0"
     inkscape:current-layer="Layer_1" /><path
     fill-rule="evenodd"
     clip-rule="evenodd"
     fill="#FFFFFF"
     d="M3.645,0.002h12.709c2.004,0,3.644,1.639,3.644,3.643v12.711  c0,2.004-1.64,3.643-3.644,3.643H3.645c-2.004,0-3.643-1.639-3.643-3.643V3.645C0.002,1.641,1.641,0.002,3.645,0.002z"
     id="path3" /><path
     fill-rule="evenodd"
     clip-rule="evenodd"
     fill="#2B4EA1"
     d="M3.645,1.002h12.709c1.454,0,2.644,1.189,2.644,2.643v12.711  c0,1.453-1.189,2.643-2.644,2.643H3.645c-1.454,0-2.644-1.189-2.644-2.643V3.645C1.001,2.191,2.191,1.002,3.645,1.002z"
     id="path5"
     style="fill:#001aff;fill-opacity:1" /><path
     fill-rule="evenodd"
     clip-rule="evenodd"
     fill="#FFFFFF"
     d="M9.8,17.045h1.117V2.956H9.8V17.045L9.8,17.045z M6.438,5.529  H4.182c-0.353,0-0.669,0.127-0.95,0.379C3.021,6.105,2.88,6.324,2.811,6.563L1.84,9.789c-0.028,0.07-0.042,0.135-0.042,0.189  c0,0.324,0.162,0.486,0.484,0.486c0.226,0,0.374-0.127,0.444-0.379l0.886-2.953h0.484l-1.455,5.25h1.414v4.092  c0,0.365,0.176,0.549,0.527,0.549c0.352,0,0.527-0.184,0.527-0.549v-4.111h0.528v4.133c0,0.352,0.175,0.527,0.527,0.527  s0.527-0.176,0.527-0.527v-4.113h1.413l-1.476-5.25h0.506l0.886,2.953c0.07,0.252,0.218,0.379,0.442,0.379  c0.323,0,0.485-0.162,0.485-0.486c0-0.07-0.014-0.133-0.042-0.189l-0.97-3.227C7.864,6.338,7.703,6.119,7.45,5.908  C7.141,5.656,6.803,5.529,6.438,5.529L6.438,5.529L6.438,5.529z M5.362,5.297c0.323,0,0.597-0.111,0.822-0.338  c0.225-0.225,0.338-0.49,0.338-0.801c0-0.324-0.113-0.598-0.338-0.822C5.959,3.111,5.686,2.998,5.362,2.998  c-0.31,0-0.577,0.113-0.802,0.338C4.336,3.561,4.223,3.834,4.223,4.158c0,0.311,0.113,0.576,0.337,0.801  C4.786,5.186,5.053,5.297,5.362,5.297L5.362,5.297L5.362,5.297z M15.228,5.277c0.31,0,0.576-0.113,0.802-0.338  c0.226-0.227,0.338-0.492,0.338-0.803c0-0.322-0.112-0.594-0.338-0.812s-0.492-0.327-0.802-0.327s-0.576,0.109-0.801,0.327  c-0.226,0.218-0.338,0.489-0.338,0.812c0,0.311,0.112,0.576,0.338,0.803C14.651,5.164,14.918,5.277,15.228,5.277L15.228,5.277  L15.228,5.277z M16.726,5.508H13.71c-0.408,0-0.756,0.145-1.045,0.434c-0.288,0.287-0.433,0.643-0.433,1.064v3.5  c0,0.338,0.155,0.508,0.465,0.508c0.295,0,0.442-0.17,0.442-0.508V7.09h0.549v9.279c0,0.422,0.211,0.633,0.633,0.633  c0.421,0,0.632-0.211,0.632-0.633v-5.377h0.549v5.377c0,0.422,0.211,0.633,0.633,0.633c0.436,0,0.653-0.211,0.653-0.633V7.09h0.527  v3.416c0,0.352,0.147,0.527,0.443,0.527c0.295,0,0.442-0.176,0.442-0.527V7.027c0-0.408-0.137-0.764-0.411-1.066  C17.517,5.66,17.161,5.508,16.726,5.508L16.726,5.508z"
     id="path7" /></svg>