<?xml version="1.0" encoding="utf-8"?>
<!-- Generator: Adobe Illustrator 16.0.0, SVG Export Plug-In . SVG Version: 6.00 Build 0)  -->
<!DOCTYPE svg PUBLIC "-//W3C//DTD SVG 1.1//EN" "http://www.w3.org/Graphics/SVG/1.1/DTD/svg11.dtd">
<svg version="1.1" id="Layer_1" xmlns="http://www.w3.org/2000/svg" xmlns:xlink="http://www.w3.org/1999/xlink" x="0px" y="0px"
	 width="20px" height="20px" viewBox="0 0 20 20" enable-background="new 0 0 20 20" xml:space="preserve">
<path fill-rule="evenodd" clip-rule="evenodd" fill="#FFFFFF" d="M6.611,19.998c-0.551,0-1-0.449-1-1v-3.629
	c0-0.549,0.449-0.998,1-0.998h0.057L7.317,6.58H7.292c-0.551,0-0.999-0.449-0.999-1V2.924c0-0.551,0.448-1,0.999-1h0.751V1.873
	c0-0.285,0.105-0.53,0.312-0.726l0.918-0.87c0.386-0.366,0.99-0.366,1.376,0l0.917,0.87c0.207,0.196,0.312,0.44,0.312,0.726v0.052
	h0.831c0.551,0,1,0.449,1,1V5.58c0,0.551-0.449,1-1,1h-0.024l0.649,7.791h0.057c0.551,0,0.999,0.449,0.999,0.998v3.629
	c0,0.551-0.448,1-0.999,1C7.255,19.998,12.686,19.998,6.611,19.998z"/>
<path fill-rule="evenodd" clip-rule="evenodd" fill="#000001" d="M13.39,15.369h-0.978L11.597,5.58h1.111V2.924h-1.831V1.873
	L9.96,1.002l-0.917,0.87v1.052H7.292V5.58h1.111l-0.815,9.789H6.611v3.629c4.183,0,2.55,0,6.778,0V15.369z"/>
</svg>
