<?xml version="1.0" encoding="UTF-8"?>
<svg xmlns="http://www.w3.org/2000/svg" height="580" width="580" version="1.0">
 <path d="M 285.76,38.993 C 250.45,37.309 213,61.442 208.7,98.305 c -1.56,26.215 -31.34,14.525 -47.01,24.005 -45.69,21.94 -51.15,93.19 -11.5,123.71 0.49,19.88 -35.49,28.13 -40.38,50.55 -26.91,50.73 17.35,120.67 74.84,117.33 22.9,2.51 40.26,-19.6 59.61,-22.09 9.33,24.21 4.55,51.49 4.22,76.93 -0.62,23.58 -6.43,46.39 -13.77,68.65 37.21,0 74.42,0 111.63,0 -10.66,-30.72 -14.81,-63.13 -14.89,-95.59 2.64,-13.58 -6.89,-51.69 13.05,-49.28 24.18,19.82 59.44,29.25 88.15,13.4 42.51,-20.7 61.8,-81.13 32.12,-120.04 -5.78,-15.89 -38.01,-24.01 -33.75,-39.86 29.67,-11.84 30.49,-50.28 20.61,-75.97 C 442.21,142.02 418.12,117.6 387.51,115.34 364.58,107.99 374.47,74.536 354.55,61.682 336.83,43.262 310.38,37.825 285.76,38.993 Z" fill="#38ad37" />
</svg>
