<?xml version="1.0" encoding="utf-8"?>
<!-- Generator: Adobe Illustrator 16.0.0, SVG Export Plug-In . SVG Version: 6.00 Build 0)  -->
<!DOCTYPE svg PUBLIC "-//W3C//DTD SVG 1.1//EN" "http://www.w3.org/Graphics/SVG/1.1/DTD/svg11.dtd">
<svg version="1.1" id="Layer_1" xmlns="http://www.w3.org/2000/svg" xmlns:xlink="http://www.w3.org/1999/xlink" x="0px" y="0px"
	 width="20px" height="20px" viewBox="0 0 20 20" enable-background="new 0 0 20 20" xml:space="preserve">
<path fill-rule="evenodd" clip-rule="evenodd" fill="#FFFFFF" d="M12.942,1.194c0.018,0.015,0.035,0.031,0.052,0.048
	c0.796,0.796,1.24,1.868,1.24,2.994c0,0.287-0.03,0.572-0.088,0.852c0.112,0.105,0.218,0.217,0.317,0.334
	c0.497,0.592,0.792,1.305,0.792,2.08c0,0.389-0.074,0.766-0.214,1.121c0.086,0.092,0.168,0.188,0.246,0.287
	c0.517,0.66,0.818,1.441,0.818,2.281c0,1.459-0.88,2.646-2.076,3.406c-0.709,0.451-1.52,0.75-2.35,0.92v1.119h2.41
	c0.551,0,1,0.449,1,1v1.361c0,0.551-0.449,1-1,1H9.319c-0.55,0-1-0.449-1-1v-3.48c-0.83-0.17-1.641-0.469-2.349-0.92
	c-1.197-0.76-2.077-1.947-2.077-3.406c0-0.84,0.302-1.621,0.818-2.281c0.078-0.1,0.16-0.195,0.246-0.287
	C4.819,8.268,4.745,7.891,4.745,7.502c0-0.775,0.294-1.488,0.792-2.08c0.099-0.117,0.205-0.229,0.317-0.334
	C5.796,4.809,5.766,4.523,5.766,4.236c0-1.126,0.444-2.198,1.241-2.994C7.802,0.446,8.874,0.002,10,0.002
	C11.103,0.002,12.152,0.43,12.942,1.194z"/>
<path fill-rule="evenodd" clip-rule="evenodd" fill="#000001" d="M10,1.002c0.892,0,1.699,0.362,2.286,0.948l0.001-0.001
	c0.585,0.585,0.948,1.394,0.948,2.287c0,0.34-0.056,0.672-0.157,0.988c-0.024,0.076-0.052,0.152-0.081,0.227
	c0.273,0.182,0.511,0.389,0.702,0.615c0.355,0.424,0.557,0.91,0.557,1.436c0,0.404-0.118,0.785-0.335,1.135
	c-0.042,0.066-0.088,0.133-0.136,0.197c0.277,0.207,0.519,0.441,0.716,0.693c0.387,0.494,0.605,1.061,0.605,1.664
	c0,1.025-0.616,1.93-1.613,2.563c-0.75,0.477-1.728,0.803-2.812,0.9v2.982h3.409v1.361H10H9.319v-0.68v-3.664
	c-1.084-0.098-2.062-0.424-2.812-0.9c-0.997-0.633-1.613-1.537-1.613-2.563c0-0.604,0.219-1.17,0.606-1.664
	c0.197-0.252,0.438-0.484,0.715-0.693C6.167,8.77,6.122,8.705,6.08,8.637c-0.217-0.35-0.336-0.73-0.336-1.135
	c0-0.525,0.201-1.014,0.557-1.436C6.492,5.84,6.729,5.631,7.003,5.451c-0.03-0.074-0.057-0.15-0.082-0.227
	C6.82,4.908,6.766,4.576,6.766,4.236c0-0.894,0.362-1.702,0.947-2.287C8.298,1.363,9.107,1.002,10,1.002L10,1.002z M11.324,2.91
	C10.987,2.572,10.519,2.364,10,2.364c-0.517,0-0.985,0.209-1.323,0.548C8.338,3.25,8.128,3.719,8.128,4.236
	c0,0.205,0.031,0.396,0.087,0.574c0.059,0.182,0.148,0.357,0.263,0.516H8.477c0.027,0.039,0.051,0.08,0.07,0.125
	c0.149,0.344-0.008,0.744-0.352,0.895c-0.368,0.16-0.663,0.365-0.856,0.594C7.191,7.115,7.107,7.307,7.107,7.502
	c0,0.143,0.045,0.283,0.127,0.416c0.103,0.166,0.26,0.322,0.458,0.463c0.103,0.064,0.189,0.158,0.246,0.277
	C8.102,8.996,7.96,9.402,7.622,9.564c-0.45,0.219-0.813,0.49-1.053,0.797c-0.2,0.258-0.313,0.539-0.313,0.83
	c0,0.527,0.375,1.029,0.979,1.414c0.697,0.441,1.673,0.717,2.764,0.717s2.067-0.275,2.765-0.717
	c0.604-0.385,0.979-0.887,0.979-1.414c0-0.291-0.112-0.572-0.313-0.83c-0.24-0.307-0.603-0.578-1.053-0.797l0,0
	c-0.103-0.049-0.194-0.125-0.264-0.227c-0.213-0.307-0.135-0.73,0.173-0.943c0.209-0.145,0.372-0.305,0.479-0.477
	c0.083-0.133,0.128-0.273,0.128-0.416c0-0.195-0.084-0.387-0.232-0.563c-0.186-0.221-0.467-0.418-0.817-0.576
	c-0.057-0.021-0.112-0.051-0.164-0.088c-0.306-0.219-0.376-0.645-0.157-0.949c0.114-0.158,0.204-0.334,0.263-0.516
	c0.057-0.178,0.087-0.369,0.087-0.574c0-0.518-0.209-0.986-0.548-1.324V2.91L11.324,2.91z"/>
</svg>
