<?xml version="1.0" encoding="utf-8"?>
<!-- Generator: Adobe Illustrator 16.0.0, SVG Export Plug-In . SVG Version: 6.00 Build 0)  -->
<!DOCTYPE svg PUBLIC "-//W3C//DTD SVG 1.1//EN" "http://www.w3.org/Graphics/SVG/1.1/DTD/svg11.dtd">
<svg version="1.1" id="Layer_1" xmlns="http://www.w3.org/2000/svg" xmlns:xlink="http://www.w3.org/1999/xlink" x="0px" y="0px"
	 width="20px" height="20px" viewBox="0 0 20 20" enable-background="new 0 0 20 20" xml:space="preserve">
<path fill-rule="evenodd" clip-rule="evenodd" fill="#FFFFFF" d="M3.559,8.785c-0.167-0.1-0.333-0.199-0.5-0.301
	C3.038,8.472,3.013,8.457,2.985,8.441l0.319,2.102c0.001-0.004,0.002-0.012,0.003-0.018c0.069-0.396,0.21-1.051,0.21-1.443
	C3.517,8.978,3.531,8.878,3.559,8.785L3.559,8.785z M16.828,8.695c0.027,0.068,0.048,0.139,0.062,0.217l0.553,3.172
	c0.01,0.053,0.014,0.1,0.015,0.152c0.027,1.344-1.759,2.43-2.758,3.092c-0.013,0.008-0.023,0.016-0.036,0.023l-1.709,1.031
	c-0.024,0.016-0.045,0.027-0.07,0.039c-0.826,0.414-2.186,1.111-3.095,1.111c-1.272,0-2.878-1.109-3.912-1.818
	c-0.383-0.264-0.709-0.531-1.052-0.84c-0.118-0.107-0.236-0.213-0.36-0.313c-0.389-0.311-0.853-0.752-1.147-1.244
	c-0.06,0.15-0.13,0.297-0.198,0.447c-0.134,0.293-0.249,0.588-0.353,0.895c-0.108,0.318-0.342,0.543-0.664,0.637
	c-0.321,0.096-0.64,0.035-0.903-0.174c-0.492-0.389-1.199-1.971-1.199-2.611c0-0.914,0.178-1.961,0.316-2.866
	c0.092-0.6,0.19-1.199,0.278-1.801c0.04-0.27,0.095-0.602,0.115-0.896C0.671,6.912,0.64,6.876,0.618,6.845
	C0.435,6.597,0.378,6.31,0.454,6.011c0.074-0.299,0.26-0.525,0.537-0.658c0.238-0.115,0.466-0.15,0.72-0.236l8.207-2.604
	c0.087-0.027,0.165-0.041,0.256-0.045c0.534-0.025,2.081,0.535,2.63,0.716c0.681,0.225,1.382,0.479,2.068,0.673
	c0.01,0.003,0.018,0.006,0.026,0.008l3.318,1.041c0.007,0.002,0.013,0.004,0.019,0.006c0.325,0.109,0.656,0.221,0.99,0.299
	c0.403,0.094,0.693,0.404,0.76,0.813s-0.11,0.795-0.462,1.012L16.828,8.695z"/>
<path fill-rule="evenodd" clip-rule="evenodd" fill="#000001" d="M1.001,12.512c0,0.217,0.523,1.594,0.818,1.828
	c0.652-1.924,0.886-1.109,0.496-3.645l-0.599-3.95C1.717,7.687,1.001,11.102,1.001,12.512L1.001,12.512z M4.024,12.387
	c0,0.457,0.766,1.156,1.065,1.396c0.46,0.367,0.646,0.621,1.354,1.107c0.798,0.547,2.374,1.645,3.346,1.645
	c0.671,0,2.111-0.74,2.648-1.008l1.709-1.033c0.618-0.408,2.327-1.465,2.312-2.238l-0.554-3.174
	c-0.357,0.084-2.498,1.424-2.859,1.641c-0.25,0.148-2.71,1.564-2.835,1.734L6.015,9.904C5.749,9.746,5.592,9.636,5.32,9.474
	C5.076,9.328,4.813,9.107,4.516,9.082C4.516,9.673,4.024,12.031,4.024,12.387L4.024,12.387z M1.423,6.253
	c0.15-0.07,0.39-0.117,0.59-0.184l8.207-2.604c0.35-0.017,3.593,1.129,4.379,1.352l3.317,1.041c0.357,0.119,0.73,0.242,1.082,0.324
	l-8.788,5.415l-2.253-1.333C7.215,9.822,6.517,9.39,5.769,8.939C5.551,8.808,1.58,6.468,1.423,6.253z"/>
</svg>
