<?xml version="1.0" encoding="utf-8"?>
<!-- Generator: Adobe Illustrator 16.0.0, SVG Export Plug-In . SVG Version: 6.00 Build 0)  -->
<!DOCTYPE svg PUBLIC "-//W3C//DTD SVG 1.1//EN" "http://www.w3.org/Graphics/SVG/1.1/DTD/svg11.dtd">
<svg version="1.1" id="Layer_1" xmlns="http://www.w3.org/2000/svg" xmlns:xlink="http://www.w3.org/1999/xlink" x="0px" y="0px"
	 width="20px" height="20px" viewBox="0 0 20 20" enable-background="new 0 0 20 20" xml:space="preserve">
<path fill-rule="evenodd" clip-rule="evenodd" fill="#FFFFFF" d="M7.887,15.102L5.918,17.07c-0.823,0.822-2.165,0.822-2.988,0
	c-0.823-0.822-0.823-2.164,0-2.988l1.969-1.969H2.114c-1.164,0-2.112-0.949-2.112-2.113S0.95,7.889,2.114,7.889h2.785L2.93,5.918
	c-0.823-0.822-0.823-2.165,0-2.988c0.823-0.822,2.165-0.822,2.988,0L7.887,4.9V2.114c0-1.163,0.949-2.112,2.113-2.112
	s2.112,0.949,2.112,2.112V4.9l1.97-1.971c0.823-0.822,2.165-0.822,2.987,0c0.823,0.823,0.823,2.166,0,2.988l-1.969,1.971h2.784
	c1.164,0,2.113,0.947,2.113,2.111s-0.949,2.113-2.113,2.113h-2.784l1.969,1.969c0.823,0.824,0.823,2.166,0,2.988
	c-0.822,0.822-2.164,0.822-2.988,0l-1.969-1.969v2.785c0,1.162-0.948,2.111-2.112,2.111s-2.113-0.949-2.113-2.111V15.102z"/>
<path fill-rule="evenodd" clip-rule="evenodd" fill="#000001" d="M10,11.865c-1.03,0-1.864-0.836-1.864-1.865S8.97,8.137,10,8.137
	c1.029,0,1.864,0.834,1.864,1.863S11.029,11.865,10,11.865L10,11.865z M2.114,8.887h3.442C6.169,8.887,6.67,9.389,6.67,10l0,0
	c0,0.613-0.501,1.113-1.113,1.113H2.114c-0.612,0-1.113-0.5-1.113-1.113l0,0C1.001,9.389,1.502,8.887,2.114,8.887L2.114,8.887z
	 M5.211,3.637l2.435,2.436c0.433,0.432,0.433,1.141,0,1.574l0,0c-0.433,0.432-1.142,0.432-1.574,0L3.637,5.211
	c-0.433-0.432-0.433-1.141,0-1.574l0,0C4.07,3.204,4.778,3.204,5.211,3.637L5.211,3.637z M11.112,2.114v3.442
	c0,0.613-0.5,1.113-1.112,1.113l0,0c-0.612,0-1.113-0.5-1.113-1.113V2.114c0-0.611,0.501-1.112,1.113-1.112l0,0
	C10.612,1.002,11.112,1.503,11.112,2.114L11.112,2.114z M16.362,5.211l-2.434,2.436c-0.434,0.432-1.142,0.432-1.574,0l0,0
	c-0.434-0.434-0.434-1.143,0-1.574l2.434-2.436c0.434-0.433,1.142-0.433,1.574,0l0,0C16.796,4.07,16.796,4.779,16.362,5.211
	L16.362,5.211z M17.885,11.113h-3.442c-0.611,0-1.113-0.5-1.113-1.113l0,0c0-0.611,0.502-1.113,1.113-1.113h3.442
	c0.612,0,1.113,0.502,1.113,1.113l0,0C18.998,10.613,18.497,11.113,17.885,11.113L17.885,11.113z M14.788,16.363l-2.434-2.434
	c-0.434-0.434-0.434-1.141,0-1.574l0,0c0.433-0.434,1.141-0.434,1.574,0l2.434,2.434c0.434,0.434,0.434,1.141,0,1.574l0,0
	C15.93,16.797,15.222,16.797,14.788,16.363L14.788,16.363z M8.887,17.887v-3.443c0-0.611,0.501-1.113,1.113-1.113l0,0
	c0.612,0,1.112,0.502,1.112,1.113v3.443c0,0.611-0.5,1.111-1.112,1.111l0,0C9.388,18.998,8.887,18.498,8.887,17.887L8.887,17.887z
	 M3.637,14.789l2.435-2.434c0.433-0.434,1.141-0.434,1.574,0h0c0.433,0.434,0.433,1.141,0,1.574l-2.435,2.434
	c-0.433,0.434-1.141,0.434-1.574,0l0,0C3.204,15.93,3.204,15.223,3.637,14.789z"/>
</svg>
