<?xml version="1.0" encoding="UTF-8" standalone="no"?>
<!-- Generator: Adobe Illustrator 16.0.0, SVG Export Plug-In . SVG Version: 6.00 Build 0)  -->

<svg
   xmlns:dc="http://purl.org/dc/elements/1.1/"
   xmlns:cc="http://creativecommons.org/ns#"
   xmlns:rdf="http://www.w3.org/1999/02/22-rdf-syntax-ns#"
   xmlns:svg="http://www.w3.org/2000/svg"
   xmlns="http://www.w3.org/2000/svg"
   xmlns:sodipodi="http://sodipodi.sourceforge.net/DTD/sodipodi-0.dtd"
   xmlns:inkscape="http://www.inkscape.org/namespaces/inkscape"
   version="1.1"
   id="Layer_1"
   x="0px"
   y="0px"
   width="20px"
   height="20px"
   viewBox="0 0 20 20"
   enable-background="new 0 0 20 20"
   xml:space="preserve"
   inkscape:version="0.91 r13725"
   sodipodi:docname="watertower.svg"><metadata
     id="metadata4216"><rdf:RDF><cc:Work
         rdf:about=""><dc:format>image/svg+xml</dc:format><dc:type
           rdf:resource="http://purl.org/dc/dcmitype/StillImage" /></cc:Work></rdf:RDF></metadata><defs
     id="defs4214"><pattern
       y="0"
       x="0"
       height="6"
       width="6"
       patternUnits="userSpaceOnUse"
       id="EMFhbasepattern" /><clipPath
       id="clipEmfPath1"
       clipPathUnits="userSpaceOnUse"><path
         inkscape:connector-curvature="0"
         id="path5341"
         d="m 15.6441,15.6164 32.1159,0 0,52.8529 -32.1159,0 z" /></clipPath><pattern
       y="0"
       x="0"
       height="6"
       width="6"
       patternUnits="userSpaceOnUse"
       id="EMFhbasepattern-7" /><pattern
       y="0"
       x="0"
       height="6"
       width="6"
       patternUnits="userSpaceOnUse"
       id="EMFhbasepattern-70" /><pattern
       y="0"
       x="0"
       height="6"
       width="6"
       patternUnits="userSpaceOnUse"
       id="EMFhbasepattern-5" /></defs><sodipodi:namedview
     pagecolor="#ffffff"
     bordercolor="#666666"
     borderopacity="1"
     objecttolerance="10"
     gridtolerance="10"
     guidetolerance="10"
     inkscape:pageopacity="0"
     inkscape:pageshadow="2"
     inkscape:window-width="1075"
     inkscape:window-height="671"
     id="namedview4212"
     showgrid="false"
     inkscape:zoom="23.6"
     inkscape:cx="9.3132211"
     inkscape:cy="12.757729"
     inkscape:window-x="0"
     inkscape:window-y="0"
     inkscape:window-maximized="0"
     inkscape:current-layer="Layer_1" /><path
     inkscape:connector-curvature="0"
     id="path5390"
     d="M 7.2775702,17.343547 6.8532673,19.220759 C 6.7472249,19.681208 6.3465037,20 5.8750843,20 L 4.3311885,20 C 4.0129818,20 3.7419141,19.870126 3.5533478,19.622195 3.3529952,19.374263 3.2822825,19.079102 3.3529952,18.772125 l 2.3688801,-10.4958702 -0.6482002,0 c -0.5421344,0 -0.9899819,-0.4486335 -0.9899819,-1.0035421 l 0,-4.4627955 c 0,-0.4250282 0.2474953,-0.7910277 0.6364173,-0.932703 L 9.4342986,0.07084059 c 0.2357161,-0.0944541 0.4714331,-0.0944541 0.7071164,0 l 4.73776,1.79456711 c 0.400704,0.1534818 0.648204,0.5194813 0.648204,0.9445095 l 0,4.4627955 c 0,0.5549086 -0.447836,1.0035421 -1.001746,1.0035421 l -0.247498,0 2.36888,10.4958702 c 0.07069,0.306977 0,0.602138 -0.20037,0.85007 C 16.258092,19.870126 15.987029,20 15.668802,20 l -1.543873,0 c -0.471433,0 -0.872138,-0.318792 -0.978213,-0.779241 L 12.734229,17.343547 9.9999917,14.191266 Z m 3.1466908,-9.0672922 -0.8485393,0 0.42427,0.495863 z"
     style="fill:#ffffff;fill-opacity:1;fill-rule:evenodd;stroke:none" /><path
     inkscape:connector-curvature="0"
     id="path5392"
     d="m 6.3582895,16.883099 3.6417022,-4.214871 3.6417223,4.214871 0.483215,2.113359 1.543873,0 -2.639944,-11.7237453 1.496775,0 0,-4.4627955 -4.7377603,-1.8063748 -4.7141976,1.8063748 0,4.4627955 1.8974504,0 -2.639937,11.7237453 1.5438958,0 z M 11.484985,7.2727127 11.720669,8.3116687 9.9999917,10.295155 8.2793149,8.3116687 8.5150313,7.2727127 Z M 12.922782,13.67177 11.025335,11.475801 12.14497,10.188913 Z M 8.9746483,11.475801 7.0772012,13.67177 7.8668279,10.188913 Z"
     style="fill:#000000;fill-opacity:1;fill-rule:evenodd;stroke:none" /><path
     inkscape:connector-curvature="0"
     id="path5394"
     d="m 6.0400824,6.5525494 7.5191206,0 0,-3.4036491 -7.5191206,0 z"
     style="fill:#0064ff;fill-opacity:1;fill-rule:evenodd;stroke:none" /></svg>