<?xml version="1.0" encoding="UTF-8" standalone="no"?>
<!-- Generator: Adobe Illustrator 16.0.0, SVG Export Plug-In . SVG Version: 6.00 Build 0)  -->

<svg
   xmlns:dc="http://purl.org/dc/elements/1.1/"
   xmlns:cc="http://creativecommons.org/ns#"
   xmlns:rdf="http://www.w3.org/1999/02/22-rdf-syntax-ns#"
   xmlns:svg="http://www.w3.org/2000/svg"
   xmlns="http://www.w3.org/2000/svg"
   xmlns:sodipodi="http://sodipodi.sourceforge.net/DTD/sodipodi-0.dtd"
   xmlns:inkscape="http://www.inkscape.org/namespaces/inkscape"
   version="1.1"
   id="Layer_1"
   x="0px"
   y="0px"
   width="20px"
   height="20px"
   viewBox="0 0 20 20"
   enable-background="new 0 0 20 20"
   xml:space="preserve"
   inkscape:version="0.91 r13725"
   sodipodi:docname="waterfall.svg"><metadata
     id="metadata5969"><rdf:RDF><cc:Work
         rdf:about=""><dc:format>image/svg+xml</dc:format><dc:type
           rdf:resource="http://purl.org/dc/dcmitype/StillImage" /></cc:Work></rdf:RDF></metadata><defs
     id="defs5967"><pattern
       y="0"
       x="0"
       height="6"
       width="6"
       patternUnits="userSpaceOnUse"
       id="EMFhbasepattern" /></defs><sodipodi:namedview
     pagecolor="#ffffff"
     bordercolor="#666666"
     borderopacity="1"
     objecttolerance="10"
     gridtolerance="10"
     guidetolerance="10"
     inkscape:pageopacity="0"
     inkscape:pageshadow="2"
     inkscape:window-width="956"
     inkscape:window-height="642"
     id="namedview5965"
     showgrid="false"
     inkscape:zoom="11.8"
     inkscape:cx="-2.5423729"
     inkscape:cy="10"
     inkscape:window-x="0"
     inkscape:window-y="0"
     inkscape:window-maximized="0"
     inkscape:current-layer="Layer_1" /><path
     inkscape:connector-curvature="0"
     id="path6516"
     d="m 8.3353084,2.7202876 0,-1.7149662 C 8.3353084,0.44943668 8.7839381,6.0647711e-8 9.327029,6.0647711e-8 11.286896,6.0647711e-8 13.187711,0.48492135 14.45101,2.0816097 c 1.641074,2.0816108 1.570254,5.3932685 1.570254,7.9243003 0,1.324683 -0.10626,4.198714 0.885456,5.204038 0.401449,0.413953 0.968146,0.520418 1.52304,0.520418 0.554893,0 1.003557,0.449429 1.003557,0.993487 l 0,2.282659 C 19.433317,19.550569 18.984653,20 18.42976,20 16.859506,20 15.324663,19.69251 14.120415,18.7345 l 0,0.272012 C 14.120415,19.550569 13.671785,20 13.11689,20 11.440372,20 9.7992982,19.609719 8.6540667,18.332351 l 0,0.674161 C 8.6540667,19.550569 8.205437,20 7.6505105,20 6.1038964,20 4.5926596,19.609719 3.6127334,18.320547 2.4320952,16.78297 2.4793187,14.464833 2.4793187,12.607929 c 0,-0.626847 0.047222,-2.542869 -0.4368365,-2.9922987 C 1.9244205,9.5091704 1.7237109,9.4855262 1.570226,9.4855262 c -0.5549006,0 -1.00354324,-0.4494296 -1.00354324,-1.0053241 l 0,-2.2708565 c 0,-0.5440573 0.44864264,-1.0053239 1.00354324,-1.0053239 0.9799333,0 1.9362495,0.1655812 2.7626919,0.6032077 C 4.2739048,5.6771251 4.2266589,5.5233473 4.2266589,5.3696029 l 0,-2.2708433 c 0,-0.5558835 0.4486627,-1.0053236 1.0035574,-1.0053236 1.0979832,0 2.1723611,0.165584 3.1050969,0.6268516 z"
     style="fill:#ffffff;fill-opacity:1;fill-rule:evenodd;stroke:none" /><path
     inkscape:connector-curvature="0"
     id="path6518"
     d="m 1.570226,6.2093456 c 4.1794688,0 4.1794688,3.2051935 4.1794688,6.3985834 0,2.057962 0,4.115924 1.9008157,4.115924 l 0,2.282659 c -4.1794547,0 -4.1794547,-3.205194 -4.1794547,-6.398583 0,-2.057962 0,-4.1277269 -1.9008298,-4.1277269 z m 3.6599844,-3.110586 c 5.0767346,0 5.0767346,3.973969 5.0767346,7.9479514 0,2.838588 0,5.677142 2.809945,5.677142 l 0,2.282659 c -5.0767665,0 -5.0767665,-3.985818 -5.0767665,-7.959801 0,-2.8385542 0,-5.6771081 -2.8099131,-5.6771081 z M 9.327029,1.0053214 c 5.690678,0 5.690678,4.4943858 5.690678,9.0005886 0,3.358971 0,6.717943 3.412053,6.717943 l 0,2.282659 c -5.678875,0 -5.678875,-4.506202 -5.678875,-9.000602 0,-3.3707746 0,-6.7297388 -3.423856,-6.7297388 z"
     style="fill:#0064ff;fill-opacity:1;fill-rule:nonzero;stroke:none" /></svg>