<?xml version="1.0" encoding="UTF-8" standalone="no"?>
<!-- Generator: Adobe Illustrator 16.0.0, SVG Export Plug-In . SVG Version: 6.00 Build 0)  -->

<svg
   xmlns:dc="http://purl.org/dc/elements/1.1/"
   xmlns:cc="http://creativecommons.org/ns#"
   xmlns:rdf="http://www.w3.org/1999/02/22-rdf-syntax-ns#"
   xmlns:svg="http://www.w3.org/2000/svg"
   xmlns="http://www.w3.org/2000/svg"
   xmlns:sodipodi="http://sodipodi.sourceforge.net/DTD/sodipodi-0.dtd"
   xmlns:inkscape="http://www.inkscape.org/namespaces/inkscape"
   version="1.1"
   id="Layer_1"
   x="0px"
   y="0px"
   width="20px"
   height="20px"
   viewBox="0 0 20 20"
   enable-background="new 0 0 20 20"
   xml:space="preserve"
   inkscape:version="0.91 r13725"
   sodipodi:docname="water_park.svg"><metadata
     id="metadata13"><rdf:RDF><cc:Work
         rdf:about=""><dc:format>image/svg+xml</dc:format><dc:type
           rdf:resource="http://purl.org/dc/dcmitype/StillImage" /></cc:Work></rdf:RDF></metadata><defs
     id="defs11" /><sodipodi:namedview
     pagecolor="#ffffff"
     bordercolor="#666666"
     borderopacity="1"
     objecttolerance="10"
     gridtolerance="10"
     guidetolerance="10"
     inkscape:pageopacity="0"
     inkscape:pageshadow="2"
     inkscape:window-width="657"
     inkscape:window-height="480"
     id="namedview9"
     showgrid="false"
     inkscape:zoom="11.8"
     inkscape:cx="10"
     inkscape:cy="10"
     inkscape:window-x="0"
     inkscape:window-y="0"
     inkscape:window-maximized="0"
     inkscape:current-layer="Layer_1" /><path
     fill-rule="evenodd"
     clip-rule="evenodd"
     fill="#FFFFFF"
     d="M17.361,4.975c2.284,0.469,3.39,3.57,1.612,5.328  c-0.863,0.856-1.392,1.018-2.579,1.018c0.039,0.094,0.072,0.195,0.103,0.324c0.025,0.107,0.031,0.215,0.021,0.318  c0.656-0.1,1.264-0.023,1.999,0.277c0.399,0.164,0.716,0.084,1.088,0.416c0.194,0.172,0.315,0.398,0.37,0.65  c0.016,0.072,0.023,0.137,0.023,0.211v1.645c0,0.229-0.068,0.432-0.204,0.605c0.087,0.131,0.147,0.275,0.181,0.434  c0.016,0.072,0.023,0.137,0.023,0.211v1.645c0,0.277-0.102,0.52-0.301,0.715c-0.2,0.195-0.442,0.289-0.722,0.283  c-0.544-0.012-0.87-0.172-1.353-0.361c-0.907-0.357-1.314,0.121-2.176,0.303c-0.18,0.039-0.361,0.059-0.546,0.059  c-0.83,0-1.291-0.096-2.044-0.4c-0.183-0.074-0.299-0.096-0.5-0.096c-0.367,0-0.698,0.174-1.037,0.295  c-0.353,0.125-0.695,0.201-1.073,0.201c-0.797,0-1.278-0.086-2.003-0.383c-0.222-0.092-0.359-0.113-0.603-0.113  c-0.164,0-0.261,0.02-0.41,0.08c-0.773,0.313-1.213,0.416-2.072,0.416c-1.15,0-1.629-0.807-2.798-0.33  c-0.476,0.193-0.829,0.33-1.36,0.33c-0.551,0-1-0.447-1-0.998v-1.738c0-0.217,0.066-0.418,0.184-0.582  c-0.116-0.162-0.184-0.361-0.184-0.574v-1.738c0-0.471,0.315-0.867,0.773-0.975c0.293-0.068,0.538-0.115,0.818-0.229  c0.412-0.166,0.825-0.268,1.248-0.291c-0.009-0.029-0.017-0.059-0.023-0.088c-0.097-0.434,0.092-0.861,0.477-1.084l3.62-2.09  c0.01-0.006,0.019-0.01,0.029-0.016C7.063,8.59,7.183,8.532,7.297,8.461c0.014-0.008,0.025-0.014,0.04-0.021l1.522-0.834  C8.675,7.288,8.485,6.969,8.302,6.651C7.938,6.018,7.325,4.973,7.325,4.239c0-1.293,0.961-1.982,2.133-2.173  c1.024-0.168,2.058-0.381,3.081-0.571c0.685-0.126,1.369-0.253,2.056-0.37c0.378-0.065,0.923-0.18,1.301-0.18  c0.961,0,1.813,0.49,2.161,1.407C18.414,3.29,18.113,4.364,17.361,4.975z"
     id="path3" /><path
     fill-rule="evenodd"
     clip-rule="evenodd"
     fill="#000001"
     d="M14.406,7.963v0.311c0,1.053,0.945,2.047,1.986,2.047  c0.905,0,1.194-0.051,1.878-0.729c1.302-1.287,0.268-3.678-1.506-3.678h-0.311C15.428,5.915,14.406,6.936,14.406,7.963L14.406,7.963  z M8.324,4.239c0-0.779,0.63-1.078,1.295-1.187c0.769-0.125,5.798-1.108,6.276-1.108c1.613,0,1.68,1.995,0.517,2.44  c-0.175,0.068-4.143,0.84-4.55,0.85l0.934,1.672c0.742,1.283,1.813,3.385,2.529,4.545c0.102,0.164,0.15,0.217,0.198,0.424  c-1.843,0.43-1.865-0.373-3.165-0.373c-0.93,0-1.364,0.496-2.172,0.496c-1.414,0-1.406-0.496-2.482-0.496  c-1.161,0-1.681,0.857-3.252,0.334c-0.225-0.074-0.447-0.193-0.658-0.209l3.62-2.09c0.17-0.092,0.247-0.125,0.402-0.219l1.604-0.879  C9.7,8.297,9.918,8.167,10.187,8.026C10.057,7.467,8.324,5.028,8.324,4.239z"
     id="path5" /><path
     fill-rule="evenodd"
     clip-rule="evenodd"
     fill="#3762AD"
     d="M1.002,16.319v1.738c0.404,0,0.685-0.137,0.983-0.26  c1.598-0.65,2.242,0.26,3.175,0.26c1.576,0,1.51-0.498,2.482-0.498c1.168,0,0.976,0.498,2.605,0.498c0.772,0,1.218-0.498,2.11-0.498  c1.055,0,0.949,0.498,2.544,0.498c0.926,0,1.591-0.883,3.087-0.295c0.316,0.125,0.608,0.285,1.01,0.295v-1.645  c-0.055-0.25-0.249-0.102-0.859-0.352c-1.647-0.672-2.243,0.258-3.485,0.258c-0.99,0-1.191-0.496-2.357-0.496  c-0.969,0-1.236,0.496-2.297,0.496c-1.023,0-1.121-0.496-2.42-0.496c-0.836,0-1.184,0.496-2.234,0.496  c-1.1,0-1.801-0.912-3.378-0.275C1.594,16.194,1.405,16.226,1.002,16.319L1.002,16.319z M1.002,13.425v1.738  c0.404,0,0.685-0.137,0.983-0.258c1.598-0.652,2.242,0.258,3.175,0.258c1.576,0,1.51-0.498,2.482-0.498  c1.168,0,0.976,0.498,2.605,0.498c0.772,0,1.218-0.498,2.11-0.498c1.055,0,0.949,0.498,2.544,0.498c0.926,0,1.591-0.883,3.087-0.295  c0.316,0.125,0.608,0.285,1.01,0.295v-1.645c-0.055-0.25-0.249-0.102-0.859-0.352c-1.647-0.674-2.243,0.258-3.485,0.258  c-0.99,0-1.191-0.496-2.357-0.496c-0.969,0-1.236,0.496-2.297,0.496c-1.023,0-1.121-0.496-2.42-0.496  c-0.836,0-1.184,0.496-2.234,0.496c-1.1,0-1.801-0.912-3.378-0.275C1.594,13.3,1.405,13.331,1.002,13.425z"
     id="path7"
     style="fill:#0064ff;fill-opacity:1" /></svg>