<?xml version="1.0" encoding="utf-8"?>
<!-- Generator: Adobe Illustrator 16.0.0, SVG Export Plug-In . SVG Version: 6.00 Build 0)  -->
<!DOCTYPE svg PUBLIC "-//W3C//DTD SVG 1.1//EN" "http://www.w3.org/Graphics/SVG/1.1/DTD/svg11.dtd">
<svg version="1.1" id="Layer_1" xmlns="http://www.w3.org/2000/svg" xmlns:xlink="http://www.w3.org/1999/xlink" x="0px" y="0px"
	 width="20px" height="20px" viewBox="0 0 20 20" enable-background="new 0 0 20 20" xml:space="preserve">
<path fill-rule="evenodd" clip-rule="evenodd" fill="#FFFFFF" d="M15.049,7.59l-2.889,4.386l4.262,6.473
	c0.208,0.314,0.224,0.691,0.045,1.023c-0.179,0.334-0.503,0.525-0.88,0.525H13.66c-0.347,0-0.645-0.16-0.835-0.449L10,15.258
	l-2.825,4.291c-0.19,0.289-0.488,0.449-0.835,0.449H4.413c-0.377,0-0.701-0.191-0.88-0.525c-0.179-0.332-0.163-0.709,0.045-1.023
	l4.262-6.473L4.952,7.59H3.647c-0.425,0-0.787-0.25-0.937-0.648C2.562,6.543,2.67,6.116,2.991,5.836l6.423-5.587
	c0.382-0.332,0.942-0.33,1.32,0.007l6.284,5.588c0.316,0.281,0.421,0.707,0.27,1.102c-0.15,0.396-0.511,0.645-0.935,0.645H15.049
	L15.049,7.59z M9.272,7.59L10,8.696l0.728-1.105H9.272z"/>
<path fill-rule="evenodd" clip-rule="evenodd" fill="#000001" d="M3.647,6.59H5.49l3.546,5.386L4.413,19H6.34L10,13.439L13.66,19
	h1.927l-4.624-7.023L14.51,6.59h1.843l-6.283-5.587L3.647,6.59L3.647,6.59z M7.417,6.59h5.166L10,10.514L7.417,6.59z"/>
</svg>
