<?xml version="1.0" encoding="utf-8"?>
<!-- Generator: Adobe Illustrator 16.0.0, SVG Export Plug-In . SVG Version: 6.00 Build 0)  -->
<!DOCTYPE svg PUBLIC "-//W3C//DTD SVG 1.1//EN" "http://www.w3.org/Graphics/SVG/1.1/DTD/svg11.dtd">
<svg version="1.1" id="Layer_1" xmlns="http://www.w3.org/2000/svg" xmlns:xlink="http://www.w3.org/1999/xlink" x="0px" y="0px"
	 width="20px" height="20px" viewBox="0 0 20 20" enable-background="new 0 0 20 20" xml:space="preserve">
<path fill-rule="evenodd" clip-rule="evenodd" fill="#FFFFFF" d="M9.007,15.924c0.114,0.27,0.178,0.566,0.178,0.879
	c0,1.246-1.01,2.256-2.255,2.256s-2.255-1.01-2.255-2.256c0-0.094,0.005-0.186,0.017-0.275c-1.074-0.172-1.895-1.104-1.895-2.227
	c0-0.092,0.006-0.184,0.017-0.273c-1.072-0.174-1.891-1.105-1.891-2.227c0-0.984,0.631-1.822,1.511-2.129
	C2.316,9.398,2.251,9.098,2.251,8.781c0-1.246,1.01-2.256,2.255-2.256c0.063,0,0.125,0.002,0.187,0.008
	C4.693,6.512,4.694,6.49,4.696,6.469c0.003-0.07,0.016-0.156,0.029-0.246C4.622,6.207,4.515,6.174,4.356,6.104
	C3.721,5.818,3.4,5.133,3.537,4.455c0.063-0.311,0.176-0.544,0.414-0.748c0.476-0.515,1.2-0.573,1.85-0.415
	c0.099-0.135,0.201-0.266,0.323-0.404c0.413-0.469,0.943-0.971,1.54-1.189c0.607-0.223,1.274-0.125,1.704,0.389
	c0.079,0.094,0.144,0.196,0.194,0.304c0.045-0.179,0.094-0.356,0.145-0.537l0.333-1.134c0.127-0.432,0.509-0.718,0.959-0.718h6.124
	c0.447,0,0.828,0.282,0.957,0.711l0.333,1.104c0.005,0.016,0.009,0.029,0.013,0.046c0.209,0.835,0.404,1.592,0.523,2.449
	c0.213,1.543,0.21,2.984-0.376,4.453c-0.391,0.979-1.065,1.66-1.843,2.338c-0.36,0.314-1.025,0.838-1.215,1.279
	c-0.045,0.104-0.066,0.207-0.066,0.318v4.232c0.13,0.141,0.514,0.316,0.655,0.373c0.245,0.1,0.517,0.16,0.776,0.207
	c0.169,0.029,0.338,0.053,0.5,0.074c0.184,0.02,0.318,0.021,0.502,0.088c1.266,0.469,0.917,2.322-0.443,2.322h-6.699
	c-0.69,0-1.287-0.479-1.287-1.201c0-0.305,0.11-0.594,0.322-0.814c0.304-0.318,0.594-0.35,0.987-0.398
	c0.396-0.053,0.806-0.131,1.186-0.256c0.148-0.049,0.695-0.262,0.755-0.43v-3.967c0-0.229-0.03-0.428-0.134-0.635
	c-0.112-0.225-0.446-0.586-0.638-0.746l-0.163-0.135c-0.207,0.697-0.741,1.254-1.426,1.49c0.116,0.271,0.181,0.572,0.181,0.887
	C10.521,14.779,9.889,15.617,9.007,15.924L9.007,15.924z M9.194,4.241L9.158,4.272C8.901,4.484,8.677,4.574,8.441,4.836
	C8.076,5.24,7.915,5.578,7.816,6.021c0.466,0.018,0.896,0.178,1.248,0.438C9.055,6.287,9.05,6.115,9.05,5.945
	C9.05,5.361,9.107,4.801,9.194,4.241z"/>
<path fill-rule="evenodd" clip-rule="evenodd" fill="#000001" d="M4.673,4.4C4.587,4.5,4.56,4.445,4.518,4.654
	C4.467,4.906,4.583,5.109,4.765,5.191c0.219,0.098,0.221,0.047,0.438,0.057C5.27,5.25,5.367,5.268,5.42,5.285
	c0.537,0.184,0.302,0.742,0.274,1.24c-0.02,0.357-0.085,0.877,0.366,0.99c0.174,0.043,0.289,0.031,0.494-0.111l0.128-0.141
	c0.038-0.086,0,0.006,0.013-0.043c0.065-0.25,0.002-0.527,0.051-0.873c0.118-0.846,0.303-1.461,0.954-2.183
	c0.36-0.397,0.653-0.522,0.821-0.662c0.501-0.414,0.04-1.867-1.646,0.046C6.633,3.822,6.6,3.888,6.398,4.185
	C6.363,4.235,6.354,4.248,6.328,4.29C6.202,4.508,6.193,4.533,6.038,4.449L5.795,4.33C5.758,4.316,5.745,4.313,5.703,4.301
	L5.61,4.276C5.604,4.274,5.594,4.271,5.587,4.27C5.257,4.185,4.867,4.173,4.673,4.4L4.673,4.4z M7.727,9.529
	c-0.693,0-1.255-0.563-1.255-1.256s0.562-1.256,1.255-1.256S8.982,7.58,8.982,8.273S8.42,9.529,7.727,9.529L7.727,9.529z
	 M4.506,10.035c-0.693,0-1.255-0.561-1.255-1.254s0.562-1.256,1.255-1.256s1.255,0.563,1.255,1.256S5.199,10.035,4.506,10.035
	L4.506,10.035z M6.38,12.555c-0.693,0-1.255-0.563-1.255-1.256s0.563-1.256,1.255-1.256c0.693,0,1.255,0.563,1.255,1.256
	S7.074,12.555,6.38,12.555L6.38,12.555z M9.604,12.029c0.694,0,1.255-0.563,1.255-1.254c0-0.695-0.562-1.256-1.255-1.256
	c-0.693,0-1.255,0.561-1.255,1.256C8.349,11.467,8.911,12.029,9.604,12.029L9.604,12.029z M8.267,15.049
	c0.693,0,1.255-0.563,1.255-1.256s-0.562-1.256-1.255-1.256S7.012,13.1,7.012,13.793S7.573,15.049,8.267,15.049L8.267,15.049z
	 M5.052,15.557c-0.693,0-1.255-0.563-1.255-1.256s0.563-1.254,1.255-1.254c0.693,0,1.255,0.561,1.255,1.254
	S5.746,15.557,5.052,15.557L5.052,15.557z M3.178,13.057c0.693,0,1.256-0.563,1.256-1.256s-0.563-1.254-1.256-1.254
	s-1.255,0.561-1.255,1.254S2.484,13.057,3.178,13.057L3.178,13.057z M6.93,18.059c0.693,0,1.255-0.563,1.255-1.256
	s-0.562-1.256-1.255-1.256s-1.255,0.563-1.255,1.256S6.236,18.059,6.93,18.059z"/>
<path fill-rule="evenodd" clip-rule="evenodd" fill="#000001" d="M10.797,6.176c0-1.611,0.248-2.508,0.61-3.932
	c0.04-0.158,0.1-0.334,0.138-0.495h5.03C16.629,1.86,16.668,2.05,16.71,2.19l0.343,1.411c0.281,1.408,0.482,3.094-0.078,4.469
	c-0.192,0.471-0.5,0.865-0.837,1.232c-0.172,0.189-0.873,0.744-1.107,0.963c-0.241,0.223-0.683,0.658-0.857,0.953
	c-0.062,0.105-0.03,0.096-0.127,0.16c-0.174-0.328-0.25-0.369-0.436-0.6c-0.093-0.113-0.144-0.164-0.247-0.27l-0.563-0.502
	C11.593,8.986,10.797,8.152,10.797,6.176L10.797,6.176z M10.05,5.945c0,1.311,0.303,2.668,1.156,3.588l1.006,0.949
	c0.125,0.109,0.23,0.193,0.359,0.303c0.289,0.242,0.714,0.711,0.89,1.064c0.152,0.305,0.239,0.639,0.239,1.082v3.967
	c0,1.18-1.897,1.557-2.809,1.678c-0.176,0.023-0.439,0.002-0.439,0.221c0,0.145,0.137,0.201,0.287,0.201h6.699
	c0.256,0,0.316-0.303,0.097-0.385c-0.064-0.023-0.2-0.021-0.282-0.033c-0.211-0.029-0.349-0.047-0.55-0.082
	c-0.349-0.063-0.68-0.145-0.974-0.264c-0.479-0.193-1.281-0.598-1.281-1.221v-4.313c0-1.75,2.412-2.342,3.195-4.307
	c0.515-1.289,0.505-2.564,0.313-3.945c-0.131-0.943-0.28-1.457-0.502-2.344l-0.333-1.104h-6.124l-0.333,1.133
	c-0.109,0.39-0.206,0.767-0.287,1.179C10.216,4.132,10.05,4.982,10.05,5.945z"/>
<path fill-rule="evenodd" clip-rule="evenodd" fill="#000001" d="M16.921,5.975c0-0.887-0.037-1.26-0.204-2.096
	c-0.03-0.15-0.101-0.381-0.112-0.52h-4.945c-0.113,0.237-0.323,1.414-0.344,1.725c-0.047,0.711-0.091,1.197,0.054,1.928
	c0.118,0.596,0.302,1.078,0.589,1.512c0.422,0.631,1.039,1.123,1.768,1.365c0.356,0.119,0.369,0.148,0.793-0.02
	c0.331-0.131,0.719-0.342,0.985-0.568c0.054-0.045,0.079-0.08,0.13-0.127c0.058-0.055,0.102-0.072,0.154-0.135
	c0.199-0.238,0.273-0.303,0.455-0.58c0.146-0.225,0.247-0.445,0.354-0.709C16.775,7.303,16.921,6.59,16.921,5.975z"/>
</svg>
