<?xml version="1.0" encoding="utf-8"?>
<!-- Generator: Adobe Illustrator 16.0.0, SVG Export Plug-In . SVG Version: 6.00 Build 0)  -->
<!DOCTYPE svg PUBLIC "-//W3C//DTD SVG 1.1//EN" "http://www.w3.org/Graphics/SVG/1.1/DTD/svg11.dtd">
<svg version="1.1" id="Layer_1" xmlns="http://www.w3.org/2000/svg" xmlns:xlink="http://www.w3.org/1999/xlink" x="0px" y="0px"
	 width="20px" height="20px" viewBox="0 0 20 20" enable-background="new 0 0 20 20" xml:space="preserve">
<path fill-rule="evenodd" clip-rule="evenodd" fill="#FFFFFF" d="M2.786,8.803c-0.012-0.611,0.003-1.25,0.122-1.723
	C3.04,6.559,3.396,6.002,3.462,5.518c0.044-0.324,0.043-0.6,0.126-0.93C3.74,3.982,4.081,3.483,4.642,3.186
	c0.824-0.438,1.837-0.451,2.712-0.163C7.43,3.047,7.795,3.168,7.876,3.158c0.082-0.009,0.181-0.036,0.263-0.054
	C8.37,3.056,8.6,3.021,8.835,2.998c0.692-0.068,1.388-0.109,2.081-0.168c0.751-0.063,1.541,0.062,2.285,0.162
	c1.361,0.185,2.531,0.606,3.691,1.331c2.198,1.369,2.755,2.504,2.958,5.016l0.146,2.067c0.024,0.342-0.111,0.646-0.381,0.857
	c-0.24,0.188-0.527,0.254-0.817,0.193c-0.255,0.563-0.239,0.82-0.06,1.451c0.234,0.832,0.417,1.893-0.405,2.477
	c-0.249,0.178-0.519,0.25-0.815,0.289c-0.07,0.01-0.162,0.016-0.239,0.029c-0.115,0.08-0.209,0.158-0.347,0.23
	c-0.332,0.174-0.689,0.229-1.061,0.184c-0.446-0.053-0.861-0.047-1.304-0.166c-0.421-0.113-0.71-0.467-0.738-0.9
	c-0.03-0.461,0.065-0.836,0.314-1.223c0.026-0.041,0.077-0.105,0.096-0.148c0.022-0.076-0.009-0.291-0.021-0.365
	c-0.058-0.348-0.131-0.686-0.167-1.039c-0.018-0.162-0.01-0.418-0.037-0.568c-0.054-0.109-0.273-0.334-0.357-0.418
	c-0.184-0.094-0.932,0.012-1.143,0.037c-0.252,0.027-0.505,0.053-0.759,0.057c-0.061,0.561,0.004,1.098,0.125,1.67
	c0.145,0.688,0.401,1.461,0.074,2.135c-0.082,0.17-0.201,0.318-0.35,0.436c-0.374,0.295-0.65,0.264-1.067,0.313
	c-0.001,0-0.003,0-0.004,0.002c-0.869,0.324-2.421,0.465-2.987-0.408c-0.019-0.029-0.034-0.055-0.05-0.086
	c-0.042-0.084-0.076-0.17-0.102-0.26c-0.102-0.359-0.05-0.697,0.056-1.047c0.022-0.072,0.056-0.16,0.068-0.225
	c0.061-0.391,0.046-0.984,0.051-1.387c0.005-0.461,0.027-1.02-0.01-1.459c-0.04-0.322-0.097-1.219-0.211-1.542
	c-0.093-0.098-0.285-0.225-0.464-0.332c-0.318,0.262-0.657,0.5-1.019,0.698c-0.005,0.031-0.01,0.061-0.016,0.092
	c-0.097,0.535-0.353,1.051-0.588,1.537c-0.059,0.119-0.211,0.43-0.311,0.693c0.025,0.016,0.051,0.033,0.078,0.053
	c0.417,0.299,0.528,0.771,0.466,1.254c-0.042,0.322-0.217,0.582-0.501,0.74c-1.366,0.771-2.747-0.477-2.622-1.902
	c0.06-0.674,0.266-1.318,0.406-1.975c0.001-0.006,0.002-0.012,0.003-0.016c-0.919-0.219-1.746-0.74-2.456-1.391
	C-0.038,9.641-0.105,9.1,0.169,8.686s0.799-0.563,1.249-0.357C1.817,8.512,2.302,8.704,2.786,8.803z"/>
<path fill-rule="evenodd" clip-rule="evenodd" fill="#000001" d="M4.505,14.39c0.063-0.484-0.206-0.299-0.533-0.369
	c-0.47-0.83,0.713-2.201,0.896-3.217c0.043-0.236,0.064-0.426,0.078-0.581c0.581-0.236,1.178-0.643,1.791-1.236
	c0.081,0.035,0.176,0.082,0.289,0.139c0.369,0.191,1.054,0.596,1.212,0.93c0.198,0.418,0.249,1.354,0.315,1.887
	c0.033,0.27,0.03,2.734-0.05,3.15c-0.055,0.281-0.249,0.635-0.117,0.891c0.232,0.359,1.435,0.156,1.817,0.01
	c0.315-0.121,0.729,0.012,0.853-0.244c0.297-0.611-0.638-2.033-0.208-3.998c0.098-0.443,0.258-0.393,0.689-0.373
	c0.997,0.049,2.205-0.436,2.841,0.215c0.771,0.791,0.596,0.891,0.668,1.578c0.036,0.344,0.106,0.66,0.159,0.98
	c0.204,1.24-0.431,1.033-0.378,1.834c0.358,0.096,0.783,0.094,1.161,0.139c0.538,0.064,0.658-0.285,0.956-0.369
	c0.606-0.172,1.323,0.164,0.831-1.574c-0.261-0.924-0.234-1.408,0.154-2.229c0.397-0.842,0.365-1.193,0.551-2.163
	c0.231,0.447,0.021,1.526,0.519,1.686l-0.146-2.067c-0.163-2.012-0.445-2.963-2.49-4.238c-0.96-0.598-1.967-1.008-3.296-1.188
	c-0.633-0.086-1.43-0.21-2.068-0.156c-0.674,0.057-1.395,0.101-2.065,0.167C7.896,4.096,8.099,4.319,7.042,3.972
	C6.396,3.76,5.668,3.772,5.111,4.069C4.454,4.417,4.51,5.229,4.452,5.653C4.364,6.301,4.018,6.77,3.877,7.325
	C3.749,7.833,3.794,8.875,3.817,9.84C3.086,9.942,2.185,9.78,1.002,9.239c0.905,0.828,1.845,1.271,2.825,1.234
	c0.002,0.454-0.013,0.854-0.069,1.118c-0.12,0.561-0.338,1.283-0.388,1.854C3.313,14.089,3.858,14.753,4.505,14.39z"/>
</svg>
