<?xml version="1.0" encoding="utf-8"?>
<!-- Generator: Adobe Illustrator 16.0.0, SVG Export Plug-In . SVG Version: 6.00 Build 0)  -->
<!DOCTYPE svg PUBLIC "-//W3C//DTD SVG 1.1//EN" "http://www.w3.org/Graphics/SVG/1.1/DTD/svg11.dtd">
<svg version="1.1" id="Layer_1" xmlns="http://www.w3.org/2000/svg" xmlns:xlink="http://www.w3.org/1999/xlink" x="0px" y="0px"
	 width="20px" height="20px" viewBox="0 0 20 20" enable-background="new 0 0 20 20" xml:space="preserve">
<rect y="0" fill-rule="evenodd" clip-rule="evenodd" width="20" height="20.001"/>
<rect x="1.003" y="0.999" fill-rule="evenodd" clip-rule="evenodd" fill="#FFFFFF" width="18" height="18"/>
<path fill-rule="evenodd" clip-rule="evenodd" fill="#ED0000" d="M17.183,13.058c1.222-3.39-0.113-7.281-3.342-9.145
	C10.215,1.82,5.562,3.066,3.468,6.692c-1.014,1.757-1.284,3.803-0.758,5.762c0.524,1.959,1.781,3.596,3.538,4.61l1.607-2.786
	c-1.012-0.584-1.736-1.527-2.039-2.656c-0.303-1.13-0.147-2.31,0.438-3.322c1.207-2.09,3.889-2.808,5.979-1.602
	c1.705,0.984,2.496,2.95,2.076,4.775l-1.529-0.842l0.044,6.471l5.624-3.348L17.183,13.058z"/>
</svg>
