<?xml version="1.0" encoding="utf-8"?>
<!-- Generator: Adobe Illustrator 16.0.0, SVG Export Plug-In . SVG Version: 6.00 Build 0)  -->
<!DOCTYPE svg PUBLIC "-//W3C//DTD SVG 1.1//EN" "http://www.w3.org/Graphics/SVG/1.1/DTD/svg11.dtd">
<svg version="1.1" id="Layer_1" xmlns="http://www.w3.org/2000/svg" xmlns:xlink="http://www.w3.org/1999/xlink" x="0px" y="0px"
	 width="20px" height="20px" viewBox="0 0 20 20" enable-background="new 0 0 20 20" xml:space="preserve">
<rect y="0" fill-rule="evenodd" clip-rule="evenodd" width="20" height="20.001"/>
<rect x="1.003" y="0.999" fill-rule="evenodd" clip-rule="evenodd" fill="#FFFFFF" width="18" height="18"/>
<path fill-rule="evenodd" clip-rule="evenodd" fill="#850094" d="M6.014,4.197C4.237,4.354,2.71,5.228,2.158,6.606
	c-0.242,0.605-0.136,2.451-0.13,3.248c0.004,0.598-0.011,4.662,0.029,5.023c0.058,0.527,0.318,0.763,0.789,0.787
	c1.566,0.077,1.364-0.255,1.365-1.848l0.006-5.044c0-0.511-0.074-1.18,0.147-1.55c0.364-0.61,1.336-0.916,2.23-0.742
	c0.4,0.078,0.784,0.297,0.99,0.556c0.319,0.4,0.32,0.684,0.322,1.332C7.91,8.983,7.781,9.2,7.375,9.42
	C7.04,9.602,6.544,9.701,6.254,9.88c-0.252,0.154-0.527,0.648-0.472,1.146c0.064,0.567,0.38,0.661,0.895,0.702
	c1.591,0.125,1.284-0.041,1.277,1.908c-0.007,1.707-0.141,2.041,1.179,2.057c1.395,0.017,1.058-0.994,1.051-3.002
	c-0.003-1.021-0.115-0.801,1.423-0.978c0.484-0.057,0.751-0.256,0.759-0.822c0.018-1.191-1.088-1.156-1.652-1.497
	c-0.445-0.269-0.478-0.485-0.478-1.16C10.235,7.548,10.269,7.395,10.609,7c0.234-0.273,0.609-0.47,1.047-0.539
	c0.894-0.142,1.906,0.222,2.184,0.885c0.26,0.62-0.097,5.642,0.106,6.588c0.375,1.751,2.77,2.57,3.813,1.324
	c0.489-0.585,0.266-1.955-0.951-1.517c-0.551,0.197-0.705-0.294-0.705-0.824c0-0.57,0.005-1.142,0.007-1.712
	c0.005-1.125,0.008-2.252,0.013-3.377c0.003-0.594,0.004-0.968-0.222-1.434c-0.203-0.422-0.444-0.69-0.699-0.933
	C14.02,4.33,11.064,3.414,9.556,4.968C9.188,5.348,8.752,5.005,8.469,4.79C7.82,4.293,6.989,4.111,6.014,4.197"/>
</svg>
