<?xml version="1.0" encoding="utf-8"?>
<!-- Generator: Adobe Illustrator 16.0.0, SVG Export Plug-In . SVG Version: 6.00 Build 0)  -->
<!DOCTYPE svg PUBLIC "-//W3C//DTD SVG 1.1//EN" "http://www.w3.org/Graphics/SVG/1.1/DTD/svg11.dtd">
<svg version="1.1" id="Layer_1" xmlns="http://www.w3.org/2000/svg" xmlns:xlink="http://www.w3.org/1999/xlink" x="0px" y="0px"
	 width="20px" height="20px" viewBox="0 0 20 20" enable-background="new 0 0 20 20" xml:space="preserve">
<rect y="0" fill-rule="evenodd" clip-rule="evenodd" width="20" height="20.001"/>
<rect x="1.003" y="0.999" fill-rule="evenodd" clip-rule="evenodd" fill="#FFFFFF" width="18" height="18"/>
<g>
	<path d="M10.063,7.089c0.033,0.145,0.374,0.671,0.469,0.813c0.194,0.29,0.219,0.563,0.719,0.563c0.357,0,1.597,0.039,1.863-0.043
		c0.13-0.039,0.124-0.047,0.209-0.135c0.218-0.227,0.432-0.907-0.574-0.977c-0.397-0.028-0.519-0.013-0.874-0.003
		c-0.158,0.004-0.155,0.032-0.312,0.032c-0.046-0.195-0.265-0.544-0.364-0.729l-0.392-0.704c-0.127-0.209-0.275-0.489-0.438-0.654
		C9.425,4.294,8.757,5.193,8.039,5.91C7.669,6.28,6.706,7.308,6.47,7.715C6.389,7.857,6.25,8.127,6.25,8.339
		c0,0.687,0.31,0.979,0.794,1.301c0.44,0.294,1.283,0.766,1.779,1.033c0.116,0.063,0.374,0.202,0.489,0.229
		c0,0.979-0.008,1.96-0.001,2.938c0.003,0.473,0.316,0.698,0.729,0.742c0.068,0.008,0.226-0.014,0.297-0.032
		c0.094-0.022,0.155-0.074,0.214-0.161c0.096-0.142,0.137-0.385,0.137-0.612v-2.719c0-0.446-0.031-0.776-0.031-1.218
		c-0.171-0.091-0.337-0.2-0.506-0.307c-0.174-0.109-0.326-0.203-0.5-0.313C9.526,9.142,8.736,8.62,8.625,8.59l0.711-0.758
		C9.545,7.624,9.842,7.238,10.063,7.089z"/>
	<path d="M17.366,11.599c-0.637-0.85-1.578-1.477-2.71-1.477c-0.739,0-1.375,0.122-1.963,0.505c-0.09,0.059-0.183,0.108-0.264,0.174
		c-0.094,0.075-0.146,0.124-0.234,0.202c-0.099,0.087-0.09,0.047-0.198,0.177c-0.322,0.385-0.274,0.3-0.565,0.778
		c-0.518,0.851-0.547,2.18-0.099,3.111c0.585,1.214,1.815,2.052,3.136,2.052c0.889,0,1.845-0.365,2.462-0.976
		c0.505-0.5,1.069-1.38,1.069-2.368C18,12.938,17.847,12.239,17.366,11.599z"/>
	<path d="M7.844,11.026c-0.343-0.263-0.312-0.296-0.781-0.531c-1.373-0.685-2.958-0.432-4.039,0.649
		c-0.322,0.323-0.473,0.534-0.69,0.965C2.164,12.446,2,12.976,2,13.464c0,0.888,0.097,1.221,0.479,1.928
		c0.055,0.101,0.108,0.179,0.172,0.266c0.813,1.108,2.23,1.699,3.6,1.371c1.089-0.262,1.898-0.924,2.396-1.918
		c0.092-0.184,0.183-0.421,0.235-0.639c0.026-0.107,0.048-0.229,0.07-0.368c0.132-0.81-0.089-1.707-0.521-2.383
		C8.317,11.541,8.018,11.16,7.844,11.026z"/>
	<path d="M12.368,5.052c0.617-0.58,0.479-1.677-0.337-2.057c-0.474-0.221-0.977-0.118-1.352,0.211
		c-0.18,0.159-0.398,0.495-0.398,0.82v0.22C10.281,5.119,11.506,5.862,12.368,5.052z"/>
</g>
</svg>
