<?xml version="1.0" encoding="utf-8"?>
<!-- Generator: Adobe Illustrator 16.0.0, SVG Export Plug-In . SVG Version: 6.00 Build 0)  -->
<!DOCTYPE svg PUBLIC "-//W3C//DTD SVG 1.1//EN" "http://www.w3.org/Graphics/SVG/1.1/DTD/svg11.dtd">
<svg version="1.1" id="Layer_1" xmlns="http://www.w3.org/2000/svg" xmlns:xlink="http://www.w3.org/1999/xlink" x="0px" y="0px"
	 width="20px" height="20px" viewBox="0 0 20 20" enable-background="new 0 0 20 20" xml:space="preserve">
<rect y="0" fill-rule="evenodd" clip-rule="evenodd" width="20" height="20.001"/>
<rect x="1.003" y="0.999" fill-rule="evenodd" clip-rule="evenodd" fill="#FFFFFF" width="18" height="18"/>
<path fill-rule="evenodd" clip-rule="evenodd" fill="#ED0000" d="M2.512,9.985C2.358,9.83,2.262,9.533,2.218,9.372
	C2.093,8.903,2.046,7.457,2.046,6.918c0-1.043-0.167-2.182,1.215-2.17C3.5,4.75,3.813,4.845,4.057,4.905l0.795,0.226
	c0.207,0.063,0.62,0.156,0.795,0.266C5.76,5.284,5.738,5.264,5.85,5.146c0.251-0.265,0.329-0.364,0.637-0.633
	c0.782-0.681,1.121-0.03,1.127,0.292c0.002,0.125,0.013,0.127-0.053,0.25C7.426,5.31,6.497,6.182,6.237,6.441
	c-0.363,0.363-0.58,0.183-0.931,0.113c-0.173-0.034-0.803-0.17-0.931-0.25C4.322,6.573,4.386,7.069,4.386,7.373L4.42,8.44
	c0.103-0.059,1.057-0.253,1.204-0.287c0.207-0.047,0.385-0.09,0.59-0.136c0.201-0.045,0.4-0.086,0.591-0.145
	C7.127,8.194,7.39,8.412,7.713,8.735l1.977,1.976c0.167,0.167,0.312,0.372,0.346,0.546c0.021,0.105,0.013,0.187-0.039,0.272
	c-0.038,0.064-0.137,0.194-0.192,0.239c-0.332,0.268-0.724,0.331-1.069-0.01c-0.716-0.707-1.423-1.426-2.135-2.138
	c-0.103,0.064-0.392,0.151-0.522,0.19c-0.554,0.166-1.511,0.436-2.044,0.542C3.447,10.47,3.011,10.483,2.512,9.985 M14.869,10.394
	c-0.96,0.96-2.464,1.245-3.771,0.787c-1.004-0.351-1.949-1.338-2.19-2.332c-0.136-0.56-0.11-0.463-0.155-0.977
	C8.738,7.7,8.761,7.734,8.769,7.6C8.776,7.479,8.78,7.405,8.793,7.282c0.011-0.106,0.042-0.209,0.065-0.318
	C9.007,6.258,9.38,5.707,9.917,5.169c0.823-0.822,1.964-1.05,3.044-0.896c0.815,0.116,1.435,0.513,2.044,1.123
	c0.719,0.718,0.948,1.768,0.943,2.499C15.944,8.788,15.516,9.747,14.869,10.394 M3.148,16.799c-0.356-0.355-0.622-0.86-0.743-1.227
	c-0.155-0.472-0.2-0.734-0.2-1.203c0-1.572,0.968-2.908,2.464-3.407c0.512-0.172,0.514-0.124,0.954-0.182
	c0.223-0.029,0.718,0.029,0.932,0.076c0.805,0.178,1.618,0.67,2.11,1.354c0.084,0.117,0.158,0.223,0.217,0.319
	c0.119,0.196,0.226,0.435,0.293,0.636c0.361,1.082,0.254,2.152-0.348,3.135c-0.756,1.233-2.216,1.833-3.613,1.618
	c-0.109-0.017-0.205-0.033-0.318-0.067C4.105,17.614,3.793,17.444,3.148,16.799 M2.308,3.92l0.159,0.159
	c0.634,0.635,2.064,0.284,2.103-0.931c0.027-0.87-0.87-1.567-1.739-1.25C2.325,2.082,2.034,2.521,2.001,3.034
	C1.985,3.28,2.071,3.683,2.308,3.92 M8.095,18.18H18V8.553L8.095,18.18z"/>
</svg>
