<?xml version="1.0" encoding="utf-8"?>
<!-- Generator: Adobe Illustrator 16.0.0, SVG Export Plug-In . SVG Version: 6.00 Build 0)  -->
<!DOCTYPE svg PUBLIC "-//W3C//DTD SVG 1.1//EN" "http://www.w3.org/Graphics/SVG/1.1/DTD/svg11.dtd">
<svg version="1.1" id="Layer_1" xmlns="http://www.w3.org/2000/svg" xmlns:xlink="http://www.w3.org/1999/xlink" x="0px" y="0px"
	 width="20px" height="20px" viewBox="0 0 20 20" enable-background="new 0 0 20 20" xml:space="preserve">
<rect y="0" fill-rule="evenodd" clip-rule="evenodd" width="20" height="20.001"/>
<rect x="1" y="1" fill-rule="evenodd" clip-rule="evenodd" fill="#FFFFFF" width="18" height="18"/>
<path fill="#FFCA00" d="M10,18c-4.411,0-8-3.589-8-8s3.589-8,8-8s8,3.589,8,8S14.411,18,10,18z"/>
<path fill="#FFFFFF" d="M10,5.418c-2.526,0-4.582,2.056-4.582,4.582S7.474,14.582,10,14.582s4.582-2.056,4.582-4.582
	S12.526,5.418,10,5.418z"/>
<path fill-rule="evenodd" clip-rule="evenodd" fill="#FFCA00" d="M10,7.557c1.349,0,2.443,1.094,2.443,2.443
	S11.349,12.443,10,12.443c-1.35,0-2.443-1.094-2.443-2.443S8.65,7.557,10,7.557"/>
</svg>
