<?xml version="1.0" encoding="UTF-8" standalone="no"?>
<!-- Generator: Adobe Illustrator 16.0.0, SVG Export Plug-In . SVG Version: 6.00 Build 0)  -->

<svg
   xmlns:dc="http://purl.org/dc/elements/1.1/"
   xmlns:cc="http://creativecommons.org/ns#"
   xmlns:rdf="http://www.w3.org/1999/02/22-rdf-syntax-ns#"
   xmlns:svg="http://www.w3.org/2000/svg"
   xmlns="http://www.w3.org/2000/svg"
   xmlns:sodipodi="http://sodipodi.sourceforge.net/DTD/sodipodi-0.dtd"
   xmlns:inkscape="http://www.inkscape.org/namespaces/inkscape"
   version="1.1"
   id="Layer_1"
   x="0px"
   y="0px"
   width="20"
   height="39"
   viewBox="0 0 20 39"
   enable-background="new 0 0 20 20"
   xml:space="preserve"
   inkscape:version="0.91 r13725"
   sodipodi:docname="0x373ab.svg"><metadata
     id="metadata13"><rdf:RDF><cc:Work
         rdf:about=""><dc:format>image/svg+xml</dc:format><dc:type
           rdf:resource="http://purl.org/dc/dcmitype/StillImage" /><dc:title></dc:title></cc:Work></rdf:RDF></metadata><defs
     id="defs11" /><sodipodi:namedview
     pagecolor="#ffffff"
     bordercolor="#666666"
     borderopacity="1"
     objecttolerance="10"
     gridtolerance="10"
     guidetolerance="10"
     inkscape:pageopacity="0"
     inkscape:pageshadow="2"
     inkscape:window-width="911"
     inkscape:window-height="683"
     id="namedview9"
     showgrid="false"
     inkscape:zoom="11.8"
     inkscape:cx="10"
     inkscape:cy="19.771132"
     inkscape:window-x="134"
     inkscape:window-y="11"
     inkscape:window-maximized="0"
     inkscape:current-layer="Layer_1" /><rect
     y="0"
     width="20"
     height="20.000999"
     id="rect3"
     x="0"
     style="clip-rule:evenodd;fill-rule:evenodd" /><rect
     x="1.003"
     y="0.99900055"
     width="18"
     height="18"
     id="rect5"
     style="clip-rule:evenodd;fill:#ffffff;fill-rule:evenodd" /><path
     d="M 2.512,9.985 C 2.358,9.83 2.262,9.533 2.218,9.372 2.093,8.903 2.046,7.457 2.046,6.918 2.046,5.875 1.879,4.736 3.261,4.748 3.5,4.75 3.813,4.845 4.057,4.905 L 4.852,5.131 C 5.059,5.194 5.472,5.287 5.647,5.397 5.76,5.284 5.738,5.264 5.85,5.146 6.101,4.881 6.179,4.782 6.487,4.513 7.269,3.832 7.608,4.483 7.614,4.805 7.616,4.93 7.627,4.932 7.561,5.055 7.426,5.31 6.497,6.182 6.237,6.441 5.874,6.804 5.657,6.624 5.306,6.554 5.133,6.52 4.503,6.384 4.375,6.304 4.322,6.573 4.386,7.069 4.386,7.373 L 4.42,8.44 C 4.523,8.381 5.477,8.187 5.624,8.153 5.831,8.106 6.009,8.063 6.214,8.017 6.415,7.972 6.614,7.931 6.805,7.872 7.127,8.194 7.39,8.412 7.713,8.735 l 1.977,1.976 c 0.167,0.167 0.312,0.372 0.346,0.546 0.021,0.105 0.013,0.187 -0.039,0.272 C 9.959,11.593 9.86,11.723 9.805,11.768 9.473,12.036 9.081,12.099 8.736,11.758 8.02,11.051 7.313,10.332 6.601,9.62 6.498,9.684 6.209,9.771 6.079,9.81 5.525,9.976 4.568,10.246 4.035,10.352 3.447,10.47 3.011,10.483 2.512,9.985 m 12.357,0.409 c -0.96,0.96 -2.464,1.245 -3.771,0.787 C 10.094,10.83 9.149,9.843 8.908,8.849 8.772,8.289 8.798,8.386 8.753,7.872 8.738,7.7 8.761,7.734 8.769,7.6 8.776,7.479 8.78,7.405 8.793,7.282 8.804,7.176 8.835,7.073 8.858,6.964 9.007,6.258 9.38,5.707 9.917,5.169 c 0.823,-0.822 1.964,-1.05 3.044,-0.896 0.815,0.116 1.435,0.513 2.044,1.123 0.719,0.718 0.948,1.768 0.943,2.499 -0.004,0.893 -0.432,1.852 -1.079,2.499 M 3.148,16.799 C 2.792,16.444 2.526,15.939 2.405,15.572 2.25,15.1 2.205,14.838 2.205,14.369 c 0,-1.572 0.968,-2.908 2.464,-3.407 0.512,-0.172 0.514,-0.124 0.954,-0.182 0.223,-0.029 0.718,0.029 0.932,0.076 0.805,0.178 1.618,0.67 2.11,1.354 0.084,0.117 0.158,0.223 0.217,0.319 0.119,0.196 0.226,0.435 0.293,0.636 C 9.536,14.247 9.429,15.317 8.827,16.3 8.071,17.533 6.611,18.133 5.214,17.918 5.105,17.901 5.009,17.885 4.896,17.851 4.105,17.614 3.793,17.444 3.148,16.799 M 2.308,3.92 2.467,4.079 C 3.101,4.714 4.531,4.363 4.57,3.148 4.597,2.278 3.7,1.581 2.831,1.898 2.325,2.082 2.034,2.521 2.001,3.034 1.985,3.28 2.071,3.683 2.308,3.92 m 5.787,14.26 9.905,0 0,-9.627 -9.905,9.627 z"
     id="path7"
     inkscape:connector-curvature="0"
     style="clip-rule:evenodd;fill:#001aff;fill-rule:evenodd" /><rect
     y="18.999001"
     width="20"
     height="20.000999"
     id="rect3-6"
     x="0"
     style="clip-rule:evenodd;fill-rule:evenodd" /><rect
     x="1.003"
     y="19.998001"
     width="18"
     height="18"
     id="rect5-2"
     style="clip-rule:evenodd;fill:#ffffff;fill-rule:evenodd" /><path
     d="m 2.512,28.984001 c -0.154,-0.155 -0.25,-0.452 -0.294,-0.613 -0.125,-0.469 -0.172,-1.915 -0.172,-2.454 0,-1.043 -0.167,-2.182 1.215,-2.17 0.239,0.002 0.552,0.097 0.796,0.157 l 0.795,0.226 c 0.207,0.063 0.62,0.156 0.795,0.266 0.113,-0.113 0.091,-0.133 0.203,-0.251 0.251,-0.265 0.329,-0.364 0.637,-0.633 0.782,-0.681 1.121,-0.03 1.127,0.292 0.002,0.125 0.013,0.127 -0.053,0.25 -0.135,0.255 -1.064,1.127 -1.324,1.386 -0.363,0.363 -0.58,0.183 -0.931,0.113 -0.173,-0.034 -0.803,-0.17 -0.931,-0.25 -0.053,0.269 0.011,0.765 0.011,1.069 l 0.034,1.067 c 0.103,-0.059 1.057,-0.253 1.204,-0.287 0.207,-0.047 0.385,-0.09 0.59,-0.136 0.201,-0.045 0.4,-0.086 0.591,-0.145 0.322,0.322 0.585,0.54 0.908,0.863 l 1.977,1.976 c 0.167,0.167 0.312,0.372 0.346,0.546 0.021,0.105 0.013,0.187 -0.039,0.272 -0.038,0.064 -0.137,0.194 -0.192,0.239 -0.332,0.268 -0.724,0.331 -1.069,-0.01 -0.716,-0.707 -1.423,-1.426 -2.135,-2.138 -0.103,0.064 -0.392,0.151 -0.522,0.19 -0.554,0.166 -1.511,0.436 -2.044,0.542 -0.588,0.118 -1.024,0.131 -1.523,-0.367 m 12.357,0.409 c -0.96,0.96 -2.464,1.245 -3.771,0.787 -1.004,-0.351 -1.949,-1.338 -2.19,-2.332 -0.136,-0.56 -0.11,-0.463 -0.155,-0.977 -0.015,-0.172 0.008,-0.138 0.016,-0.272 0.007,-0.121 0.011,-0.195 0.024,-0.318 0.011,-0.106 0.042,-0.209 0.065,-0.318 0.149,-0.706 0.522,-1.257 1.059,-1.795 0.823,-0.822 1.964,-1.05 3.044,-0.896 0.815,0.116 1.435,0.513 2.044,1.123 0.719,0.718 0.948,1.768 0.943,2.499 -0.004,0.893 -0.432,1.852 -1.079,2.499 m -11.721,6.405 c -0.356,-0.355 -0.622,-0.86 -0.743,-1.227 -0.155,-0.472 -0.2,-0.734 -0.2,-1.203 0,-1.572 0.968,-2.908 2.464,-3.407 0.512,-0.172 0.514,-0.124 0.954,-0.182 0.223,-0.029 0.718,0.029 0.932,0.076 0.805,0.178 1.618,0.67 2.11,1.354 0.084,0.117 0.158,0.223 0.217,0.319 0.119,0.196 0.226,0.435 0.293,0.636 0.361,1.082 0.254,2.152 -0.348,3.135 -0.756,1.233 -2.216,1.833 -3.613,1.618 -0.109,-0.017 -0.205,-0.033 -0.318,-0.067 -0.791,-0.237 -1.103,-0.407 -1.748,-1.052 m -0.84,-12.879 0.159,0.159 c 0.634,0.635 2.064,0.284 2.103,-0.931 0.027,-0.87 -0.87,-1.567 -1.739,-1.25 -0.506,0.184 -0.797,0.623 -0.83,1.136 -0.016,0.246 0.07,0.649 0.307,0.886 m 5.787,14.26 9.905,0 0,-9.627 -9.905,9.627 z"
     id="path7-3"
     inkscape:connector-curvature="0"
     style="clip-rule:evenodd;fill:#00a500;fill-rule:evenodd" /></svg>