<?xml version="1.0" encoding="utf-8"?>
<!-- Generator: Adobe Illustrator 16.0.0, SVG Export Plug-In . SVG Version: 6.00 Build 0)  -->
<!DOCTYPE svg PUBLIC "-//W3C//DTD SVG 1.1//EN" "http://www.w3.org/Graphics/SVG/1.1/DTD/svg11.dtd">
<svg version="1.1" id="Layer_1" xmlns="http://www.w3.org/2000/svg" xmlns:xlink="http://www.w3.org/1999/xlink" x="0px" y="0px"
	 width="20px" height="20px" viewBox="0 0 20 20" enable-background="new 0 0 20 20" xml:space="preserve">
<path fill-rule="evenodd" clip-rule="evenodd" d="M5.581,8.033c0,0.813,0.367,1.158,0.94,1.541c0.521,0.348,1.52,0.907,2.106,1.225
	c0.139,0.074,0.444,0.238,0.581,0.271c0,1.16-0.01,2.322-0.002,3.482c0.004,0.56,0.375,0.827,0.862,0.878
	c0.083,0.01,0.268-0.016,0.353-0.038c0.111-0.026,0.184-0.088,0.253-0.19c0.113-0.168,0.163-0.456,0.163-0.726v-3.221
	c0-0.528-0.038-0.92-0.038-1.444c-0.202-0.107-0.398-0.236-0.599-0.363c-0.206-0.129-0.386-0.239-0.592-0.37
	C9.461,8.985,8.526,8.366,8.395,8.33l0.842-0.897c0.248-0.247,0.599-0.704,0.86-0.88c0.039,0.171,0.443,0.794,0.556,0.963
	c0.23,0.342,0.26,0.666,0.852,0.666c0.423,0,1.892,0.047,2.207-0.05c0.153-0.047,0.147-0.057,0.247-0.16
	c0.257-0.268,0.513-1.074-0.679-1.157c-0.472-0.033-0.615-0.015-1.036-0.004c-0.188,0.006-0.185,0.039-0.369,0.039
	c-0.054-0.232-0.314-0.645-0.432-0.863l-0.464-0.833c-0.149-0.248-0.327-0.58-0.52-0.775C9.342,3.242,8.551,4.306,7.7,5.156
	C7.262,5.594,6.121,6.811,5.841,7.295C5.744,7.462,5.581,7.782,5.581,8.033"/>
<path fill-rule="evenodd" clip-rule="evenodd" d="M15.317,18.436c1.052,0,2.185-0.431,2.915-1.155
	c0.599-0.592,1.268-1.634,1.268-2.805c0-0.993-0.183-1.821-0.751-2.58c-0.754-1.008-1.869-1.751-3.21-1.751
	c-0.876,0-1.628,0.145-2.326,0.599c-0.106,0.07-0.216,0.128-0.313,0.206c-0.11,0.089-0.173,0.146-0.278,0.239
	c-0.115,0.104-0.105,0.056-0.233,0.21c-0.383,0.455-0.325,0.356-0.669,0.922c-0.614,1.008-0.649,2.583-0.118,3.685
	C12.295,17.444,13.751,18.436,15.317,18.436 M15.224,11.363c0.934,0,1.619,0.248,2.194,0.83c0.448,0.45,0.863,1.197,0.863,1.867
	c0,0.611-0.022,1.075-0.346,1.625c-0.68,1.148-1.927,1.763-3.246,1.44c-0.269-0.065-0.569-0.183-0.775-0.31l-0.623-0.464
	c-0.313-0.283-0.665-0.925-0.763-1.374c-0.266-1.214,0.108-2.243,1.093-3.047C14,11.623,14.699,11.363,15.224,11.363z"/>
<path fill-rule="evenodd" clip-rule="evenodd" d="M4.587,18.436c1.054,0,2.186-0.431,2.916-1.155
	c0.599-0.592,1.267-1.634,1.267-2.805c0-0.993-0.181-1.821-0.75-2.58c-0.755-1.008-1.87-1.751-3.21-1.751
	c-0.876,0-1.629,0.145-2.325,0.599c-0.107,0.07-0.217,0.128-0.313,0.206c-0.11,0.089-0.174,0.146-0.277,0.239
	c-0.116,0.104-0.106,0.056-0.235,0.21c-0.381,0.455-0.324,0.356-0.669,0.922c-0.612,1.008-0.648,2.583-0.117,3.685
	C1.564,17.444,3.022,18.436,4.587,18.436 M4.494,11.363c0.934,0,1.619,0.248,2.194,0.83c0.447,0.45,0.863,1.197,0.863,1.867
	c0,0.611-0.022,1.075-0.347,1.625c-0.679,1.148-1.926,1.763-3.245,1.44c-0.269-0.065-0.569-0.183-0.776-0.31l-0.622-0.464
	c-0.313-0.283-0.665-0.925-0.763-1.374c-0.266-1.214,0.108-2.243,1.093-3.047C3.271,11.623,3.971,11.363,4.494,11.363z"/>
<path fill-rule="evenodd" clip-rule="evenodd" d="M10.355,2.925v0.26c0,1.034,1.451,1.914,2.473,0.954
	c0.73-0.687,0.568-1.985-0.398-2.436c-0.562-0.261-1.157-0.141-1.602,0.25C10.615,2.141,10.355,2.54,10.355,2.925"/>
</svg>
